<svg width="129" height="90" viewBox="0 0 129 90" fill="none" xmlns="http://www.w3.org/2000/svg">
<g filter="url(#filter0_f_1401_1828)">
<rect x="16.7998" y="16.7998" width="95.0964" height="56.3921" fill="white"/>
<rect x="17.2998" y="17.2998" width="94.0964" height="55.3921" stroke="black"/>
</g>
<mask id="path-3-outside-1_1401_1828" maskUnits="userSpaceOnUse" x="35.4131" y="33.8076" width="58" height="22" fill="black">
<rect fill="white" x="35.4131" y="33.8076" width="58" height="22"/>
<path d="M42.784 39.396L42.816 39.3C42.944 39.14 43.168 39.14 43.392 39.3C43.552 39.428 43.552 39.46 43.552 40.004C43.552 40.292 43.584 40.708 43.648 40.9C43.712 41.092 43.808 41.54 43.872 41.86C43.936 42.18 44.064 42.692 44.128 42.98C44.224 43.268 44.352 43.844 44.416 44.26C44.544 45.188 44.736 46.18 44.896 46.692C44.96 46.916 45.12 47.556 45.28 48.132C45.6 49.412 45.728 49.86 45.92 50.276C46.176 50.852 46.496 51.812 46.592 52.26C46.688 52.708 46.72 52.804 46.976 53.412C47.136 53.796 47.04 54.052 46.72 54.116C46.336 54.212 46.048 53.732 45.792 52.548C45.76 52.356 45.632 51.972 45.536 51.716C45.44 51.46 45.344 51.14 45.312 51.012C45.28 50.884 45.184 50.628 45.088 50.468C44.896 50.052 44.576 49.06 44.544 48.836C44.544 48.548 44.48 48.548 44.48 48.836C44.48 48.964 44.416 49.252 44.32 49.476C44.224 49.7 44.128 49.956 44.128 50.02C44.096 50.084 43.968 50.308 43.84 50.5C43.712 50.692 43.584 50.852 43.584 50.884C43.584 50.948 43.04 51.46 42.976 51.46C42.944 51.46 42.72 51.588 42.464 51.748C42.24 51.908 41.952 52.068 41.824 52.1C41.568 52.164 41.248 52.292 41.088 52.42C40.736 52.708 39.232 52.676 38.176 52.324C37.28 52.036 36.608 51.204 36.48 50.18C36.416 49.732 36.384 46.756 36.448 46.34C36.704 44.708 37.28 43.172 37.952 42.404C38.08 42.244 38.272 41.956 38.368 41.764C38.464 41.572 38.592 41.38 38.656 41.316C38.72 41.252 38.88 41.06 39.008 40.9C39.328 40.516 39.584 40.452 40.384 40.484C41.504 40.516 42.144 40.644 42.464 40.9C42.56 40.996 42.56 40.964 42.56 40.452C42.56 39.876 42.624 39.556 42.784 39.396ZM41.92 41.54L41.824 41.348L39.904 41.252L39.584 41.668C39.392 41.892 39.2 42.18 39.136 42.308C39.072 42.436 38.912 42.692 38.752 42.884C38.208 43.556 37.536 45.22 37.536 45.86C37.536 45.956 37.504 46.18 37.44 46.34C37.28 46.852 37.344 49.54 37.536 50.276C37.824 51.3 38.304 51.588 39.904 51.652C40.512 51.684 40.544 51.684 41.024 51.46C41.28 51.332 41.536 51.236 41.6 51.236C41.728 51.236 41.984 51.076 42.144 50.916C42.208 50.852 42.336 50.788 42.432 50.756C42.72 50.692 43.328 49.86 43.552 49.252C43.776 48.676 43.808 47.268 43.648 46.852C43.584 46.724 43.488 46.5 43.424 46.34C43.36 46.18 43.264 45.892 43.168 45.732C42.88 44.996 42.784 44.388 42.752 42.884C42.72 41.412 42.72 41.508 42.56 41.636C42.368 41.796 42.144 41.764 41.92 41.54Z"/>
<path d="M50.9355 34.916C51.1275 34.756 51.2875 34.788 51.5435 34.916C51.7675 35.044 51.7995 35.172 51.7995 35.94C51.7995 36.26 51.8315 36.932 51.8955 37.412C52.0555 38.756 52.0555 40.996 51.9275 41.604C51.7995 42.084 51.7035 42.596 51.5755 43.62C51.5435 43.908 51.5115 44.228 51.4795 44.324C51.4155 44.548 51.4475 44.548 52.7275 43.94H53.8475C55.1915 43.94 55.8635 44.036 56.3755 44.292C56.5995 44.388 56.9195 44.548 57.1115 44.612C57.3995 44.74 57.4635 44.804 57.7195 45.188C58.1035 45.86 58.3915 46.244 58.8395 46.66C59.3515 47.108 59.3835 47.14 59.7675 47.94C60.2155 48.868 60.2475 48.932 60.2795 49.38C60.2795 49.604 60.3115 49.988 60.3435 50.244C60.4075 50.564 60.4395 51.236 60.4395 52.132C60.4075 53.476 60.4075 53.508 60.2155 53.86C59.8315 54.66 59.5435 54.756 57.8475 54.788C56.5675 54.788 56.2795 54.756 55.5755 54.5C55.3835 54.436 54.9675 54.372 54.6155 54.34C54.2955 54.308 53.9435 54.244 53.8475 54.212C53.7515 54.148 53.5275 54.116 53.3675 54.116C52.8235 54.116 51.7035 53.7 51.0315 53.092L50.9675 53.284C50.8715 53.7 50.3595 53.796 50.1995 53.444C50.1035 53.252 50.1035 48.932 50.1995 48.228C50.2315 47.972 50.2955 47.172 50.3595 46.436C50.4875 44.74 50.5515 43.876 50.6475 43.268C50.8395 41.988 50.9035 41.572 50.9675 41.348C51.0955 40.836 51.0315 38.148 50.8715 37.124C50.8395 37.028 50.8075 36.516 50.7755 35.076L50.9355 34.916ZM55.5435 44.964V44.836C55.4155 44.804 54.7755 44.772 52.9515 44.74L52.5035 44.964C52.2475 45.092 52.0235 45.188 51.9915 45.188C51.8955 45.188 51.8315 45.764 51.7675 47.076C51.7355 47.876 51.5755 49.668 51.5435 49.732C51.5115 49.764 51.4475 50.18 51.3835 50.628C51.3195 51.108 51.2555 51.524 51.2555 51.556C51.2555 51.588 51.5115 51.908 51.8315 52.26C52.4715 52.932 52.9195 53.156 53.8795 53.252C54.1035 53.284 54.3275 53.316 54.3915 53.348C54.4555 53.38 54.7435 53.412 55.0315 53.444C55.4475 53.476 55.6715 53.54 56.0235 53.668C56.4715 53.86 56.5035 53.86 57.7515 53.892C59.6395 53.924 59.6395 53.924 59.6395 51.908C59.6395 51.172 59.6075 50.5 59.5755 50.308C59.5435 50.148 59.5115 49.796 59.5115 49.54C59.4795 48.836 59.0315 47.972 58.3275 47.332C57.8795 46.916 57.6235 46.596 57.1435 45.86C57.0155 45.668 56.8555 45.508 56.6955 45.444C56.5675 45.38 56.3115 45.252 56.1195 45.188C55.9275 45.092 55.6715 44.996 55.5435 44.964Z"/>
<path d="M66.037 45.22L65.941 45.316C66.485 45.028 66.997 44.996 68.533 45.124C69.781 45.22 70.645 45.924 71.189 47.268C71.477 48.004 71.317 49.796 70.869 50.788C70.773 50.98 70.677 51.236 70.645 51.364C70.453 52.004 69.877 52.868 69.397 53.252C69.077 53.508 69.077 53.508 68.565 53.508C67.957 53.508 67.573 53.412 67.253 53.156C66.709 52.74 66.069 52.132 65.877 51.812C65.781 51.62 65.557 51.268 65.397 51.012C65.077 50.532 65.013 50.436 64.821 49.988C64.725 49.796 64.725 49.796 64.277 49.796C63.573 49.796 63.413 49.444 63.669 48.356C63.733 48.132 63.765 47.876 63.765 47.78C63.765 47.684 63.829 47.524 63.893 47.428C63.957 47.332 64.021 47.204 64.021 47.14C64.021 47.044 64.181 46.724 64.277 46.66C64.309 46.628 64.437 46.436 64.565 46.212C64.789 45.796 65.141 45.508 65.461 45.476C65.525 45.476 65.781 45.348 66.037 45.22ZM68.629 45.988H68.597C66.677 45.892 66.709 45.892 66.453 46.02C65.941 46.276 65.461 46.5 65.397 46.5C65.333 46.5 64.757 47.46 64.757 47.588C64.757 47.652 64.693 47.78 64.629 47.876C64.501 48.068 64.469 48.42 64.565 48.42C64.629 48.42 65.589 49.764 65.589 49.86C65.589 50.18 66.613 51.62 67.189 52.132C67.733 52.612 67.861 52.676 68.501 52.676C68.821 52.676 68.821 52.676 69.013 52.356C69.141 52.196 69.333 51.94 69.429 51.812C69.621 51.524 69.813 51.076 69.813 50.852C69.813 50.788 69.877 50.66 69.941 50.596C70.389 50.02 70.581 48.228 70.293 47.428C70.005 46.66 69.269 46.02 68.629 45.988Z"/>
<path d="M80.237 41.156L80.269 41.092C80.397 40.932 80.685 40.932 80.845 41.092C80.973 41.22 80.973 41.252 80.909 42.5C80.877 43.204 80.813 44.068 80.781 44.388C80.717 44.772 80.685 45.86 80.685 49.668L80.909 50.148C81.037 50.404 81.133 50.66 81.133 50.724C81.133 50.788 81.165 50.916 81.229 51.044C81.293 51.172 81.357 51.396 81.389 51.556C81.421 51.812 81.485 51.908 81.709 52.132C82.125 52.516 82.029 52.836 81.485 52.9C80.941 52.964 80.589 52.58 80.589 51.908C80.589 51.748 80.525 51.524 80.461 51.364C80.397 51.236 80.301 50.98 80.269 50.788C80.237 50.596 80.173 50.372 80.109 50.276C79.949 50.02 79.885 49.572 79.885 48.612C79.885 47.428 79.853 47.396 79.469 48.164C79.309 48.516 79.085 48.9 78.989 49.028C78.893 49.156 78.797 49.284 78.797 49.348C78.797 49.444 78.445 49.924 78.189 50.18C78.061 50.308 77.965 50.436 77.965 50.468C77.965 50.564 77.069 51.172 76.813 51.268C76.045 51.524 75.117 50.916 74.733 49.956C74.509 49.316 74.605 44.164 74.893 43.236C74.957 43.012 75.053 42.66 75.117 42.468C75.277 41.956 75.629 41.796 75.949 42.116C76.109 42.276 76.109 42.276 75.917 42.852C75.693 43.62 75.629 43.908 75.565 44.708C75.469 46.052 75.501 49.38 75.597 49.668C75.725 49.988 76.237 50.468 76.429 50.468C76.717 50.468 77.933 49.476 77.933 49.252C77.933 49.22 78.029 49.06 78.157 48.9C78.413 48.516 78.989 47.428 78.989 47.3C78.989 47.268 79.117 46.98 79.245 46.66C79.501 46.052 79.821 44.932 79.853 44.612C79.853 44.516 79.885 44.228 79.917 44.004C80.013 43.492 80.013 43.396 80.077 42.212C80.109 41.508 80.141 41.252 80.237 41.156Z"/>
<path d="M88.1115 36.708C88.3035 36.516 88.3355 36.516 88.5595 36.612C88.7515 36.708 88.8795 37.06 89.0075 37.828C89.1355 38.66 89.1035 39.172 88.7515 42.148C88.6875 42.756 88.5915 43.492 88.5595 43.78C88.5275 44.068 88.4955 44.452 88.3995 45.028H91.7595L91.9195 45.188C92.1115 45.38 92.1115 45.572 91.9515 45.732C91.8235 45.86 91.7275 45.86 88.3675 45.86L88.3355 46.148C88.3035 46.308 88.2715 46.852 88.2395 47.332C88.2075 47.812 88.1435 48.388 88.1115 48.612C88.0795 48.804 88.0475 49.156 88.0475 49.38C88.0475 49.604 88.0155 49.924 87.9835 50.116C87.8875 50.532 87.7275 51.78 87.7275 52.036C87.7275 52.132 87.6955 52.324 87.6635 52.452C87.6315 52.676 87.6315 52.708 87.7275 52.644C87.7915 52.612 88.3355 52.58 88.9115 52.548C90.2235 52.484 90.4795 52.388 91.0555 51.748C91.4715 51.268 91.5675 51.204 91.8235 51.3C92.2715 51.492 92.1755 51.908 91.5355 52.516C90.9275 53.124 90.0635 53.38 88.7515 53.38C88.6875 53.38 88.3355 53.412 87.9835 53.444C86.7355 53.54 86.7355 53.54 86.9275 51.588C86.9595 51.236 87.0235 50.788 87.0555 50.564C87.0875 50.34 87.1515 49.956 87.1835 49.7C87.2155 49.444 87.3115 48.868 87.3755 48.452C87.4395 48.004 87.5035 47.364 87.5035 46.884C87.5035 46.436 87.5355 46.052 87.5675 45.956C87.6635 45.732 87.6635 45.732 86.4475 45.732C85.2315 45.732 85.1035 45.7 85.1035 45.284C85.1035 44.9 85.2635 44.836 87.6635 44.836L87.6955 44.452C87.7595 43.716 87.8875 42.724 87.9515 42.404C87.9835 42.244 88.0475 41.828 88.0795 41.476C88.1115 41.124 88.1755 40.42 88.2395 39.94C88.3675 38.852 88.3675 38.436 88.2395 37.764C88.0475 36.836 87.9195 36.9 88.1115 36.708Z"/>
</mask>
<path d="M42.784 39.396L42.816 39.3C42.944 39.14 43.168 39.14 43.392 39.3C43.552 39.428 43.552 39.46 43.552 40.004C43.552 40.292 43.584 40.708 43.648 40.9C43.712 41.092 43.808 41.54 43.872 41.86C43.936 42.18 44.064 42.692 44.128 42.98C44.224 43.268 44.352 43.844 44.416 44.26C44.544 45.188 44.736 46.18 44.896 46.692C44.96 46.916 45.12 47.556 45.28 48.132C45.6 49.412 45.728 49.86 45.92 50.276C46.176 50.852 46.496 51.812 46.592 52.26C46.688 52.708 46.72 52.804 46.976 53.412C47.136 53.796 47.04 54.052 46.72 54.116C46.336 54.212 46.048 53.732 45.792 52.548C45.76 52.356 45.632 51.972 45.536 51.716C45.44 51.46 45.344 51.14 45.312 51.012C45.28 50.884 45.184 50.628 45.088 50.468C44.896 50.052 44.576 49.06 44.544 48.836C44.544 48.548 44.48 48.548 44.48 48.836C44.48 48.964 44.416 49.252 44.32 49.476C44.224 49.7 44.128 49.956 44.128 50.02C44.096 50.084 43.968 50.308 43.84 50.5C43.712 50.692 43.584 50.852 43.584 50.884C43.584 50.948 43.04 51.46 42.976 51.46C42.944 51.46 42.72 51.588 42.464 51.748C42.24 51.908 41.952 52.068 41.824 52.1C41.568 52.164 41.248 52.292 41.088 52.42C40.736 52.708 39.232 52.676 38.176 52.324C37.28 52.036 36.608 51.204 36.48 50.18C36.416 49.732 36.384 46.756 36.448 46.34C36.704 44.708 37.28 43.172 37.952 42.404C38.08 42.244 38.272 41.956 38.368 41.764C38.464 41.572 38.592 41.38 38.656 41.316C38.72 41.252 38.88 41.06 39.008 40.9C39.328 40.516 39.584 40.452 40.384 40.484C41.504 40.516 42.144 40.644 42.464 40.9C42.56 40.996 42.56 40.964 42.56 40.452C42.56 39.876 42.624 39.556 42.784 39.396ZM41.92 41.54L41.824 41.348L39.904 41.252L39.584 41.668C39.392 41.892 39.2 42.18 39.136 42.308C39.072 42.436 38.912 42.692 38.752 42.884C38.208 43.556 37.536 45.22 37.536 45.86C37.536 45.956 37.504 46.18 37.44 46.34C37.28 46.852 37.344 49.54 37.536 50.276C37.824 51.3 38.304 51.588 39.904 51.652C40.512 51.684 40.544 51.684 41.024 51.46C41.28 51.332 41.536 51.236 41.6 51.236C41.728 51.236 41.984 51.076 42.144 50.916C42.208 50.852 42.336 50.788 42.432 50.756C42.72 50.692 43.328 49.86 43.552 49.252C43.776 48.676 43.808 47.268 43.648 46.852C43.584 46.724 43.488 46.5 43.424 46.34C43.36 46.18 43.264 45.892 43.168 45.732C42.88 44.996 42.784 44.388 42.752 42.884C42.72 41.412 42.72 41.508 42.56 41.636C42.368 41.796 42.144 41.764 41.92 41.54Z" fill="#D2D2D2"/>
<path d="M50.9355 34.916C51.1275 34.756 51.2875 34.788 51.5435 34.916C51.7675 35.044 51.7995 35.172 51.7995 35.94C51.7995 36.26 51.8315 36.932 51.8955 37.412C52.0555 38.756 52.0555 40.996 51.9275 41.604C51.7995 42.084 51.7035 42.596 51.5755 43.62C51.5435 43.908 51.5115 44.228 51.4795 44.324C51.4155 44.548 51.4475 44.548 52.7275 43.94H53.8475C55.1915 43.94 55.8635 44.036 56.3755 44.292C56.5995 44.388 56.9195 44.548 57.1115 44.612C57.3995 44.74 57.4635 44.804 57.7195 45.188C58.1035 45.86 58.3915 46.244 58.8395 46.66C59.3515 47.108 59.3835 47.14 59.7675 47.94C60.2155 48.868 60.2475 48.932 60.2795 49.38C60.2795 49.604 60.3115 49.988 60.3435 50.244C60.4075 50.564 60.4395 51.236 60.4395 52.132C60.4075 53.476 60.4075 53.508 60.2155 53.86C59.8315 54.66 59.5435 54.756 57.8475 54.788C56.5675 54.788 56.2795 54.756 55.5755 54.5C55.3835 54.436 54.9675 54.372 54.6155 54.34C54.2955 54.308 53.9435 54.244 53.8475 54.212C53.7515 54.148 53.5275 54.116 53.3675 54.116C52.8235 54.116 51.7035 53.7 51.0315 53.092L50.9675 53.284C50.8715 53.7 50.3595 53.796 50.1995 53.444C50.1035 53.252 50.1035 48.932 50.1995 48.228C50.2315 47.972 50.2955 47.172 50.3595 46.436C50.4875 44.74 50.5515 43.876 50.6475 43.268C50.8395 41.988 50.9035 41.572 50.9675 41.348C51.0955 40.836 51.0315 38.148 50.8715 37.124C50.8395 37.028 50.8075 36.516 50.7755 35.076L50.9355 34.916ZM55.5435 44.964V44.836C55.4155 44.804 54.7755 44.772 52.9515 44.74L52.5035 44.964C52.2475 45.092 52.0235 45.188 51.9915 45.188C51.8955 45.188 51.8315 45.764 51.7675 47.076C51.7355 47.876 51.5755 49.668 51.5435 49.732C51.5115 49.764 51.4475 50.18 51.3835 50.628C51.3195 51.108 51.2555 51.524 51.2555 51.556C51.2555 51.588 51.5115 51.908 51.8315 52.26C52.4715 52.932 52.9195 53.156 53.8795 53.252C54.1035 53.284 54.3275 53.316 54.3915 53.348C54.4555 53.38 54.7435 53.412 55.0315 53.444C55.4475 53.476 55.6715 53.54 56.0235 53.668C56.4715 53.86 56.5035 53.86 57.7515 53.892C59.6395 53.924 59.6395 53.924 59.6395 51.908C59.6395 51.172 59.6075 50.5 59.5755 50.308C59.5435 50.148 59.5115 49.796 59.5115 49.54C59.4795 48.836 59.0315 47.972 58.3275 47.332C57.8795 46.916 57.6235 46.596 57.1435 45.86C57.0155 45.668 56.8555 45.508 56.6955 45.444C56.5675 45.38 56.3115 45.252 56.1195 45.188C55.9275 45.092 55.6715 44.996 55.5435 44.964Z" fill="#D2D2D2"/>
<path d="M66.037 45.22L65.941 45.316C66.485 45.028 66.997 44.996 68.533 45.124C69.781 45.22 70.645 45.924 71.189 47.268C71.477 48.004 71.317 49.796 70.869 50.788C70.773 50.98 70.677 51.236 70.645 51.364C70.453 52.004 69.877 52.868 69.397 53.252C69.077 53.508 69.077 53.508 68.565 53.508C67.957 53.508 67.573 53.412 67.253 53.156C66.709 52.74 66.069 52.132 65.877 51.812C65.781 51.62 65.557 51.268 65.397 51.012C65.077 50.532 65.013 50.436 64.821 49.988C64.725 49.796 64.725 49.796 64.277 49.796C63.573 49.796 63.413 49.444 63.669 48.356C63.733 48.132 63.765 47.876 63.765 47.78C63.765 47.684 63.829 47.524 63.893 47.428C63.957 47.332 64.021 47.204 64.021 47.14C64.021 47.044 64.181 46.724 64.277 46.66C64.309 46.628 64.437 46.436 64.565 46.212C64.789 45.796 65.141 45.508 65.461 45.476C65.525 45.476 65.781 45.348 66.037 45.22ZM68.629 45.988H68.597C66.677 45.892 66.709 45.892 66.453 46.02C65.941 46.276 65.461 46.5 65.397 46.5C65.333 46.5 64.757 47.46 64.757 47.588C64.757 47.652 64.693 47.78 64.629 47.876C64.501 48.068 64.469 48.42 64.565 48.42C64.629 48.42 65.589 49.764 65.589 49.86C65.589 50.18 66.613 51.62 67.189 52.132C67.733 52.612 67.861 52.676 68.501 52.676C68.821 52.676 68.821 52.676 69.013 52.356C69.141 52.196 69.333 51.94 69.429 51.812C69.621 51.524 69.813 51.076 69.813 50.852C69.813 50.788 69.877 50.66 69.941 50.596C70.389 50.02 70.581 48.228 70.293 47.428C70.005 46.66 69.269 46.02 68.629 45.988Z" fill="#D2D2D2"/>
<path d="M80.237 41.156L80.269 41.092C80.397 40.932 80.685 40.932 80.845 41.092C80.973 41.22 80.973 41.252 80.909 42.5C80.877 43.204 80.813 44.068 80.781 44.388C80.717 44.772 80.685 45.86 80.685 49.668L80.909 50.148C81.037 50.404 81.133 50.66 81.133 50.724C81.133 50.788 81.165 50.916 81.229 51.044C81.293 51.172 81.357 51.396 81.389 51.556C81.421 51.812 81.485 51.908 81.709 52.132C82.125 52.516 82.029 52.836 81.485 52.9C80.941 52.964 80.589 52.58 80.589 51.908C80.589 51.748 80.525 51.524 80.461 51.364C80.397 51.236 80.301 50.98 80.269 50.788C80.237 50.596 80.173 50.372 80.109 50.276C79.949 50.02 79.885 49.572 79.885 48.612C79.885 47.428 79.853 47.396 79.469 48.164C79.309 48.516 79.085 48.9 78.989 49.028C78.893 49.156 78.797 49.284 78.797 49.348C78.797 49.444 78.445 49.924 78.189 50.18C78.061 50.308 77.965 50.436 77.965 50.468C77.965 50.564 77.069 51.172 76.813 51.268C76.045 51.524 75.117 50.916 74.733 49.956C74.509 49.316 74.605 44.164 74.893 43.236C74.957 43.012 75.053 42.66 75.117 42.468C75.277 41.956 75.629 41.796 75.949 42.116C76.109 42.276 76.109 42.276 75.917 42.852C75.693 43.62 75.629 43.908 75.565 44.708C75.469 46.052 75.501 49.38 75.597 49.668C75.725 49.988 76.237 50.468 76.429 50.468C76.717 50.468 77.933 49.476 77.933 49.252C77.933 49.22 78.029 49.06 78.157 48.9C78.413 48.516 78.989 47.428 78.989 47.3C78.989 47.268 79.117 46.98 79.245 46.66C79.501 46.052 79.821 44.932 79.853 44.612C79.853 44.516 79.885 44.228 79.917 44.004C80.013 43.492 80.013 43.396 80.077 42.212C80.109 41.508 80.141 41.252 80.237 41.156Z" fill="#D2D2D2"/>
<path d="M88.1115 36.708C88.3035 36.516 88.3355 36.516 88.5595 36.612C88.7515 36.708 88.8795 37.06 89.0075 37.828C89.1355 38.66 89.1035 39.172 88.7515 42.148C88.6875 42.756 88.5915 43.492 88.5595 43.78C88.5275 44.068 88.4955 44.452 88.3995 45.028H91.7595L91.9195 45.188C92.1115 45.38 92.1115 45.572 91.9515 45.732C91.8235 45.86 91.7275 45.86 88.3675 45.86L88.3355 46.148C88.3035 46.308 88.2715 46.852 88.2395 47.332C88.2075 47.812 88.1435 48.388 88.1115 48.612C88.0795 48.804 88.0475 49.156 88.0475 49.38C88.0475 49.604 88.0155 49.924 87.9835 50.116C87.8875 50.532 87.7275 51.78 87.7275 52.036C87.7275 52.132 87.6955 52.324 87.6635 52.452C87.6315 52.676 87.6315 52.708 87.7275 52.644C87.7915 52.612 88.3355 52.58 88.9115 52.548C90.2235 52.484 90.4795 52.388 91.0555 51.748C91.4715 51.268 91.5675 51.204 91.8235 51.3C92.2715 51.492 92.1755 51.908 91.5355 52.516C90.9275 53.124 90.0635 53.38 88.7515 53.38C88.6875 53.38 88.3355 53.412 87.9835 53.444C86.7355 53.54 86.7355 53.54 86.9275 51.588C86.9595 51.236 87.0235 50.788 87.0555 50.564C87.0875 50.34 87.1515 49.956 87.1835 49.7C87.2155 49.444 87.3115 48.868 87.3755 48.452C87.4395 48.004 87.5035 47.364 87.5035 46.884C87.5035 46.436 87.5355 46.052 87.5675 45.956C87.6635 45.732 87.6635 45.732 86.4475 45.732C85.2315 45.732 85.1035 45.7 85.1035 45.284C85.1035 44.9 85.2635 44.836 87.6635 44.836L87.6955 44.452C87.7595 43.716 87.8875 42.724 87.9515 42.404C87.9835 42.244 88.0475 41.828 88.0795 41.476C88.1115 41.124 88.1755 40.42 88.2395 39.94C88.3675 38.852 88.3675 38.436 88.2395 37.764C88.0475 36.836 87.9195 36.9 88.1115 36.708Z" fill="#D2D2D2"/>
<path d="M42.784 39.396L42.816 39.3C42.944 39.14 43.168 39.14 43.392 39.3C43.552 39.428 43.552 39.46 43.552 40.004C43.552 40.292 43.584 40.708 43.648 40.9C43.712 41.092 43.808 41.54 43.872 41.86C43.936 42.18 44.064 42.692 44.128 42.98C44.224 43.268 44.352 43.844 44.416 44.26C44.544 45.188 44.736 46.18 44.896 46.692C44.96 46.916 45.12 47.556 45.28 48.132C45.6 49.412 45.728 49.86 45.92 50.276C46.176 50.852 46.496 51.812 46.592 52.26C46.688 52.708 46.72 52.804 46.976 53.412C47.136 53.796 47.04 54.052 46.72 54.116C46.336 54.212 46.048 53.732 45.792 52.548C45.76 52.356 45.632 51.972 45.536 51.716C45.44 51.46 45.344 51.14 45.312 51.012C45.28 50.884 45.184 50.628 45.088 50.468C44.896 50.052 44.576 49.06 44.544 48.836C44.544 48.548 44.48 48.548 44.48 48.836C44.48 48.964 44.416 49.252 44.32 49.476C44.224 49.7 44.128 49.956 44.128 50.02C44.096 50.084 43.968 50.308 43.84 50.5C43.712 50.692 43.584 50.852 43.584 50.884C43.584 50.948 43.04 51.46 42.976 51.46C42.944 51.46 42.72 51.588 42.464 51.748C42.24 51.908 41.952 52.068 41.824 52.1C41.568 52.164 41.248 52.292 41.088 52.42C40.736 52.708 39.232 52.676 38.176 52.324C37.28 52.036 36.608 51.204 36.48 50.18C36.416 49.732 36.384 46.756 36.448 46.34C36.704 44.708 37.28 43.172 37.952 42.404C38.08 42.244 38.272 41.956 38.368 41.764C38.464 41.572 38.592 41.38 38.656 41.316C38.72 41.252 38.88 41.06 39.008 40.9C39.328 40.516 39.584 40.452 40.384 40.484C41.504 40.516 42.144 40.644 42.464 40.9C42.56 40.996 42.56 40.964 42.56 40.452C42.56 39.876 42.624 39.556 42.784 39.396ZM41.92 41.54L41.824 41.348L39.904 41.252L39.584 41.668C39.392 41.892 39.2 42.18 39.136 42.308C39.072 42.436 38.912 42.692 38.752 42.884C38.208 43.556 37.536 45.22 37.536 45.86C37.536 45.956 37.504 46.18 37.44 46.34C37.28 46.852 37.344 49.54 37.536 50.276C37.824 51.3 38.304 51.588 39.904 51.652C40.512 51.684 40.544 51.684 41.024 51.46C41.28 51.332 41.536 51.236 41.6 51.236C41.728 51.236 41.984 51.076 42.144 50.916C42.208 50.852 42.336 50.788 42.432 50.756C42.72 50.692 43.328 49.86 43.552 49.252C43.776 48.676 43.808 47.268 43.648 46.852C43.584 46.724 43.488 46.5 43.424 46.34C43.36 46.18 43.264 45.892 43.168 45.732C42.88 44.996 42.784 44.388 42.752 42.884C42.72 41.412 42.72 41.508 42.56 41.636C42.368 41.796 42.144 41.764 41.92 41.54Z" stroke="url(#paint0_linear_1401_1828)" stroke-width="2" mask="url(#path-3-outside-1_1401_1828)"/>
<path d="M50.9355 34.916C51.1275 34.756 51.2875 34.788 51.5435 34.916C51.7675 35.044 51.7995 35.172 51.7995 35.94C51.7995 36.26 51.8315 36.932 51.8955 37.412C52.0555 38.756 52.0555 40.996 51.9275 41.604C51.7995 42.084 51.7035 42.596 51.5755 43.62C51.5435 43.908 51.5115 44.228 51.4795 44.324C51.4155 44.548 51.4475 44.548 52.7275 43.94H53.8475C55.1915 43.94 55.8635 44.036 56.3755 44.292C56.5995 44.388 56.9195 44.548 57.1115 44.612C57.3995 44.74 57.4635 44.804 57.7195 45.188C58.1035 45.86 58.3915 46.244 58.8395 46.66C59.3515 47.108 59.3835 47.14 59.7675 47.94C60.2155 48.868 60.2475 48.932 60.2795 49.38C60.2795 49.604 60.3115 49.988 60.3435 50.244C60.4075 50.564 60.4395 51.236 60.4395 52.132C60.4075 53.476 60.4075 53.508 60.2155 53.86C59.8315 54.66 59.5435 54.756 57.8475 54.788C56.5675 54.788 56.2795 54.756 55.5755 54.5C55.3835 54.436 54.9675 54.372 54.6155 54.34C54.2955 54.308 53.9435 54.244 53.8475 54.212C53.7515 54.148 53.5275 54.116 53.3675 54.116C52.8235 54.116 51.7035 53.7 51.0315 53.092L50.9675 53.284C50.8715 53.7 50.3595 53.796 50.1995 53.444C50.1035 53.252 50.1035 48.932 50.1995 48.228C50.2315 47.972 50.2955 47.172 50.3595 46.436C50.4875 44.74 50.5515 43.876 50.6475 43.268C50.8395 41.988 50.9035 41.572 50.9675 41.348C51.0955 40.836 51.0315 38.148 50.8715 37.124C50.8395 37.028 50.8075 36.516 50.7755 35.076L50.9355 34.916ZM55.5435 44.964V44.836C55.4155 44.804 54.7755 44.772 52.9515 44.74L52.5035 44.964C52.2475 45.092 52.0235 45.188 51.9915 45.188C51.8955 45.188 51.8315 45.764 51.7675 47.076C51.7355 47.876 51.5755 49.668 51.5435 49.732C51.5115 49.764 51.4475 50.18 51.3835 50.628C51.3195 51.108 51.2555 51.524 51.2555 51.556C51.2555 51.588 51.5115 51.908 51.8315 52.26C52.4715 52.932 52.9195 53.156 53.8795 53.252C54.1035 53.284 54.3275 53.316 54.3915 53.348C54.4555 53.38 54.7435 53.412 55.0315 53.444C55.4475 53.476 55.6715 53.54 56.0235 53.668C56.4715 53.86 56.5035 53.86 57.7515 53.892C59.6395 53.924 59.6395 53.924 59.6395 51.908C59.6395 51.172 59.6075 50.5 59.5755 50.308C59.5435 50.148 59.5115 49.796 59.5115 49.54C59.4795 48.836 59.0315 47.972 58.3275 47.332C57.8795 46.916 57.6235 46.596 57.1435 45.86C57.0155 45.668 56.8555 45.508 56.6955 45.444C56.5675 45.38 56.3115 45.252 56.1195 45.188C55.9275 45.092 55.6715 44.996 55.5435 44.964Z" stroke="url(#paint1_linear_1401_1828)" stroke-width="2" mask="url(#path-3-outside-1_1401_1828)"/>
<path d="M66.037 45.22L65.941 45.316C66.485 45.028 66.997 44.996 68.533 45.124C69.781 45.22 70.645 45.924 71.189 47.268C71.477 48.004 71.317 49.796 70.869 50.788C70.773 50.98 70.677 51.236 70.645 51.364C70.453 52.004 69.877 52.868 69.397 53.252C69.077 53.508 69.077 53.508 68.565 53.508C67.957 53.508 67.573 53.412 67.253 53.156C66.709 52.74 66.069 52.132 65.877 51.812C65.781 51.62 65.557 51.268 65.397 51.012C65.077 50.532 65.013 50.436 64.821 49.988C64.725 49.796 64.725 49.796 64.277 49.796C63.573 49.796 63.413 49.444 63.669 48.356C63.733 48.132 63.765 47.876 63.765 47.78C63.765 47.684 63.829 47.524 63.893 47.428C63.957 47.332 64.021 47.204 64.021 47.14C64.021 47.044 64.181 46.724 64.277 46.66C64.309 46.628 64.437 46.436 64.565 46.212C64.789 45.796 65.141 45.508 65.461 45.476C65.525 45.476 65.781 45.348 66.037 45.22ZM68.629 45.988H68.597C66.677 45.892 66.709 45.892 66.453 46.02C65.941 46.276 65.461 46.5 65.397 46.5C65.333 46.5 64.757 47.46 64.757 47.588C64.757 47.652 64.693 47.78 64.629 47.876C64.501 48.068 64.469 48.42 64.565 48.42C64.629 48.42 65.589 49.764 65.589 49.86C65.589 50.18 66.613 51.62 67.189 52.132C67.733 52.612 67.861 52.676 68.501 52.676C68.821 52.676 68.821 52.676 69.013 52.356C69.141 52.196 69.333 51.94 69.429 51.812C69.621 51.524 69.813 51.076 69.813 50.852C69.813 50.788 69.877 50.66 69.941 50.596C70.389 50.02 70.581 48.228 70.293 47.428C70.005 46.66 69.269 46.02 68.629 45.988Z" stroke="url(#paint2_linear_1401_1828)" stroke-width="2" mask="url(#path-3-outside-1_1401_1828)"/>
<path d="M80.237 41.156L80.269 41.092C80.397 40.932 80.685 40.932 80.845 41.092C80.973 41.22 80.973 41.252 80.909 42.5C80.877 43.204 80.813 44.068 80.781 44.388C80.717 44.772 80.685 45.86 80.685 49.668L80.909 50.148C81.037 50.404 81.133 50.66 81.133 50.724C81.133 50.788 81.165 50.916 81.229 51.044C81.293 51.172 81.357 51.396 81.389 51.556C81.421 51.812 81.485 51.908 81.709 52.132C82.125 52.516 82.029 52.836 81.485 52.9C80.941 52.964 80.589 52.58 80.589 51.908C80.589 51.748 80.525 51.524 80.461 51.364C80.397 51.236 80.301 50.98 80.269 50.788C80.237 50.596 80.173 50.372 80.109 50.276C79.949 50.02 79.885 49.572 79.885 48.612C79.885 47.428 79.853 47.396 79.469 48.164C79.309 48.516 79.085 48.9 78.989 49.028C78.893 49.156 78.797 49.284 78.797 49.348C78.797 49.444 78.445 49.924 78.189 50.18C78.061 50.308 77.965 50.436 77.965 50.468C77.965 50.564 77.069 51.172 76.813 51.268C76.045 51.524 75.117 50.916 74.733 49.956C74.509 49.316 74.605 44.164 74.893 43.236C74.957 43.012 75.053 42.66 75.117 42.468C75.277 41.956 75.629 41.796 75.949 42.116C76.109 42.276 76.109 42.276 75.917 42.852C75.693 43.62 75.629 43.908 75.565 44.708C75.469 46.052 75.501 49.38 75.597 49.668C75.725 49.988 76.237 50.468 76.429 50.468C76.717 50.468 77.933 49.476 77.933 49.252C77.933 49.22 78.029 49.06 78.157 48.9C78.413 48.516 78.989 47.428 78.989 47.3C78.989 47.268 79.117 46.98 79.245 46.66C79.501 46.052 79.821 44.932 79.853 44.612C79.853 44.516 79.885 44.228 79.917 44.004C80.013 43.492 80.013 43.396 80.077 42.212C80.109 41.508 80.141 41.252 80.237 41.156Z" stroke="url(#paint3_linear_1401_1828)" stroke-width="2" mask="url(#path-3-outside-1_1401_1828)"/>
<path d="M88.1115 36.708C88.3035 36.516 88.3355 36.516 88.5595 36.612C88.7515 36.708 88.8795 37.06 89.0075 37.828C89.1355 38.66 89.1035 39.172 88.7515 42.148C88.6875 42.756 88.5915 43.492 88.5595 43.78C88.5275 44.068 88.4955 44.452 88.3995 45.028H91.7595L91.9195 45.188C92.1115 45.38 92.1115 45.572 91.9515 45.732C91.8235 45.86 91.7275 45.86 88.3675 45.86L88.3355 46.148C88.3035 46.308 88.2715 46.852 88.2395 47.332C88.2075 47.812 88.1435 48.388 88.1115 48.612C88.0795 48.804 88.0475 49.156 88.0475 49.38C88.0475 49.604 88.0155 49.924 87.9835 50.116C87.8875 50.532 87.7275 51.78 87.7275 52.036C87.7275 52.132 87.6955 52.324 87.6635 52.452C87.6315 52.676 87.6315 52.708 87.7275 52.644C87.7915 52.612 88.3355 52.58 88.9115 52.548C90.2235 52.484 90.4795 52.388 91.0555 51.748C91.4715 51.268 91.5675 51.204 91.8235 51.3C92.2715 51.492 92.1755 51.908 91.5355 52.516C90.9275 53.124 90.0635 53.38 88.7515 53.38C88.6875 53.38 88.3355 53.412 87.9835 53.444C86.7355 53.54 86.7355 53.54 86.9275 51.588C86.9595 51.236 87.0235 50.788 87.0555 50.564C87.0875 50.34 87.1515 49.956 87.1835 49.7C87.2155 49.444 87.3115 48.868 87.3755 48.452C87.4395 48.004 87.5035 47.364 87.5035 46.884C87.5035 46.436 87.5355 46.052 87.5675 45.956C87.6635 45.732 87.6635 45.732 86.4475 45.732C85.2315 45.732 85.1035 45.7 85.1035 45.284C85.1035 44.9 85.2635 44.836 87.6635 44.836L87.6955 44.452C87.7595 43.716 87.8875 42.724 87.9515 42.404C87.9835 42.244 88.0475 41.828 88.0795 41.476C88.1115 41.124 88.1755 40.42 88.2395 39.94C88.3675 38.852 88.3675 38.436 88.2395 37.764C88.0475 36.836 87.9195 36.9 88.1115 36.708Z" stroke="url(#paint4_linear_1401_1828)" stroke-width="2" mask="url(#path-3-outside-1_1401_1828)"/>
<defs>
<filter id="filter0_f_1401_1828" x="-0.00019455" y="-0.00019455" width="128.697" height="89.9921" filterUnits="userSpaceOnUse" color-interpolation-filters="sRGB">
<feFlood flood-opacity="0" result="BackgroundImageFix"/>
<feBlend mode="normal" in="SourceGraphic" in2="BackgroundImageFix" result="shape"/>
<feGaussianBlur stdDeviation="8.4" result="effect1_foregroundBlur_1401_1828"/>
</filter>
<linearGradient id="paint0_linear_1401_1828" x1="63.6968" y1="42.4252" x2="64.8707" y2="60.963" gradientUnits="userSpaceOnUse">
<stop offset="0.201426" stop-color="#B4B4B4"/>
<stop offset="1" stop-color="#2D2D2D"/>
</linearGradient>
<linearGradient id="paint1_linear_1401_1828" x1="63.6968" y1="42.4252" x2="64.8707" y2="60.963" gradientUnits="userSpaceOnUse">
<stop offset="0.201426" stop-color="#B4B4B4"/>
<stop offset="1" stop-color="#2D2D2D"/>
</linearGradient>
<linearGradient id="paint2_linear_1401_1828" x1="63.6968" y1="42.4252" x2="64.8707" y2="60.963" gradientUnits="userSpaceOnUse">
<stop offset="0.201426" stop-color="#B4B4B4"/>
<stop offset="1" stop-color="#2D2D2D"/>
</linearGradient>
<linearGradient id="paint3_linear_1401_1828" x1="63.6968" y1="42.4252" x2="64.8707" y2="60.963" gradientUnits="userSpaceOnUse">
<stop offset="0.201426" stop-color="#B4B4B4"/>
<stop offset="1" stop-color="#2D2D2D"/>
</linearGradient>
<linearGradient id="paint4_linear_1401_1828" x1="63.6968" y1="42.4252" x2="64.8707" y2="60.963" gradientUnits="userSpaceOnUse">
<stop offset="0.201426" stop-color="#B4B4B4"/>
<stop offset="1" stop-color="#2D2D2D"/>
</linearGradient>
</defs>
</svg>
