<svg width="76" height="90" viewBox="0 0 76 90" fill="none" xmlns="http://www.w3.org/2000/svg">
<g filter="url(#filter0_f_1401_1831)">
<rect x="16.7998" y="16.7998" width="41.6111" height="56.3921" fill="white"/>
<rect x="17.2998" y="17.2998" width="40.6111" height="55.3921" stroke="black"/>
</g>
<mask id="path-3-outside-1_1401_1831" maskUnits="userSpaceOnUse" x="27.6055" y="34.7754" width="20" height="26" fill="black">
<rect fill="white" x="27.6055" y="34.7754" width="20" height="26"/>
<path d="M35.5455 36.5554L35.6055 36.6754C37.4655 36.3154 40.2855 36.5554 41.5455 37.0954C43.3455 37.9354 45.2055 40.6354 45.5055 42.7954C46.2255 47.8354 43.2255 55.9954 40.1655 57.3154C39.8055 57.4954 38.6655 58.2154 38.3055 58.5154C38.1855 58.5754 37.8855 58.6954 37.6455 58.7554C37.4055 58.8154 37.1055 58.9354 36.9855 58.9954C36.2655 59.5354 34.4655 59.6554 33.4455 59.1754C33.1455 59.0554 32.7855 58.9354 32.6655 58.9354C32.1855 58.9354 31.5855 58.2754 30.8055 56.9554C30.5655 56.5354 30.5055 56.2354 30.5055 55.2154C30.5055 54.0154 30.3255 53.2954 29.7855 52.2754C29.4255 51.5554 29.5455 48.6154 30.0255 46.6954C30.1455 46.2754 30.2655 45.6154 30.3255 45.1954C30.5055 43.8154 30.6855 43.2154 31.3455 41.7154C31.5855 41.2354 31.8255 40.5754 31.8855 40.2154C32.0055 39.4954 32.2455 39.1354 33.8055 37.5754C34.7055 36.6754 34.7655 36.6754 35.5455 36.5554ZM39.1455 38.1754L39.0255 37.9954C36.5655 37.6954 35.7255 37.8754 34.6455 38.9554C33.8655 39.7354 33.5055 40.2754 33.2055 41.3554C33.1455 41.6554 32.9655 42.1354 32.7855 42.4954C32.4855 43.0954 32.2455 43.9354 32.0655 44.8954C32.0055 45.2554 31.8255 46.0354 31.7055 46.6354C31.2855 48.6154 31.1055 51.3154 31.3455 51.4954C31.4055 51.5554 31.5255 51.8554 31.6455 52.2154C31.7655 52.5754 31.9455 52.9354 32.0655 52.9954C32.6055 53.4154 32.8455 54.6154 32.4855 54.8554C31.9455 55.2154 32.7855 57.1954 33.5055 57.3154C33.6855 57.3754 34.0455 57.4954 34.2855 57.6154C34.8855 57.9154 35.6055 57.9154 36.2055 57.6154C37.2855 57.0754 37.8855 56.7154 38.1255 56.5354C38.2455 56.4154 38.6655 56.1754 39.0255 55.9954C40.0455 55.5154 42.0855 53.0554 42.0855 52.3354C42.0855 52.2754 42.2655 51.8554 42.4455 51.4954C42.7455 50.8954 43.1055 49.8154 43.5855 48.1354C44.2455 45.6154 44.1255 42.8554 43.3455 41.2954C42.2655 39.1954 41.1855 38.4154 39.1455 38.1754Z"/>
</mask>
<path d="M35.5455 36.5554L35.6055 36.6754C37.4655 36.3154 40.2855 36.5554 41.5455 37.0954C43.3455 37.9354 45.2055 40.6354 45.5055 42.7954C46.2255 47.8354 43.2255 55.9954 40.1655 57.3154C39.8055 57.4954 38.6655 58.2154 38.3055 58.5154C38.1855 58.5754 37.8855 58.6954 37.6455 58.7554C37.4055 58.8154 37.1055 58.9354 36.9855 58.9954C36.2655 59.5354 34.4655 59.6554 33.4455 59.1754C33.1455 59.0554 32.7855 58.9354 32.6655 58.9354C32.1855 58.9354 31.5855 58.2754 30.8055 56.9554C30.5655 56.5354 30.5055 56.2354 30.5055 55.2154C30.5055 54.0154 30.3255 53.2954 29.7855 52.2754C29.4255 51.5554 29.5455 48.6154 30.0255 46.6954C30.1455 46.2754 30.2655 45.6154 30.3255 45.1954C30.5055 43.8154 30.6855 43.2154 31.3455 41.7154C31.5855 41.2354 31.8255 40.5754 31.8855 40.2154C32.0055 39.4954 32.2455 39.1354 33.8055 37.5754C34.7055 36.6754 34.7655 36.6754 35.5455 36.5554ZM39.1455 38.1754L39.0255 37.9954C36.5655 37.6954 35.7255 37.8754 34.6455 38.9554C33.8655 39.7354 33.5055 40.2754 33.2055 41.3554C33.1455 41.6554 32.9655 42.1354 32.7855 42.4954C32.4855 43.0954 32.2455 43.9354 32.0655 44.8954C32.0055 45.2554 31.8255 46.0354 31.7055 46.6354C31.2855 48.6154 31.1055 51.3154 31.3455 51.4954C31.4055 51.5554 31.5255 51.8554 31.6455 52.2154C31.7655 52.5754 31.9455 52.9354 32.0655 52.9954C32.6055 53.4154 32.8455 54.6154 32.4855 54.8554C31.9455 55.2154 32.7855 57.1954 33.5055 57.3154C33.6855 57.3754 34.0455 57.4954 34.2855 57.6154C34.8855 57.9154 35.6055 57.9154 36.2055 57.6154C37.2855 57.0754 37.8855 56.7154 38.1255 56.5354C38.2455 56.4154 38.6655 56.1754 39.0255 55.9954C40.0455 55.5154 42.0855 53.0554 42.0855 52.3354C42.0855 52.2754 42.2655 51.8554 42.4455 51.4954C42.7455 50.8954 43.1055 49.8154 43.5855 48.1354C44.2455 45.6154 44.1255 42.8554 43.3455 41.2954C42.2655 39.1954 41.1855 38.4154 39.1455 38.1754Z" fill="#D2D2D2"/>
<path d="M35.5455 36.5554L36.4399 36.1082L36.1139 35.4562L35.3934 35.567L35.5455 36.5554ZM35.6055 36.6754L34.711 37.1226L35.0504 37.8014L35.7955 37.6572L35.6055 36.6754ZM41.5455 37.0954L41.9684 36.1892L41.954 36.1825L41.9394 36.1762L41.5455 37.0954ZM45.5055 42.7954L44.515 42.933L44.5155 42.9368L45.5055 42.7954ZM40.1655 57.3154L39.7694 56.3972L39.7435 56.4084L39.7183 56.421L40.1655 57.3154ZM38.3055 58.5154L38.7527 59.4098L38.8565 59.3579L38.9457 59.2836L38.3055 58.5154ZM37.6455 58.7554L37.888 59.7255H37.888L37.6455 58.7554ZM36.9855 58.9954L36.5383 58.101L36.4576 58.1413L36.3855 58.1954L36.9855 58.9954ZM33.4455 59.1754L33.8713 58.2706L33.8444 58.2579L33.8169 58.2469L33.4455 59.1754ZM30.8055 56.9554L29.9372 57.4515L29.9408 57.4579L29.9445 57.4641L30.8055 56.9554ZM29.7855 52.2754L28.891 52.7226L28.8962 52.733L28.9017 52.7433L29.7855 52.2754ZM30.0255 46.6954L29.0639 46.4207L29.0594 46.4367L29.0553 46.4529L30.0255 46.6954ZM30.3255 45.1954L31.3155 45.3368L31.3171 45.3247L30.3255 45.1954ZM31.3455 41.7154L30.451 41.2682L30.4401 41.2902L30.4302 41.3127L31.3455 41.7154ZM31.8855 40.2154L32.8719 40.3798V40.3798L31.8855 40.2154ZM33.8055 37.5754L33.0984 36.8683V36.8683L33.8055 37.5754ZM39.1455 38.1754L38.3134 38.7301L38.5697 39.1146L39.0286 39.1685L39.1455 38.1754ZM39.0255 37.9954L39.8575 37.4407L39.6026 37.0584L39.1465 37.0027L39.0255 37.9954ZM34.6455 38.9554L33.9384 38.2483L33.9384 38.2483L34.6455 38.9554ZM33.2055 41.3554L32.242 41.0877L32.2321 41.1232L32.2249 41.1593L33.2055 41.3554ZM32.7855 42.4954L33.6799 42.9426L33.6799 42.9426L32.7855 42.4954ZM32.0655 44.8954L31.0826 44.7111L31.0807 44.721L31.0791 44.731L32.0655 44.8954ZM31.7055 46.6354L32.6838 46.8429L32.686 46.8315L31.7055 46.6354ZM31.3455 51.4954L32.0526 50.7883L32.0023 50.738L31.9455 50.6954L31.3455 51.4954ZM31.6455 52.2154L32.5942 51.8992H32.5942L31.6455 52.2154ZM32.0655 52.9954L32.6794 52.206L32.6012 52.1452L32.5127 52.101L32.0655 52.9954ZM32.4855 54.8554L31.9308 54.0233H31.9308L32.4855 54.8554ZM33.5055 57.3154L33.8217 56.3667L33.7473 56.3419L33.6699 56.329L33.5055 57.3154ZM34.2855 57.6154L33.8383 58.5098L33.8383 58.5098L34.2855 57.6154ZM36.2055 57.6154L36.6527 58.5098H36.6527L36.2055 57.6154ZM38.1255 56.5354L38.7255 57.3354L38.7823 57.2928L38.8326 57.2425L38.1255 56.5354ZM39.0255 55.9954L38.5997 55.0906L38.5889 55.0956L38.5783 55.101L39.0255 55.9954ZM42.4455 51.4954L41.551 51.0482H41.551L42.4455 51.4954ZM43.5855 48.1354L44.547 48.4101L44.55 48.3995L44.5528 48.3887L43.5855 48.1354ZM43.3455 41.2954L44.24 40.8481L44.2348 40.838L43.3455 41.2954ZM35.5455 36.5554L34.651 37.0026L34.711 37.1226L35.6055 36.6754L36.4999 36.2282L36.4399 36.1082L35.5455 36.5554ZM35.6055 36.6754L35.7955 37.6572C36.6116 37.4992 37.6872 37.4668 38.7253 37.5451C39.7799 37.6245 40.6714 37.8088 41.1516 38.0145L41.5455 37.0954L41.9394 36.1762C41.1595 35.842 40.011 35.6363 38.8756 35.5507C37.7237 35.4639 36.4593 35.4916 35.4154 35.6936L35.6055 36.6754ZM41.5455 37.0954L41.1226 38.0016C41.8031 38.3191 42.5944 39.0506 43.266 40.0199C43.9323 40.9815 44.3924 42.0505 44.515 42.933L45.5055 42.7954L46.496 42.6578C46.3185 41.3803 45.6987 40.0192 44.91 38.8809C44.1266 37.7502 43.0878 36.7116 41.9684 36.1892L41.5455 37.0954ZM45.5055 42.7954L44.5155 42.9368C44.844 45.2359 44.3236 48.3609 43.3144 51.1053C42.814 52.4662 42.2088 53.69 41.5652 54.636C40.905 55.6065 40.276 56.1786 39.7694 56.3972L40.1655 57.3154L40.5616 58.2336C41.5849 57.7922 42.4784 56.8493 43.2188 55.761C43.9759 54.6483 44.6495 53.2696 45.1915 51.7955C46.2673 48.8699 46.887 45.3948 46.4954 42.654L45.5055 42.7954ZM40.1655 57.3154L39.7183 56.421C39.4858 56.5372 39.0708 56.7885 38.6964 57.0281C38.3252 57.2657 37.8999 57.5517 37.6653 57.7472L38.3055 58.5154L38.9457 59.2836C39.071 59.1791 39.3958 58.9551 39.7745 58.7127C40.1501 58.4723 40.4852 58.2736 40.6127 58.2098L40.1655 57.3154ZM38.3055 58.5154L37.8583 57.621C37.8413 57.6295 37.7717 57.6607 37.6693 57.6991C37.5697 57.7364 37.4732 57.7677 37.4029 57.7852L37.6455 58.7554L37.888 59.7255C38.2045 59.6464 38.5729 59.4997 38.7527 59.4098L38.3055 58.5154ZM37.6455 58.7554L37.4029 57.7852C37.0865 57.8644 36.7181 58.0111 36.5383 58.101L36.9855 58.9954L37.4327 59.8898C37.4497 59.8813 37.5192 59.8501 37.6216 59.8117C37.7212 59.7744 37.8177 59.7431 37.888 59.7255L37.6455 58.7554ZM36.9855 58.9954L36.3855 58.1954C36.2589 58.2903 35.8649 58.4361 35.2719 58.4695C34.7029 58.5014 34.1798 58.4158 33.8713 58.2706L33.4455 59.1754L33.0197 60.0802C33.7311 60.415 34.6181 60.5093 35.3841 60.4663C36.1261 60.4246 36.9921 60.2405 37.5855 59.7954L36.9855 58.9954ZM33.4455 59.1754L33.8169 58.2469C33.6485 58.1796 33.4597 58.1107 33.2891 58.0568C33.2044 58.03 33.1138 58.0037 33.0267 57.983C32.9614 57.9676 32.82 57.9354 32.6655 57.9354V58.9354V59.9354C32.6063 59.9354 32.5671 59.9289 32.5627 59.9282C32.5534 59.9267 32.5533 59.9262 32.5649 59.929C32.5884 59.9346 32.6291 59.9457 32.6868 59.964C32.8012 60.0001 32.9424 60.0512 33.0741 60.1039L33.4455 59.1754ZM32.6655 58.9354V57.9354C32.8684 57.9354 32.8522 58.0513 32.5796 57.7587C32.3454 57.5073 32.0435 57.0849 31.6664 56.4467L30.8055 56.9554L29.9445 57.4641C30.3474 58.1459 30.7355 58.7134 31.1164 59.1221C31.4587 59.4895 31.9826 59.9354 32.6655 59.9354V58.9354ZM30.8055 56.9554L31.6737 56.4593C31.5982 56.3272 31.5713 56.2557 31.5503 56.1366C31.5219 55.9757 31.5055 55.7229 31.5055 55.2154H30.5055H29.5055C29.5055 55.7279 29.5191 56.1351 29.5807 56.4842C29.6497 56.8751 29.7727 57.1636 29.9372 57.4515L30.8055 56.9554ZM30.5055 55.2154H31.5055C31.5055 53.8555 31.2871 52.9745 30.6693 51.8075L29.7855 52.2754L28.9017 52.7433C29.3639 53.6163 29.5055 54.1753 29.5055 55.2154H30.5055ZM29.7855 52.2754L30.6799 51.8282C30.6846 51.8377 30.632 51.6927 30.6005 51.2917C30.5727 50.9362 30.5682 50.4833 30.5896 49.9776C30.6325 48.9616 30.776 47.8164 30.9956 46.9379L30.0255 46.6954L29.0553 46.4529C28.795 47.4943 28.6384 48.7792 28.5914 49.8932C28.5677 50.4525 28.5707 50.9896 28.6066 51.4479C28.639 51.8606 28.7063 52.3531 28.891 52.7226L29.7855 52.2754ZM30.0255 46.6954L30.987 46.9701C31.1252 46.4862 31.2528 45.7748 31.3154 45.3368L30.3255 45.1954L29.3355 45.054C29.2781 45.456 29.1657 46.0645 29.0639 46.4207L30.0255 46.6954ZM30.3255 45.1954L31.3171 45.3247C31.4825 44.0567 31.6311 43.5491 32.2608 42.1181L31.3455 41.7154L30.4302 41.3127C29.7398 42.8817 29.5285 43.574 29.3339 45.0661L30.3255 45.1954ZM31.3455 41.7154L32.2399 42.1626C32.503 41.6363 32.7891 40.8763 32.8719 40.3798L31.8855 40.2154L30.8991 40.051C30.8618 40.2745 30.6679 40.8344 30.451 41.2682L31.3455 41.7154ZM31.8855 40.2154L32.8719 40.3798C32.9099 40.1517 32.9477 40.0298 33.117 39.7947C33.332 39.4961 33.7233 39.0718 34.5126 38.2825L33.8055 37.5754L33.0984 36.8683C32.3277 37.639 31.819 38.1747 31.4939 38.6261C31.1232 39.1409 30.9811 39.559 30.8991 40.051L31.8855 40.2154ZM33.8055 37.5754L34.5126 38.2825C34.9922 37.8029 35.1311 37.6896 35.2135 37.6429C35.2477 37.6235 35.2585 37.6113 35.6975 37.5438L35.5455 36.5554L35.3934 35.567C35.0525 35.6195 34.6433 35.6672 34.2275 35.9029C33.8598 36.1112 33.5187 36.4479 33.0984 36.8683L33.8055 37.5754ZM39.1455 38.1754L39.9775 37.6207L39.8575 37.4407L39.0255 37.9954L38.1934 38.5501L38.3134 38.7301L39.1455 38.1754ZM39.0255 37.9954L39.1465 37.0027C37.9106 36.852 36.9371 36.7991 36.1046 36.9809C35.206 37.1772 34.5635 37.6232 33.9384 38.2483L34.6455 38.9554L35.3526 39.6625C35.8075 39.2076 36.1249 39.0236 36.5313 38.9349C37.0039 38.8317 37.6803 38.8388 38.9044 38.988L39.0255 37.9954ZM34.6455 38.9554L33.9384 38.2483C33.5235 38.6632 33.1765 39.057 32.8926 39.5207C32.6056 39.9895 32.4088 40.4869 32.242 41.0877L33.2055 41.3554L34.169 41.623C34.3021 41.1438 34.4353 40.8313 34.5983 40.565C34.7644 40.2938 34.9875 40.0276 35.3526 39.6625L34.6455 38.9554ZM33.2055 41.3554L32.2249 41.1593C32.1881 41.3431 32.0472 41.736 31.891 42.0482L32.7855 42.4954L33.6799 42.9426C33.8838 42.5348 34.1028 41.9677 34.186 41.5515L33.2055 41.3554ZM32.7855 42.4954L31.891 42.0482C31.5304 42.7694 31.2695 43.7143 31.0826 44.7111L32.0655 44.8954L33.0483 45.0797C33.2214 44.1565 33.4405 43.4213 33.6799 42.9426L32.7855 42.4954ZM32.0655 44.8954L31.0791 44.731C31.0213 45.0774 30.8578 45.7748 30.7249 46.4393L31.7055 46.6354L32.686 46.8315C32.7931 46.296 32.9896 45.4333 33.0519 45.0598L32.0655 44.8954ZM31.7055 46.6354L30.7272 46.4279C30.5061 47.4702 30.3507 48.6865 30.2805 49.6691C30.2455 50.159 30.23 50.6136 30.242 50.9718C30.2478 51.1469 30.261 51.3302 30.2909 51.4947C30.3055 51.5754 30.3297 51.6835 30.3738 51.7964C30.407 51.8816 30.5049 52.115 30.7455 52.2954L31.3455 51.4954L31.9455 50.6954C32.156 50.8533 32.2272 51.0445 32.2369 51.0694C32.2575 51.122 32.2613 51.1517 32.2587 51.1375C32.2541 51.1121 32.2453 51.0395 32.2409 50.9052C32.2322 50.6446 32.2429 50.2668 32.2754 49.8116C32.3402 48.9043 32.4848 47.7806 32.6837 46.8429L31.7055 46.6354ZM31.3455 51.4954L30.6384 52.2025C30.6001 52.1643 30.5736 52.1309 30.5587 52.1111C30.5428 52.09 30.5317 52.0731 30.5253 52.063C30.5132 52.0438 30.5082 52.0334 30.5103 52.0377C30.5147 52.0462 30.5274 52.073 30.5483 52.1236C30.5891 52.2227 30.6411 52.3644 30.6968 52.5316L31.6455 52.2154L32.5942 51.8992C32.5299 51.7063 32.4619 51.5181 32.3976 51.3621C32.366 51.2853 32.33 51.2034 32.2912 51.1275C32.2705 51.0869 32.1909 50.9266 32.0526 50.7883L31.3455 51.4954ZM31.6455 52.2154L30.6968 52.5316C30.7706 52.7531 30.8658 52.9846 30.9706 53.1836C31.0223 53.2819 31.0869 53.3926 31.1642 53.4963C31.2193 53.5702 31.3689 53.7651 31.6183 53.8898L32.0655 52.9954L32.5127 52.101C32.5709 52.1301 32.6156 52.1604 32.6465 52.1839C32.6779 52.2077 32.7014 52.2292 32.7174 52.2448C32.7481 52.2748 32.7646 52.2968 32.768 52.3013C32.774 52.3095 32.7637 52.2964 32.7404 52.2521C32.6951 52.1662 32.6403 52.0377 32.5942 51.8992L31.6455 52.2154ZM32.0655 52.9954L31.4515 53.7847C31.4412 53.7767 31.4757 53.8029 31.5257 53.8973C31.5725 53.9856 31.612 54.0951 31.6354 54.2037C31.6468 54.2565 31.653 54.3024 31.6554 54.3388C31.6566 54.3568 31.6568 54.3708 31.6566 54.3809C31.6564 54.3911 31.6557 54.3956 31.6559 54.3948C31.6559 54.3942 31.6571 54.3853 31.6613 54.3698C31.6654 54.3545 31.6736 54.3285 31.6893 54.2954C31.7202 54.2304 31.7905 54.1168 31.9308 54.0233L32.4855 54.8554L33.0402 55.6874C33.491 55.3869 33.6065 54.9064 33.6395 54.6504C33.6776 54.354 33.6482 54.0497 33.5905 53.7821C33.4829 53.2833 33.2093 52.6182 32.6794 52.206L32.0655 52.9954ZM32.4855 54.8554L31.9308 54.0233C31.3215 54.4295 31.2994 55.1267 31.3175 55.4337C31.3403 55.8193 31.4567 56.2181 31.6006 56.5618C31.7468 56.9106 31.9493 57.2693 32.1948 57.5671C32.4087 57.8266 32.794 58.2106 33.3411 58.3018L33.5055 57.3154L33.6699 56.329C33.7799 56.3473 33.8318 56.3892 33.8226 56.3824C33.8166 56.3781 33.7863 56.3535 33.738 56.2949C33.6404 56.1765 33.5317 55.9951 33.4453 55.789C33.3568 55.5777 33.3194 55.4065 33.314 55.3158C33.3114 55.2707 33.3196 55.2915 33.3006 55.3534C33.2792 55.4228 33.2122 55.5728 33.0402 55.6874L32.4855 54.8554ZM33.5055 57.3154L33.1892 58.2641C33.2796 58.2942 33.4011 58.3348 33.5273 58.3812C33.6587 58.4297 33.7679 58.4746 33.8383 58.5098L34.2855 57.6154L34.7327 56.721C34.4162 56.5627 33.9822 56.4202 33.8217 56.3667L33.5055 57.3154ZM34.2855 57.6154L33.8383 58.5098C34.7198 58.9506 35.7712 58.9506 36.6527 58.5098L36.2055 57.6154L35.7583 56.721C35.4398 56.8802 35.0512 56.8802 34.7327 56.721L34.2855 57.6154ZM36.2055 57.6154L36.6527 58.5098C37.7373 57.9675 38.4076 57.5738 38.7255 57.3354L38.1255 56.5354L37.5255 55.7354C37.3633 55.857 36.8337 56.1833 35.7583 56.721L36.2055 57.6154ZM38.1255 56.5354L38.8326 57.2425C38.7938 57.2812 38.7788 57.2864 38.8294 57.2519C38.8677 57.2258 38.9231 57.1908 38.9942 57.1488C39.1359 57.0651 39.31 56.9712 39.4727 56.8898L39.0255 55.9954L38.5783 55.101C38.381 55.1996 38.1651 55.3157 37.9767 55.427C37.8272 55.5153 37.5818 55.6649 37.4184 55.8283L38.1255 56.5354ZM39.0255 55.9954L39.4513 56.9002C39.8489 56.7131 40.2587 56.3838 40.6127 56.0566C40.9844 55.7131 41.3646 55.3055 41.7062 54.8956C42.0465 54.4872 42.3648 54.0569 42.6043 53.6646C42.7236 53.4692 42.8339 53.2661 42.9174 53.068C42.9918 52.8912 43.0855 52.6264 43.0855 52.3354H42.0855H41.0855C41.0855 52.2244 41.1153 52.1939 41.0743 52.2914C41.0422 52.3675 40.9852 52.4785 40.8973 52.6224C40.7224 52.9089 40.4669 53.2586 40.1697 53.6152C39.8739 53.9703 39.5528 54.3127 39.2551 54.5879C38.9397 54.8795 38.7121 55.0377 38.5997 55.0906L39.0255 55.9954ZM42.0855 52.3354H43.0855C43.0855 52.4356 43.0694 52.5103 43.066 52.5264C43.0602 52.554 43.0547 52.5731 43.0529 52.579C43.0493 52.5912 43.0487 52.5917 43.0548 52.5752C43.0661 52.5443 43.0868 52.4925 43.1171 52.4218C43.1768 52.2824 43.2586 52.1052 43.3399 51.9426L42.4455 51.4954L41.551 51.0482C41.4523 51.2456 41.3541 51.4584 41.2788 51.634C41.2416 51.7208 41.2061 51.8077 41.1781 51.8837C41.1645 51.9207 41.1483 51.9666 41.1342 52.0147C41.1321 52.0217 41.0855 52.1648 41.0855 52.3354H42.0855ZM42.4455 51.4954L43.3399 51.9426C43.688 51.2464 44.0707 50.0773 44.547 48.4101L43.5855 48.1354L42.6239 47.8607C42.1403 49.5535 41.8029 50.5444 41.551 51.0482L42.4455 51.4954ZM43.5855 48.1354L44.5528 48.3887C44.908 47.0327 45.0534 45.6146 45.0048 44.3179C44.9567 43.0349 44.7158 41.8 44.2399 40.8482L43.3455 41.2954L42.451 41.7426C42.7551 42.3508 42.9643 43.2759 43.0062 44.3929C43.0475 45.4961 42.9229 46.7181 42.6181 47.882L43.5855 48.1354ZM43.3455 41.2954L44.2348 40.838C43.66 39.7205 43.0337 38.8496 42.1996 38.2335C41.3544 37.6092 40.389 37.3148 39.2623 37.1822L39.1455 38.1754L39.0286 39.1685C39.9419 39.276 40.5365 39.4916 41.0113 39.8423C41.4973 40.2012 41.9509 40.7703 42.4562 41.7527L43.3455 41.2954Z" fill="url(#paint0_linear_1401_1831)" mask="url(#path-3-outside-1_1401_1831)"/>
<defs>
<filter id="filter0_f_1401_1831" x="-0.00019455" y="-0.00019455" width="75.2108" height="89.9921" filterUnits="userSpaceOnUse" color-interpolation-filters="sRGB">
<feFlood flood-opacity="0" result="BackgroundImageFix"/>
<feBlend mode="normal" in="SourceGraphic" in2="BackgroundImageFix" result="shape"/>
<feGaussianBlur stdDeviation="8.4" result="effect1_foregroundBlur_1401_1831"/>
</filter>
<linearGradient id="paint0_linear_1401_1831" x1="37.3741" y1="37.7524" x2="46.3005" y2="70.3979" gradientUnits="userSpaceOnUse">
<stop offset="0.00214007" stop-color="#B4B4B4"/>
<stop offset="1" stop-color="#4F4F4F"/>
</linearGradient>
</defs>
</svg>
