<svg width="175" height="90" viewBox="0 0 175 90" fill="none" xmlns="http://www.w3.org/2000/svg">
<g filter="url(#filter0_f_1401_1829)">
<rect x="16.7998" y="16.7998" width="141.32" height="56.3921" fill="white"/>
<rect x="17.2998" y="17.2998" width="140.32" height="55.3921" stroke="black"/>
</g>
<mask id="path-3-outside-1_1401_1829" maskUnits="userSpaceOnUse" x="29.0264" y="35.5488" width="116" height="26" fill="black">
<rect fill="white" x="29.0264" y="35.5488" width="116" height="26"/>
<path d="M32.7474 40.7719V40.6759C33.1314 40.4839 34.5714 40.4519 35.2114 40.6119C35.4034 40.6759 35.6274 40.7079 35.6914 40.7079C35.7554 40.6759 35.9474 40.7079 36.1074 40.7719C36.2674 40.8359 36.4274 40.8999 36.4594 40.8999C36.5554 40.8999 36.9074 41.0279 37.1954 41.1559C37.7394 41.3799 39.3714 43.0439 39.5634 43.5559C39.8514 44.2599 39.8834 44.6759 39.6594 44.8679C39.3074 45.2199 38.9234 44.9639 38.8274 44.3239C38.7634 43.8119 38.5714 43.4919 37.7074 42.6279C37.0674 41.9879 36.9394 41.8919 36.5874 41.8279C36.4594 41.7959 36.2034 41.7319 36.0114 41.6359C35.3714 41.4119 34.5714 41.2839 33.1314 41.3159L32.7154 41.7319C32.4914 41.9559 32.2034 42.3079 32.1074 42.5319C31.6594 43.3959 31.5634 43.5879 31.5634 43.7159C31.5634 43.7799 31.5314 43.9079 31.4994 43.9719C31.4034 44.1639 31.2434 44.8359 31.2114 45.2519C31.2114 45.4439 31.1794 45.7639 31.1794 45.9559C30.7314 50.5959 30.7634 51.1079 31.4994 51.7479C31.6914 51.9079 31.8834 52.0359 31.9154 52.0359C31.9794 52.0359 32.1714 52.0999 32.3634 52.1959C32.5554 52.2919 32.8114 52.3879 32.9394 52.3879C33.0354 52.4199 33.1954 52.4839 33.2914 52.5479C33.3874 52.6119 33.5474 52.6759 33.6434 52.6759C33.7394 52.6759 33.8994 52.7079 33.9634 52.7719C34.0594 52.8359 34.4114 52.8999 35.0194 52.9319C36.3954 53.0279 36.6834 53.0279 37.0034 52.8679C37.1634 52.8039 37.4514 52.6439 37.6434 52.5479C37.8354 52.4519 38.0594 52.2919 38.1554 52.2279C38.2514 52.1319 38.4434 51.9719 38.6034 51.8759C38.8594 51.6839 39.0194 51.4279 39.0194 51.2039C39.0194 51.0759 39.1794 50.7879 39.4034 50.4679C39.4674 50.3719 39.5314 50.1479 39.5634 49.9879C39.6274 49.4439 39.8514 48.8039 40.0114 48.7079C40.2034 48.5799 40.4594 48.6759 40.5554 48.8999C40.6514 49.1879 40.3314 50.6919 40.1394 50.9159C40.0754 50.9799 39.9474 51.2679 39.8514 51.5559C39.5954 52.2279 39.4034 52.4839 38.7634 52.9319C38.3474 53.2199 38.3154 53.2519 37.0674 53.9239H36.2994C35.1794 53.9239 34.0914 53.8279 33.8034 53.6999C33.7394 53.6679 33.5794 53.6359 33.4194 53.6039C33.2914 53.5719 33.0674 53.5079 32.9394 53.4439C32.6514 53.2839 31.8514 52.9639 31.4994 52.8679C30.8274 52.6759 30.2514 51.9399 30.0594 51.0439C29.9634 50.5319 30.0914 47.2359 30.2514 46.3719C30.2834 46.2119 30.3154 45.8279 30.3474 45.5399C30.3794 44.8679 30.5394 44.1319 30.6994 43.7799C30.7634 43.6199 30.8274 43.4599 30.8274 43.4279C30.8274 43.2679 31.4034 42.1479 31.6274 41.8599C31.7234 41.7319 31.8514 41.5399 31.9154 41.4119C31.9794 41.3159 32.0754 41.2519 32.1394 41.2519C32.2034 41.2519 32.2674 41.1879 32.3314 41.0919C32.3954 40.9959 32.5554 40.8679 32.7474 40.7719Z"/>
<path d="M50.1767 39.3959L50.2087 39.2999C50.3367 39.1399 50.5607 39.1399 50.7847 39.2999C50.9447 39.4279 50.9447 39.4599 50.9447 40.0039C50.9447 40.2919 50.9767 40.7079 51.0407 40.8999C51.1047 41.0919 51.2007 41.5399 51.2647 41.8599C51.3287 42.1799 51.4567 42.6919 51.5207 42.9799C51.6167 43.2679 51.7447 43.8439 51.8087 44.2599C51.9367 45.1879 52.1287 46.1799 52.2887 46.6919C52.3527 46.9159 52.5127 47.5559 52.6727 48.1319C52.9927 49.4119 53.1207 49.8599 53.3127 50.2759C53.5687 50.8519 53.8887 51.8119 53.9847 52.2599C54.0807 52.7079 54.1127 52.8039 54.3687 53.4119C54.5287 53.7959 54.4327 54.0519 54.1127 54.1159C53.7287 54.2119 53.4407 53.7319 53.1847 52.5479C53.1527 52.3559 53.0247 51.9719 52.9287 51.7159C52.8327 51.4599 52.7367 51.1399 52.7047 51.0119C52.6727 50.8839 52.5767 50.6279 52.4807 50.4679C52.2887 50.0519 51.9687 49.0599 51.9367 48.8359C51.9367 48.5479 51.8727 48.5479 51.8727 48.8359C51.8727 48.9639 51.8087 49.2519 51.7127 49.4759C51.6167 49.6999 51.5207 49.9559 51.5207 50.0199C51.4887 50.0839 51.3607 50.3079 51.2327 50.4999C51.1047 50.6919 50.9767 50.8519 50.9767 50.8839C50.9767 50.9479 50.4327 51.4599 50.3687 51.4599C50.3367 51.4599 50.1127 51.5879 49.8567 51.7479C49.6327 51.9079 49.3447 52.0679 49.2167 52.0999C48.9607 52.1639 48.6407 52.2919 48.4807 52.4199C48.1287 52.7079 46.6247 52.6759 45.5687 52.3239C44.6727 52.0359 44.0007 51.2039 43.8727 50.1799C43.8087 49.7319 43.7767 46.7559 43.8407 46.3399C44.0967 44.7079 44.6727 43.1719 45.3447 42.4039C45.4727 42.2439 45.6647 41.9559 45.7607 41.7639C45.8567 41.5719 45.9847 41.3799 46.0487 41.3159C46.1127 41.2519 46.2727 41.0599 46.4007 40.8999C46.7207 40.5159 46.9767 40.4519 47.7767 40.4839C48.8967 40.5159 49.5367 40.6439 49.8567 40.8999C49.9527 40.9959 49.9527 40.9639 49.9527 40.4519C49.9527 39.8759 50.0167 39.5559 50.1767 39.3959ZM49.3127 41.5399L49.2167 41.3479L47.2967 41.2519L46.9767 41.6679C46.7847 41.8919 46.5927 42.1799 46.5287 42.3079C46.4647 42.4359 46.3047 42.6919 46.1447 42.8839C45.6007 43.5559 44.9287 45.2199 44.9287 45.8599C44.9287 45.9559 44.8967 46.1799 44.8327 46.3399C44.6727 46.8519 44.7367 49.5399 44.9287 50.2759C45.2167 51.2999 45.6967 51.5879 47.2967 51.6519C47.9047 51.6839 47.9367 51.6839 48.4167 51.4599C48.6727 51.3319 48.9287 51.2359 48.9927 51.2359C49.1207 51.2359 49.3767 51.0759 49.5367 50.9159C49.6007 50.8519 49.7287 50.7879 49.8247 50.7559C50.1127 50.6919 50.7207 49.8599 50.9447 49.2519C51.1687 48.6759 51.2007 47.2679 51.0407 46.8519C50.9767 46.7239 50.8807 46.4999 50.8167 46.3399C50.7527 46.1799 50.6567 45.8919 50.5607 45.7319C50.2727 44.9959 50.1767 44.3879 50.1447 42.8839C50.1127 41.4119 50.1127 41.5079 49.9527 41.6359C49.7607 41.7959 49.5367 41.7639 49.3127 41.5399Z"/>
<path d="M60.5042 36.7079C60.6962 36.5159 60.7282 36.5159 60.9522 36.6119C61.1442 36.7079 61.2722 37.0599 61.4002 37.8279C61.5282 38.6599 61.4962 39.1719 61.1442 42.1479C61.0802 42.7559 60.9842 43.4919 60.9522 43.7799C60.9202 44.0679 60.8882 44.4519 60.7922 45.0279H64.1522L64.3122 45.1879C64.5042 45.3799 64.5042 45.5719 64.3442 45.7319C64.2162 45.8599 64.1202 45.8599 60.7602 45.8599L60.7282 46.1479C60.6962 46.3079 60.6642 46.8519 60.6322 47.3319C60.6002 47.8119 60.5362 48.3879 60.5042 48.6119C60.4722 48.8039 60.4402 49.1559 60.4402 49.3799C60.4402 49.6039 60.4082 49.9239 60.3762 50.1159C60.2802 50.5319 60.1202 51.7799 60.1202 52.0359C60.1202 52.1319 60.0882 52.3239 60.0562 52.4519C60.0242 52.6759 60.0242 52.7079 60.1202 52.6439C60.1842 52.6119 60.7282 52.5799 61.3042 52.5479C62.6162 52.4839 62.8722 52.3879 63.4482 51.7479C63.8642 51.2679 63.9602 51.2039 64.2162 51.2999C64.6642 51.4919 64.5682 51.9079 63.9282 52.5159C63.3202 53.1239 62.4562 53.3799 61.1442 53.3799C61.0802 53.3799 60.7282 53.4119 60.3762 53.4439C59.1282 53.5399 59.1282 53.5399 59.3202 51.5879C59.3522 51.2359 59.4162 50.7879 59.4482 50.5639C59.4802 50.3399 59.5442 49.9559 59.5762 49.6999C59.6082 49.4439 59.7042 48.8679 59.7682 48.4519C59.8322 48.0039 59.8962 47.3639 59.8962 46.8839C59.8962 46.4359 59.9282 46.0519 59.9602 45.9559C60.0562 45.7319 60.0562 45.7319 58.8402 45.7319C57.6242 45.7319 57.4962 45.6999 57.4962 45.2839C57.4962 44.8999 57.6562 44.8359 60.0562 44.8359L60.0882 44.4519C60.1522 43.7159 60.2802 42.7239 60.3442 42.4039C60.3762 42.2439 60.4402 41.8279 60.4722 41.4759C60.5042 41.1239 60.5682 40.4199 60.6322 39.9399C60.7602 38.8519 60.7602 38.4359 60.6322 37.7639C60.4402 36.8359 60.3122 36.8999 60.5042 36.7079Z"/>
<path d="M72.0022 41.4439H72.0342C72.4822 41.2839 73.7622 41.6359 73.9542 41.9559C74.0502 42.1479 74.0822 43.4599 74.0182 43.6839C73.9862 43.7799 73.8902 44.0999 73.8262 44.4199C73.7302 44.9319 73.5702 45.3159 73.1542 46.0519C72.7702 46.7559 72.5462 47.1079 72.3542 47.3319C72.2262 47.4599 72.1302 47.5879 72.1302 47.6199C72.1302 47.6519 72.0022 47.8439 71.8422 48.0359C71.6822 48.2279 71.3942 48.5799 71.2022 48.8039C71.0102 49.0279 70.8182 49.2199 70.7862 49.2199C70.7542 49.2199 70.6262 49.3479 70.4982 49.4759C70.3062 49.6999 70.2102 49.7319 70.0502 49.7319C69.5382 49.6679 69.5062 49.0279 69.9862 48.7399C70.5302 48.4199 72.0662 46.4999 72.1942 45.9879C72.2262 45.8919 72.2902 45.7639 72.3222 45.7319C72.5462 45.5399 72.8982 44.7399 72.9302 44.2919C72.9622 44.0359 73.0262 43.7479 73.0902 43.6519C73.1542 43.5239 73.1862 43.2679 73.1862 42.9479C73.1862 42.4359 73.1862 42.4359 73.0262 42.4039C71.7782 42.0519 69.1862 43.2679 68.8022 44.3879C68.6742 44.7079 68.6742 48.5159 68.8022 48.8039C68.8662 48.9319 68.9302 49.2199 68.9622 49.4119C69.0262 49.8599 69.1862 50.3399 69.4422 50.8199C69.5382 51.0119 69.6022 51.2039 69.6022 51.2679C69.6022 51.3959 70.2742 51.9719 70.5942 52.1319C71.8742 52.8039 73.7302 53.2519 74.4342 53.0599C74.8822 52.9319 75.2342 52.2919 75.2982 51.4279C75.3622 50.8199 75.4262 50.6919 75.7462 50.6919C76.2902 50.6919 76.3222 51.6839 75.8422 52.8999C75.4582 53.7959 74.5302 54.0839 72.9622 53.7959C72.7382 53.7639 72.4502 53.6999 72.3222 53.6999C72.0982 53.6679 70.8182 53.1559 70.0822 52.8359C69.6022 52.6119 68.9302 51.9719 68.7702 51.5879C68.2262 50.3399 68.1942 50.2119 68.0342 49.4119C68.0022 49.1879 67.9382 48.8999 67.9062 48.7719C67.8102 48.4839 67.7782 44.5479 67.8742 44.2279C68.0662 43.4919 68.8982 42.6279 69.9862 42.0839C70.3702 41.8919 71.7782 41.4119 71.8422 41.4759C71.8742 41.4759 71.9382 41.4759 72.0022 41.4439Z"/>
<path d="M86.3807 43.3319L86.3487 43.1399C86.5407 43.0439 87.0207 43.0759 87.4047 43.2359C87.7567 43.3639 88.2687 43.9079 88.4287 44.3239C88.4607 44.4199 88.5247 44.5799 88.5567 44.6439C88.5887 44.7079 88.6207 44.8039 88.6207 44.8679C88.6207 44.9319 88.6847 45.0599 88.7807 45.1559C88.9407 45.3159 88.9407 45.3159 88.9087 45.8599C88.8767 46.1479 88.8447 46.5639 88.8447 46.7879C88.8127 47.5559 88.4927 49.2199 88.3327 49.4759C88.2687 49.6039 88.1087 50.2439 87.9167 51.2039C87.8847 51.3959 87.8527 51.7479 87.8207 52.0039C87.7887 52.2599 87.7567 52.4839 87.7567 52.5159C87.7567 52.5479 87.7567 52.7079 87.7567 53.1879H88.0447C88.2047 53.1879 88.5247 53.1559 88.7487 53.1239C88.9727 53.0919 89.3567 53.0279 89.5807 52.9959C89.8047 52.9639 90.1247 52.8679 90.2527 52.7719C90.4127 52.7079 90.5727 52.6439 90.6367 52.6439C90.7007 52.6439 90.7967 52.6119 90.8607 52.5799C90.9247 52.5479 91.2127 52.4199 91.5007 52.3239C92.1087 52.0999 92.5247 51.7799 92.5567 51.5559C92.6207 51.1399 93.1007 51.0759 93.3567 51.4599C93.7407 52.0359 92.9087 52.8359 91.3087 53.4119C90.5727 53.6679 90.1887 53.7959 89.9647 53.8279C89.8367 53.8599 89.4207 53.9239 89.0687 53.9559C88.7167 54.0199 88.2687 54.0519 87.6927 54.0519V54.8519C87.6927 55.6519 87.5327 56.8039 87.4047 56.9639C87.3727 56.9959 87.3407 57.0919 87.3087 57.1879C87.2767 57.2839 87.1167 57.5719 86.9567 57.8279C86.7967 58.0839 86.6687 58.3399 86.6687 58.4039C86.6687 58.5959 86.0287 59.3959 85.6447 59.6839C84.9407 60.1959 84.3967 60.3559 83.2127 60.3879C82.2527 60.4199 82.1887 60.4199 81.8047 60.2599C81.4207 60.0999 80.4287 59.4279 80.4287 59.2999C80.4287 59.2679 80.3647 59.1399 80.2687 59.0439C79.8207 58.4679 79.3727 57.1559 79.3727 56.4199C79.3727 55.7479 79.5007 55.4599 79.9167 55.1399C80.0767 55.0119 80.2687 54.8519 80.3327 54.7879C80.8127 54.4359 81.4847 54.1159 81.9327 54.0199C82.0607 53.9879 82.4447 53.8919 82.7647 53.8279C83.0847 53.7639 83.5967 53.6679 83.8847 53.6359C84.1727 53.6039 84.8127 53.5079 85.2927 53.4439C85.7727 53.3799 86.3487 53.3159 86.9247 53.3159L86.9887 53.0919C87.0207 52.9639 87.0207 52.7719 87.0207 52.6439C86.9887 52.5159 86.9887 52.2919 87.0527 52.1639C87.0847 52.0359 87.1167 51.7159 87.1807 51.0119H86.7647C85.1007 51.0119 84.3327 50.4359 84.0127 48.8999C83.9487 48.6439 83.8527 48.3559 83.7887 48.2599C83.5007 47.7159 83.7247 45.9239 84.1727 45.0919C84.6527 44.1959 84.8767 43.9719 85.5807 43.6839C85.9327 43.5239 86.2847 43.3639 86.3807 43.3319ZM87.1167 44.0039V44.0359C86.6687 43.8759 85.7087 44.2599 85.3247 44.7399C84.7487 45.4119 84.4607 46.2759 84.6847 46.5639C84.8127 46.7239 84.8127 46.7879 84.7487 46.9159C84.6207 47.1719 84.6527 48.0999 84.7807 48.2919C85.1007 48.7719 85.6447 49.1879 85.9647 49.1879C86.2527 49.1879 87.4367 47.8119 87.4367 47.4599C87.4367 47.4279 87.5327 47.2359 87.6287 47.0759C87.7247 46.9159 87.8207 46.7239 87.8207 46.6599C87.8207 46.5959 87.8847 46.4679 87.9167 46.3399C88.1727 45.8279 87.5967 44.1639 87.1167 44.0039ZM87.2387 49.9622L87.4047 49.2839C87.4687 49.0279 87.4687 49.0279 87.3407 49.2199C87.2767 49.2839 87.0847 49.5079 86.8927 49.6999C86.5407 50.0519 86.5407 50.0519 86.7327 50.0519C86.9567 50.0519 87.1747 50.2822 87.2387 49.9622ZM86.8287 54.6279L86.7647 53.9559H86.4127C85.9327 53.9559 84.9087 54.1159 84.7487 54.2119C84.6847 54.2439 84.4287 54.2759 84.1727 54.2759C83.7567 54.2759 83.3727 54.3399 82.2207 54.6279C81.7727 54.7239 81.1967 54.9799 80.9087 55.2039C80.8127 55.2999 80.6527 55.4279 80.5567 55.4919C79.9807 55.7799 79.9487 56.2599 80.3967 57.4119C80.8127 58.4679 81.2287 58.9479 81.9967 59.2679C82.7007 59.5559 84.3967 59.3639 85.0367 58.9159C85.1007 58.8519 85.2607 58.7559 85.3567 58.6919C85.5807 58.5319 85.9007 58.0519 85.9647 57.7959C85.9967 57.6999 86.1247 57.4759 86.2527 57.3159C86.6687 56.6759 86.8287 55.9079 86.8287 54.6279Z"/>
<path d="M99.2109 45.2199L99.1149 45.3159C99.6589 45.0279 100.171 44.9959 101.707 45.1239C102.955 45.2199 103.819 45.9239 104.363 47.2679C104.651 48.0039 104.491 49.7959 104.043 50.7879C103.947 50.9799 103.851 51.2359 103.819 51.3639C103.627 52.0039 103.051 52.8679 102.571 53.2519C102.251 53.5079 102.251 53.5079 101.739 53.5079C101.131 53.5079 100.747 53.4119 100.427 53.1559C99.8829 52.7399 99.2429 52.1319 99.0509 51.8119C98.9549 51.6199 98.7309 51.2679 98.5709 51.0119C98.2509 50.5319 98.1869 50.4359 97.9949 49.9879C97.8989 49.7959 97.8989 49.7959 97.4509 49.7959C96.7469 49.7959 96.5869 49.4439 96.8429 48.3559C96.9069 48.1319 96.9389 47.8759 96.9389 47.7799C96.9389 47.6839 97.0029 47.5239 97.0669 47.4279C97.1309 47.3319 97.1949 47.2039 97.1949 47.1399C97.1949 47.0439 97.3549 46.7239 97.4509 46.6599C97.4829 46.6279 97.6109 46.4359 97.7389 46.2119C97.9629 45.7959 98.3149 45.5079 98.6349 45.4759C98.6989 45.4759 98.9549 45.3479 99.2109 45.2199ZM101.803 45.9879H101.771C99.8509 45.8919 99.8829 45.8919 99.6269 46.0199C99.1149 46.2759 98.6349 46.4999 98.5709 46.4999C98.5069 46.4999 97.9309 47.4599 97.9309 47.5879C97.9309 47.6519 97.8669 47.7799 97.8029 47.8759C97.6749 48.0679 97.6429 48.4199 97.7389 48.4199C97.8029 48.4199 98.7629 49.7639 98.7629 49.8599C98.7629 50.1799 99.7869 51.6199 100.363 52.1319C100.907 52.6119 101.035 52.6759 101.675 52.6759C101.995 52.6759 101.995 52.6759 102.187 52.3559C102.315 52.1959 102.507 51.9399 102.603 51.8119C102.795 51.5239 102.987 51.0759 102.987 50.8519C102.987 50.7879 103.051 50.6599 103.115 50.5959C103.563 50.0199 103.755 48.2279 103.467 47.4279C103.179 46.6599 102.443 46.0199 101.803 45.9879Z"/>
<path d="M107.907 43.2039C108.099 43.0119 108.323 43.0439 108.515 43.1719C108.611 43.2679 108.739 43.8439 108.995 45.3479L109.219 45.1239C109.443 44.8999 109.763 44.8039 110.915 44.5799C111.651 44.4199 113.827 44.4199 114.339 44.5799C114.819 44.7399 115.075 44.9319 115.235 45.2519C115.299 45.3799 115.395 45.5719 115.459 45.6679C115.555 45.8279 115.811 46.6919 115.811 46.8519C115.811 46.9479 115.491 47.2039 115.363 47.2039C115.171 47.2039 114.947 46.9479 114.883 46.6279C114.819 46.1479 114.403 45.5079 114.115 45.3799C113.635 45.1879 111.075 45.2199 110.819 45.4119C110.787 45.4439 110.627 45.4759 110.467 45.4759C110.307 45.5079 110.147 45.5399 110.147 45.5719C110.115 45.6039 110.019 45.6359 109.923 45.6359C109.731 45.6359 109.443 45.9239 109.379 46.1799C109.347 46.2759 109.315 47.8439 109.315 49.6679C109.315 53.3159 109.347 53.1239 108.899 53.1239C108.515 53.1239 108.483 53.0279 108.419 50.9479C108.387 49.9239 108.323 48.9639 108.291 48.8359C108.259 48.7079 108.227 48.1639 108.227 47.5879C108.227 47.0119 108.195 46.4999 108.163 46.4359C108.131 46.3719 108.099 45.9879 108.067 45.6039C108.035 45.2199 107.939 44.6439 107.875 44.3239C107.715 43.5239 107.715 43.3959 107.907 43.2039Z"/>
<path d="M119.926 42.3399L119.894 42.1799C119.99 42.0199 120.31 41.9879 120.502 42.1479C120.598 42.2439 120.598 42.3399 120.598 42.9799C120.598 43.9399 120.534 44.9959 120.47 45.0919C120.438 45.1239 120.406 45.5399 120.374 45.9879C120.342 46.4359 120.278 47.0119 120.214 47.2679C120.15 47.4919 120.086 48.0999 120.054 48.6119C120.022 49.1239 119.99 49.5719 119.99 49.6359C119.926 49.7639 119.83 50.7239 119.766 51.8439C119.734 53.0279 119.702 53.0919 119.318 53.0919C118.934 53.0919 118.87 52.8679 118.902 51.7479C118.902 51.2039 118.934 50.6279 118.998 50.4679C119.126 49.9559 119.222 49.1239 119.286 48.2279C119.318 47.7799 119.382 47.3319 119.414 47.2359C119.446 47.1399 119.51 46.6919 119.542 46.2439C119.574 45.7959 119.638 45.3159 119.67 45.1879C119.702 45.0599 119.766 44.3879 119.798 43.7159C119.83 42.8519 119.862 42.4679 119.926 42.3399Z"/>
<path d="M128.096 41.4439H128.128C128.576 41.2839 129.856 41.6359 130.048 41.9559C130.144 42.1479 130.176 43.4599 130.112 43.6839C130.08 43.7799 129.984 44.0999 129.92 44.4199C129.824 44.9319 129.664 45.3159 129.248 46.0519C128.864 46.7559 128.64 47.1079 128.448 47.3319C128.32 47.4599 128.224 47.5879 128.224 47.6199C128.224 47.6519 128.096 47.8439 127.936 48.0359C127.776 48.2279 127.488 48.5799 127.296 48.8039C127.104 49.0279 126.912 49.2199 126.88 49.2199C126.848 49.2199 126.72 49.3479 126.592 49.4759C126.4 49.6999 126.304 49.7319 126.144 49.7319C125.632 49.6679 125.6 49.0279 126.08 48.7399C126.624 48.4199 128.16 46.4999 128.288 45.9879C128.32 45.8919 128.384 45.7639 128.416 45.7319C128.64 45.5399 128.992 44.7399 129.024 44.2919C129.056 44.0359 129.12 43.7479 129.184 43.6519C129.248 43.5239 129.28 43.2679 129.28 42.9479C129.28 42.4359 129.28 42.4359 129.12 42.4039C127.872 42.0519 125.28 43.2679 124.896 44.3879C124.768 44.7079 124.768 48.5159 124.896 48.8039C124.96 48.9319 125.024 49.2199 125.056 49.4119C125.12 49.8599 125.28 50.3399 125.536 50.8199C125.632 51.0119 125.696 51.2039 125.696 51.2679C125.696 51.3959 126.368 51.9719 126.688 52.1319C127.968 52.8039 129.824 53.2519 130.528 53.0599C130.976 52.9319 131.328 52.2919 131.392 51.4279C131.456 50.8199 131.52 50.6919 131.84 50.6919C132.384 50.6919 132.416 51.6839 131.936 52.8999C131.552 53.7959 130.624 54.0839 129.056 53.7959C128.832 53.7639 128.544 53.6999 128.416 53.6999C128.192 53.6679 126.912 53.1559 126.176 52.8359C125.696 52.6119 125.024 51.9719 124.864 51.5879C124.32 50.3399 124.288 50.2119 124.128 49.4119C124.096 49.1879 124.032 48.8999 124 48.7719C123.904 48.4839 123.872 44.5479 123.968 44.2279C124.16 43.4919 124.992 42.6279 126.08 42.0839C126.464 41.8919 127.872 41.4119 127.936 41.4759C127.968 41.4759 128.032 41.4759 128.096 41.4439Z"/>
<path d="M137.642 40.4839C138.154 40.3559 138.346 40.6439 138.73 40.8679C138.922 40.9959 139.114 41.0919 139.146 41.0919C139.242 41.0919 140.106 41.8279 140.202 41.9879C140.266 42.0839 140.458 42.3719 140.65 42.6599C141.13 43.3959 141.642 44.4839 141.61 44.6759C141.514 45.0279 141.066 45.0599 140.81 44.7399C140.65 44.5159 140.618 44.4839 140.202 43.6199C140.074 43.3319 139.882 43.0119 139.786 42.9159C139.69 42.8199 139.562 42.6599 139.53 42.5639C139.466 42.3399 138.986 41.9559 138.442 41.6679C138.122 41.5079 138.058 41.5079 137.834 41.5399C137.578 41.6039 136.938 42.1159 136.938 42.2759C136.938 42.3079 136.842 42.4999 136.682 42.6919C136.266 43.2999 136.234 43.4599 136.202 45.3799C136.17 46.3399 136.17 46.4039 136.33 46.7239C136.554 47.1719 136.554 47.1719 138.026 47.2999C138.73 47.3639 139.562 47.4599 139.882 47.4919C140.202 47.5239 140.586 47.5559 140.714 47.5559C141.578 47.6199 142.762 48.1639 143.274 48.7079C143.754 49.2519 143.786 49.3479 143.786 50.4359C143.786 51.5239 143.754 51.6519 143.274 52.0359C143.05 52.1959 142.026 52.6759 141.898 52.6759C141.866 52.6759 141.674 52.7399 141.45 52.8359C140.522 53.1879 138.122 53.3159 137.93 52.9959C137.546 52.4839 137.194 51.7479 137.194 51.4919C137.194 51.2999 137.418 51.1079 137.642 51.1079C137.898 51.1079 138.09 51.2999 138.186 51.6199C138.218 51.7799 138.314 51.9719 138.538 52.2279H139.37C140.138 52.2279 140.682 52.1319 141.098 51.9399C141.162 51.9079 141.322 51.8439 141.482 51.7799C141.61 51.7159 141.77 51.6839 141.834 51.6839C141.994 51.6839 142.634 51.3639 142.858 51.1719C142.986 51.0439 142.986 50.9799 142.986 49.4759L142.698 49.1559C142.09 48.4839 141.322 48.2599 138.506 48.0039C136.106 47.7799 136.106 47.7799 135.402 46.4359V45.4119C135.402 43.4599 135.53 42.6919 135.914 42.2119C135.946 42.1799 136.074 41.9559 136.202 41.7319C136.33 41.4759 136.458 41.2839 136.554 41.2519C136.618 41.2199 136.746 41.1239 136.81 41.0599C137.002 40.8039 137.386 40.5479 137.642 40.4839Z"/>
</mask>
<path d="M32.7474 40.7719V40.6759C33.1314 40.4839 34.5714 40.4519 35.2114 40.6119C35.4034 40.6759 35.6274 40.7079 35.6914 40.7079C35.7554 40.6759 35.9474 40.7079 36.1074 40.7719C36.2674 40.8359 36.4274 40.8999 36.4594 40.8999C36.5554 40.8999 36.9074 41.0279 37.1954 41.1559C37.7394 41.3799 39.3714 43.0439 39.5634 43.5559C39.8514 44.2599 39.8834 44.6759 39.6594 44.8679C39.3074 45.2199 38.9234 44.9639 38.8274 44.3239C38.7634 43.8119 38.5714 43.4919 37.7074 42.6279C37.0674 41.9879 36.9394 41.8919 36.5874 41.8279C36.4594 41.7959 36.2034 41.7319 36.0114 41.6359C35.3714 41.4119 34.5714 41.2839 33.1314 41.3159L32.7154 41.7319C32.4914 41.9559 32.2034 42.3079 32.1074 42.5319C31.6594 43.3959 31.5634 43.5879 31.5634 43.7159C31.5634 43.7799 31.5314 43.9079 31.4994 43.9719C31.4034 44.1639 31.2434 44.8359 31.2114 45.2519C31.2114 45.4439 31.1794 45.7639 31.1794 45.9559C30.7314 50.5959 30.7634 51.1079 31.4994 51.7479C31.6914 51.9079 31.8834 52.0359 31.9154 52.0359C31.9794 52.0359 32.1714 52.0999 32.3634 52.1959C32.5554 52.2919 32.8114 52.3879 32.9394 52.3879C33.0354 52.4199 33.1954 52.4839 33.2914 52.5479C33.3874 52.6119 33.5474 52.6759 33.6434 52.6759C33.7394 52.6759 33.8994 52.7079 33.9634 52.7719C34.0594 52.8359 34.4114 52.8999 35.0194 52.9319C36.3954 53.0279 36.6834 53.0279 37.0034 52.8679C37.1634 52.8039 37.4514 52.6439 37.6434 52.5479C37.8354 52.4519 38.0594 52.2919 38.1554 52.2279C38.2514 52.1319 38.4434 51.9719 38.6034 51.8759C38.8594 51.6839 39.0194 51.4279 39.0194 51.2039C39.0194 51.0759 39.1794 50.7879 39.4034 50.4679C39.4674 50.3719 39.5314 50.1479 39.5634 49.9879C39.6274 49.4439 39.8514 48.8039 40.0114 48.7079C40.2034 48.5799 40.4594 48.6759 40.5554 48.8999C40.6514 49.1879 40.3314 50.6919 40.1394 50.9159C40.0754 50.9799 39.9474 51.2679 39.8514 51.5559C39.5954 52.2279 39.4034 52.4839 38.7634 52.9319C38.3474 53.2199 38.3154 53.2519 37.0674 53.9239H36.2994C35.1794 53.9239 34.0914 53.8279 33.8034 53.6999C33.7394 53.6679 33.5794 53.6359 33.4194 53.6039C33.2914 53.5719 33.0674 53.5079 32.9394 53.4439C32.6514 53.2839 31.8514 52.9639 31.4994 52.8679C30.8274 52.6759 30.2514 51.9399 30.0594 51.0439C29.9634 50.5319 30.0914 47.2359 30.2514 46.3719C30.2834 46.2119 30.3154 45.8279 30.3474 45.5399C30.3794 44.8679 30.5394 44.1319 30.6994 43.7799C30.7634 43.6199 30.8274 43.4599 30.8274 43.4279C30.8274 43.2679 31.4034 42.1479 31.6274 41.8599C31.7234 41.7319 31.8514 41.5399 31.9154 41.4119C31.9794 41.3159 32.0754 41.2519 32.1394 41.2519C32.2034 41.2519 32.2674 41.1879 32.3314 41.0919C32.3954 40.9959 32.5554 40.8679 32.7474 40.7719Z" fill="#D2D2D2"/>
<path d="M50.1767 39.3959L50.2087 39.2999C50.3367 39.1399 50.5607 39.1399 50.7847 39.2999C50.9447 39.4279 50.9447 39.4599 50.9447 40.0039C50.9447 40.2919 50.9767 40.7079 51.0407 40.8999C51.1047 41.0919 51.2007 41.5399 51.2647 41.8599C51.3287 42.1799 51.4567 42.6919 51.5207 42.9799C51.6167 43.2679 51.7447 43.8439 51.8087 44.2599C51.9367 45.1879 52.1287 46.1799 52.2887 46.6919C52.3527 46.9159 52.5127 47.5559 52.6727 48.1319C52.9927 49.4119 53.1207 49.8599 53.3127 50.2759C53.5687 50.8519 53.8887 51.8119 53.9847 52.2599C54.0807 52.7079 54.1127 52.8039 54.3687 53.4119C54.5287 53.7959 54.4327 54.0519 54.1127 54.1159C53.7287 54.2119 53.4407 53.7319 53.1847 52.5479C53.1527 52.3559 53.0247 51.9719 52.9287 51.7159C52.8327 51.4599 52.7367 51.1399 52.7047 51.0119C52.6727 50.8839 52.5767 50.6279 52.4807 50.4679C52.2887 50.0519 51.9687 49.0599 51.9367 48.8359C51.9367 48.5479 51.8727 48.5479 51.8727 48.8359C51.8727 48.9639 51.8087 49.2519 51.7127 49.4759C51.6167 49.6999 51.5207 49.9559 51.5207 50.0199C51.4887 50.0839 51.3607 50.3079 51.2327 50.4999C51.1047 50.6919 50.9767 50.8519 50.9767 50.8839C50.9767 50.9479 50.4327 51.4599 50.3687 51.4599C50.3367 51.4599 50.1127 51.5879 49.8567 51.7479C49.6327 51.9079 49.3447 52.0679 49.2167 52.0999C48.9607 52.1639 48.6407 52.2919 48.4807 52.4199C48.1287 52.7079 46.6247 52.6759 45.5687 52.3239C44.6727 52.0359 44.0007 51.2039 43.8727 50.1799C43.8087 49.7319 43.7767 46.7559 43.8407 46.3399C44.0967 44.7079 44.6727 43.1719 45.3447 42.4039C45.4727 42.2439 45.6647 41.9559 45.7607 41.7639C45.8567 41.5719 45.9847 41.3799 46.0487 41.3159C46.1127 41.2519 46.2727 41.0599 46.4007 40.8999C46.7207 40.5159 46.9767 40.4519 47.7767 40.4839C48.8967 40.5159 49.5367 40.6439 49.8567 40.8999C49.9527 40.9959 49.9527 40.9639 49.9527 40.4519C49.9527 39.8759 50.0167 39.5559 50.1767 39.3959ZM49.3127 41.5399L49.2167 41.3479L47.2967 41.2519L46.9767 41.6679C46.7847 41.8919 46.5927 42.1799 46.5287 42.3079C46.4647 42.4359 46.3047 42.6919 46.1447 42.8839C45.6007 43.5559 44.9287 45.2199 44.9287 45.8599C44.9287 45.9559 44.8967 46.1799 44.8327 46.3399C44.6727 46.8519 44.7367 49.5399 44.9287 50.2759C45.2167 51.2999 45.6967 51.5879 47.2967 51.6519C47.9047 51.6839 47.9367 51.6839 48.4167 51.4599C48.6727 51.3319 48.9287 51.2359 48.9927 51.2359C49.1207 51.2359 49.3767 51.0759 49.5367 50.9159C49.6007 50.8519 49.7287 50.7879 49.8247 50.7559C50.1127 50.6919 50.7207 49.8599 50.9447 49.2519C51.1687 48.6759 51.2007 47.2679 51.0407 46.8519C50.9767 46.7239 50.8807 46.4999 50.8167 46.3399C50.7527 46.1799 50.6567 45.8919 50.5607 45.7319C50.2727 44.9959 50.1767 44.3879 50.1447 42.8839C50.1127 41.4119 50.1127 41.5079 49.9527 41.6359C49.7607 41.7959 49.5367 41.7639 49.3127 41.5399Z" fill="#D2D2D2"/>
<path d="M60.5042 36.7079C60.6962 36.5159 60.7282 36.5159 60.9522 36.6119C61.1442 36.7079 61.2722 37.0599 61.4002 37.8279C61.5282 38.6599 61.4962 39.1719 61.1442 42.1479C61.0802 42.7559 60.9842 43.4919 60.9522 43.7799C60.9202 44.0679 60.8882 44.4519 60.7922 45.0279H64.1522L64.3122 45.1879C64.5042 45.3799 64.5042 45.5719 64.3442 45.7319C64.2162 45.8599 64.1202 45.8599 60.7602 45.8599L60.7282 46.1479C60.6962 46.3079 60.6642 46.8519 60.6322 47.3319C60.6002 47.8119 60.5362 48.3879 60.5042 48.6119C60.4722 48.8039 60.4402 49.1559 60.4402 49.3799C60.4402 49.6039 60.4082 49.9239 60.3762 50.1159C60.2802 50.5319 60.1202 51.7799 60.1202 52.0359C60.1202 52.1319 60.0882 52.3239 60.0562 52.4519C60.0242 52.6759 60.0242 52.7079 60.1202 52.6439C60.1842 52.6119 60.7282 52.5799 61.3042 52.5479C62.6162 52.4839 62.8722 52.3879 63.4482 51.7479C63.8642 51.2679 63.9602 51.2039 64.2162 51.2999C64.6642 51.4919 64.5682 51.9079 63.9282 52.5159C63.3202 53.1239 62.4562 53.3799 61.1442 53.3799C61.0802 53.3799 60.7282 53.4119 60.3762 53.4439C59.1282 53.5399 59.1282 53.5399 59.3202 51.5879C59.3522 51.2359 59.4162 50.7879 59.4482 50.5639C59.4802 50.3399 59.5442 49.9559 59.5762 49.6999C59.6082 49.4439 59.7042 48.8679 59.7682 48.4519C59.8322 48.0039 59.8962 47.3639 59.8962 46.8839C59.8962 46.4359 59.9282 46.0519 59.9602 45.9559C60.0562 45.7319 60.0562 45.7319 58.8402 45.7319C57.6242 45.7319 57.4962 45.6999 57.4962 45.2839C57.4962 44.8999 57.6562 44.8359 60.0562 44.8359L60.0882 44.4519C60.1522 43.7159 60.2802 42.7239 60.3442 42.4039C60.3762 42.2439 60.4402 41.8279 60.4722 41.4759C60.5042 41.1239 60.5682 40.4199 60.6322 39.9399C60.7602 38.8519 60.7602 38.4359 60.6322 37.7639C60.4402 36.8359 60.3122 36.8999 60.5042 36.7079Z" fill="#D2D2D2"/>
<path d="M72.0022 41.4439H72.0342C72.4822 41.2839 73.7622 41.6359 73.9542 41.9559C74.0502 42.1479 74.0822 43.4599 74.0182 43.6839C73.9862 43.7799 73.8902 44.0999 73.8262 44.4199C73.7302 44.9319 73.5702 45.3159 73.1542 46.0519C72.7702 46.7559 72.5462 47.1079 72.3542 47.3319C72.2262 47.4599 72.1302 47.5879 72.1302 47.6199C72.1302 47.6519 72.0022 47.8439 71.8422 48.0359C71.6822 48.2279 71.3942 48.5799 71.2022 48.8039C71.0102 49.0279 70.8182 49.2199 70.7862 49.2199C70.7542 49.2199 70.6262 49.3479 70.4982 49.4759C70.3062 49.6999 70.2102 49.7319 70.0502 49.7319C69.5382 49.6679 69.5062 49.0279 69.9862 48.7399C70.5302 48.4199 72.0662 46.4999 72.1942 45.9879C72.2262 45.8919 72.2902 45.7639 72.3222 45.7319C72.5462 45.5399 72.8982 44.7399 72.9302 44.2919C72.9622 44.0359 73.0262 43.7479 73.0902 43.6519C73.1542 43.5239 73.1862 43.2679 73.1862 42.9479C73.1862 42.4359 73.1862 42.4359 73.0262 42.4039C71.7782 42.0519 69.1862 43.2679 68.8022 44.3879C68.6742 44.7079 68.6742 48.5159 68.8022 48.8039C68.8662 48.9319 68.9302 49.2199 68.9622 49.4119C69.0262 49.8599 69.1862 50.3399 69.4422 50.8199C69.5382 51.0119 69.6022 51.2039 69.6022 51.2679C69.6022 51.3959 70.2742 51.9719 70.5942 52.1319C71.8742 52.8039 73.7302 53.2519 74.4342 53.0599C74.8822 52.9319 75.2342 52.2919 75.2982 51.4279C75.3622 50.8199 75.4262 50.6919 75.7462 50.6919C76.2902 50.6919 76.3222 51.6839 75.8422 52.8999C75.4582 53.7959 74.5302 54.0839 72.9622 53.7959C72.7382 53.7639 72.4502 53.6999 72.3222 53.6999C72.0982 53.6679 70.8182 53.1559 70.0822 52.8359C69.6022 52.6119 68.9302 51.9719 68.7702 51.5879C68.2262 50.3399 68.1942 50.2119 68.0342 49.4119C68.0022 49.1879 67.9382 48.8999 67.9062 48.7719C67.8102 48.4839 67.7782 44.5479 67.8742 44.2279C68.0662 43.4919 68.8982 42.6279 69.9862 42.0839C70.3702 41.8919 71.7782 41.4119 71.8422 41.4759C71.8742 41.4759 71.9382 41.4759 72.0022 41.4439Z" fill="#D2D2D2"/>
<path d="M86.3807 43.3319L86.3487 43.1399C86.5407 43.0439 87.0207 43.0759 87.4047 43.2359C87.7567 43.3639 88.2687 43.9079 88.4287 44.3239C88.4607 44.4199 88.5247 44.5799 88.5567 44.6439C88.5887 44.7079 88.6207 44.8039 88.6207 44.8679C88.6207 44.9319 88.6847 45.0599 88.7807 45.1559C88.9407 45.3159 88.9407 45.3159 88.9087 45.8599C88.8767 46.1479 88.8447 46.5639 88.8447 46.7879C88.8127 47.5559 88.4927 49.2199 88.3327 49.4759C88.2687 49.6039 88.1087 50.2439 87.9167 51.2039C87.8847 51.3959 87.8527 51.7479 87.8207 52.0039C87.7887 52.2599 87.7567 52.4839 87.7567 52.5159C87.7567 52.5479 87.7567 52.7079 87.7567 53.1879H88.0447C88.2047 53.1879 88.5247 53.1559 88.7487 53.1239C88.9727 53.0919 89.3567 53.0279 89.5807 52.9959C89.8047 52.9639 90.1247 52.8679 90.2527 52.7719C90.4127 52.7079 90.5727 52.6439 90.6367 52.6439C90.7007 52.6439 90.7967 52.6119 90.8607 52.5799C90.9247 52.5479 91.2127 52.4199 91.5007 52.3239C92.1087 52.0999 92.5247 51.7799 92.5567 51.5559C92.6207 51.1399 93.1007 51.0759 93.3567 51.4599C93.7407 52.0359 92.9087 52.8359 91.3087 53.4119C90.5727 53.6679 90.1887 53.7959 89.9647 53.8279C89.8367 53.8599 89.4207 53.9239 89.0687 53.9559C88.7167 54.0199 88.2687 54.0519 87.6927 54.0519V54.8519C87.6927 55.6519 87.5327 56.8039 87.4047 56.9639C87.3727 56.9959 87.3407 57.0919 87.3087 57.1879C87.2767 57.2839 87.1167 57.5719 86.9567 57.8279C86.7967 58.0839 86.6687 58.3399 86.6687 58.4039C86.6687 58.5959 86.0287 59.3959 85.6447 59.6839C84.9407 60.1959 84.3967 60.3559 83.2127 60.3879C82.2527 60.4199 82.1887 60.4199 81.8047 60.2599C81.4207 60.0999 80.4287 59.4279 80.4287 59.2999C80.4287 59.2679 80.3647 59.1399 80.2687 59.0439C79.8207 58.4679 79.3727 57.1559 79.3727 56.4199C79.3727 55.7479 79.5007 55.4599 79.9167 55.1399C80.0767 55.0119 80.2687 54.8519 80.3327 54.7879C80.8127 54.4359 81.4847 54.1159 81.9327 54.0199C82.0607 53.9879 82.4447 53.8919 82.7647 53.8279C83.0847 53.7639 83.5967 53.6679 83.8847 53.6359C84.1727 53.6039 84.8127 53.5079 85.2927 53.4439C85.7727 53.3799 86.3487 53.3159 86.9247 53.3159L86.9887 53.0919C87.0207 52.9639 87.0207 52.7719 87.0207 52.6439C86.9887 52.5159 86.9887 52.2919 87.0527 52.1639C87.0847 52.0359 87.1167 51.7159 87.1807 51.0119H86.7647C85.1007 51.0119 84.3327 50.4359 84.0127 48.8999C83.9487 48.6439 83.8527 48.3559 83.7887 48.2599C83.5007 47.7159 83.7247 45.9239 84.1727 45.0919C84.6527 44.1959 84.8767 43.9719 85.5807 43.6839C85.9327 43.5239 86.2847 43.3639 86.3807 43.3319ZM87.1167 44.0039V44.0359C86.6687 43.8759 85.7087 44.2599 85.3247 44.7399C84.7487 45.4119 84.4607 46.2759 84.6847 46.5639C84.8127 46.7239 84.8127 46.7879 84.7487 46.9159C84.6207 47.1719 84.6527 48.0999 84.7807 48.2919C85.1007 48.7719 85.6447 49.1879 85.9647 49.1879C86.2527 49.1879 87.4367 47.8119 87.4367 47.4599C87.4367 47.4279 87.5327 47.2359 87.6287 47.0759C87.7247 46.9159 87.8207 46.7239 87.8207 46.6599C87.8207 46.5959 87.8847 46.4679 87.9167 46.3399C88.1727 45.8279 87.5967 44.1639 87.1167 44.0039ZM87.2387 49.9622L87.4047 49.2839C87.4687 49.0279 87.4687 49.0279 87.3407 49.2199C87.2767 49.2839 87.0847 49.5079 86.8927 49.6999C86.5407 50.0519 86.5407 50.0519 86.7327 50.0519C86.9567 50.0519 87.1747 50.2822 87.2387 49.9622ZM86.8287 54.6279L86.7647 53.9559H86.4127C85.9327 53.9559 84.9087 54.1159 84.7487 54.2119C84.6847 54.2439 84.4287 54.2759 84.1727 54.2759C83.7567 54.2759 83.3727 54.3399 82.2207 54.6279C81.7727 54.7239 81.1967 54.9799 80.9087 55.2039C80.8127 55.2999 80.6527 55.4279 80.5567 55.4919C79.9807 55.7799 79.9487 56.2599 80.3967 57.4119C80.8127 58.4679 81.2287 58.9479 81.9967 59.2679C82.7007 59.5559 84.3967 59.3639 85.0367 58.9159C85.1007 58.8519 85.2607 58.7559 85.3567 58.6919C85.5807 58.5319 85.9007 58.0519 85.9647 57.7959C85.9967 57.6999 86.1247 57.4759 86.2527 57.3159C86.6687 56.6759 86.8287 55.9079 86.8287 54.6279Z" fill="#D2D2D2"/>
<path d="M99.2109 45.2199L99.1149 45.3159C99.6589 45.0279 100.171 44.9959 101.707 45.1239C102.955 45.2199 103.819 45.9239 104.363 47.2679C104.651 48.0039 104.491 49.7959 104.043 50.7879C103.947 50.9799 103.851 51.2359 103.819 51.3639C103.627 52.0039 103.051 52.8679 102.571 53.2519C102.251 53.5079 102.251 53.5079 101.739 53.5079C101.131 53.5079 100.747 53.4119 100.427 53.1559C99.8829 52.7399 99.2429 52.1319 99.0509 51.8119C98.9549 51.6199 98.7309 51.2679 98.5709 51.0119C98.2509 50.5319 98.1869 50.4359 97.9949 49.9879C97.8989 49.7959 97.8989 49.7959 97.4509 49.7959C96.7469 49.7959 96.5869 49.4439 96.8429 48.3559C96.9069 48.1319 96.9389 47.8759 96.9389 47.7799C96.9389 47.6839 97.0029 47.5239 97.0669 47.4279C97.1309 47.3319 97.1949 47.2039 97.1949 47.1399C97.1949 47.0439 97.3549 46.7239 97.4509 46.6599C97.4829 46.6279 97.6109 46.4359 97.7389 46.2119C97.9629 45.7959 98.3149 45.5079 98.6349 45.4759C98.6989 45.4759 98.9549 45.3479 99.2109 45.2199ZM101.803 45.9879H101.771C99.8509 45.8919 99.8829 45.8919 99.6269 46.0199C99.1149 46.2759 98.6349 46.4999 98.5709 46.4999C98.5069 46.4999 97.9309 47.4599 97.9309 47.5879C97.9309 47.6519 97.8669 47.7799 97.8029 47.8759C97.6749 48.0679 97.6429 48.4199 97.7389 48.4199C97.8029 48.4199 98.7629 49.7639 98.7629 49.8599C98.7629 50.1799 99.7869 51.6199 100.363 52.1319C100.907 52.6119 101.035 52.6759 101.675 52.6759C101.995 52.6759 101.995 52.6759 102.187 52.3559C102.315 52.1959 102.507 51.9399 102.603 51.8119C102.795 51.5239 102.987 51.0759 102.987 50.8519C102.987 50.7879 103.051 50.6599 103.115 50.5959C103.563 50.0199 103.755 48.2279 103.467 47.4279C103.179 46.6599 102.443 46.0199 101.803 45.9879Z" fill="#D2D2D2"/>
<path d="M107.907 43.2039C108.099 43.0119 108.323 43.0439 108.515 43.1719C108.611 43.2679 108.739 43.8439 108.995 45.3479L109.219 45.1239C109.443 44.8999 109.763 44.8039 110.915 44.5799C111.651 44.4199 113.827 44.4199 114.339 44.5799C114.819 44.7399 115.075 44.9319 115.235 45.2519C115.299 45.3799 115.395 45.5719 115.459 45.6679C115.555 45.8279 115.811 46.6919 115.811 46.8519C115.811 46.9479 115.491 47.2039 115.363 47.2039C115.171 47.2039 114.947 46.9479 114.883 46.6279C114.819 46.1479 114.403 45.5079 114.115 45.3799C113.635 45.1879 111.075 45.2199 110.819 45.4119C110.787 45.4439 110.627 45.4759 110.467 45.4759C110.307 45.5079 110.147 45.5399 110.147 45.5719C110.115 45.6039 110.019 45.6359 109.923 45.6359C109.731 45.6359 109.443 45.9239 109.379 46.1799C109.347 46.2759 109.315 47.8439 109.315 49.6679C109.315 53.3159 109.347 53.1239 108.899 53.1239C108.515 53.1239 108.483 53.0279 108.419 50.9479C108.387 49.9239 108.323 48.9639 108.291 48.8359C108.259 48.7079 108.227 48.1639 108.227 47.5879C108.227 47.0119 108.195 46.4999 108.163 46.4359C108.131 46.3719 108.099 45.9879 108.067 45.6039C108.035 45.2199 107.939 44.6439 107.875 44.3239C107.715 43.5239 107.715 43.3959 107.907 43.2039Z" fill="#D2D2D2"/>
<path d="M119.926 42.3399L119.894 42.1799C119.99 42.0199 120.31 41.9879 120.502 42.1479C120.598 42.2439 120.598 42.3399 120.598 42.9799C120.598 43.9399 120.534 44.9959 120.47 45.0919C120.438 45.1239 120.406 45.5399 120.374 45.9879C120.342 46.4359 120.278 47.0119 120.214 47.2679C120.15 47.4919 120.086 48.0999 120.054 48.6119C120.022 49.1239 119.99 49.5719 119.99 49.6359C119.926 49.7639 119.83 50.7239 119.766 51.8439C119.734 53.0279 119.702 53.0919 119.318 53.0919C118.934 53.0919 118.87 52.8679 118.902 51.7479C118.902 51.2039 118.934 50.6279 118.998 50.4679C119.126 49.9559 119.222 49.1239 119.286 48.2279C119.318 47.7799 119.382 47.3319 119.414 47.2359C119.446 47.1399 119.51 46.6919 119.542 46.2439C119.574 45.7959 119.638 45.3159 119.67 45.1879C119.702 45.0599 119.766 44.3879 119.798 43.7159C119.83 42.8519 119.862 42.4679 119.926 42.3399Z" fill="#D2D2D2"/>
<path d="M128.096 41.4439H128.128C128.576 41.2839 129.856 41.6359 130.048 41.9559C130.144 42.1479 130.176 43.4599 130.112 43.6839C130.08 43.7799 129.984 44.0999 129.92 44.4199C129.824 44.9319 129.664 45.3159 129.248 46.0519C128.864 46.7559 128.64 47.1079 128.448 47.3319C128.32 47.4599 128.224 47.5879 128.224 47.6199C128.224 47.6519 128.096 47.8439 127.936 48.0359C127.776 48.2279 127.488 48.5799 127.296 48.8039C127.104 49.0279 126.912 49.2199 126.88 49.2199C126.848 49.2199 126.72 49.3479 126.592 49.4759C126.4 49.6999 126.304 49.7319 126.144 49.7319C125.632 49.6679 125.6 49.0279 126.08 48.7399C126.624 48.4199 128.16 46.4999 128.288 45.9879C128.32 45.8919 128.384 45.7639 128.416 45.7319C128.64 45.5399 128.992 44.7399 129.024 44.2919C129.056 44.0359 129.12 43.7479 129.184 43.6519C129.248 43.5239 129.28 43.2679 129.28 42.9479C129.28 42.4359 129.28 42.4359 129.12 42.4039C127.872 42.0519 125.28 43.2679 124.896 44.3879C124.768 44.7079 124.768 48.5159 124.896 48.8039C124.96 48.9319 125.024 49.2199 125.056 49.4119C125.12 49.8599 125.28 50.3399 125.536 50.8199C125.632 51.0119 125.696 51.2039 125.696 51.2679C125.696 51.3959 126.368 51.9719 126.688 52.1319C127.968 52.8039 129.824 53.2519 130.528 53.0599C130.976 52.9319 131.328 52.2919 131.392 51.4279C131.456 50.8199 131.52 50.6919 131.84 50.6919C132.384 50.6919 132.416 51.6839 131.936 52.8999C131.552 53.7959 130.624 54.0839 129.056 53.7959C128.832 53.7639 128.544 53.6999 128.416 53.6999C128.192 53.6679 126.912 53.1559 126.176 52.8359C125.696 52.6119 125.024 51.9719 124.864 51.5879C124.32 50.3399 124.288 50.2119 124.128 49.4119C124.096 49.1879 124.032 48.8999 124 48.7719C123.904 48.4839 123.872 44.5479 123.968 44.2279C124.16 43.4919 124.992 42.6279 126.08 42.0839C126.464 41.8919 127.872 41.4119 127.936 41.4759C127.968 41.4759 128.032 41.4759 128.096 41.4439Z" fill="#D2D2D2"/>
<path d="M137.642 40.4839C138.154 40.3559 138.346 40.6439 138.73 40.8679C138.922 40.9959 139.114 41.0919 139.146 41.0919C139.242 41.0919 140.106 41.8279 140.202 41.9879C140.266 42.0839 140.458 42.3719 140.65 42.6599C141.13 43.3959 141.642 44.4839 141.61 44.6759C141.514 45.0279 141.066 45.0599 140.81 44.7399C140.65 44.5159 140.618 44.4839 140.202 43.6199C140.074 43.3319 139.882 43.0119 139.786 42.9159C139.69 42.8199 139.562 42.6599 139.53 42.5639C139.466 42.3399 138.986 41.9559 138.442 41.6679C138.122 41.5079 138.058 41.5079 137.834 41.5399C137.578 41.6039 136.938 42.1159 136.938 42.2759C136.938 42.3079 136.842 42.4999 136.682 42.6919C136.266 43.2999 136.234 43.4599 136.202 45.3799C136.17 46.3399 136.17 46.4039 136.33 46.7239C136.554 47.1719 136.554 47.1719 138.026 47.2999C138.73 47.3639 139.562 47.4599 139.882 47.4919C140.202 47.5239 140.586 47.5559 140.714 47.5559C141.578 47.6199 142.762 48.1639 143.274 48.7079C143.754 49.2519 143.786 49.3479 143.786 50.4359C143.786 51.5239 143.754 51.6519 143.274 52.0359C143.05 52.1959 142.026 52.6759 141.898 52.6759C141.866 52.6759 141.674 52.7399 141.45 52.8359C140.522 53.1879 138.122 53.3159 137.93 52.9959C137.546 52.4839 137.194 51.7479 137.194 51.4919C137.194 51.2999 137.418 51.1079 137.642 51.1079C137.898 51.1079 138.09 51.2999 138.186 51.6199C138.218 51.7799 138.314 51.9719 138.538 52.2279H139.37C140.138 52.2279 140.682 52.1319 141.098 51.9399C141.162 51.9079 141.322 51.8439 141.482 51.7799C141.61 51.7159 141.77 51.6839 141.834 51.6839C141.994 51.6839 142.634 51.3639 142.858 51.1719C142.986 51.0439 142.986 50.9799 142.986 49.4759L142.698 49.1559C142.09 48.4839 141.322 48.2599 138.506 48.0039C136.106 47.7799 136.106 47.7799 135.402 46.4359V45.4119C135.402 43.4599 135.53 42.6919 135.914 42.2119C135.946 42.1799 136.074 41.9559 136.202 41.7319C136.33 41.4759 136.458 41.2839 136.554 41.2519C136.618 41.2199 136.746 41.1239 136.81 41.0599C137.002 40.8039 137.386 40.5479 137.642 40.4839Z" fill="#D2D2D2"/>
<path d="M32.7474 40.7719V40.6759C33.1314 40.4839 34.5714 40.4519 35.2114 40.6119C35.4034 40.6759 35.6274 40.7079 35.6914 40.7079C35.7554 40.6759 35.9474 40.7079 36.1074 40.7719C36.2674 40.8359 36.4274 40.8999 36.4594 40.8999C36.5554 40.8999 36.9074 41.0279 37.1954 41.1559C37.7394 41.3799 39.3714 43.0439 39.5634 43.5559C39.8514 44.2599 39.8834 44.6759 39.6594 44.8679C39.3074 45.2199 38.9234 44.9639 38.8274 44.3239C38.7634 43.8119 38.5714 43.4919 37.7074 42.6279C37.0674 41.9879 36.9394 41.8919 36.5874 41.8279C36.4594 41.7959 36.2034 41.7319 36.0114 41.6359C35.3714 41.4119 34.5714 41.2839 33.1314 41.3159L32.7154 41.7319C32.4914 41.9559 32.2034 42.3079 32.1074 42.5319C31.6594 43.3959 31.5634 43.5879 31.5634 43.7159C31.5634 43.7799 31.5314 43.9079 31.4994 43.9719C31.4034 44.1639 31.2434 44.8359 31.2114 45.2519C31.2114 45.4439 31.1794 45.7639 31.1794 45.9559C30.7314 50.5959 30.7634 51.1079 31.4994 51.7479C31.6914 51.9079 31.8834 52.0359 31.9154 52.0359C31.9794 52.0359 32.1714 52.0999 32.3634 52.1959C32.5554 52.2919 32.8114 52.3879 32.9394 52.3879C33.0354 52.4199 33.1954 52.4839 33.2914 52.5479C33.3874 52.6119 33.5474 52.6759 33.6434 52.6759C33.7394 52.6759 33.8994 52.7079 33.9634 52.7719C34.0594 52.8359 34.4114 52.8999 35.0194 52.9319C36.3954 53.0279 36.6834 53.0279 37.0034 52.8679C37.1634 52.8039 37.4514 52.6439 37.6434 52.5479C37.8354 52.4519 38.0594 52.2919 38.1554 52.2279C38.2514 52.1319 38.4434 51.9719 38.6034 51.8759C38.8594 51.6839 39.0194 51.4279 39.0194 51.2039C39.0194 51.0759 39.1794 50.7879 39.4034 50.4679C39.4674 50.3719 39.5314 50.1479 39.5634 49.9879C39.6274 49.4439 39.8514 48.8039 40.0114 48.7079C40.2034 48.5799 40.4594 48.6759 40.5554 48.8999C40.6514 49.1879 40.3314 50.6919 40.1394 50.9159C40.0754 50.9799 39.9474 51.2679 39.8514 51.5559C39.5954 52.2279 39.4034 52.4839 38.7634 52.9319C38.3474 53.2199 38.3154 53.2519 37.0674 53.9239H36.2994C35.1794 53.9239 34.0914 53.8279 33.8034 53.6999C33.7394 53.6679 33.5794 53.6359 33.4194 53.6039C33.2914 53.5719 33.0674 53.5079 32.9394 53.4439C32.6514 53.2839 31.8514 52.9639 31.4994 52.8679C30.8274 52.6759 30.2514 51.9399 30.0594 51.0439C29.9634 50.5319 30.0914 47.2359 30.2514 46.3719C30.2834 46.2119 30.3154 45.8279 30.3474 45.5399C30.3794 44.8679 30.5394 44.1319 30.6994 43.7799C30.7634 43.6199 30.8274 43.4599 30.8274 43.4279C30.8274 43.2679 31.4034 42.1479 31.6274 41.8599C31.7234 41.7319 31.8514 41.5399 31.9154 41.4119C31.9794 41.3159 32.0754 41.2519 32.1394 41.2519C32.2034 41.2519 32.2674 41.1879 32.3314 41.0919C32.3954 40.9959 32.5554 40.8679 32.7474 40.7719Z" stroke="url(#paint0_linear_1401_1829)" stroke-width="2" mask="url(#path-3-outside-1_1401_1829)"/>
<path d="M50.1767 39.3959L50.2087 39.2999C50.3367 39.1399 50.5607 39.1399 50.7847 39.2999C50.9447 39.4279 50.9447 39.4599 50.9447 40.0039C50.9447 40.2919 50.9767 40.7079 51.0407 40.8999C51.1047 41.0919 51.2007 41.5399 51.2647 41.8599C51.3287 42.1799 51.4567 42.6919 51.5207 42.9799C51.6167 43.2679 51.7447 43.8439 51.8087 44.2599C51.9367 45.1879 52.1287 46.1799 52.2887 46.6919C52.3527 46.9159 52.5127 47.5559 52.6727 48.1319C52.9927 49.4119 53.1207 49.8599 53.3127 50.2759C53.5687 50.8519 53.8887 51.8119 53.9847 52.2599C54.0807 52.7079 54.1127 52.8039 54.3687 53.4119C54.5287 53.7959 54.4327 54.0519 54.1127 54.1159C53.7287 54.2119 53.4407 53.7319 53.1847 52.5479C53.1527 52.3559 53.0247 51.9719 52.9287 51.7159C52.8327 51.4599 52.7367 51.1399 52.7047 51.0119C52.6727 50.8839 52.5767 50.6279 52.4807 50.4679C52.2887 50.0519 51.9687 49.0599 51.9367 48.8359C51.9367 48.5479 51.8727 48.5479 51.8727 48.8359C51.8727 48.9639 51.8087 49.2519 51.7127 49.4759C51.6167 49.6999 51.5207 49.9559 51.5207 50.0199C51.4887 50.0839 51.3607 50.3079 51.2327 50.4999C51.1047 50.6919 50.9767 50.8519 50.9767 50.8839C50.9767 50.9479 50.4327 51.4599 50.3687 51.4599C50.3367 51.4599 50.1127 51.5879 49.8567 51.7479C49.6327 51.9079 49.3447 52.0679 49.2167 52.0999C48.9607 52.1639 48.6407 52.2919 48.4807 52.4199C48.1287 52.7079 46.6247 52.6759 45.5687 52.3239C44.6727 52.0359 44.0007 51.2039 43.8727 50.1799C43.8087 49.7319 43.7767 46.7559 43.8407 46.3399C44.0967 44.7079 44.6727 43.1719 45.3447 42.4039C45.4727 42.2439 45.6647 41.9559 45.7607 41.7639C45.8567 41.5719 45.9847 41.3799 46.0487 41.3159C46.1127 41.2519 46.2727 41.0599 46.4007 40.8999C46.7207 40.5159 46.9767 40.4519 47.7767 40.4839C48.8967 40.5159 49.5367 40.6439 49.8567 40.8999C49.9527 40.9959 49.9527 40.9639 49.9527 40.4519C49.9527 39.8759 50.0167 39.5559 50.1767 39.3959ZM49.3127 41.5399L49.2167 41.3479L47.2967 41.2519L46.9767 41.6679C46.7847 41.8919 46.5927 42.1799 46.5287 42.3079C46.4647 42.4359 46.3047 42.6919 46.1447 42.8839C45.6007 43.5559 44.9287 45.2199 44.9287 45.8599C44.9287 45.9559 44.8967 46.1799 44.8327 46.3399C44.6727 46.8519 44.7367 49.5399 44.9287 50.2759C45.2167 51.2999 45.6967 51.5879 47.2967 51.6519C47.9047 51.6839 47.9367 51.6839 48.4167 51.4599C48.6727 51.3319 48.9287 51.2359 48.9927 51.2359C49.1207 51.2359 49.3767 51.0759 49.5367 50.9159C49.6007 50.8519 49.7287 50.7879 49.8247 50.7559C50.1127 50.6919 50.7207 49.8599 50.9447 49.2519C51.1687 48.6759 51.2007 47.2679 51.0407 46.8519C50.9767 46.7239 50.8807 46.4999 50.8167 46.3399C50.7527 46.1799 50.6567 45.8919 50.5607 45.7319C50.2727 44.9959 50.1767 44.3879 50.1447 42.8839C50.1127 41.4119 50.1127 41.5079 49.9527 41.6359C49.7607 41.7959 49.5367 41.7639 49.3127 41.5399Z" stroke="url(#paint1_linear_1401_1829)" stroke-width="2" mask="url(#path-3-outside-1_1401_1829)"/>
<path d="M60.5042 36.7079C60.6962 36.5159 60.7282 36.5159 60.9522 36.6119C61.1442 36.7079 61.2722 37.0599 61.4002 37.8279C61.5282 38.6599 61.4962 39.1719 61.1442 42.1479C61.0802 42.7559 60.9842 43.4919 60.9522 43.7799C60.9202 44.0679 60.8882 44.4519 60.7922 45.0279H64.1522L64.3122 45.1879C64.5042 45.3799 64.5042 45.5719 64.3442 45.7319C64.2162 45.8599 64.1202 45.8599 60.7602 45.8599L60.7282 46.1479C60.6962 46.3079 60.6642 46.8519 60.6322 47.3319C60.6002 47.8119 60.5362 48.3879 60.5042 48.6119C60.4722 48.8039 60.4402 49.1559 60.4402 49.3799C60.4402 49.6039 60.4082 49.9239 60.3762 50.1159C60.2802 50.5319 60.1202 51.7799 60.1202 52.0359C60.1202 52.1319 60.0882 52.3239 60.0562 52.4519C60.0242 52.6759 60.0242 52.7079 60.1202 52.6439C60.1842 52.6119 60.7282 52.5799 61.3042 52.5479C62.6162 52.4839 62.8722 52.3879 63.4482 51.7479C63.8642 51.2679 63.9602 51.2039 64.2162 51.2999C64.6642 51.4919 64.5682 51.9079 63.9282 52.5159C63.3202 53.1239 62.4562 53.3799 61.1442 53.3799C61.0802 53.3799 60.7282 53.4119 60.3762 53.4439C59.1282 53.5399 59.1282 53.5399 59.3202 51.5879C59.3522 51.2359 59.4162 50.7879 59.4482 50.5639C59.4802 50.3399 59.5442 49.9559 59.5762 49.6999C59.6082 49.4439 59.7042 48.8679 59.7682 48.4519C59.8322 48.0039 59.8962 47.3639 59.8962 46.8839C59.8962 46.4359 59.9282 46.0519 59.9602 45.9559C60.0562 45.7319 60.0562 45.7319 58.8402 45.7319C57.6242 45.7319 57.4962 45.6999 57.4962 45.2839C57.4962 44.8999 57.6562 44.8359 60.0562 44.8359L60.0882 44.4519C60.1522 43.7159 60.2802 42.7239 60.3442 42.4039C60.3762 42.2439 60.4402 41.8279 60.4722 41.4759C60.5042 41.1239 60.5682 40.4199 60.6322 39.9399C60.7602 38.8519 60.7602 38.4359 60.6322 37.7639C60.4402 36.8359 60.3122 36.8999 60.5042 36.7079Z" stroke="url(#paint2_linear_1401_1829)" stroke-width="2" mask="url(#path-3-outside-1_1401_1829)"/>
<path d="M72.0022 41.4439H72.0342C72.4822 41.2839 73.7622 41.6359 73.9542 41.9559C74.0502 42.1479 74.0822 43.4599 74.0182 43.6839C73.9862 43.7799 73.8902 44.0999 73.8262 44.4199C73.7302 44.9319 73.5702 45.3159 73.1542 46.0519C72.7702 46.7559 72.5462 47.1079 72.3542 47.3319C72.2262 47.4599 72.1302 47.5879 72.1302 47.6199C72.1302 47.6519 72.0022 47.8439 71.8422 48.0359C71.6822 48.2279 71.3942 48.5799 71.2022 48.8039C71.0102 49.0279 70.8182 49.2199 70.7862 49.2199C70.7542 49.2199 70.6262 49.3479 70.4982 49.4759C70.3062 49.6999 70.2102 49.7319 70.0502 49.7319C69.5382 49.6679 69.5062 49.0279 69.9862 48.7399C70.5302 48.4199 72.0662 46.4999 72.1942 45.9879C72.2262 45.8919 72.2902 45.7639 72.3222 45.7319C72.5462 45.5399 72.8982 44.7399 72.9302 44.2919C72.9622 44.0359 73.0262 43.7479 73.0902 43.6519C73.1542 43.5239 73.1862 43.2679 73.1862 42.9479C73.1862 42.4359 73.1862 42.4359 73.0262 42.4039C71.7782 42.0519 69.1862 43.2679 68.8022 44.3879C68.6742 44.7079 68.6742 48.5159 68.8022 48.8039C68.8662 48.9319 68.9302 49.2199 68.9622 49.4119C69.0262 49.8599 69.1862 50.3399 69.4422 50.8199C69.5382 51.0119 69.6022 51.2039 69.6022 51.2679C69.6022 51.3959 70.2742 51.9719 70.5942 52.1319C71.8742 52.8039 73.7302 53.2519 74.4342 53.0599C74.8822 52.9319 75.2342 52.2919 75.2982 51.4279C75.3622 50.8199 75.4262 50.6919 75.7462 50.6919C76.2902 50.6919 76.3222 51.6839 75.8422 52.8999C75.4582 53.7959 74.5302 54.0839 72.9622 53.7959C72.7382 53.7639 72.4502 53.6999 72.3222 53.6999C72.0982 53.6679 70.8182 53.1559 70.0822 52.8359C69.6022 52.6119 68.9302 51.9719 68.7702 51.5879C68.2262 50.3399 68.1942 50.2119 68.0342 49.4119C68.0022 49.1879 67.9382 48.8999 67.9062 48.7719C67.8102 48.4839 67.7782 44.5479 67.8742 44.2279C68.0662 43.4919 68.8982 42.6279 69.9862 42.0839C70.3702 41.8919 71.7782 41.4119 71.8422 41.4759C71.8742 41.4759 71.9382 41.4759 72.0022 41.4439Z" stroke="url(#paint3_linear_1401_1829)" stroke-width="2" mask="url(#path-3-outside-1_1401_1829)"/>
<path d="M86.3807 43.3319L86.3487 43.1399C86.5407 43.0439 87.0207 43.0759 87.4047 43.2359C87.7567 43.3639 88.2687 43.9079 88.4287 44.3239C88.4607 44.4199 88.5247 44.5799 88.5567 44.6439C88.5887 44.7079 88.6207 44.8039 88.6207 44.8679C88.6207 44.9319 88.6847 45.0599 88.7807 45.1559C88.9407 45.3159 88.9407 45.3159 88.9087 45.8599C88.8767 46.1479 88.8447 46.5639 88.8447 46.7879C88.8127 47.5559 88.4927 49.2199 88.3327 49.4759C88.2687 49.6039 88.1087 50.2439 87.9167 51.2039C87.8847 51.3959 87.8527 51.7479 87.8207 52.0039C87.7887 52.2599 87.7567 52.4839 87.7567 52.5159C87.7567 52.5479 87.7567 52.7079 87.7567 53.1879H88.0447C88.2047 53.1879 88.5247 53.1559 88.7487 53.1239C88.9727 53.0919 89.3567 53.0279 89.5807 52.9959C89.8047 52.9639 90.1247 52.8679 90.2527 52.7719C90.4127 52.7079 90.5727 52.6439 90.6367 52.6439C90.7007 52.6439 90.7967 52.6119 90.8607 52.5799C90.9247 52.5479 91.2127 52.4199 91.5007 52.3239C92.1087 52.0999 92.5247 51.7799 92.5567 51.5559C92.6207 51.1399 93.1007 51.0759 93.3567 51.4599C93.7407 52.0359 92.9087 52.8359 91.3087 53.4119C90.5727 53.6679 90.1887 53.7959 89.9647 53.8279C89.8367 53.8599 89.4207 53.9239 89.0687 53.9559C88.7167 54.0199 88.2687 54.0519 87.6927 54.0519V54.8519C87.6927 55.6519 87.5327 56.8039 87.4047 56.9639C87.3727 56.9959 87.3407 57.0919 87.3087 57.1879C87.2767 57.2839 87.1167 57.5719 86.9567 57.8279C86.7967 58.0839 86.6687 58.3399 86.6687 58.4039C86.6687 58.5959 86.0287 59.3959 85.6447 59.6839C84.9407 60.1959 84.3967 60.3559 83.2127 60.3879C82.2527 60.4199 82.1887 60.4199 81.8047 60.2599C81.4207 60.0999 80.4287 59.4279 80.4287 59.2999C80.4287 59.2679 80.3647 59.1399 80.2687 59.0439C79.8207 58.4679 79.3727 57.1559 79.3727 56.4199C79.3727 55.7479 79.5007 55.4599 79.9167 55.1399C80.0767 55.0119 80.2687 54.8519 80.3327 54.7879C80.8127 54.4359 81.4847 54.1159 81.9327 54.0199C82.0607 53.9879 82.4447 53.8919 82.7647 53.8279C83.0847 53.7639 83.5967 53.6679 83.8847 53.6359C84.1727 53.6039 84.8127 53.5079 85.2927 53.4439C85.7727 53.3799 86.3487 53.3159 86.9247 53.3159L86.9887 53.0919C87.0207 52.9639 87.0207 52.7719 87.0207 52.6439C86.9887 52.5159 86.9887 52.2919 87.0527 52.1639C87.0847 52.0359 87.1167 51.7159 87.1807 51.0119H86.7647C85.1007 51.0119 84.3327 50.4359 84.0127 48.8999C83.9487 48.6439 83.8527 48.3559 83.7887 48.2599C83.5007 47.7159 83.7247 45.9239 84.1727 45.0919C84.6527 44.1959 84.8767 43.9719 85.5807 43.6839C85.9327 43.5239 86.2847 43.3639 86.3807 43.3319ZM87.1167 44.0039V44.0359C86.6687 43.8759 85.7087 44.2599 85.3247 44.7399C84.7487 45.4119 84.4607 46.2759 84.6847 46.5639C84.8127 46.7239 84.8127 46.7879 84.7487 46.9159C84.6207 47.1719 84.6527 48.0999 84.7807 48.2919C85.1007 48.7719 85.6447 49.1879 85.9647 49.1879C86.2527 49.1879 87.4367 47.8119 87.4367 47.4599C87.4367 47.4279 87.5327 47.2359 87.6287 47.0759C87.7247 46.9159 87.8207 46.7239 87.8207 46.6599C87.8207 46.5959 87.8847 46.4679 87.9167 46.3399C88.1727 45.8279 87.5967 44.1639 87.1167 44.0039ZM87.2387 49.9622L87.4047 49.2839C87.4687 49.0279 87.4687 49.0279 87.3407 49.2199C87.2767 49.2839 87.0847 49.5079 86.8927 49.6999C86.5407 50.0519 86.5407 50.0519 86.7327 50.0519C86.9567 50.0519 87.1747 50.2822 87.2387 49.9622ZM86.8287 54.6279L86.7647 53.9559H86.4127C85.9327 53.9559 84.9087 54.1159 84.7487 54.2119C84.6847 54.2439 84.4287 54.2759 84.1727 54.2759C83.7567 54.2759 83.3727 54.3399 82.2207 54.6279C81.7727 54.7239 81.1967 54.9799 80.9087 55.2039C80.8127 55.2999 80.6527 55.4279 80.5567 55.4919C79.9807 55.7799 79.9487 56.2599 80.3967 57.4119C80.8127 58.4679 81.2287 58.9479 81.9967 59.2679C82.7007 59.5559 84.3967 59.3639 85.0367 58.9159C85.1007 58.8519 85.2607 58.7559 85.3567 58.6919C85.5807 58.5319 85.9007 58.0519 85.9647 57.7959C85.9967 57.6999 86.1247 57.4759 86.2527 57.3159C86.6687 56.6759 86.8287 55.9079 86.8287 54.6279Z" stroke="url(#paint4_linear_1401_1829)" stroke-width="2" mask="url(#path-3-outside-1_1401_1829)"/>
<path d="M99.2109 45.2199L99.1149 45.3159C99.6589 45.0279 100.171 44.9959 101.707 45.1239C102.955 45.2199 103.819 45.9239 104.363 47.2679C104.651 48.0039 104.491 49.7959 104.043 50.7879C103.947 50.9799 103.851 51.2359 103.819 51.3639C103.627 52.0039 103.051 52.8679 102.571 53.2519C102.251 53.5079 102.251 53.5079 101.739 53.5079C101.131 53.5079 100.747 53.4119 100.427 53.1559C99.8829 52.7399 99.2429 52.1319 99.0509 51.8119C98.9549 51.6199 98.7309 51.2679 98.5709 51.0119C98.2509 50.5319 98.1869 50.4359 97.9949 49.9879C97.8989 49.7959 97.8989 49.7959 97.4509 49.7959C96.7469 49.7959 96.5869 49.4439 96.8429 48.3559C96.9069 48.1319 96.9389 47.8759 96.9389 47.7799C96.9389 47.6839 97.0029 47.5239 97.0669 47.4279C97.1309 47.3319 97.1949 47.2039 97.1949 47.1399C97.1949 47.0439 97.3549 46.7239 97.4509 46.6599C97.4829 46.6279 97.6109 46.4359 97.7389 46.2119C97.9629 45.7959 98.3149 45.5079 98.6349 45.4759C98.6989 45.4759 98.9549 45.3479 99.2109 45.2199ZM101.803 45.9879H101.771C99.8509 45.8919 99.8829 45.8919 99.6269 46.0199C99.1149 46.2759 98.6349 46.4999 98.5709 46.4999C98.5069 46.4999 97.9309 47.4599 97.9309 47.5879C97.9309 47.6519 97.8669 47.7799 97.8029 47.8759C97.6749 48.0679 97.6429 48.4199 97.7389 48.4199C97.8029 48.4199 98.7629 49.7639 98.7629 49.8599C98.7629 50.1799 99.7869 51.6199 100.363 52.1319C100.907 52.6119 101.035 52.6759 101.675 52.6759C101.995 52.6759 101.995 52.6759 102.187 52.3559C102.315 52.1959 102.507 51.9399 102.603 51.8119C102.795 51.5239 102.987 51.0759 102.987 50.8519C102.987 50.7879 103.051 50.6599 103.115 50.5959C103.563 50.0199 103.755 48.2279 103.467 47.4279C103.179 46.6599 102.443 46.0199 101.803 45.9879Z" stroke="url(#paint5_linear_1401_1829)" stroke-width="2" mask="url(#path-3-outside-1_1401_1829)"/>
<path d="M107.907 43.2039C108.099 43.0119 108.323 43.0439 108.515 43.1719C108.611 43.2679 108.739 43.8439 108.995 45.3479L109.219 45.1239C109.443 44.8999 109.763 44.8039 110.915 44.5799C111.651 44.4199 113.827 44.4199 114.339 44.5799C114.819 44.7399 115.075 44.9319 115.235 45.2519C115.299 45.3799 115.395 45.5719 115.459 45.6679C115.555 45.8279 115.811 46.6919 115.811 46.8519C115.811 46.9479 115.491 47.2039 115.363 47.2039C115.171 47.2039 114.947 46.9479 114.883 46.6279C114.819 46.1479 114.403 45.5079 114.115 45.3799C113.635 45.1879 111.075 45.2199 110.819 45.4119C110.787 45.4439 110.627 45.4759 110.467 45.4759C110.307 45.5079 110.147 45.5399 110.147 45.5719C110.115 45.6039 110.019 45.6359 109.923 45.6359C109.731 45.6359 109.443 45.9239 109.379 46.1799C109.347 46.2759 109.315 47.8439 109.315 49.6679C109.315 53.3159 109.347 53.1239 108.899 53.1239C108.515 53.1239 108.483 53.0279 108.419 50.9479C108.387 49.9239 108.323 48.9639 108.291 48.8359C108.259 48.7079 108.227 48.1639 108.227 47.5879C108.227 47.0119 108.195 46.4999 108.163 46.4359C108.131 46.3719 108.099 45.9879 108.067 45.6039C108.035 45.2199 107.939 44.6439 107.875 44.3239C107.715 43.5239 107.715 43.3959 107.907 43.2039Z" stroke="url(#paint6_linear_1401_1829)" stroke-width="2" mask="url(#path-3-outside-1_1401_1829)"/>
<path d="M119.926 42.3399L119.894 42.1799C119.99 42.0199 120.31 41.9879 120.502 42.1479C120.598 42.2439 120.598 42.3399 120.598 42.9799C120.598 43.9399 120.534 44.9959 120.47 45.0919C120.438 45.1239 120.406 45.5399 120.374 45.9879C120.342 46.4359 120.278 47.0119 120.214 47.2679C120.15 47.4919 120.086 48.0999 120.054 48.6119C120.022 49.1239 119.99 49.5719 119.99 49.6359C119.926 49.7639 119.83 50.7239 119.766 51.8439C119.734 53.0279 119.702 53.0919 119.318 53.0919C118.934 53.0919 118.87 52.8679 118.902 51.7479C118.902 51.2039 118.934 50.6279 118.998 50.4679C119.126 49.9559 119.222 49.1239 119.286 48.2279C119.318 47.7799 119.382 47.3319 119.414 47.2359C119.446 47.1399 119.51 46.6919 119.542 46.2439C119.574 45.7959 119.638 45.3159 119.67 45.1879C119.702 45.0599 119.766 44.3879 119.798 43.7159C119.83 42.8519 119.862 42.4679 119.926 42.3399Z" stroke="url(#paint7_linear_1401_1829)" stroke-width="2" mask="url(#path-3-outside-1_1401_1829)"/>
<path d="M128.096 41.4439H128.128C128.576 41.2839 129.856 41.6359 130.048 41.9559C130.144 42.1479 130.176 43.4599 130.112 43.6839C130.08 43.7799 129.984 44.0999 129.92 44.4199C129.824 44.9319 129.664 45.3159 129.248 46.0519C128.864 46.7559 128.64 47.1079 128.448 47.3319C128.32 47.4599 128.224 47.5879 128.224 47.6199C128.224 47.6519 128.096 47.8439 127.936 48.0359C127.776 48.2279 127.488 48.5799 127.296 48.8039C127.104 49.0279 126.912 49.2199 126.88 49.2199C126.848 49.2199 126.72 49.3479 126.592 49.4759C126.4 49.6999 126.304 49.7319 126.144 49.7319C125.632 49.6679 125.6 49.0279 126.08 48.7399C126.624 48.4199 128.16 46.4999 128.288 45.9879C128.32 45.8919 128.384 45.7639 128.416 45.7319C128.64 45.5399 128.992 44.7399 129.024 44.2919C129.056 44.0359 129.12 43.7479 129.184 43.6519C129.248 43.5239 129.28 43.2679 129.28 42.9479C129.28 42.4359 129.28 42.4359 129.12 42.4039C127.872 42.0519 125.28 43.2679 124.896 44.3879C124.768 44.7079 124.768 48.5159 124.896 48.8039C124.96 48.9319 125.024 49.2199 125.056 49.4119C125.12 49.8599 125.28 50.3399 125.536 50.8199C125.632 51.0119 125.696 51.2039 125.696 51.2679C125.696 51.3959 126.368 51.9719 126.688 52.1319C127.968 52.8039 129.824 53.2519 130.528 53.0599C130.976 52.9319 131.328 52.2919 131.392 51.4279C131.456 50.8199 131.52 50.6919 131.84 50.6919C132.384 50.6919 132.416 51.6839 131.936 52.8999C131.552 53.7959 130.624 54.0839 129.056 53.7959C128.832 53.7639 128.544 53.6999 128.416 53.6999C128.192 53.6679 126.912 53.1559 126.176 52.8359C125.696 52.6119 125.024 51.9719 124.864 51.5879C124.32 50.3399 124.288 50.2119 124.128 49.4119C124.096 49.1879 124.032 48.8999 124 48.7719C123.904 48.4839 123.872 44.5479 123.968 44.2279C124.16 43.4919 124.992 42.6279 126.08 42.0839C126.464 41.8919 127.872 41.4119 127.936 41.4759C127.968 41.4759 128.032 41.4759 128.096 41.4439Z" stroke="url(#paint8_linear_1401_1829)" stroke-width="2" mask="url(#path-3-outside-1_1401_1829)"/>
<path d="M137.642 40.4839C138.154 40.3559 138.346 40.6439 138.73 40.8679C138.922 40.9959 139.114 41.0919 139.146 41.0919C139.242 41.0919 140.106 41.8279 140.202 41.9879C140.266 42.0839 140.458 42.3719 140.65 42.6599C141.13 43.3959 141.642 44.4839 141.61 44.6759C141.514 45.0279 141.066 45.0599 140.81 44.7399C140.65 44.5159 140.618 44.4839 140.202 43.6199C140.074 43.3319 139.882 43.0119 139.786 42.9159C139.69 42.8199 139.562 42.6599 139.53 42.5639C139.466 42.3399 138.986 41.9559 138.442 41.6679C138.122 41.5079 138.058 41.5079 137.834 41.5399C137.578 41.6039 136.938 42.1159 136.938 42.2759C136.938 42.3079 136.842 42.4999 136.682 42.6919C136.266 43.2999 136.234 43.4599 136.202 45.3799C136.17 46.3399 136.17 46.4039 136.33 46.7239C136.554 47.1719 136.554 47.1719 138.026 47.2999C138.73 47.3639 139.562 47.4599 139.882 47.4919C140.202 47.5239 140.586 47.5559 140.714 47.5559C141.578 47.6199 142.762 48.1639 143.274 48.7079C143.754 49.2519 143.786 49.3479 143.786 50.4359C143.786 51.5239 143.754 51.6519 143.274 52.0359C143.05 52.1959 142.026 52.6759 141.898 52.6759C141.866 52.6759 141.674 52.7399 141.45 52.8359C140.522 53.1879 138.122 53.3159 137.93 52.9959C137.546 52.4839 137.194 51.7479 137.194 51.4919C137.194 51.2999 137.418 51.1079 137.642 51.1079C137.898 51.1079 138.09 51.2999 138.186 51.6199C138.218 51.7799 138.314 51.9719 138.538 52.2279H139.37C140.138 52.2279 140.682 52.1319 141.098 51.9399C141.162 51.9079 141.322 51.8439 141.482 51.7799C141.61 51.7159 141.77 51.6839 141.834 51.6839C141.994 51.6839 142.634 51.3639 142.858 51.1719C142.986 51.0439 142.986 50.9799 142.986 49.4759L142.698 49.1559C142.09 48.4839 141.322 48.2599 138.506 48.0039C136.106 47.7799 136.106 47.7799 135.402 46.4359V45.4119C135.402 43.4599 135.53 42.6919 135.914 42.2119C135.946 42.1799 136.074 41.9559 136.202 41.7319C136.33 41.4759 136.458 41.2839 136.554 41.2519C136.618 41.2199 136.746 41.1239 136.81 41.0599C137.002 40.8039 137.386 40.5479 137.642 40.4839Z" stroke="url(#paint9_linear_1401_1829)" stroke-width="2" mask="url(#path-3-outside-1_1401_1829)"/>
<defs>
<filter id="filter0_f_1401_1829" x="-0.00019455" y="-0.00019455" width="174.92" height="89.9921" filterUnits="userSpaceOnUse" color-interpolation-filters="sRGB">
<feFlood flood-opacity="0" result="BackgroundImageFix"/>
<feBlend mode="normal" in="SourceGraphic" in2="BackgroundImageFix" result="shape"/>
<feGaussianBlur stdDeviation="8.4" result="effect1_foregroundBlur_1401_1829"/>
</filter>
<linearGradient id="paint0_linear_1401_1829" x1="86.1573" y1="42.4252" x2="86.746" y2="61.0187" gradientUnits="userSpaceOnUse">
<stop offset="0.201426" stop-color="#B4B4B4"/>
<stop offset="1" stop-color="#2D2D2D"/>
</linearGradient>
<linearGradient id="paint1_linear_1401_1829" x1="86.1573" y1="42.4252" x2="86.746" y2="61.0187" gradientUnits="userSpaceOnUse">
<stop offset="0.201426" stop-color="#B4B4B4"/>
<stop offset="1" stop-color="#2D2D2D"/>
</linearGradient>
<linearGradient id="paint2_linear_1401_1829" x1="86.1573" y1="42.4252" x2="86.746" y2="61.0187" gradientUnits="userSpaceOnUse">
<stop offset="0.201426" stop-color="#B4B4B4"/>
<stop offset="1" stop-color="#2D2D2D"/>
</linearGradient>
<linearGradient id="paint3_linear_1401_1829" x1="86.1573" y1="42.4252" x2="86.746" y2="61.0187" gradientUnits="userSpaceOnUse">
<stop offset="0.201426" stop-color="#B4B4B4"/>
<stop offset="1" stop-color="#2D2D2D"/>
</linearGradient>
<linearGradient id="paint4_linear_1401_1829" x1="86.1573" y1="42.4252" x2="86.746" y2="61.0187" gradientUnits="userSpaceOnUse">
<stop offset="0.201426" stop-color="#B4B4B4"/>
<stop offset="1" stop-color="#2D2D2D"/>
</linearGradient>
<linearGradient id="paint5_linear_1401_1829" x1="86.1573" y1="42.4252" x2="86.746" y2="61.0187" gradientUnits="userSpaceOnUse">
<stop offset="0.201426" stop-color="#B4B4B4"/>
<stop offset="1" stop-color="#2D2D2D"/>
</linearGradient>
<linearGradient id="paint6_linear_1401_1829" x1="86.1573" y1="42.4252" x2="86.746" y2="61.0187" gradientUnits="userSpaceOnUse">
<stop offset="0.201426" stop-color="#B4B4B4"/>
<stop offset="1" stop-color="#2D2D2D"/>
</linearGradient>
<linearGradient id="paint7_linear_1401_1829" x1="86.1573" y1="42.4252" x2="86.746" y2="61.0187" gradientUnits="userSpaceOnUse">
<stop offset="0.201426" stop-color="#B4B4B4"/>
<stop offset="1" stop-color="#2D2D2D"/>
</linearGradient>
<linearGradient id="paint8_linear_1401_1829" x1="86.1573" y1="42.4252" x2="86.746" y2="61.0187" gradientUnits="userSpaceOnUse">
<stop offset="0.201426" stop-color="#B4B4B4"/>
<stop offset="1" stop-color="#2D2D2D"/>
</linearGradient>
<linearGradient id="paint9_linear_1401_1829" x1="86.1573" y1="42.4252" x2="86.746" y2="61.0187" gradientUnits="userSpaceOnUse">
<stop offset="0.201426" stop-color="#B4B4B4"/>
<stop offset="1" stop-color="#2D2D2D"/>
</linearGradient>
</defs>
</svg>
