<svg width="76" height="90" viewBox="0 0 76 90" fill="none" xmlns="http://www.w3.org/2000/svg">
<g filter="url(#filter0_f_1441_1425)">
<rect x="16.7998" y="16.8008" width="41.6111" height="56.3921" fill="white"/>
<rect x="17.2998" y="17.3008" width="40.6111" height="55.3921" stroke="black"/>
</g>
<mask id="path-3-outside-1_1441_1425" maskUnits="userSpaceOnUse" x="29.1055" y="31.9414" width="16" height="29" fill="black">
<rect fill="white" x="29.1055" y="31.9414" width="16" height="29"/>
<path d="M42.2055 34.8014V35.0414C42.6855 34.5614 43.4655 34.7414 43.6455 35.4014C43.7655 35.8214 41.9055 39.5414 41.1255 40.3814C41.0055 40.5014 40.8255 40.8014 40.7055 41.0414C40.5855 41.2814 40.2255 42.0014 39.8655 42.6614C39.5055 43.2614 39.2055 43.8014 39.2055 43.8614C39.2055 43.9214 38.9055 44.5814 38.4855 45.2414C38.1255 45.9614 37.7655 46.6814 37.7055 46.8614C37.6455 47.0414 37.2855 47.7614 36.9255 48.4814C36.5655 49.2014 36.2655 49.8014 36.2655 49.8614C36.2655 50.1014 34.7055 53.5214 34.3455 54.0014C34.1655 54.3014 33.9855 54.6014 33.9855 54.6614C33.9855 54.8414 33.4455 56.2814 33.1455 56.9414C33.0255 57.1814 32.9055 57.5414 32.8455 57.7214C32.6055 58.9214 31.9455 59.3414 31.2855 58.6814C30.9255 58.3214 30.8655 57.7214 31.1655 57.4814C31.2855 57.4214 31.3455 57.2414 31.3455 57.1214C31.3455 57.0014 31.4655 56.7014 31.5855 56.4614C31.9455 55.8014 32.3055 54.7814 32.3055 54.4814C32.3055 54.3614 32.5455 53.8214 32.9055 53.2814C33.2055 52.8014 33.7455 51.7814 34.0455 51.0014C34.3455 50.2214 35.5455 47.6414 36.7455 45.2414C37.9455 42.8414 38.9655 40.8014 39.0255 40.6214C39.0855 40.4414 39.3855 39.9614 39.6855 39.4814C39.9855 39.0614 40.3455 38.4614 40.5255 38.1614C41.3655 36.6614 41.9055 35.5814 41.9055 35.3414C41.9055 35.2214 42.0255 34.9814 42.2055 34.8014Z"/>
</mask>
<path d="M42.2055 34.8014V35.0414C42.6855 34.5614 43.4655 34.7414 43.6455 35.4014C43.7655 35.8214 41.9055 39.5414 41.1255 40.3814C41.0055 40.5014 40.8255 40.8014 40.7055 41.0414C40.5855 41.2814 40.2255 42.0014 39.8655 42.6614C39.5055 43.2614 39.2055 43.8014 39.2055 43.8614C39.2055 43.9214 38.9055 44.5814 38.4855 45.2414C38.1255 45.9614 37.7655 46.6814 37.7055 46.8614C37.6455 47.0414 37.2855 47.7614 36.9255 48.4814C36.5655 49.2014 36.2655 49.8014 36.2655 49.8614C36.2655 50.1014 34.7055 53.5214 34.3455 54.0014C34.1655 54.3014 33.9855 54.6014 33.9855 54.6614C33.9855 54.8414 33.4455 56.2814 33.1455 56.9414C33.0255 57.1814 32.9055 57.5414 32.8455 57.7214C32.6055 58.9214 31.9455 59.3414 31.2855 58.6814C30.9255 58.3214 30.8655 57.7214 31.1655 57.4814C31.2855 57.4214 31.3455 57.2414 31.3455 57.1214C31.3455 57.0014 31.4655 56.7014 31.5855 56.4614C31.9455 55.8014 32.3055 54.7814 32.3055 54.4814C32.3055 54.3614 32.5455 53.8214 32.9055 53.2814C33.2055 52.8014 33.7455 51.7814 34.0455 51.0014C34.3455 50.2214 35.5455 47.6414 36.7455 45.2414C37.9455 42.8414 38.9655 40.8014 39.0255 40.6214C39.0855 40.4414 39.3855 39.9614 39.6855 39.4814C39.9855 39.0614 40.3455 38.4614 40.5255 38.1614C41.3655 36.6614 41.9055 35.5814 41.9055 35.3414C41.9055 35.2214 42.0255 34.9814 42.2055 34.8014Z" fill="#D2D2D2"/>
<path d="M42.2055 34.8014H43.2055V32.3872L41.4984 34.0943L42.2055 34.8014ZM42.2055 35.0414H41.2055V37.4556L42.9126 35.7485L42.2055 35.0414ZM43.6455 35.4014L42.6806 35.6645L42.6839 35.6761L43.6455 35.4014ZM41.1255 40.3814L41.8326 41.0885L41.8457 41.0754L41.8583 41.0619L41.1255 40.3814ZM39.8655 42.6614L40.723 43.1759L40.7335 43.1583L40.7434 43.1403L39.8655 42.6614ZM38.4855 45.2414L37.6418 44.7045L37.6141 44.7481L37.591 44.7942L38.4855 45.2414ZM36.9255 48.4814L36.031 48.0342H36.031L36.9255 48.4814ZM34.3455 54.0014L33.5455 53.4014L33.5145 53.4427L33.488 53.4869L34.3455 54.0014ZM33.1455 56.9414L34.0399 57.3886L34.0482 57.3721L34.0558 57.3552L33.1455 56.9414ZM32.8455 57.7214L31.8968 57.4052L31.8771 57.4642L31.8649 57.5253L32.8455 57.7214ZM31.2855 58.6814L31.9926 57.9743H31.9926L31.2855 58.6814ZM31.1655 57.4814L30.7183 56.587L30.6235 56.6344L30.5408 56.7005L31.1655 57.4814ZM31.5855 56.4614L30.7076 55.9826L30.699 55.9982L30.691 56.0142L31.5855 56.4614ZM32.9055 53.2814L33.7375 53.8361L33.7457 53.8239L33.7535 53.8114L32.9055 53.2814ZM34.0455 51.0014L34.9788 51.3604L34.9788 51.3604L34.0455 51.0014ZM36.7455 45.2414L35.851 44.7942H35.851L36.7455 45.2414ZM39.6855 39.4814L38.8717 38.9002L38.8538 38.9253L38.8375 38.9514L39.6855 39.4814ZM40.5255 38.1614L41.383 38.6759L41.3907 38.6631L41.398 38.65L40.5255 38.1614ZM42.2055 34.8014H41.2055V35.0414H42.2055H43.2055V34.8014H42.2055ZM42.2055 35.0414L42.9126 35.7485C42.9128 35.7482 42.9018 35.7584 42.8782 35.765C42.8565 35.7712 42.83 35.7725 42.8016 35.7656C42.7729 35.7586 42.7429 35.7432 42.7178 35.7189C42.6909 35.693 42.6819 35.669 42.6807 35.6645L43.6455 35.4014L44.6102 35.1383C44.2136 33.6841 42.4817 33.351 41.4984 34.3343L42.2055 35.0414ZM43.6455 35.4014L42.6839 35.6761C42.6533 35.5688 42.651 35.4845 42.651 35.449C42.6511 35.4085 42.6547 35.3821 42.6556 35.3758C42.6572 35.3646 42.6558 35.3789 42.6419 35.4275C42.6148 35.5226 42.5635 35.6688 42.4846 35.8647C42.3286 36.2515 42.0959 36.7556 41.8298 37.2842C41.5644 37.8113 41.2739 38.3468 41.0062 38.796C40.725 39.2677 40.5088 39.5759 40.3927 39.701L41.1255 40.3814L41.8583 41.0619C42.1321 40.767 42.4409 40.2951 42.7241 39.82C43.0208 39.3223 43.334 38.744 43.6162 38.1836C43.8975 37.6247 44.1561 37.0676 44.3395 36.6125C44.4302 36.3874 44.5106 36.1676 44.5654 35.9755C44.5924 35.8806 44.6194 35.771 44.6355 35.6588C44.647 35.5779 44.6749 35.3642 44.607 35.1267L43.6455 35.4014ZM41.1255 40.3814L40.4184 39.6743C40.273 39.8197 40.1483 40.0071 40.0675 40.1364C39.9746 40.285 39.8843 40.4477 39.811 40.5942L40.7055 41.0414L41.5999 41.4886C41.6467 41.3951 41.7063 41.2879 41.7635 41.1964C41.7918 41.151 41.8157 41.1158 41.8335 41.0914C41.8547 41.0624 41.8541 41.067 41.8326 41.0885L41.1255 40.3814ZM40.7055 41.0414L39.811 40.5942C39.6908 40.8346 39.338 41.54 38.9876 42.1826L39.8655 42.6614L40.7434 43.1403C41.1129 42.4628 41.4801 41.7282 41.5999 41.4886L40.7055 41.0414ZM39.8655 42.6614L39.008 42.1469C38.8238 42.4539 38.6524 42.7498 38.5249 42.9808C38.4619 43.0949 38.4048 43.2022 38.3611 43.2907C38.34 43.3334 38.3155 43.385 38.2941 43.4372C38.2837 43.4626 38.2681 43.5023 38.2535 43.5495C38.247 43.5705 38.2055 43.6978 38.2055 43.8614H39.2055H40.2055C40.2055 43.9537 40.1923 44.0247 40.1856 44.0568C40.1779 44.0943 40.1695 44.1233 40.1644 44.1398C40.1544 44.1722 40.1456 44.1935 40.1441 44.1972C40.1404 44.2061 40.1422 44.201 40.1548 44.1753C40.1787 44.1269 40.219 44.0504 40.276 43.947C40.3886 43.7431 40.5471 43.469 40.723 43.1759L39.8655 42.6614ZM39.2055 43.8614H38.2055C38.2055 43.7726 38.2178 43.7049 38.2225 43.6805C38.2285 43.6488 38.2349 43.6248 38.2384 43.6122C38.2422 43.5985 38.2454 43.5883 38.2472 43.5829C38.2491 43.5771 38.2504 43.5734 38.2508 43.5723C38.2513 43.5708 38.2466 43.5836 38.2334 43.6143C38.2081 43.6731 38.1661 43.7641 38.1085 43.8792C37.9936 44.1091 37.8303 44.4084 37.6418 44.7045L38.4855 45.2414L39.3291 45.7783C39.5607 45.4144 39.7573 45.0537 39.8974 44.7736C39.9673 44.6337 40.0266 44.5072 40.0706 44.4047C40.0921 44.3548 40.1141 44.301 40.1327 44.2494C40.1417 44.2245 40.1541 44.1883 40.1656 44.1468C40.1688 44.1355 40.2055 44.0138 40.2055 43.8614H39.2055ZM38.4855 45.2414L37.591 44.7942C37.4118 45.1527 37.2292 45.5178 37.084 45.8159C36.9558 46.0791 36.8129 46.3768 36.7568 46.5452L37.7055 46.8614L38.6542 47.1776C38.6494 47.192 38.6603 47.1607 38.7107 47.0511C38.7539 46.9571 38.812 46.8355 38.882 46.6919C39.0217 46.405 39.1992 46.0501 39.3799 45.6886L38.4855 45.2414ZM37.7055 46.8614L36.7568 46.5452C36.7616 46.5308 36.7506 46.5621 36.7002 46.6717C36.657 46.7657 36.5989 46.8873 36.529 47.0309C36.3892 47.3178 36.2118 47.6727 36.031 48.0342L36.9255 48.4814L37.8199 48.9286C37.9992 48.5701 38.1817 48.205 38.327 47.9069C38.4552 47.6437 38.598 47.346 38.6542 47.1776L37.7055 46.8614ZM36.9255 48.4814L36.031 48.0342C35.8521 48.392 35.6839 48.7284 35.5607 48.9826C35.4995 49.1087 35.4449 49.224 35.4042 49.3156C35.3844 49.36 35.3625 49.4111 35.3437 49.4607C35.3346 49.4848 35.3212 49.5218 35.3086 49.565C35.3044 49.5796 35.2655 49.704 35.2655 49.8614H36.2655H37.2655C37.2655 49.9519 37.2527 50.0211 37.2472 50.0488C37.2405 50.0829 37.2333 50.109 37.2292 50.1229C37.2213 50.1503 37.2146 50.1676 37.2144 50.1681C37.2135 50.1706 37.2178 50.1594 37.2318 50.1279C37.2586 50.0676 37.3014 49.9766 37.3603 49.8552C37.477 49.6144 37.6388 49.2908 37.8199 48.9286L36.9255 48.4814ZM36.2655 49.8614H35.2655C35.2655 49.7073 35.3071 49.5981 35.2901 49.6546C35.2871 49.6647 35.2781 49.6922 35.2596 49.7421C35.2236 49.8397 35.1676 49.9796 35.094 50.155C34.9478 50.5033 34.7465 50.9575 34.5321 51.4233C34.3177 51.8889 34.0941 52.3581 33.9038 52.7369C33.8084 52.9267 33.7242 53.0883 33.6555 53.2129C33.5786 53.3524 33.5442 53.4031 33.5455 53.4014L34.3455 54.0014L35.1455 54.6014C35.3003 54.395 35.5066 54.0015 35.6909 53.6347C35.8944 53.2297 36.1282 52.7389 36.3489 52.2595C36.5694 51.7804 36.7806 51.3045 36.9382 50.929C37.0164 50.7426 37.0851 50.5722 37.1358 50.4349C37.1607 50.3674 37.1856 50.2964 37.2056 50.2297C37.2117 50.2096 37.2655 50.0455 37.2655 49.8614H36.2655ZM34.3455 54.0014L33.488 53.4869C33.4004 53.6328 33.3023 53.7963 33.2264 53.9311C33.1891 53.9974 33.1481 54.0728 33.1139 54.1444C33.0973 54.1793 33.0744 54.2296 33.0535 54.287C33.0447 54.3113 32.9855 54.4651 32.9855 54.6614H33.9855H34.9855C34.9855 54.7199 34.9802 54.7681 34.9752 54.8016C34.9701 54.836 34.9639 54.8644 34.9589 54.8851C34.9491 54.9252 34.9388 54.9548 34.9336 54.9693C34.9233 54.9976 34.9158 55.0123 34.9189 55.0059C34.9241 54.995 34.9393 54.9654 34.9695 54.9117C35.0287 54.8065 35.1105 54.67 35.203 54.5159L34.3455 54.0014ZM33.9855 54.6614H32.9855C32.9855 54.5328 33.0155 54.4507 32.9951 54.5277C32.9863 54.5607 32.9702 54.6152 32.9451 54.6924C32.8957 54.8448 32.8241 55.0481 32.7404 55.2736C32.5719 55.7279 32.3712 56.2282 32.2351 56.5276L33.1455 56.9414L34.0558 57.3552C34.2197 56.9946 34.4391 56.4449 34.6155 55.9692C34.7044 55.7298 34.7864 55.498 34.8477 55.3092C34.8779 55.2158 34.9063 55.123 34.9283 55.0403C34.9386 55.0014 34.9855 54.835 34.9855 54.6614H33.9855ZM33.1455 56.9414L32.251 56.4942C32.0928 56.8107 31.9503 57.2447 31.8968 57.4052L32.8455 57.7214L33.7942 58.0376C33.8243 57.9472 33.8648 57.8258 33.9113 57.6996C33.9597 57.5682 34.0047 57.459 34.0399 57.3886L33.1455 56.9414ZM32.8455 57.7214L31.8649 57.5253C31.819 57.7546 31.7604 57.9076 31.7117 57.9984C31.6609 58.0933 31.642 58.0826 31.695 58.0496C31.7246 58.0312 31.7702 58.0104 31.8292 57.9998C31.8889 57.9891 31.9441 57.9922 31.9878 58.0017C32.0701 58.0198 32.0676 58.0493 31.9926 57.9743L31.2855 58.6814L30.5784 59.3885C30.8334 59.6435 31.1608 59.8681 31.56 59.9555C31.983 60.048 32.3998 59.9664 32.7509 59.7482C33.3852 59.3539 33.6887 58.6044 33.826 57.9175L32.8455 57.7214ZM31.2855 58.6814L31.9926 57.9743C31.9904 57.9721 31.9845 57.9651 31.979 57.9533C31.9732 57.9408 31.9727 57.9335 31.973 57.9369C31.9732 57.9384 31.9767 57.9711 31.9585 58.0274C31.9392 58.087 31.8917 58.1811 31.7902 58.2623L31.1655 57.4814L30.5408 56.7005C30.0331 57.1067 29.9406 57.7124 29.9829 58.1359C30.0275 58.5816 30.2288 59.039 30.5784 59.3885L31.2855 58.6814ZM31.1655 57.4814L31.6127 58.3758C31.9615 58.2014 32.1352 57.908 32.2143 57.73C32.299 57.5395 32.3455 57.3265 32.3455 57.1214H31.3455H30.3455C30.3455 57.0363 30.362 56.9733 30.3867 56.9178C30.4058 56.8748 30.4895 56.7014 30.7183 56.587L31.1655 57.4814ZM31.3455 57.1214H32.3455C32.3455 57.1834 32.3384 57.2266 32.336 57.2403C32.333 57.2572 32.3307 57.2651 32.3317 57.2614C32.3339 57.2533 32.3413 57.2289 32.3568 57.1875C32.3876 57.1054 32.4329 57.0027 32.4799 56.9086L31.5855 56.4614L30.691 56.0142C30.6181 56.1601 30.5433 56.3274 30.4841 56.4853C30.4547 56.5639 30.4245 56.6521 30.4005 56.7414C30.3812 56.8132 30.3455 56.9569 30.3455 57.1214H31.3455ZM31.5855 56.4614L32.4634 56.9403C32.6742 56.5537 32.8741 56.0842 33.0214 55.6751C33.0957 55.4687 33.1614 55.2643 33.21 55.0814C33.251 54.9274 33.3055 54.6977 33.3055 54.4814H32.3055H31.3055C31.3055 54.4151 31.315 54.4254 31.2772 54.5676C31.247 54.681 31.2003 54.8291 31.1396 54.9977C31.0168 55.3386 30.8567 55.7091 30.7076 55.9826L31.5855 56.4614ZM32.3055 54.4814H33.3055C33.3055 54.5505 33.2975 54.6021 33.2936 54.6244C33.2892 54.6503 33.2847 54.6679 33.2829 54.6747C33.2794 54.6875 33.2791 54.6861 33.2863 54.6665C33.3004 54.6286 33.3278 54.5631 33.371 54.4737C33.4567 54.2961 33.5841 54.0663 33.7375 53.8361L32.9055 53.2814L32.0734 52.7267C31.8669 53.0365 31.6942 53.3467 31.5699 53.6042C31.5081 53.7322 31.453 53.858 31.4108 53.9719C31.39 54.0283 31.3681 54.0929 31.3501 54.1604C31.337 54.2098 31.3055 54.333 31.3055 54.4814H32.3055ZM32.9055 53.2814L33.7535 53.8114C34.0814 53.2867 34.6522 52.2096 34.9788 51.3604L34.0455 51.0014L33.1121 50.6424C32.8387 51.3532 32.3295 52.3161 32.0575 52.7514L32.9055 53.2814ZM34.0455 51.0014L34.9788 51.3604C35.2591 50.6316 36.4382 48.0921 37.6399 45.6886L36.7455 45.2414L35.851 44.7942C34.6528 47.1907 33.4318 49.8112 33.1121 50.6424L34.0455 51.0014ZM36.7455 45.2414L37.6399 45.6886C38.2396 44.4893 38.7955 43.3774 39.209 42.5429C39.4156 42.1259 39.588 41.7755 39.713 41.5169C39.7753 41.388 39.8275 41.2785 39.8669 41.1933C39.8948 41.1331 39.9451 41.0249 39.9742 40.9376L39.0255 40.6214L38.0768 40.3052C38.0909 40.2629 38.0961 40.2579 38.0521 40.353C38.0195 40.4233 37.9728 40.5213 37.9123 40.6465C37.7917 40.896 37.6228 41.2394 37.4169 41.6549C37.0054 42.4854 36.4514 43.5936 35.851 44.7942L36.7455 45.2414ZM39.0255 40.6214L39.9742 40.9376C39.9612 40.9764 39.9575 40.9744 39.9952 40.9032C40.0259 40.8453 40.0695 40.7687 40.1258 40.6737C40.2385 40.4835 40.3816 40.2544 40.5335 40.0114L39.6855 39.4814L38.8375 38.9514C38.6894 39.1884 38.5325 39.4393 38.4052 39.6541C38.3004 39.8308 38.1474 40.0933 38.0768 40.3052L39.0255 40.6214ZM39.6855 39.4814L40.4992 40.0626C40.8269 39.6038 41.2083 38.9671 41.383 38.6759L40.5255 38.1614L39.668 37.6469C39.4827 37.9557 39.144 38.519 38.8717 38.9002L39.6855 39.4814ZM40.5255 38.1614L41.398 38.65C41.8218 37.8932 42.1764 37.2309 42.4276 36.7206C42.5525 36.467 42.6586 36.2373 42.7357 36.0456C42.774 35.9503 42.8108 35.8507 42.8395 35.7538C42.862 35.6778 42.9055 35.5211 42.9055 35.3414H41.9055H40.9055C40.9055 35.2217 40.9321 35.1513 40.9217 35.1861C40.9176 35.2001 40.9057 35.2359 40.8803 35.2991C40.8299 35.4242 40.7484 35.6033 40.6333 35.8372C40.4045 36.302 40.0692 36.9296 39.653 37.6728L40.5255 38.1614ZM41.9055 35.3414H42.9055C42.9055 35.4066 42.8977 35.4562 42.892 35.4848C42.8861 35.515 42.8796 35.5364 42.8757 35.5479C42.8684 35.57 42.8641 35.5761 42.8684 35.568C42.872 35.5614 42.8787 35.5503 42.8881 35.5375C42.8975 35.5248 42.9062 35.5149 42.9126 35.5085L42.2055 34.8014L41.4984 34.0943C41.3346 34.2581 41.2027 34.443 41.1075 34.6198C41.0325 34.7591 40.9055 35.0284 40.9055 35.3414H41.9055Z" fill="url(#paint0_linear_1441_1425)" mask="url(#path-3-outside-1_1441_1425)"/>
<defs>
<filter id="filter0_f_1441_1425" x="-0.00019455" y="0.000782013" width="75.2108" height="89.9926" filterUnits="userSpaceOnUse" color-interpolation-filters="sRGB">
<feFlood flood-opacity="0" result="BackgroundImageFix"/>
<feBlend mode="normal" in="SourceGraphic" in2="BackgroundImageFix" result="shape"/>
<feGaussianBlur stdDeviation="8.4" result="effect1_foregroundBlur_1441_1425"/>
</filter>
<linearGradient id="paint0_linear_1441_1425" x1="37.4057" y1="37.9184" x2="47.5022" y2="69.808" gradientUnits="userSpaceOnUse">
<stop offset="0.00214007" stop-color="#B4B4B4"/>
<stop offset="1" stop-color="#4F4F4F"/>
</linearGradient>
</defs>
</svg>
