<svg width="141" height="141" viewBox="0 0 141 141" fill="none" xmlns="http://www.w3.org/2000/svg">
<rect width="141" height="141" fill="white"/>
<path d="M72.1507 60.9824C72.6796 61.0668 73.1717 61.3649 73.6038 61.6943C74.0405 62.0273 74.4772 62.442 74.8783 62.8115C75.9538 63.8027 76.1087 65.2016 76.1761 66.0527C76.1795 66.0566 76.1837 66.0597 76.1869 66.0635C76.2619 66.1531 76.3176 66.2564 76.3617 66.3535C76.4498 66.5481 76.5238 66.7991 76.5882 67.0859C76.7183 67.6654 76.8328 68.4877 76.9388 69.5234C77.1514 71.6005 77.3339 74.6064 77.5111 78.4063C77.5492 79.223 77.5684 80.1019 77.5726 81.0254C78.0718 83.2891 78.5969 85.5402 79.0404 87.4199C79.0683 87.4429 79.0923 87.4672 79.1126 87.4902C79.237 87.6311 79.286 87.8129 79.3109 87.9248C79.3656 88.1713 79.3877 88.5177 79.3929 88.916C79.7396 90.3781 80.0019 91.4764 80.097 91.9356C80.4185 93.4868 80.802 95.5648 80.8685 105.922C80.8917 109.549 80.2862 111.426 80.1058 112.979C79.9942 113.939 79.6175 115.305 79.1468 116.776C78.6728 118.258 78.0901 119.884 77.5501 121.378C76.829 123.373 76.0664 124.926 75.0355 126.542C73.8697 128.37 72.1309 129.656 70.472 130.712C69.8366 131.516 69.1882 132.297 68.5482 133.046C67.7189 134.016 66.8931 134.522 66.2767 134.618C66.0878 134.648 65.8945 134.633 65.7103 134.558C65.5272 134.483 65.3833 134.36 65.2728 134.219C65.1355 134.043 65.0422 133.827 64.973 133.594C64.8915 133.625 64.8103 133.656 64.7288 133.687C64.2699 133.992 63.828 134.259 63.4105 134.496C63.0793 134.684 62.7061 134.743 62.3724 134.746C62.084 134.748 61.8003 134.707 61.5521 134.651C61.0497 134.771 60.5578 134.873 60.0804 134.956C58.9512 135.315 57.8505 135.537 56.8587 135.694C55.8365 135.856 54.607 135.87 53.6908 135.328C50.9918 135.135 49.179 134.497 48.0452 134.237C47.9478 134.215 47.8489 134.187 47.7611 134.147C47.6947 134.118 47.5351 134.039 47.4408 133.865C47.3845 133.761 47.3588 133.636 47.3822 133.506C47.4039 133.385 47.4607 133.296 47.5072 133.24C47.5923 133.138 47.7 133.078 47.764 133.045C48.0224 132.913 48.4894 132.799 48.9798 132.697C49.8683 132.513 51.0968 132.319 52.1107 132.151C52.0818 131.283 52.2531 130.405 52.4984 129.603C52.7903 128.647 53.1946 127.765 53.5208 127.089C54.5813 124.89 56.0207 123.089 57.4476 121.676C58.0111 120.189 58.6387 118.815 59.2259 117.762C59.9063 116.541 60.9616 115.682 62.0941 115.058C62.8884 113.372 63.8351 111.786 64.7923 110.378C65.3375 108.602 65.8309 106.88 66.4642 104.52C67.0159 102.464 67.614 101.089 68.1029 100.035C68.4097 98.8444 68.7846 97.7993 69.182 96.9024C69.4287 95.7307 69.8177 94.4851 70.1644 93.2959C70.5211 92.0721 70.8342 90.9027 70.9456 89.8486C71.2744 86.7377 71.5747 83.8354 71.7699 79.9541C71.6528 79.7804 71.533 79.6293 71.4095 79.501C71.2557 79.8883 71.0939 80.2622 70.9271 80.6231C70.9302 80.624 70.9337 80.625 70.9369 80.626C70.9916 80.643 71.1481 80.6943 71.262 80.8418L71.3079 80.9121L71.3558 81.0225C71.4363 81.2757 71.306 81.4912 71.2494 81.5674C71.1686 81.6761 71.062 81.7591 70.971 81.8184C70.7827 81.9411 70.529 82.0457 70.2699 82.0908C70.2386 82.0963 70.2072 82.0984 70.1761 82.1025C69.5991 83.1447 68.9974 84.0469 68.4369 84.8018C67.9126 85.5077 67.1823 85.6495 66.6751 85.4053C66.2949 85.222 66.0729 84.8795 65.9505 84.5098C65.8294 84.1435 65.7888 83.7054 65.7982 83.2363C65.815 82.399 65.9924 81.3627 66.2699 80.2393C65.6792 79.9687 65.1222 79.5877 64.7445 78.9844C64.6181 78.9311 64.5249 78.8481 64.4622 78.7764C64.33 78.6248 64.2359 78.4199 64.1634 78.2246C64.0127 77.8183 63.8817 77.238 63.7689 76.5693C63.5417 75.2224 63.3685 73.4064 63.2767 71.6309C63.215 71.1816 63.1999 70.7374 63.224 70.3008C63.1767 68.6517 63.2078 67.1134 63.3529 66.1533C63.4048 65.8095 63.523 65.5095 63.6947 65.25C63.9572 64.4193 64.3617 63.5591 64.9769 62.749C65.1931 62.4644 65.4512 62.2104 65.7347 62.0274C65.9828 61.8672 66.2747 61.747 66.5872 61.7344C67.1877 61.488 67.851 61.3616 68.5013 61.2852C69.143 61.2098 69.8236 61.1755 70.4242 61.1309C70.4672 61.111 70.5476 61.0783 70.6488 61.0723C70.6994 61.0693 70.7633 61.0753 70.8314 61.0947C71.03 61.0728 71.198 61.0399 71.4056 61.0059C71.6213 60.9705 71.8768 60.9388 72.1507 60.9824ZM59.8988 133.596C59.704 133.764 59.5054 133.921 59.3031 134.066C59.4245 134.048 59.5475 134.032 59.6712 134.012C59.727 134.003 59.783 133.993 59.8392 133.983C59.9468 133.949 60.0537 133.91 60.1615 133.873C60.0825 133.815 60.0114 133.746 59.9505 133.668C59.9323 133.645 59.9153 133.62 59.8988 133.596ZM52.2386 133.144C51.3674 133.288 50.3834 133.447 49.5785 133.601C50.1664 133.756 50.8375 133.923 51.6195 134.063C51.639 134.008 51.6626 133.963 51.68 133.932C51.7578 133.794 51.8838 133.651 52.0111 133.521C52.0874 133.442 52.1747 133.357 52.2718 133.268C52.2606 133.226 52.2486 133.185 52.2386 133.144ZM55.6556 131.855C55.3988 132.084 55.1144 132.291 54.7952 132.465C54.2711 132.883 53.8144 133.253 53.4466 133.565C53.4794 133.632 53.5148 133.698 53.5531 133.764C54.183 133.77 54.9477 133.768 55.8675 133.581C55.8555 133.522 55.8409 133.463 55.8304 133.401C55.7406 132.877 55.6844 132.361 55.6556 131.855ZM67.9154 132.244C67.2552 132.602 66.5815 132.926 65.9036 133.217C65.9554 133.423 66.0129 133.543 66.0599 133.603C66.0746 133.621 66.0842 133.629 66.0882 133.632C66.0925 133.632 66.1033 133.633 66.1224 133.63C66.4023 133.586 67.0316 133.282 67.7884 132.396C67.8313 132.346 67.8725 132.295 67.9154 132.244ZM64.1976 131.232C63.4686 132.037 62.5756 132.57 61.6458 132.902C61.642 132.917 61.6378 132.93 61.6341 132.944C61.9472 132.887 62.2955 132.809 62.6722 132.71C63.2301 132.373 63.7745 131.982 64.2943 131.524C64.2568 131.431 64.2245 131.333 64.1976 131.232ZM57.2738 130.507C57.2518 130.957 57.2485 131.365 57.266 131.729C57.9631 132.027 58.7387 132.13 59.5218 132.005C59.5192 131.939 59.5181 131.872 59.5169 131.805C59.3318 131.688 59.1564 131.545 58.9974 131.371C58.5896 130.926 58.2891 130.416 58.0658 129.878C57.7978 130.091 57.5337 130.302 57.2738 130.507ZM55.5706 125.509C55.1544 126.138 54.766 126.809 54.4212 127.523C54.1005 128.188 53.7233 129.015 53.4544 129.895C53.2412 130.592 53.1045 131.303 53.1068 131.978C53.1983 131.961 53.2852 131.947 53.3656 131.931C53.6927 131.865 53.9826 131.759 54.2445 131.625C54.5902 131.35 54.9616 131.056 55.3519 130.749C55.3928 130.704 55.4332 130.658 55.473 130.61C55.3197 129.864 55.2963 128.986 55.3353 128.091C55.3721 127.245 55.466 126.357 55.5706 125.509ZM67.1136 130.271C66.7332 130.642 66.3473 131.009 65.9603 131.366C66.0154 131.356 66.0728 131.344 66.1322 131.329C66.4717 131.021 66.8141 130.683 67.1566 130.313C67.142 130.299 67.1277 130.285 67.1136 130.271ZM61.2083 127.678C60.9656 128.097 60.8029 128.543 60.7347 129.024C60.6325 129.745 60.5559 130.482 60.5277 131.141C60.5613 131.146 60.5952 131.147 60.6292 131.149C60.6498 131.112 60.6729 131.075 60.6927 131.036C61.0381 130.364 61.3796 129.67 61.7054 128.972C61.7052 128.968 61.7056 128.964 61.7054 128.96C61.6497 128.929 61.5957 128.891 61.5452 128.845C61.3559 128.67 61.2752 128.435 61.2386 128.234C61.2084 128.069 61.2 127.881 61.2083 127.678ZM65.0472 130.168C65.0542 130.284 65.0652 130.4 65.0804 130.516C65.1369 130.304 65.202 130.088 65.2757 129.866C65.1996 129.968 65.1234 130.068 65.0472 130.168ZM58.8851 129.223C59.0507 129.693 59.2722 130.123 59.5658 130.495C59.6073 129.965 59.6691 129.415 59.7445 128.884C59.765 128.739 59.7932 128.598 59.8265 128.459C59.5118 128.716 59.1975 128.972 58.8851 129.223ZM70.222 122.983C69.5806 123.869 68.9202 124.867 68.2503 125.992C67.89 126.598 67.5701 127.172 67.2904 127.716C67.2943 128.048 67.3232 128.342 67.3744 128.598C69.0942 126.832 70.5314 125.098 71.141 123.885C71.218 123.704 71.2933 123.522 71.3675 123.339C71.4462 123.082 71.4401 122.939 71.4202 122.873C71.4122 122.846 71.4019 122.833 71.391 122.822C71.3782 122.81 71.3483 122.786 71.2826 122.765C71.1969 122.736 71.0267 122.709 70.765 122.704C70.5826 122.795 70.4014 122.888 70.222 122.983ZM59.8314 125.768C59.4566 126.446 59.0474 127.123 58.554 127.783C58.5708 127.909 58.5898 128.033 58.6117 128.156C59.3148 127.588 60.0244 127.006 60.7122 126.422C60.6912 126.37 60.6722 126.317 60.6536 126.264C60.3305 126.213 60.0394 126.051 59.8314 125.768ZM72.9583 121.836C72.7547 122.512 72.5363 123.118 72.304 123.693C72.2407 123.886 72.1554 124.087 72.054 124.292L72.055 124.293C72.0082 124.403 71.9607 124.512 71.9134 124.621C71.6195 125.298 71.3132 125.93 71.0013 126.521C71.3847 126.093 71.7736 125.641 72.1605 125.172C72.829 124.247 73.4881 123.234 74.0804 122.167C74.048 122.121 74.0097 122.079 73.9642 122.041C73.7991 121.904 73.4448 121.785 72.9583 121.836ZM76.7708 120.587C76.4931 121.011 76.198 121.448 75.891 121.89C75.7006 122.478 75.4285 123.071 75.097 123.66C74.9156 124.394 74.5648 125.177 74.2425 125.852C74.1901 125.961 74.1347 126.069 74.0775 126.177C74.116 126.12 74.1556 126.063 74.1927 126.005C75.1817 124.454 75.912 122.968 76.6097 121.038C76.6636 120.889 76.7163 120.738 76.7708 120.587ZM59.597 122.719C59.3083 123.13 59.0326 123.548 58.7747 123.977C58.5908 124.414 58.4788 124.874 58.4632 125.361C58.4549 125.619 58.4514 125.883 58.4525 126.15C58.7927 125.597 59.0992 125.027 59.4085 124.44C59.3742 123.901 59.4576 123.313 59.597 122.719ZM64.5667 125.187C64.4891 125.38 64.4124 125.571 64.3372 125.759C64.353 125.837 64.3707 125.91 64.391 125.976C64.3948 125.988 64.3999 126 64.4036 126.011C64.4299 125.99 64.4568 125.968 64.4847 125.946C64.5706 125.768 64.6606 125.578 64.7542 125.377C64.7417 125.255 64.7364 125.133 64.7406 125.009C64.6823 125.068 64.6252 125.128 64.5667 125.187ZM62.0853 123.961C61.9558 124.094 61.8454 124.2 61.7523 124.271C61.6317 124.362 61.5018 124.407 61.3734 124.421C61.3747 124.443 61.3748 124.465 61.3763 124.486C61.3837 124.592 61.396 124.694 61.4115 124.791C61.5823 124.666 61.7626 124.527 61.9525 124.375C61.9949 124.238 62.0405 124.101 62.0853 123.961ZM61.4369 122.76C61.4177 122.921 61.4023 123.081 61.39 123.242C61.5239 123.102 61.6988 122.905 61.9105 122.646C61.8339 122.508 61.7523 122.391 61.6654 122.291C61.5927 122.447 61.5158 122.603 61.4369 122.76ZM58.1077 122.782C58.0882 122.837 58.0684 122.892 58.0492 122.947C58.1033 122.865 58.1599 122.785 58.2161 122.706C58.1796 122.731 58.1439 122.757 58.1077 122.782ZM62.9417 119.867C62.8708 119.909 62.7866 119.965 62.6888 120.039C62.6383 120.078 62.5845 120.116 62.5306 120.155C62.3863 120.548 62.2413 120.933 62.0872 121.314C62.2477 121.441 62.388 121.591 62.515 121.754C62.5197 121.725 62.5248 121.695 62.5296 121.665C62.6238 121.083 62.7635 120.482 62.9417 119.867ZM72.3099 120.397C72.0799 120.65 71.8464 120.918 71.6087 121.201C71.6502 121.183 71.6914 121.164 71.7327 121.146C71.8766 121.082 72.0203 121.029 72.1624 120.984C72.213 120.795 72.2622 120.6 72.3099 120.397ZM74.2171 120.233C74.0475 120.325 73.8668 120.381 73.6771 120.385C73.559 120.387 73.45 120.368 73.349 120.335C73.3117 120.503 73.274 120.667 73.2347 120.827C73.5654 120.833 73.8775 120.89 74.1497 121.003C74.1541 120.803 74.1769 120.543 74.2171 120.233ZM61.3675 116.747C60.8596 117.17 60.4242 117.666 60.099 118.249C59.7961 118.792 59.4792 119.432 59.1644 120.135C59.6349 119.753 60.0865 119.417 60.5023 119.125C60.6236 118.756 60.7627 118.381 60.9183 118.003C61.0552 117.58 61.2061 117.162 61.3675 116.747ZM73.557 119.282C73.5814 119.314 73.6042 119.336 73.6224 119.353C73.607 119.313 73.5916 119.275 73.5785 119.236C73.5755 119.228 73.5726 119.219 73.5697 119.21C73.5655 119.234 73.5612 119.258 73.557 119.282ZM78.0999 116.126C77.944 116.181 77.7523 116.258 77.5228 116.359C77.302 117.033 77.0609 117.691 76.8089 118.314C76.7423 118.545 76.6699 118.774 76.5931 119.003C77.0747 118.222 77.4722 117.518 77.7533 116.942C77.9177 116.606 78.0289 116.333 78.0999 116.126ZM63.3197 118.339C63.3558 118.361 63.3903 118.385 63.4242 118.41C63.4582 118.317 63.4923 118.224 63.5277 118.131C63.458 118.199 63.3885 118.268 63.3197 118.339ZM71.5472 115.301C71.5079 115.488 71.4667 115.68 71.4222 115.878C71.5186 115.804 71.6138 115.733 71.7093 115.666C71.6863 115.504 71.6652 115.343 71.6458 115.183C71.613 115.222 71.5799 115.261 71.5472 115.301ZM70.7474 112.676C70.6597 112.703 70.5202 112.773 70.3363 112.928C70.1956 113.609 69.9995 114.369 69.762 115.173C69.7614 115.176 69.7598 115.179 69.7591 115.183C69.7669 115.194 69.774 115.206 69.7816 115.218C69.8275 115.126 69.8774 115.028 69.9281 114.923C70.1885 114.382 70.4962 113.697 70.8353 112.913C70.8252 112.813 70.811 112.741 70.7933 112.691C70.7901 112.683 70.7854 112.676 70.7826 112.669C70.7729 112.671 70.7609 112.672 70.7474 112.676ZM79.1195 112.812C78.7728 113.613 78.3884 114.385 77.9964 115.108C78.0811 115.081 78.1423 115.06 78.179 115.048C78.2884 115.011 78.4594 114.972 78.637 115.004C78.8769 114.153 79.0482 113.418 79.1126 112.863C79.1146 112.846 79.1174 112.829 79.1195 112.812ZM75.9544 112.316C75.8684 112.74 75.7888 113.152 75.7161 113.55C75.8762 112.978 76.0489 112.39 76.2318 111.789C76.1397 111.965 76.0479 112.141 75.9544 112.316ZM66.9945 109.865C66.4094 110.673 65.8096 111.52 65.2259 112.387C65.1979 112.481 65.1699 112.575 65.1419 112.67C65.4141 112.315 65.6933 111.961 65.9808 111.608C66.0842 111.482 66.2272 111.359 66.4163 111.301C66.4714 111.284 66.5263 111.275 66.5804 111.271C66.7304 111.124 66.8823 110.978 67.0365 110.835C67.0124 110.549 66.9992 110.225 66.9945 109.865ZM73.1244 112.57C73.1266 112.57 73.1289 112.569 73.1312 112.569C73.1317 112.55 73.1327 112.53 73.1331 112.51C73.1302 112.53 73.1273 112.55 73.1244 112.57ZM70.9359 110.952C70.8456 111.201 70.7578 111.441 70.6712 111.672C70.8884 111.643 71.1125 111.674 71.3079 111.797C71.3705 111.648 71.4357 111.497 71.4994 111.344C71.5112 111.058 71.5281 110.775 71.5492 110.495C71.3471 110.646 71.1424 110.798 70.9359 110.952ZM74.807 106.406C74.6742 106.746 74.5428 107.097 74.4154 107.458C74.3357 107.74 74.2445 108.027 74.1478 108.316C74.1509 108.607 74.1542 108.891 74.1566 109.167C74.1587 109.418 74.1579 109.665 74.1585 109.907C74.3844 108.879 74.6007 107.741 74.807 106.406ZM71.7777 108.499C71.6921 108.763 71.6071 109.021 71.5228 109.272C71.5768 109.237 71.6309 109.204 71.6849 109.174C71.7137 108.947 71.7436 108.722 71.7777 108.499ZM75.9847 105.252C75.7964 106.634 75.5984 107.822 75.391 108.887C75.7235 107.69 76.0111 106.522 76.2406 105.466C76.1492 105.399 76.0638 105.328 75.9847 105.252ZM67.2435 105.464C66.9933 106.387 66.7652 107.215 66.5423 107.995C66.7254 107.763 66.9054 107.541 67.0814 107.327C67.1213 106.749 67.1752 106.127 67.2435 105.464ZM73.1273 106.758C73.0466 107.112 72.9718 107.473 72.9036 107.842C72.9809 107.643 73.0585 107.444 73.1351 107.245C73.133 107.084 73.1296 106.922 73.1273 106.758ZM77.7035 105.412C77.4615 106.203 77.2297 107.007 77.015 107.809C77.2597 107.226 77.4838 106.65 77.681 106.086C77.6875 105.857 77.6959 105.633 77.7035 105.412ZM70.3421 96.7764C70.2741 96.916 70.2072 97.0608 70.14 97.21C70.1019 97.3967 70.0674 97.5804 70.0384 97.7607C69.9011 98.6148 69.4981 99.4058 69.0501 100.367C68.8612 101.113 68.6994 101.921 68.5775 102.788C68.4172 103.929 68.2945 104.986 68.2015 105.947C68.4102 104.887 68.6571 103.751 68.9222 102.601C69.2761 101.064 69.6814 99.6735 70.098 98.4336C70.1834 97.8704 70.2634 97.3166 70.3421 96.7764ZM71.9437 100.986C71.6132 102.071 71.2647 103.166 70.8997 104.255C71.0135 104.33 71.0979 104.432 71.1536 104.538C71.1617 104.553 71.1671 104.57 71.1742 104.586C71.2843 104.184 71.3929 103.778 71.4974 103.37C71.6498 102.572 71.7998 101.77 71.9437 100.986ZM76.7933 102.218C76.6297 102.502 76.4403 102.845 76.2357 103.241C76.2198 103.381 76.2049 103.52 76.1888 103.656C76.2605 103.904 76.356 104.119 76.4808 104.298C76.6382 103.467 76.7442 102.758 76.7933 102.218ZM79.2796 93.0068C79.7462 97.1169 79.7385 99.9774 79.6048 101.816C79.6881 101.935 79.761 102.061 79.8245 102.192C79.7251 96.5214 79.4981 94.3072 79.2796 93.0068ZM75.1146 101.051C75.0715 101.461 75.03 101.831 74.9915 102.152C75.0099 102.098 75.0292 102.045 75.0472 101.991C75.0637 101.659 75.0981 101.322 75.1458 100.987C75.1355 101.008 75.1249 101.029 75.1146 101.051ZM76.9749 98.9268C76.8872 99.3961 76.7164 100.038 76.4876 100.785C76.4856 100.807 76.4838 100.829 76.4818 100.851C76.5339 100.787 76.5861 100.729 76.641 100.68C76.7353 100.596 76.9741 100.417 77.2718 100.492C77.3359 100.045 77.3998 99.5853 77.4622 99.1191C77.4235 99.1256 77.3819 99.1297 77.3372 99.126C77.1786 99.1129 77.0726 99.0314 77.0199 98.9795C77.002 98.962 76.988 98.9435 76.9749 98.9268ZM74.4486 97.4424C74.3661 98.0441 74.2636 98.6772 74.14 99.3438C74.1611 99.6017 74.1844 99.8493 74.2064 100.086C74.2849 99.2879 74.3685 98.3893 74.4486 97.4424ZM75.8519 91.7959C75.7308 93.9999 75.5395 96.489 75.3509 98.5947C75.483 98.397 75.6029 98.2295 75.7122 98.0957C75.8288 96.6408 75.9494 95.0703 76.0619 93.4492C76.0057 93.0137 75.9465 92.5414 75.8831 92.0283C75.8735 91.9506 75.8617 91.873 75.8519 91.7959ZM78.64 97.8311C78.6452 97.8521 78.6506 97.8732 78.6556 97.8945C78.6538 97.8441 78.6527 97.7933 78.6507 97.7422C78.647 97.7718 78.6437 97.8015 78.64 97.8311ZM72.681 94.625C72.3439 95.362 71.9704 96.2269 71.5941 97.2188C71.5827 97.3277 71.5721 97.4371 71.5609 97.5469C71.8784 96.8108 72.1846 96.1298 72.4652 95.5166C72.5368 95.2489 72.6072 94.9839 72.6761 94.7217C72.6777 94.6894 72.6793 94.6572 72.681 94.625ZM77.4232 87.2822C77.3313 89.3235 77.2056 91.4102 77.0667 93.419C77.1091 93.7464 77.1513 94.0523 77.1898 94.3389C77.2996 92.3704 77.4492 90.168 77.6927 88.8604C77.6358 88.5105 77.5771 88.1536 77.514 87.79C77.4849 87.6222 77.4536 87.4529 77.4232 87.2822ZM72.722 90.1768C72.5909 90.8594 72.455 91.5653 72.3099 92.292C72.2734 92.4749 72.2399 92.6573 72.2064 92.8379C72.2356 92.8289 72.2656 92.8211 72.2952 92.8154L72.4437 92.7969C72.572 92.5375 72.687 92.3062 72.7865 92.1074C72.7661 91.4601 72.7435 90.8158 72.722 90.1768ZM76.3421 87.6484C76.3401 87.6569 76.3239 87.7313 76.2738 87.8086C76.2633 87.8247 76.2403 87.8548 76.2054 87.8897C76.2589 88.121 76.3096 88.3561 76.3577 88.5947C76.374 88.2799 76.3899 87.9657 76.4046 87.6524C76.3929 87.6505 76.3803 87.6512 76.3685 87.6484C76.3596 87.6464 76.3516 87.6421 76.3431 87.6397C76.3425 87.6425 76.3428 87.6455 76.3421 87.6484ZM67.2142 80.5908C66.9618 81.6335 66.8124 82.5487 66.7982 83.2568C66.79 83.6693 66.8287 83.9803 66.8997 84.1953C66.9697 84.4067 67.0536 84.4779 67.1097 84.5049C67.1215 84.5097 67.351 84.5863 67.6341 84.2051C68.1061 83.5694 68.6071 82.8261 69.096 81.9805C68.436 81.7337 67.9136 81.2044 67.5179 80.6797C67.4171 80.6509 67.3156 80.622 67.2142 80.5908ZM75.1322 78.6543C74.9635 79.7427 74.8012 81.2203 74.7132 83.1035C74.7481 83.1095 74.7829 83.1192 74.8167 83.1328C74.928 83.1777 74.9942 83.2504 75.0257 83.29C75.0855 83.3653 75.1109 83.4409 75.1185 83.4639C75.1523 83.5659 75.1673 83.7053 75.1771 83.8135C75.1778 83.821 75.1774 83.8292 75.1781 83.8369C75.1861 83.7928 75.1945 83.7489 75.2025 83.7051C75.1619 82.0309 75.1321 80.1151 75.1322 78.6543ZM73.7513 79.6982C73.7278 79.7176 73.704 79.7369 73.6781 79.7539C73.5905 79.8113 73.4972 79.8464 73.4036 79.8643C73.4297 80.1986 73.4567 80.5458 73.4847 80.9053C73.5062 80.809 73.5259 80.7143 73.5472 80.6221C73.6193 80.3103 73.6865 80.0021 73.7513 79.6982ZM70.4456 78.9727C69.6713 79.3191 68.9115 79.6063 68.2327 79.8438C68.7951 79.9954 69.4034 80.1559 69.932 80.3887C70.1429 79.9436 70.3449 79.477 70.5345 78.9893C70.5061 78.983 70.4762 78.9785 70.4456 78.9727ZM67.9681 77.9824C67.8587 78.3155 67.7552 78.6454 67.6576 78.9697C67.7263 78.9547 67.7983 78.937 67.8724 78.9111C68.1229 78.8237 68.3828 78.7282 68.6497 78.6279C68.502 78.4514 68.4043 78.2434 68.3392 78.0332C68.2936 77.9645 68.2499 77.8939 68.2103 77.8203C68.1279 77.8772 68.0465 77.9304 67.9681 77.9824ZM73.347 77.9395C73.3167 77.9472 73.2864 77.9521 73.2552 77.9541C73.2658 78.0888 73.2764 78.2269 73.2874 78.3682C73.2897 78.3557 73.293 78.343 73.2952 78.3301C73.3154 78.2127 73.3309 78.0812 73.347 77.9395ZM69.8011 77.5557C69.679 77.6381 69.5556 77.7086 69.4281 77.7568C69.4805 77.7917 69.5227 77.8086 69.5531 77.8125C69.6252 77.8217 69.7431 77.7991 69.9027 77.7129C69.8691 77.66 69.834 77.6083 69.8011 77.5557ZM66.0814 77.6807C66.1411 77.7688 66.1904 77.7917 66.2103 77.7979C66.2201 77.8008 66.2334 77.8028 66.2503 77.8037C66.245 77.6347 66.2488 77.4641 66.2601 77.2959C66.1966 77.4318 66.137 77.5608 66.0814 77.6807ZM71.1761 76.3076C70.9523 76.5311 70.7475 76.7303 70.5697 76.8984C70.6004 76.948 70.631 76.9972 70.6615 77.0459C70.7557 76.9407 70.8556 76.8307 70.9535 76.7217C71.0262 76.586 71.1005 76.4477 71.1761 76.3076ZM65.6917 75.5674C65.6903 75.7494 65.6944 75.9307 65.7074 76.1104C65.7598 75.9973 65.8139 75.8816 65.8685 75.7627C65.8041 75.7047 65.7454 75.64 65.6917 75.5674ZM73.4837 74.8994C73.4905 74.9581 73.4966 75.0168 73.5033 75.0752C73.5062 74.9931 73.5119 74.9135 73.515 74.8369C73.5048 74.8579 73.494 74.8786 73.4837 74.8994ZM71.806 73.6621C71.589 74.1422 71.344 74.58 71.0785 74.9785C71.2954 74.7518 71.5211 74.5098 71.7503 74.2578C71.7744 74.0748 71.7964 73.8899 71.8158 73.7031C71.8126 73.6895 71.8092 73.6758 71.806 73.6621ZM64.7103 70.4092C64.5665 71.4858 64.5574 72.6479 64.6322 73.7559C64.6755 74.0036 64.7198 74.245 64.765 74.4795C64.836 73.907 64.9522 73.3516 65.0882 72.833C65.0861 72.7881 65.085 72.7431 65.0833 72.6983C64.9802 72.6115 64.9325 72.5095 64.9154 72.4678C64.8884 72.4021 64.8718 72.3344 64.8607 72.2783C64.838 72.1639 64.8222 72.0146 64.8089 71.835C64.7834 71.4898 64.7673 70.9584 64.7542 70.3936C64.7396 70.3987 64.7252 70.4045 64.7103 70.4092ZM76.2132 72.9697C76.1718 73.2325 76.1117 73.4863 76.0374 73.7324C76.0607 73.8253 76.0829 73.9192 76.1058 74.0137C76.1117 73.9875 76.1163 73.9624 76.1234 73.9404C76.1267 73.9301 76.1508 73.8478 76.2122 73.7686C76.2204 73.758 76.2361 73.7392 76.2591 73.7168C76.2434 73.4616 76.2292 73.2124 76.2132 72.9697ZM65.6029 67.418C65.6373 67.5321 65.656 67.6756 65.6693 67.8291C65.6809 67.783 65.6919 67.7373 65.7035 67.6924C65.7235 67.6148 65.747 67.5384 65.7689 67.4629C65.7116 67.4524 65.6562 67.4377 65.6029 67.418ZM71.4408 67.0078C71.3777 67.0281 71.2792 67.0767 71.138 67.1748C71.1734 67.2886 71.2095 67.403 71.2445 67.5186C71.3227 67.415 71.4021 67.3111 71.4827 67.207C71.4737 67.1618 71.4657 67.1158 71.4564 67.0703C71.4519 67.0487 71.4453 67.0282 71.4408 67.0078ZM64.5326 65.9453C64.4865 66.1223 64.4475 66.2975 64.4144 66.4697C64.4721 66.3667 64.5308 66.2647 64.5911 66.1641C64.5869 66.1508 64.5826 66.1375 64.5785 66.124C64.5607 66.0661 64.5474 66.0058 64.5326 65.9453ZM66.888 64.7412C66.4802 65.1973 66.0806 65.7012 65.721 66.2442C65.7691 66.3193 65.8158 66.3769 65.8587 66.417C65.8882 66.4445 65.9127 66.4578 65.9281 66.4668C65.9412 66.4579 65.9617 66.4468 65.9867 66.4258C66.0309 66.3885 66.0803 66.3413 66.1449 66.2783C66.1674 66.2564 66.1922 66.2331 66.2181 66.208C66.2208 66.179 66.2233 66.1522 66.2259 66.1279C66.2297 66.0932 66.2339 66.0585 66.2386 66.0283C66.2409 66.0136 66.2493 65.9508 66.2728 65.8887C66.2795 65.8711 66.2974 65.8265 66.3314 65.7774C66.3487 65.7523 66.4366 65.6257 66.6117 65.5781C66.8355 65.2268 67.08 64.9137 67.3353 64.6348C67.1855 64.6716 67.0353 64.7075 66.888 64.7412ZM71.0804 65.3213C71.047 65.348 70.9908 65.408 70.9251 65.5264C70.8871 65.5949 70.8501 65.6677 70.8119 65.7432C70.9159 65.6563 71.0513 65.5741 71.2113 65.5371C71.1858 65.4898 71.1624 65.4412 71.1351 65.3945C71.1139 65.3584 71.0943 65.3353 71.0804 65.3213ZM71.9779 64.794C71.9665 64.7973 71.9553 64.8019 71.9437 64.8057L71.9984 64.8897C71.9919 64.8574 71.985 64.8256 71.9779 64.794ZM65.5755 64.0215C65.5723 64.0298 65.5698 64.0384 65.5667 64.0469C65.6137 64.0325 65.6613 64.0203 65.7083 64.0068C65.6635 64.0117 65.6191 64.0161 65.5755 64.0215ZM72.9915 62.4844C73.0556 62.5751 73.1117 62.675 73.1605 62.7822C73.2666 63.0156 73.3517 63.2538 73.4202 63.4951C73.7523 63.5277 74.0833 63.5948 74.3753 63.7266C74.3208 63.665 74.2631 63.6046 74.2005 63.5469C73.7796 63.159 73.387 62.7863 72.9974 62.4893C72.9954 62.4877 72.9936 62.4859 72.9915 62.4844ZM66.7728 62.7461C66.6456 62.8079 66.5259 62.8769 66.4134 62.9541C66.7761 62.9396 67.1564 62.9399 67.5472 62.9522C67.2761 62.8376 67.0095 62.7745 66.7728 62.7461ZM69.1556 62.2246C68.9759 62.2398 68.7967 62.2573 68.6175 62.2783C68.5646 62.2845 68.5124 62.293 68.4603 62.2998C68.5889 62.3794 68.7156 62.4698 68.8402 62.5703C68.9463 62.4479 69.052 62.3324 69.1556 62.2246ZM71.9681 61.9668C71.8661 61.9546 71.7477 61.9636 71.5677 61.9932C71.4376 62.0145 71.2626 62.0445 71.0687 62.0713C71.034 62.1383 70.9936 62.2106 70.9486 62.2861C71.1287 62.2142 71.2996 62.1468 71.4417 62.0899C71.5977 62.0274 71.7774 61.9765 71.9681 61.9668ZM73.2747 10.5957C74.4583 10.5675 75.4408 10.9461 76.4759 11.582C77.4861 12.2027 78.6125 13.1123 80.0374 14.1631C81.6412 15.3458 82.572 16.6109 83.3236 17.9815C83.6954 18.6595 84.025 19.3675 84.3656 20.0908C84.7081 20.8183 85.0654 21.5692 85.5003 22.3594C86.2346 23.6937 86.5533 25.7653 86.5931 27.8731C86.6333 29.9991 86.3905 32.2518 85.9369 33.9981C85.5753 35.3892 84.5562 36.1211 82.8187 36.8281C81.1054 37.5253 78.4675 38.2811 74.6947 39.5938L74.6556 39.6074L74.6146 39.6143C74.3839 39.6536 74.1555 39.6888 73.93 39.7236C72.3867 40.8568 70.5639 41.9787 68.764 43.0928C68.1107 43.4972 67.109 43.6577 65.9339 43.7041C64.7342 43.7514 63.2546 43.6813 61.5755 43.5557C59.6188 43.4093 58.3724 42.1886 57.5033 40.8477C57.0692 40.1779 56.7169 39.4607 56.4115 38.8067C56.0993 38.1383 55.8454 37.5588 55.5882 37.1045C54.67 35.4826 53.8287 32.8078 53.5013 30.5391C53.4962 30.5037 53.4907 30.4683 53.4857 30.4326C52.8364 28.9026 52.3782 27.1616 52.1077 24.9727C51.9183 23.4396 51.9522 22.1046 52.1263 21.0332C52.2829 20.0699 52.5612 19.2805 52.9242 18.7549C52.9443 17.9147 53.0454 17.3217 53.1908 16.8672C53.347 16.3789 53.5481 16.0728 53.6927 15.8399C54.3923 14.713 55.5996 14.0401 57.0355 13.625C58.4573 13.214 60.1713 13.0361 62.0013 12.9502C63.7267 12.4341 65.283 12.0495 66.4105 11.6406C68.3891 10.923 70.4648 10.6627 73.2747 10.5957ZM57.3177 38.3838C57.6195 39.0301 57.9476 39.6949 58.3421 40.3037C59.1305 41.5201 60.1386 42.4454 61.6497 42.5586C63.3215 42.6836 64.7539 42.7491 65.8939 42.7041C67.0583 42.6582 67.825 42.4985 68.2376 42.2432C69.4563 41.4888 70.6624 40.7432 71.7796 40.001C70.5356 40.1295 69.4137 40.1911 68.4593 40.2041C67.1295 40.2222 66.0956 40.1478 65.5081 40.0332C65.1738 40.1259 64.8417 40.2191 64.515 40.3086C61.2794 41.1952 58.6854 39.2778 57.0003 37.6983C57.1047 37.9231 57.2104 38.154 57.3177 38.3838ZM72.8265 18.7852C70.1291 17.9761 67.399 17.0816 61.3695 17.6699C59.877 17.8156 58.5592 17.9067 57.3783 18.0654C56.2871 18.2121 55.3669 18.4124 54.6077 18.7422C54.4794 19.0801 54.3936 19.4406 54.3617 19.8291C54.2148 21.619 54.1442 23.1475 54.1283 24.4746C54.2909 27.1573 54.5281 29.2857 54.8441 30.9824C55.1499 31.5835 55.4911 32.1555 55.8695 32.7197C56.4009 33.512 57.4616 34.5343 58.5941 35.4697C59.7211 36.4006 60.8611 37.1986 61.512 37.5527C61.7545 37.6847 61.844 37.988 61.7122 38.2305C61.5803 38.473 61.2771 38.5626 61.0345 38.4307C60.3033 38.0329 59.1072 37.1909 57.9574 36.2412C57.1352 35.5621 56.3076 34.8024 55.6771 34.0879C56.081 35.1291 56.5492 35.8538 57.0755 36.3789C58.6217 37.9215 60.8338 39.8617 63.5755 39.4805C63.4578 39.3604 63.4019 39.1849 63.4456 39.0098C63.5126 38.742 63.7843 38.5788 64.0521 38.6455L65.4818 39.0029C67.2095 38.5215 68.9413 38.0134 70.2122 37.5234C71.0454 37.2023 71.9514 36.9103 72.7845 36.6172C73.6321 36.319 74.4224 36.0143 75.0902 35.6524C75.7649 35.2867 76.4899 34.8454 77.1351 34.3369C77.9353 29.5762 78.1143 24.3061 77.5433 21.374C77.4495 21.269 77.3529 21.1674 77.2513 21.0723C76.3163 20.1971 74.7637 19.3662 72.8265 18.7852ZM76.4027 36.0469C76.1169 36.2203 75.837 36.3848 75.5667 36.5313C74.8254 36.9331 73.9721 37.2595 73.1165 37.5606C72.2464 37.8667 71.3882 38.1422 70.5716 38.457C69.9267 38.7057 69.1733 38.956 68.3704 39.2041C68.3953 39.2038 68.4205 39.2045 68.4456 39.2041C69.8211 39.1854 71.5669 39.0654 73.5335 38.7734C74.5002 38.0512 75.3252 37.339 75.9437 36.6299C76.1149 36.4336 76.2671 36.2386 76.4027 36.0469ZM73.2992 11.5947C70.5353 11.6606 68.5838 11.9168 66.7523 12.5811C66.4421 12.6936 66.0952 12.8037 65.723 12.917C66.9108 13.0524 68.0459 13.4839 69.2132 14.044C69.9376 14.3915 70.6883 14.7958 71.4759 15.2178C72.267 15.6416 73.1011 16.0862 74.0081 16.5244C75.2298 17.1148 76.2437 17.8388 77.3119 18.5918C77.6347 18.8194 77.8719 19.1789 78.0531 19.5801C78.224 19.9586 78.3606 20.4144 78.472 20.9238C79.6289 22.3493 80.1771 24.3308 80.3519 26.3184C80.5316 28.3623 80.325 30.4794 79.9271 32.1504C79.6677 33.2394 78.9091 34.1457 78.0511 34.877C77.8499 35.7284 77.3571 36.531 76.6976 37.2871C76.4492 37.5718 76.1728 37.8527 75.8753 38.1318C78.9016 37.1102 80.9829 36.4951 82.4417 35.9014C84.1072 35.2236 84.7321 34.6582 84.9691 33.7461C85.3963 32.1017 85.6318 29.9424 85.5931 27.8926C85.554 25.8248 85.2373 23.9559 84.6244 22.8418C84.1727 22.0212 83.8039 21.2444 83.4613 20.5166C83.1166 19.7846 82.8005 19.1083 82.4466 18.4629C81.7468 17.1867 80.904 16.0447 79.4437 14.9678C77.9619 13.8751 76.915 13.0249 75.9525 12.4336C75.015 11.8577 74.2241 11.5727 73.2992 11.5947ZM78.8197 23.6904C78.9818 26.4044 78.7974 29.8586 78.3285 33.1621C78.632 32.7652 78.8515 32.3501 78.9544 31.918C79.3294 30.3431 79.5254 28.3348 79.3558 26.4063C79.2715 25.4472 79.097 24.5245 78.8197 23.6904ZM53.0091 22.1279C52.9555 22.9164 52.975 23.8303 53.1009 24.8496C53.1088 24.9132 53.1181 24.9763 53.1263 25.0391C53.1264 24.8601 53.1261 24.6776 53.1283 24.4912C53.0834 23.7451 53.0426 22.9582 53.0091 22.1279ZM64.8685 13.8731C63.9424 13.8857 63.0381 13.9047 62.1702 13.9434C60.5827 14.4219 58.9631 14.9881 57.6058 15.7373C56.721 16.2257 55.9712 16.7788 55.4154 17.417C55.9886 17.2684 56.6013 17.1607 57.2445 17.0742C58.4481 16.9124 59.8205 16.8164 61.2718 16.6748C67.4833 16.0686 70.3547 16.9997 73.1136 17.8272C74.5404 18.2551 75.8097 18.824 76.8148 19.4775C76.787 19.45 76.7609 19.427 76.7357 19.4092C75.6547 18.6471 74.7075 17.9732 73.5726 17.4248C72.6448 16.9765 71.7941 16.5233 71.0033 16.0996C70.2091 15.6742 69.4806 15.2812 68.7806 14.9453C67.3801 14.2733 66.1488 13.8556 64.8685 13.8731ZM58.015 14.4102C57.7723 14.4637 57.5376 14.521 57.3128 14.5859C55.9892 14.9686 55.0558 15.5401 54.5423 16.3672C54.3957 16.6033 54.2581 16.8148 54.1439 17.1719C54.1024 17.3018 54.0632 17.4537 54.0296 17.6348C54.7135 16.4615 55.8433 15.5674 57.1224 14.8613C57.4107 14.7022 57.7097 14.5534 58.015 14.4102Z" fill="#CECECE" stroke="url(#paint0_linear_1406_2)" stroke-linecap="round"/>
<path d="M29.6043 60.9824C30.1332 61.0668 30.6253 61.3649 31.0575 61.6943C31.4941 62.0273 31.9308 62.442 32.3319 62.8115C33.4074 63.8027 33.5623 65.2016 33.6297 66.0527C33.6331 66.0566 33.6373 66.0597 33.6405 66.0635C33.7155 66.1531 33.7713 66.2564 33.8153 66.3535C33.9034 66.5481 33.9774 66.7991 34.0418 67.0859C34.1719 67.6654 34.2864 68.4877 34.3924 69.5234C34.605 71.6005 34.7875 74.6064 34.9647 78.4063C35.0028 79.223 35.022 80.1019 35.0262 81.0254C35.5254 83.2891 36.0505 85.5402 36.494 87.4199C36.5219 87.4429 36.5459 87.4672 36.5662 87.4902C36.6906 87.6311 36.7396 87.8129 36.7645 87.9248C36.8192 88.1713 36.8413 88.5177 36.8465 88.916C37.1932 90.3781 37.4555 91.4764 37.5506 91.9356C37.8721 93.4868 38.2556 95.5648 38.3221 105.922C38.3454 109.549 37.7398 111.426 37.5594 112.979C37.4478 113.939 37.0712 115.305 36.6004 116.776C36.1264 118.258 35.5437 119.884 35.0037 121.378C34.2826 123.373 33.5201 124.926 32.4891 126.542C31.3233 128.37 29.5845 129.656 27.9256 130.712C27.2902 131.516 26.6418 132.297 26.0018 133.046C25.1725 134.016 24.3467 134.522 23.7303 134.618C23.5414 134.648 23.3481 134.633 23.1639 134.558C22.9808 134.483 22.8369 134.36 22.7264 134.219C22.5891 134.043 22.4959 133.827 22.4266 133.594C22.3452 133.625 22.2639 133.656 22.1825 133.687C21.7235 133.992 21.2816 134.259 20.8641 134.496C20.5329 134.684 20.1597 134.743 19.826 134.746C19.5376 134.748 19.254 134.707 19.0057 134.651C18.5034 134.771 18.0114 134.873 17.534 134.956C16.4048 135.315 15.3041 135.537 14.3123 135.694C13.2901 135.856 12.0606 135.87 11.1444 135.328C8.44543 135.135 6.63257 134.497 5.49886 134.237C5.40145 134.215 5.30253 134.187 5.21468 134.147C5.14835 134.118 4.98875 134.039 4.89437 133.865C4.83812 133.761 4.81237 133.636 4.83578 133.506C4.85748 133.385 4.91436 133.296 4.96078 133.24C5.04592 133.138 5.15363 133.078 5.21761 133.045C5.47601 132.913 5.94303 132.799 6.43343 132.697C7.32189 132.513 8.55037 132.319 9.56429 132.151C9.53542 131.283 9.7067 130.405 9.95199 129.603C10.2439 128.647 10.6482 127.765 10.9744 127.089C12.0349 124.89 13.4743 123.089 14.9012 121.676C15.4647 120.189 16.0923 118.815 16.6795 117.762C17.36 116.541 18.4152 115.682 19.5477 115.058C20.342 113.372 21.2887 111.786 22.2459 110.378C22.7911 108.602 23.2845 106.88 23.9178 104.52C24.4695 102.464 25.0676 101.089 25.5565 100.035C25.8633 98.8444 26.2382 97.7993 26.6356 96.9024C26.8823 95.7307 27.2714 94.4851 27.618 93.2959C27.9747 92.0721 28.2878 90.9027 28.3993 89.8486C28.728 86.7377 29.0283 83.8354 29.2235 79.9541C29.1064 79.7804 28.9866 79.6293 28.8631 79.501C28.7093 79.8883 28.5475 80.2622 28.3807 80.6231C28.3839 80.624 28.3873 80.625 28.3905 80.626C28.4452 80.643 28.6017 80.6943 28.7157 80.8418L28.7616 80.9121L28.8094 81.0225C28.8899 81.2757 28.7596 81.4912 28.703 81.5674C28.6222 81.6761 28.5156 81.7591 28.4246 81.8184C28.2363 81.9411 27.9826 82.0457 27.7235 82.0908C27.6922 82.0963 27.6608 82.0984 27.6297 82.1025C27.0527 83.1447 26.451 84.0469 25.8905 84.8018C25.3662 85.5077 24.6359 85.6495 24.1287 85.4053C23.7485 85.222 23.5265 84.8795 23.4041 84.5098C23.283 84.1435 23.2424 83.7054 23.2518 83.2363C23.2686 82.399 23.446 81.3627 23.7235 80.2393C23.1329 79.9687 22.5758 79.5877 22.1981 78.9844C22.0717 78.9311 21.9785 78.8481 21.9159 78.7764C21.7836 78.6248 21.6895 78.4199 21.617 78.2246C21.4663 77.8183 21.3353 77.238 21.2225 76.5693C20.9953 75.2224 20.8222 73.4064 20.7303 71.6309C20.6686 71.1816 20.6535 70.7374 20.6776 70.3008C20.6303 68.6517 20.6614 67.1134 20.8065 66.1533C20.8585 65.8095 20.9766 65.5095 21.1483 65.25C21.4108 64.4193 21.8154 63.5591 22.4305 62.749C22.6467 62.4644 22.9048 62.2104 23.1883 62.0274C23.4364 61.8672 23.7283 61.747 24.0409 61.7344C24.6414 61.488 25.3046 61.3616 25.9549 61.2852C26.5966 61.2098 27.2772 61.1755 27.8778 61.1309C27.9209 61.111 28.0012 61.0783 28.1024 61.0723C28.153 61.0693 28.217 61.0753 28.285 61.0947C28.4836 61.0728 28.6516 61.0399 28.8592 61.0059C29.0749 60.9705 29.3305 60.9388 29.6043 60.9824ZM17.3524 133.596C17.1577 133.764 16.959 133.921 16.7567 134.066C16.8781 134.048 17.0011 134.032 17.1248 134.012C17.1806 134.003 17.2366 133.993 17.2928 133.983C17.4004 133.949 17.5073 133.91 17.6151 133.873C17.5361 133.815 17.465 133.746 17.4041 133.668C17.3859 133.645 17.3689 133.62 17.3524 133.596ZM9.69222 133.144C8.82098 133.288 7.83702 133.447 7.03207 133.601C7.62001 133.756 8.29107 133.923 9.07308 134.063C9.09265 134.008 9.11617 133.963 9.13363 133.932C9.21141 133.794 9.33741 133.651 9.46468 133.521C9.54105 133.442 9.62829 133.357 9.72542 133.268C9.71419 133.226 9.70222 133.185 9.69222 133.144ZM13.1092 131.855C12.8524 132.084 12.568 132.291 12.2489 132.465C11.7247 132.883 11.268 133.253 10.9002 133.565C10.933 133.632 10.9684 133.698 11.0067 133.764C11.6367 133.77 12.4013 133.768 13.3211 133.581C13.3091 133.522 13.2946 133.463 13.284 133.401C13.1942 132.877 13.138 132.361 13.1092 131.855ZM25.369 132.244C24.7088 132.602 24.0351 132.926 23.3573 133.217C23.409 133.423 23.4665 133.543 23.5135 133.603C23.5282 133.621 23.5378 133.629 23.5418 133.632C23.5461 133.632 23.5569 133.633 23.576 133.63C23.8559 133.586 24.4852 133.282 25.242 132.396C25.2849 132.346 25.3261 132.295 25.369 132.244ZM21.6512 131.232C20.9222 132.037 20.0292 132.57 19.0994 132.902C19.0956 132.917 19.0914 132.93 19.0877 132.944C19.4008 132.887 19.7491 132.809 20.1258 132.71C20.6837 132.373 21.2281 131.982 21.7479 131.524C21.7104 131.431 21.6781 131.333 21.6512 131.232ZM14.7274 130.507C14.7054 130.957 14.7021 131.365 14.7196 131.729C15.4167 132.027 16.1923 132.13 16.9754 132.005C16.9728 131.939 16.9717 131.872 16.9705 131.805C16.7854 131.688 16.6101 131.545 16.451 131.371C16.0433 130.926 15.7427 130.416 15.5194 129.878C15.2514 130.091 14.9873 130.302 14.7274 130.507ZM13.0243 125.509C12.608 126.138 12.2196 126.809 11.8748 127.523C11.5541 128.188 11.177 129.015 10.908 129.895C10.6948 130.592 10.5581 131.303 10.5604 131.978C10.6519 131.961 10.7388 131.947 10.8192 131.931C11.1463 131.865 11.4362 131.759 11.6981 131.625C12.0438 131.35 12.4152 131.056 12.8055 130.749C12.8464 130.704 12.8869 130.658 12.9266 130.61C12.7733 129.864 12.75 128.986 12.7889 128.091C12.8257 127.245 12.9196 126.357 13.0243 125.509ZM24.5672 130.271C24.1868 130.642 23.8009 131.009 23.4139 131.366C23.469 131.356 23.5264 131.344 23.5858 131.329C23.9254 131.021 24.2677 130.683 24.6102 130.313C24.5956 130.299 24.5814 130.285 24.5672 130.271ZM18.6619 127.678C18.4192 128.097 18.2566 128.543 18.1883 129.024C18.0861 129.745 18.0096 130.482 17.9813 131.141C18.0149 131.146 18.0488 131.147 18.0828 131.149C18.1034 131.112 18.1265 131.075 18.1463 131.036C18.4917 130.364 18.8332 129.67 19.159 128.972C19.1588 128.968 19.1593 128.964 19.159 128.96C19.1033 128.929 19.0493 128.891 18.9989 128.845C18.8096 128.67 18.7288 128.435 18.6922 128.234C18.662 128.069 18.6536 127.881 18.6619 127.678ZM22.5008 130.168C22.5078 130.284 22.5188 130.4 22.534 130.516C22.5906 130.304 22.6556 130.088 22.7293 129.866C22.6532 129.968 22.577 130.068 22.5008 130.168ZM16.3387 129.223C16.5043 129.693 16.7258 130.123 17.0194 130.495C17.0609 129.965 17.1227 129.415 17.1981 128.884C17.2186 128.739 17.2468 128.598 17.2801 128.459C16.9654 128.716 16.6511 128.972 16.3387 129.223ZM27.6756 122.983C27.0342 123.869 26.3738 124.867 25.7039 125.992C25.3436 126.598 25.0237 127.172 24.744 127.716C24.7479 128.048 24.7768 128.342 24.828 128.598C26.5478 126.832 27.985 125.098 28.5946 123.885C28.6716 123.704 28.7469 123.522 28.8211 123.339C28.8998 123.082 28.8937 122.939 28.8739 122.873C28.8658 122.846 28.8555 122.833 28.8446 122.822C28.8318 122.81 28.8019 122.786 28.7362 122.765C28.6505 122.736 28.4803 122.709 28.2186 122.704C28.0363 122.795 27.855 122.888 27.6756 122.983ZM17.285 125.768C16.9102 126.446 16.501 127.123 16.0077 127.783C16.0244 127.909 16.0435 128.033 16.0653 128.156C16.7684 127.588 17.4781 127.006 18.1659 126.422C18.1449 126.37 18.1258 126.317 18.1073 126.264C17.7841 126.213 17.493 126.051 17.285 125.768ZM30.4119 121.836C30.2083 122.512 29.99 123.118 29.7577 123.693C29.6943 123.886 29.609 124.087 29.5077 124.292L29.5086 124.293C29.4618 124.403 29.4143 124.512 29.367 124.621C29.0731 125.298 28.7668 125.93 28.4549 126.521C28.8383 126.093 29.2272 125.641 29.6141 125.172C30.2826 124.247 30.9417 123.234 31.534 122.167C31.5016 122.121 31.4634 122.079 31.4178 122.041C31.2527 121.904 30.8984 121.785 30.4119 121.836ZM34.2244 120.587C33.9467 121.011 33.6516 121.448 33.3446 121.89C33.1542 122.478 32.8821 123.071 32.5506 123.66C32.3692 124.394 32.0184 125.177 31.6961 125.852C31.6438 125.961 31.5884 126.069 31.5311 126.177C31.5696 126.12 31.6092 126.063 31.6463 126.005C32.6353 124.454 33.3657 122.968 34.0633 121.038C34.1172 120.889 34.17 120.738 34.2244 120.587ZM17.0506 122.719C16.7619 123.13 16.4862 123.548 16.2284 123.977C16.0444 124.414 15.9325 124.874 15.9168 125.361C15.9086 125.619 15.905 125.883 15.9061 126.15C16.2463 125.597 16.5528 125.027 16.8621 124.44C16.8278 123.901 16.9112 123.313 17.0506 122.719ZM22.0203 125.187C21.9428 125.38 21.866 125.571 21.7909 125.759C21.8066 125.837 21.8243 125.91 21.8446 125.976C21.8484 125.988 21.8535 126 21.8573 126.011C21.8835 125.99 21.9104 125.968 21.9383 125.946C22.0242 125.768 22.1142 125.578 22.2078 125.377C22.1953 125.255 22.19 125.133 22.1942 125.009C22.1359 125.068 22.0788 125.128 22.0203 125.187ZM19.5389 123.961C19.4094 124.094 19.299 124.2 19.2059 124.271C19.0853 124.362 18.9554 124.407 18.827 124.421C18.8283 124.443 18.8284 124.465 18.8299 124.486C18.8373 124.592 18.8497 124.694 18.8651 124.791C19.0359 124.666 19.2162 124.527 19.4061 124.375C19.4485 124.238 19.4941 124.101 19.5389 123.961ZM18.8905 122.76C18.8713 122.921 18.8559 123.081 18.8436 123.242C18.9775 123.102 19.1524 122.905 19.3641 122.646C19.2875 122.508 19.2059 122.391 19.119 122.291C19.0463 122.447 18.9694 122.603 18.8905 122.76ZM15.5614 122.782C15.5419 122.837 15.522 122.892 15.5028 122.947C15.5569 122.865 15.6136 122.785 15.6698 122.706C15.6332 122.731 15.5975 122.757 15.5614 122.782ZM20.3953 119.867C20.3244 119.909 20.2402 119.965 20.1424 120.039C20.0919 120.078 20.0381 120.116 19.9842 120.155C19.8399 120.548 19.6949 120.933 19.5409 121.314C19.7014 121.441 19.8416 121.591 19.9686 121.754C19.9733 121.725 19.9784 121.695 19.9832 121.665C20.0774 121.083 20.2172 120.482 20.3953 119.867ZM29.7635 120.397C29.5335 120.65 29.3 120.918 29.0623 121.201C29.1038 121.183 29.145 121.164 29.1864 121.146C29.3303 121.082 29.4739 121.029 29.6161 120.984C29.6667 120.795 29.7158 120.6 29.7635 120.397ZM31.6707 120.233C31.5011 120.325 31.3204 120.381 31.1307 120.385C31.0126 120.387 30.9036 120.368 30.8026 120.335C30.7653 120.503 30.7276 120.667 30.6883 120.827C31.019 120.833 31.3311 120.89 31.6034 121.003C31.6077 120.803 31.6305 120.543 31.6707 120.233ZM18.8211 116.747C18.3132 117.17 17.8778 117.666 17.5526 118.249C17.2498 118.792 16.9328 119.432 16.618 120.135C17.0885 119.753 17.5401 119.417 17.9559 119.125C18.0772 118.756 18.2163 118.381 18.3719 118.003C18.5088 117.58 18.6597 117.162 18.8211 116.747ZM31.0106 119.282C31.035 119.314 31.0578 119.336 31.076 119.353C31.0606 119.313 31.0452 119.275 31.0321 119.236C31.0291 119.228 31.0262 119.219 31.0233 119.21C31.0191 119.234 31.0148 119.258 31.0106 119.282ZM35.5536 116.126C35.3977 116.181 35.2059 116.258 34.9764 116.359C34.7556 117.033 34.5145 117.691 34.2625 118.314C34.1959 118.545 34.1235 118.774 34.0467 119.003C34.5283 118.222 34.9258 117.518 35.2069 116.942C35.3713 116.606 35.4825 116.333 35.5536 116.126ZM20.7733 118.339C20.8094 118.361 20.8439 118.385 20.8778 118.41C20.9118 118.317 20.9459 118.224 20.9813 118.131C20.9116 118.199 20.8421 118.268 20.7733 118.339ZM29.0008 115.301C28.9615 115.488 28.9203 115.68 28.8758 115.878C28.9722 115.804 29.0674 115.733 29.1629 115.666C29.1399 115.504 29.1188 115.343 29.0994 115.183C29.0666 115.222 29.0335 115.261 29.0008 115.301ZM28.201 112.676C28.1133 112.703 27.9738 112.773 27.7899 112.928C27.6492 113.609 27.4532 114.369 27.2157 115.173C27.215 115.176 27.2134 115.179 27.2127 115.183C27.2205 115.194 27.2276 115.206 27.2352 115.218C27.2811 115.126 27.331 115.028 27.3817 114.923C27.6422 114.382 27.9498 113.697 28.2889 112.913C28.2788 112.813 28.2647 112.741 28.2469 112.691C28.2437 112.683 28.239 112.676 28.2362 112.669C28.2265 112.671 28.2145 112.672 28.201 112.676ZM36.5731 112.812C36.2264 113.613 35.8421 114.385 35.45 115.108C35.5347 115.081 35.596 115.06 35.6327 115.048C35.742 115.011 35.913 114.972 36.0907 115.004C36.3305 114.153 36.5018 113.418 36.5662 112.863C36.5683 112.846 36.571 112.829 36.5731 112.812ZM33.408 112.316C33.322 112.74 33.2424 113.152 33.1698 113.55C33.3298 112.978 33.5025 112.39 33.6854 111.789C33.5933 111.965 33.5015 112.141 33.408 112.316ZM24.4481 109.865C23.863 110.673 23.2632 111.52 22.6795 112.387C22.6515 112.481 22.6235 112.575 22.5955 112.67C22.8677 112.315 23.1469 111.961 23.4344 111.608C23.5378 111.482 23.6808 111.359 23.87 111.301C23.925 111.284 23.9799 111.275 24.034 111.271C24.184 111.124 24.3359 110.978 24.4901 110.835C24.4661 110.549 24.4528 110.225 24.4481 109.865ZM30.578 112.57C30.5802 112.57 30.5825 112.569 30.5848 112.569C30.5853 112.55 30.5863 112.53 30.5868 112.51C30.5838 112.53 30.5809 112.55 30.578 112.57ZM28.3895 110.952C28.2992 111.201 28.2114 111.441 28.1248 111.672C28.342 111.643 28.5661 111.674 28.7616 111.797C28.8241 111.648 28.8893 111.497 28.953 111.344C28.9648 111.058 28.9817 110.775 29.0028 110.495C28.8007 110.646 28.596 110.798 28.3895 110.952ZM32.2606 106.406C32.1278 106.746 31.9964 107.097 31.869 107.458C31.7893 107.74 31.6981 108.027 31.6014 108.316C31.6045 108.607 31.6078 108.891 31.6102 109.167C31.6124 109.418 31.6115 109.665 31.6121 109.907C31.838 108.879 32.0544 107.741 32.2606 106.406ZM29.2313 108.499C29.1457 108.763 29.0607 109.021 28.9764 109.272C29.0304 109.237 29.0845 109.204 29.1385 109.174C29.1673 108.947 29.1973 108.722 29.2313 108.499ZM33.4383 105.252C33.25 106.634 33.052 107.822 32.8446 108.887C33.1771 107.69 33.4647 106.522 33.6942 105.466C33.6028 105.399 33.5174 105.328 33.4383 105.252ZM24.6971 105.464C24.4469 106.387 24.2189 107.215 23.9959 107.995C24.179 107.763 24.359 107.541 24.535 107.327C24.5749 106.749 24.6288 106.127 24.6971 105.464ZM30.5809 106.758C30.5002 107.112 30.4254 107.473 30.3573 107.842C30.4345 107.643 30.5121 107.444 30.5887 107.245C30.5866 107.084 30.5832 106.922 30.5809 106.758ZM35.1571 105.412C34.9151 106.203 34.6833 107.007 34.4686 107.809C34.7134 107.226 34.9374 106.65 35.1346 106.086C35.1411 105.857 35.1495 105.633 35.1571 105.412ZM27.7957 96.7764C27.7277 96.916 27.6608 97.0608 27.5936 97.21C27.5555 97.3967 27.521 97.5804 27.492 97.7607C27.3548 98.6148 26.9517 99.4058 26.5037 100.367C26.3148 101.113 26.153 101.921 26.0311 102.788C25.8708 103.929 25.7481 104.986 25.6551 105.947C25.8638 104.887 26.1107 103.751 26.3758 102.601C26.7297 101.064 27.1351 99.6735 27.5516 98.4336C27.637 97.8704 27.717 97.3166 27.7957 96.7764ZM29.3973 100.986C29.0668 102.071 28.7183 103.166 28.3534 104.255C28.4671 104.33 28.5515 104.432 28.6073 104.538C28.6153 104.553 28.6207 104.57 28.6278 104.586C28.7379 104.184 28.8465 103.778 28.951 103.37C29.1035 102.572 29.2534 101.77 29.3973 100.986ZM34.2469 102.218C34.0834 102.502 33.8939 102.845 33.6893 103.241C33.6734 103.381 33.6585 103.52 33.6424 103.656C33.7142 103.904 33.8096 104.119 33.9344 104.298C34.0919 103.467 34.1978 102.758 34.2469 102.218ZM36.7332 93.0068C37.1999 97.1169 37.1921 99.9774 37.0584 101.816C37.1417 101.935 37.2146 102.061 37.2782 102.192C37.1787 96.5214 36.9517 94.3072 36.7332 93.0068ZM32.5682 101.051C32.5251 101.461 32.4836 101.831 32.4452 102.152C32.4635 102.098 32.4828 102.045 32.5008 101.991C32.5174 101.659 32.5517 101.322 32.5994 100.987C32.5891 101.008 32.5786 101.029 32.5682 101.051ZM34.4286 98.9268C34.3408 99.3961 34.17 100.038 33.9412 100.785C33.9392 100.807 33.9374 100.829 33.9354 100.851C33.9875 100.787 34.0397 100.729 34.0946 100.68C34.1889 100.596 34.4277 100.417 34.7254 100.492C34.7896 100.045 34.8534 99.5853 34.9159 99.1191C34.8771 99.1256 34.8356 99.1297 34.7909 99.126C34.6322 99.1129 34.5262 99.0314 34.4735 98.9795C34.4557 98.962 34.4416 98.9435 34.4286 98.9268ZM31.9022 97.4424C31.8197 98.0441 31.7172 98.6772 31.5936 99.3438C31.6147 99.6017 31.638 99.8493 31.66 100.086C31.7385 99.2879 31.8221 98.3893 31.9022 97.4424ZM33.3055 91.7959C33.1844 93.9999 32.9931 96.489 32.8045 98.5947C32.9367 98.397 33.0565 98.2295 33.1659 98.0957C33.2824 96.6408 33.403 95.0703 33.5155 93.4492C33.4593 93.0137 33.4001 92.5414 33.3368 92.0283C33.3272 91.9506 33.3153 91.873 33.3055 91.7959ZM36.0936 97.8311C36.0988 97.8521 36.1042 97.8732 36.1092 97.8945C36.1074 97.8441 36.1063 97.7933 36.1043 97.7422C36.1006 97.7718 36.0973 97.8015 36.0936 97.8311ZM30.1346 94.625C29.7975 95.362 29.4241 96.2269 29.0477 97.2188C29.0363 97.3277 29.0257 97.4371 29.0145 97.5469C29.332 96.8108 29.6383 96.1298 29.9188 95.5166C29.9904 95.2489 30.0608 94.9839 30.1297 94.7217C30.1313 94.6894 30.1329 94.6572 30.1346 94.625ZM34.8768 87.2822C34.7849 89.3235 34.6592 91.4102 34.5203 93.419C34.5627 93.7464 34.6049 94.0523 34.6434 94.3389C34.7532 92.3704 34.9028 90.168 35.1463 88.8604C35.0894 88.5105 35.0307 88.1536 34.9676 87.79C34.9385 87.6222 34.9072 87.4529 34.8768 87.2822ZM30.1756 90.1768C30.0445 90.8594 29.9086 91.5653 29.7635 92.292C29.727 92.4749 29.6935 92.6573 29.66 92.8379C29.6892 92.8289 29.7192 92.8211 29.7489 92.8154L29.8973 92.7969C30.0257 92.5375 30.1406 92.3062 30.2401 92.1074C30.2197 91.4601 30.1971 90.8158 30.1756 90.1768ZM33.7957 87.6484C33.7937 87.6569 33.7775 87.7313 33.7274 87.8086C33.717 87.8247 33.6939 87.8548 33.659 87.8897C33.7125 88.121 33.7632 88.3561 33.8114 88.5947C33.8276 88.2799 33.8435 87.9657 33.8582 87.6524C33.8465 87.6505 33.8339 87.6512 33.8221 87.6484C33.8132 87.6464 33.8052 87.6421 33.7967 87.6397C33.7961 87.6425 33.7964 87.6455 33.7957 87.6484ZM24.6678 80.5908C24.4154 81.6335 24.266 82.5487 24.2518 83.2568C24.2436 83.6693 24.2823 83.9803 24.3534 84.1953C24.4233 84.4067 24.5072 84.4779 24.5633 84.5049C24.5751 84.5097 24.8047 84.5863 25.0877 84.2051C25.5598 83.5694 26.0607 82.8261 26.5496 81.9805C25.8896 81.7337 25.3673 81.2044 24.9715 80.6797C24.8707 80.6509 24.7692 80.622 24.6678 80.5908ZM32.5858 78.6543C32.4171 79.7427 32.2548 81.2203 32.1668 83.1035C32.2017 83.1095 32.2365 83.1192 32.2703 83.1328C32.3816 83.1777 32.4478 83.2504 32.4793 83.29C32.5391 83.3653 32.5645 83.4409 32.5721 83.4639C32.6059 83.5659 32.6209 83.7053 32.6307 83.8135C32.6314 83.821 32.631 83.8292 32.6317 83.8369C32.6397 83.7928 32.6481 83.7489 32.6561 83.7051C32.6155 82.0309 32.5857 80.1151 32.5858 78.6543ZM31.2049 79.6982C31.1814 79.7176 31.1576 79.7369 31.1317 79.7539C31.0441 79.8113 30.9508 79.8464 30.8573 79.8643C30.8833 80.1986 30.9103 80.5458 30.9383 80.9053C30.9598 80.809 30.9795 80.7143 31.0008 80.6221C31.0729 80.3103 31.1401 80.0021 31.2049 79.6982ZM27.8993 78.9727C27.125 79.3191 26.3651 79.6063 25.6864 79.8438C26.2487 79.9954 26.857 80.1559 27.3856 80.3887C27.5965 79.9436 27.7985 79.477 27.9881 78.9893C27.9597 78.983 27.9299 78.9785 27.8993 78.9727ZM25.4217 77.9824C25.3123 78.3155 25.2088 78.6454 25.1112 78.9697C25.1799 78.9547 25.2519 78.937 25.326 78.9111C25.5765 78.8237 25.8364 78.7282 26.1034 78.6279C25.9556 78.4514 25.8579 78.2434 25.7928 78.0332C25.7472 77.9645 25.7035 77.8939 25.6639 77.8203C25.5815 77.8772 25.5001 77.9304 25.4217 77.9824ZM30.8006 77.9395C30.7703 77.9472 30.74 77.9521 30.7088 77.9541C30.7194 78.0888 30.73 78.2269 30.7411 78.3682C30.7433 78.3557 30.7467 78.343 30.7489 78.3301C30.769 78.2127 30.7846 78.0812 30.8006 77.9395ZM27.2547 77.5557C27.1326 77.6381 27.0092 77.7086 26.8817 77.7568C26.9341 77.7917 26.9763 77.8086 27.0067 77.8125C27.0789 77.8217 27.1967 77.7991 27.3563 77.7129C27.3227 77.66 27.2876 77.6083 27.2547 77.5557ZM23.535 77.6807C23.5947 77.7688 23.644 77.7917 23.6639 77.7979C23.6737 77.8008 23.687 77.8028 23.7039 77.8037C23.6987 77.6347 23.7024 77.4641 23.7137 77.2959C23.6502 77.4318 23.5906 77.5608 23.535 77.6807ZM28.6297 76.3076C28.4059 76.5311 28.2011 76.7303 28.0233 76.8984C28.054 76.948 28.0846 76.9972 28.1151 77.0459C28.2093 76.9407 28.3092 76.8307 28.4071 76.7217C28.4798 76.586 28.5541 76.4477 28.6297 76.3076ZM23.1453 75.5674C23.1439 75.7494 23.148 75.9307 23.161 76.1104C23.2134 75.9973 23.2675 75.8816 23.3221 75.7627C23.2577 75.7047 23.199 75.64 23.1453 75.5674ZM30.9373 74.8994C30.9441 74.9581 30.9502 75.0168 30.9569 75.0752C30.9599 74.9931 30.9655 74.9135 30.9686 74.8369C30.9584 74.8579 30.9477 74.8786 30.9373 74.8994ZM29.2596 73.6621C29.0426 74.1422 28.7976 74.58 28.5321 74.9785C28.749 74.7518 28.9747 74.5098 29.2039 74.2578C29.228 74.0748 29.2501 73.8899 29.2694 73.7031C29.2662 73.6895 29.2628 73.6758 29.2596 73.6621ZM22.1639 70.4092C22.0201 71.4858 22.011 72.6479 22.0858 73.7559C22.1291 74.0036 22.1734 74.245 22.2186 74.4795C22.2896 73.907 22.4058 73.3516 22.5418 72.833C22.5397 72.7881 22.5386 72.7431 22.5369 72.6983C22.4338 72.6115 22.3861 72.5095 22.369 72.4678C22.342 72.4021 22.3254 72.3344 22.3143 72.2783C22.2916 72.1639 22.2758 72.0146 22.2625 71.835C22.237 71.4898 22.2209 70.9584 22.2078 70.3936C22.1932 70.3987 22.1788 70.4045 22.1639 70.4092ZM33.6668 72.9697C33.6255 73.2325 33.5653 73.4863 33.4911 73.7324C33.5143 73.8253 33.5365 73.9192 33.5594 74.0137C33.5653 73.9875 33.5699 73.9624 33.577 73.9404C33.5803 73.9301 33.6044 73.8478 33.6659 73.7686C33.674 73.758 33.6897 73.7392 33.7127 73.7168C33.697 73.4616 33.6828 73.2124 33.6668 72.9697ZM23.0565 67.418C23.0909 67.5321 23.1096 67.6756 23.1229 67.8291C23.1345 67.783 23.1455 67.7373 23.1571 67.6924C23.1771 67.6148 23.2006 67.5384 23.2225 67.4629C23.1652 67.4524 23.1098 67.4377 23.0565 67.418ZM28.8944 67.0078C28.8313 67.0281 28.7328 67.0767 28.5916 67.1748C28.627 67.2886 28.6631 67.403 28.6981 67.5186C28.7763 67.415 28.8557 67.3111 28.9364 67.207C28.9273 67.1618 28.9193 67.1158 28.91 67.0703C28.9056 67.0487 28.8989 67.0282 28.8944 67.0078ZM21.9862 65.9453C21.9401 66.1223 21.9011 66.2975 21.868 66.4697C21.9257 66.3667 21.9844 66.2647 22.0448 66.1641C22.0405 66.1508 22.0362 66.1375 22.0321 66.124C22.0143 66.0661 22.001 66.0058 21.9862 65.9453ZM24.3416 64.7412C23.9338 65.1973 23.5342 65.7012 23.1746 66.2442C23.2227 66.3193 23.2694 66.3769 23.3123 66.417C23.3419 66.4445 23.3663 66.4578 23.3817 66.4668C23.3949 66.4579 23.4153 66.4468 23.4403 66.4258C23.4845 66.3885 23.5339 66.3413 23.5985 66.2783C23.621 66.2564 23.6459 66.2331 23.6717 66.208C23.6744 66.179 23.6769 66.1522 23.6795 66.1279C23.6833 66.0932 23.6875 66.0585 23.6922 66.0283C23.6945 66.0136 23.7029 65.9508 23.7264 65.8887C23.7331 65.8711 23.751 65.8265 23.785 65.7774C23.8023 65.7523 23.8902 65.6257 24.0653 65.5781C24.2891 65.2268 24.5336 64.9137 24.7889 64.6348C24.6391 64.6716 24.4889 64.7075 24.3416 64.7412ZM28.534 65.3213C28.5006 65.348 28.4444 65.408 28.3787 65.5264C28.3408 65.5949 28.3037 65.6677 28.2655 65.7432C28.3695 65.6563 28.5049 65.5741 28.6649 65.5371C28.6394 65.4898 28.616 65.4412 28.5887 65.3945C28.5676 65.3584 28.5479 65.3353 28.534 65.3213ZM29.4315 64.794C29.4201 64.7973 29.409 64.8019 29.3973 64.8057L29.452 64.8897C29.4455 64.8574 29.4386 64.8256 29.4315 64.794ZM23.0291 64.0215C23.0259 64.0298 23.0234 64.0384 23.0203 64.0469C23.0673 64.0325 23.1149 64.0203 23.1619 64.0068C23.1171 64.0117 23.0728 64.0161 23.0291 64.0215ZM30.4452 62.4844C30.5092 62.5751 30.5654 62.675 30.6141 62.7822C30.7202 63.0156 30.8053 63.2538 30.8739 63.4951C31.2059 63.5277 31.5369 63.5948 31.8289 63.7266C31.7744 63.665 31.7167 63.6046 31.6541 63.5469C31.2332 63.159 30.8406 62.7863 30.451 62.4893C30.449 62.4877 30.4472 62.4859 30.4452 62.4844ZM24.2264 62.7461C24.0992 62.8079 23.9795 62.8769 23.867 62.9541C24.2297 62.9396 24.61 62.9399 25.0008 62.9522C24.7297 62.8376 24.4631 62.7745 24.2264 62.7461ZM26.6092 62.2246C26.4295 62.2398 26.2503 62.2573 26.0711 62.2783C26.0182 62.2845 25.966 62.293 25.9139 62.2998C26.0425 62.3794 26.1692 62.4698 26.2938 62.5703C26.3999 62.4479 26.5056 62.3324 26.6092 62.2246ZM29.4217 61.9668C29.3198 61.9546 29.2014 61.9636 29.0213 61.9932C28.8912 62.0145 28.7162 62.0445 28.5223 62.0713C28.4876 62.1383 28.4472 62.2106 28.4022 62.2861C28.5824 62.2142 28.7532 62.1468 28.8953 62.0899C29.0513 62.0274 29.231 61.9765 29.4217 61.9668ZM30.7284 10.5957C31.912 10.5675 32.8944 10.9461 33.9295 11.582C34.9397 12.2027 36.0661 13.1123 37.4911 14.1631C39.0948 15.3458 40.0256 16.6109 40.7772 17.9815C41.149 18.6595 41.4786 19.3675 41.8192 20.0908C42.1617 20.8183 42.519 21.5692 42.9539 22.3594C43.6882 23.6937 44.0069 25.7653 44.0467 27.8731C44.0869 29.9991 43.8441 32.2518 43.3905 33.9981C43.0289 35.3892 42.0098 36.1211 40.2723 36.8281C38.559 37.5253 35.9211 38.2811 32.1483 39.5938L32.1092 39.6074L32.0682 39.6143C31.8376 39.6536 31.6091 39.6888 31.3836 39.7236C29.8403 40.8568 28.0175 41.9787 26.2176 43.0928C25.5643 43.4972 24.5626 43.6577 23.3875 43.7041C22.1878 43.7514 20.7083 43.6813 19.0291 43.5557C17.0724 43.4093 15.826 42.1886 14.9569 40.8477C14.5228 40.1779 14.1705 39.4607 13.8651 38.8067C13.5529 38.1383 13.2991 37.5588 13.0418 37.1045C12.1236 35.4826 11.2823 32.8078 10.9549 30.5391C10.9498 30.5037 10.9443 30.4683 10.9393 30.4326C10.29 28.9026 9.83184 27.1616 9.56136 24.9727C9.37195 23.4396 9.40584 22.1046 9.57992 21.0332C9.73647 20.0699 10.0148 19.2805 10.3778 18.7549C10.3979 17.9147 10.499 17.3217 10.6444 16.8672C10.8006 16.3789 11.0017 16.0728 11.1463 15.8399C11.8459 14.713 13.0532 14.0401 14.4891 13.625C15.9109 13.214 17.6249 13.0361 19.4549 12.9502C21.1803 12.4341 22.7366 12.0495 23.8641 11.6406C25.8427 10.923 27.9184 10.6627 30.7284 10.5957ZM14.7713 38.3838C15.0731 39.0301 15.4012 39.6949 15.7957 40.3037C16.5841 41.5201 17.5923 42.4454 19.1034 42.5586C20.7751 42.6836 22.2075 42.7491 23.3475 42.7041C24.5119 42.6582 25.2787 42.4985 25.6912 42.2432C26.9099 41.4888 28.116 40.7432 29.2332 40.001C27.9892 40.1295 26.8673 40.1911 25.9129 40.2041C24.5831 40.2222 23.5492 40.1478 22.9618 40.0332C22.6274 40.1259 22.2953 40.2191 21.9686 40.3086C18.733 41.1952 16.1391 39.2778 14.4539 37.6983C14.5584 37.9231 14.664 38.154 14.7713 38.3838ZM30.2801 18.7852C27.5827 17.9761 24.8526 17.0816 18.8231 17.6699C17.3306 17.8156 16.0128 17.9067 14.8319 18.0654C13.7407 18.2121 12.8205 18.4124 12.0614 18.7422C11.933 19.0801 11.8472 19.4406 11.8153 19.8291C11.6685 21.619 11.5978 23.1475 11.5819 24.4746C11.7445 27.1573 11.9817 29.2857 12.2977 30.9824C12.6036 31.5835 12.9447 32.1555 13.3231 32.7197C13.8545 33.512 14.9152 34.5343 16.0477 35.4697C17.1747 36.4006 18.3147 37.1986 18.9657 37.5527C19.2081 37.6847 19.2976 37.988 19.1659 38.2305C19.0339 38.473 18.7307 38.5626 18.4881 38.4307C17.7569 38.0329 16.5608 37.1909 15.411 36.2412C14.5888 35.5621 13.7612 34.8024 13.1307 34.0879C13.5346 35.1291 14.0029 35.8538 14.5291 36.3789C16.0753 37.9215 18.2875 39.8617 21.0291 39.4805C20.9114 39.3604 20.8555 39.1849 20.8993 39.0098C20.9662 38.742 21.2379 38.5788 21.5057 38.6455L22.9354 39.0029C24.6631 38.5215 26.3949 38.0134 27.6659 37.5234C28.499 37.2023 29.405 36.9103 30.2381 36.6172C31.0857 36.319 31.876 36.0143 32.5438 35.6524C33.2185 35.2867 33.9435 34.8454 34.5887 34.3369C35.3889 29.5762 35.5679 24.3061 34.9969 21.374C34.9031 21.269 34.8066 21.1674 34.7049 21.0723C33.7699 20.1971 32.2173 19.3662 30.2801 18.7852ZM33.8563 36.0469C33.5705 36.2203 33.2906 36.3848 33.0203 36.5313C32.279 36.9331 31.4257 37.2595 30.5702 37.5606C29.7 37.8667 28.8418 38.1422 28.0252 38.457C27.3803 38.7057 26.6269 38.956 25.8241 39.2041C25.8489 39.2038 25.8741 39.2045 25.8993 39.2041C27.2747 39.1854 29.0205 39.0654 30.9871 38.7734C31.9538 38.0512 32.7788 37.339 33.3973 36.6299C33.5686 36.4336 33.7207 36.2386 33.8563 36.0469ZM30.7528 11.5947C27.989 11.6606 26.0374 11.9168 24.2059 12.5811C23.8957 12.6936 23.5488 12.8037 23.1766 12.917C24.3644 13.0524 25.4995 13.4839 26.6668 14.044C27.3912 14.3915 28.1419 14.7958 28.9295 15.2178C29.7206 15.6416 30.5548 16.0862 31.4618 16.5244C32.6835 17.1148 33.6974 17.8388 34.7655 18.5918C35.0883 18.8194 35.3255 19.1789 35.5067 19.5801C35.6776 19.9586 35.8142 20.4144 35.9256 20.9238C37.0825 22.3493 37.6307 24.3308 37.8055 26.3184C37.9852 28.3623 37.7786 30.4794 37.3807 32.1504C37.1213 33.2394 36.3627 34.1457 35.5047 34.877C35.3035 35.7284 34.8107 36.531 34.1512 37.2871C33.9028 37.5718 33.6264 37.8527 33.3289 38.1318C36.3552 37.1102 38.4365 36.4951 39.8953 35.9014C41.5608 35.2236 42.1857 34.6582 42.4227 33.7461C42.8499 32.1017 43.0854 29.9424 43.0467 27.8926C43.0077 25.8248 42.691 23.9559 42.078 22.8418C41.6263 22.0212 41.2575 21.2444 40.9149 20.5166C40.5702 19.7846 40.2541 19.1083 39.9002 18.4629C39.2004 17.1867 38.3576 16.0447 36.8973 14.9678C35.4156 13.8751 34.3686 13.0249 33.4061 12.4336C32.4687 11.8577 31.6777 11.5727 30.7528 11.5947ZM36.2733 23.6904C36.4354 26.4044 36.251 29.8586 35.7821 33.1621C36.0856 32.7652 36.3052 32.3501 36.408 31.918C36.783 30.3431 36.979 28.3348 36.8094 26.4063C36.7251 25.4472 36.5507 24.5245 36.2733 23.6904ZM10.4627 22.1279C10.4091 22.9164 10.4286 23.8303 10.5545 24.8496C10.5624 24.9132 10.5717 24.9763 10.5799 25.0391C10.58 24.8601 10.5797 24.6776 10.5819 24.4912C10.537 23.7451 10.4963 22.9582 10.4627 22.1279ZM22.3221 13.8731C21.396 13.8857 20.4917 13.9047 19.6239 13.9434C18.0363 14.4219 16.4168 14.9881 15.0594 15.7373C14.1747 16.2257 13.4248 16.7788 12.869 17.417C13.4423 17.2684 14.0549 17.1607 14.6981 17.0742C15.9017 16.9124 17.2741 16.8164 18.7254 16.6748C24.9369 16.0686 27.8083 16.9997 30.5672 17.8272C31.9941 18.2551 33.2633 18.824 34.2684 19.4775C34.2406 19.45 34.2145 19.427 34.1893 19.4092C33.1083 18.6471 32.1612 17.9732 31.0262 17.4248C30.0984 16.9765 29.2477 16.5233 28.4569 16.0996C27.6627 15.6742 26.9342 15.2812 26.2342 14.9453C24.8337 14.2733 23.6025 13.8556 22.3221 13.8731ZM15.4686 14.4102C15.2259 14.4637 14.9912 14.521 14.7664 14.5859C13.4428 14.9686 12.5094 15.5401 11.9959 16.3672C11.8493 16.6033 11.7117 16.8148 11.5975 17.1719C11.556 17.3018 11.5168 17.4537 11.4832 17.6348C12.1671 16.4615 13.2969 15.5674 14.576 14.8613C14.8643 14.7022 15.1633 14.5534 15.4686 14.4102Z" fill="#CECECE" stroke="url(#paint1_linear_1406_2)" stroke-linecap="round"/>
<path d="M116.567 60.9824C117.096 61.0668 117.588 61.3649 118.02 61.6943C118.457 62.0273 118.893 62.442 119.294 62.8115C120.37 63.8027 120.525 65.2016 120.592 66.0527C120.595 66.0566 120.6 66.0597 120.603 66.0635C120.678 66.1531 120.734 66.2564 120.778 66.3535C120.866 66.5481 120.94 66.7991 121.004 67.0859C121.134 67.6654 121.249 68.4877 121.355 69.5234C121.567 71.6005 121.75 74.6064 121.927 78.4063C121.965 79.223 121.984 80.1019 121.989 81.0254C122.488 83.2891 123.013 85.5402 123.456 87.4199C123.484 87.4429 123.508 87.4672 123.529 87.4902C123.653 87.6311 123.702 87.8129 123.727 87.9248C123.782 88.1713 123.804 88.5177 123.809 88.916C124.156 90.3781 124.418 91.4764 124.513 91.9356C124.835 93.4868 125.218 95.5648 125.285 105.922C125.308 109.549 124.702 111.426 124.522 112.979C124.41 113.939 124.034 115.305 123.563 116.776C123.089 118.258 122.506 119.884 121.966 121.378C121.245 123.373 120.482 124.926 119.451 126.542C118.286 128.37 116.547 129.656 114.888 130.712C114.253 131.516 113.604 132.297 112.964 133.046C112.135 134.016 111.309 134.522 110.693 134.618C110.504 134.648 110.311 134.633 110.126 134.558C109.943 134.483 109.799 134.36 109.689 134.219C109.551 134.043 109.458 133.827 109.389 133.594C109.308 133.625 109.226 133.656 109.145 133.687C108.686 133.992 108.244 134.259 107.826 134.496C107.495 134.684 107.122 134.743 106.788 134.746C106.5 134.748 106.216 134.707 105.968 134.651C105.466 134.771 104.974 134.873 104.496 134.956C103.367 135.315 102.267 135.537 101.275 135.694C100.253 135.856 99.023 135.87 98.1068 135.328C95.4078 135.135 93.595 134.497 92.4613 134.237C92.3639 134.215 92.2649 134.187 92.1771 134.147C92.1108 134.118 91.9512 134.039 91.8568 133.865C91.8005 133.761 91.7748 133.636 91.7982 133.506C91.8199 133.385 91.8768 133.296 91.9232 133.24C92.0083 133.138 92.116 133.078 92.18 133.045C92.4384 132.913 92.9054 132.799 93.3958 132.697C94.2843 132.513 95.5128 132.319 96.5267 132.151C96.4978 131.283 96.6691 130.405 96.9144 129.603C97.2063 128.647 97.6106 127.765 97.9369 127.089C98.9973 124.89 100.437 123.089 101.864 121.676C102.427 120.189 103.055 118.815 103.642 117.762C104.322 116.541 105.378 115.682 106.51 115.058C107.304 113.372 108.251 111.786 109.208 110.378C109.754 108.602 110.247 106.88 110.88 104.52C111.432 102.464 112.03 101.089 112.519 100.035C112.826 98.8444 113.201 97.7993 113.598 96.9024C113.845 95.7307 114.234 94.4851 114.58 93.2959C114.937 92.0721 115.25 90.9027 115.362 89.8486C115.69 86.7377 115.991 83.8354 116.186 79.9541C116.069 79.7804 115.949 79.6293 115.826 79.501C115.672 79.8883 115.51 80.2622 115.343 80.6231C115.346 80.624 115.35 80.625 115.353 80.626C115.408 80.643 115.564 80.6943 115.678 80.8418L115.724 80.9121L115.772 81.0225C115.852 81.2757 115.722 81.4912 115.665 81.5674C115.585 81.6761 115.478 81.7591 115.387 81.8184C115.199 81.9411 114.945 82.0457 114.686 82.0908C114.655 82.0963 114.623 82.0984 114.592 82.1025C114.015 83.1447 113.413 84.0469 112.853 84.8018C112.329 85.5077 111.598 85.6495 111.091 85.4053C110.711 85.222 110.489 84.8795 110.367 84.5098C110.245 84.1435 110.205 83.7054 110.214 83.2363C110.231 82.399 110.408 81.3627 110.686 80.2393C110.095 79.9687 109.538 79.5877 109.16 78.9844C109.034 78.9311 108.941 78.8481 108.878 78.7764C108.746 78.6248 108.652 78.4199 108.579 78.2246C108.429 77.8183 108.298 77.238 108.185 76.5693C107.958 75.2224 107.785 73.4064 107.693 71.6309C107.631 71.1816 107.616 70.7374 107.64 70.3008C107.593 68.6517 107.624 67.1134 107.769 66.1533C107.821 65.8095 107.939 65.5095 108.111 65.25C108.373 64.4193 108.778 63.5591 109.393 62.749C109.609 62.4644 109.867 62.2104 110.151 62.0274C110.399 61.8672 110.691 61.747 111.003 61.7344C111.604 61.488 112.267 61.3616 112.917 61.2852C113.559 61.2098 114.24 61.1755 114.84 61.1309C114.883 61.111 114.964 61.0783 115.065 61.0723C115.115 61.0693 115.179 61.0753 115.247 61.0947C115.446 61.0728 115.614 61.0399 115.822 61.0059C116.037 60.9705 116.293 60.9388 116.567 60.9824ZM104.315 133.596C104.12 133.764 103.921 133.921 103.719 134.066C103.84 134.048 103.964 134.032 104.087 134.012C104.143 134.003 104.199 133.993 104.255 133.983C104.363 133.949 104.47 133.91 104.577 133.873C104.499 133.815 104.427 133.746 104.367 133.668C104.348 133.645 104.331 133.62 104.315 133.596ZM96.6546 133.144C95.7834 133.288 94.7994 133.447 93.9945 133.601C94.5824 133.756 95.2535 133.923 96.0355 134.063C96.0551 134.008 96.0786 133.963 96.096 133.932C96.1738 133.794 96.2998 133.651 96.4271 133.521C96.5035 133.442 96.5907 133.357 96.6878 133.268C96.6766 133.226 96.6646 133.185 96.6546 133.144ZM100.072 131.855C99.8148 132.084 99.5304 132.291 99.2113 132.465C98.6871 132.883 98.2304 133.253 97.8626 133.565C97.8954 133.632 97.9308 133.698 97.9691 133.764C98.5991 133.77 99.3638 133.768 100.284 133.581C100.272 133.522 100.257 133.463 100.246 133.401C100.157 132.877 100.1 132.361 100.072 131.855ZM112.331 132.244C111.671 132.602 110.997 132.926 110.32 133.217C110.371 133.423 110.429 133.543 110.476 133.603C110.491 133.621 110.5 133.629 110.504 133.632C110.509 133.632 110.519 133.633 110.538 133.63C110.818 133.586 111.448 133.282 112.204 132.396C112.247 132.346 112.288 132.295 112.331 132.244ZM108.614 131.232C107.885 132.037 106.992 132.57 106.062 132.902C106.058 132.917 106.054 132.93 106.05 132.944C106.363 132.887 106.712 132.809 107.088 132.71C107.646 132.373 108.191 131.982 108.71 131.524C108.673 131.431 108.64 131.333 108.614 131.232ZM101.69 130.507C101.668 130.957 101.665 131.365 101.682 131.729C102.379 132.027 103.155 132.13 103.938 132.005C103.935 131.939 103.934 131.872 103.933 131.805C103.748 131.688 103.572 131.545 103.413 131.371C103.006 130.926 102.705 130.416 102.482 129.878C102.214 130.091 101.95 130.302 101.69 130.507ZM99.9867 125.509C99.5704 126.138 99.182 126.809 98.8372 127.523C98.5165 128.188 98.1394 129.015 97.8704 129.895C97.6572 130.592 97.5205 131.303 97.5228 131.978C97.6143 131.961 97.7012 131.947 97.7816 131.931C98.1087 131.865 98.3986 131.759 98.6605 131.625C99.0062 131.35 99.3776 131.056 99.7679 130.749C99.8088 130.704 99.8493 130.658 99.889 130.61C99.7357 129.864 99.7124 128.986 99.7513 128.091C99.7881 127.245 99.882 126.357 99.9867 125.509ZM111.53 130.271C111.149 130.642 110.763 131.009 110.376 131.366C110.431 131.356 110.489 131.344 110.548 131.329C110.888 131.021 111.23 130.683 111.573 130.313C111.558 130.299 111.544 130.285 111.53 130.271ZM105.624 127.678C105.382 128.097 105.219 128.543 105.151 129.024C105.049 129.745 104.972 130.482 104.944 131.141C104.977 131.146 105.011 131.147 105.045 131.149C105.066 131.112 105.089 131.075 105.109 131.036C105.454 130.364 105.796 129.67 106.121 128.972C106.121 128.968 106.122 128.964 106.121 128.96C106.066 128.929 106.012 128.891 105.961 128.845C105.772 128.67 105.691 128.435 105.655 128.234C105.624 128.069 105.616 127.881 105.624 127.678ZM109.463 130.168C109.47 130.284 109.481 130.4 109.496 130.516C109.553 130.304 109.618 130.088 109.692 129.866C109.616 129.968 109.539 130.068 109.463 130.168ZM103.301 129.223C103.467 129.693 103.688 130.123 103.982 130.495C104.023 129.965 104.085 129.415 104.16 128.884C104.181 128.739 104.209 128.598 104.243 128.459C103.928 128.716 103.614 128.972 103.301 129.223ZM114.638 122.983C113.997 123.869 113.336 124.867 112.666 125.992C112.306 126.598 111.986 127.172 111.706 127.716C111.71 128.048 111.739 128.342 111.79 128.598C113.51 126.832 114.947 125.098 115.557 123.885C115.634 123.704 115.709 123.522 115.784 123.339C115.862 123.082 115.856 122.939 115.836 122.873C115.828 122.846 115.818 122.833 115.807 122.822C115.794 122.81 115.764 122.786 115.699 122.765C115.613 122.736 115.443 122.709 115.181 122.704C114.999 122.795 114.817 122.888 114.638 122.983ZM104.247 125.768C103.873 126.446 103.463 127.123 102.97 127.783C102.987 127.909 103.006 128.033 103.028 128.156C103.731 127.588 104.44 127.006 105.128 126.422C105.107 126.37 105.088 126.317 105.07 126.264C104.747 126.213 104.455 126.051 104.247 125.768ZM117.374 121.836C117.171 122.512 116.952 123.118 116.72 123.693C116.657 123.886 116.571 124.087 116.47 124.292L116.471 124.293C116.424 124.403 116.377 124.512 116.329 124.621C116.035 125.298 115.729 125.93 115.417 126.521C115.801 126.093 116.19 125.641 116.576 125.172C117.245 124.247 117.904 123.234 118.496 122.167C118.464 122.121 118.426 122.079 118.38 122.041C118.215 121.904 117.861 121.785 117.374 121.836ZM121.187 120.587C120.909 121.011 120.614 121.448 120.307 121.89C120.117 122.478 119.845 123.071 119.513 123.66C119.332 124.394 118.981 125.177 118.659 125.852C118.606 125.961 118.551 126.069 118.493 126.177C118.532 126.12 118.572 126.063 118.609 126.005C119.598 124.454 120.328 122.968 121.026 121.038C121.08 120.889 121.132 120.738 121.187 120.587ZM104.013 122.719C103.724 123.13 103.449 123.548 103.191 123.977C103.007 124.414 102.895 124.874 102.879 125.361C102.871 125.619 102.867 125.883 102.868 126.15C103.209 125.597 103.515 125.027 103.825 124.44C103.79 123.901 103.874 123.313 104.013 122.719ZM108.983 125.187C108.905 125.38 108.828 125.571 108.753 125.759C108.769 125.837 108.787 125.91 108.807 125.976C108.811 125.988 108.816 126 108.82 126.011C108.846 125.99 108.873 125.968 108.901 125.946C108.987 125.768 109.077 125.578 109.17 125.377C109.158 125.255 109.152 125.133 109.157 125.009C109.098 125.068 109.041 125.128 108.983 125.187ZM106.501 123.961C106.372 124.094 106.261 124.2 106.168 124.271C106.048 124.362 105.918 124.407 105.789 124.421C105.791 124.443 105.791 124.465 105.792 124.486C105.8 124.592 105.812 124.694 105.827 124.791C105.998 124.666 106.179 124.527 106.368 124.375C106.411 124.238 106.457 124.101 106.501 123.961ZM105.853 122.76C105.834 122.921 105.818 123.081 105.806 123.242C105.94 123.102 106.115 122.905 106.326 122.646C106.25 122.508 106.168 122.391 106.081 122.291C106.009 122.447 105.932 122.603 105.853 122.76ZM102.524 122.782C102.504 122.837 102.484 122.892 102.465 122.947C102.519 122.865 102.576 122.785 102.632 122.706C102.596 122.731 102.56 122.757 102.524 122.782ZM107.358 119.867C107.287 119.909 107.203 119.965 107.105 120.039C107.054 120.078 107 120.116 106.947 120.155C106.802 120.548 106.657 120.933 106.503 121.314C106.664 121.441 106.804 121.591 106.931 121.754C106.936 121.725 106.941 121.695 106.946 121.665C107.04 121.083 107.18 120.482 107.358 119.867ZM116.726 120.397C116.496 120.65 116.262 120.918 116.025 121.201C116.066 121.183 116.107 121.164 116.149 121.146C116.293 121.082 116.436 121.029 116.578 120.984C116.629 120.795 116.678 120.6 116.726 120.397ZM118.633 120.233C118.463 120.325 118.283 120.381 118.093 120.385C117.975 120.387 117.866 120.368 117.765 120.335C117.728 120.503 117.69 120.667 117.651 120.827C117.981 120.833 118.294 120.89 118.566 121.003C118.57 120.803 118.593 120.543 118.633 120.233ZM105.784 116.747C105.276 117.17 104.84 117.666 104.515 118.249C104.212 118.792 103.895 119.432 103.58 120.135C104.051 119.753 104.503 119.417 104.918 119.125C105.04 118.756 105.179 118.381 105.334 118.003C105.471 117.58 105.622 117.162 105.784 116.747ZM117.973 119.282C117.997 119.314 118.02 119.336 118.038 119.353C118.023 119.313 118.008 119.275 117.994 119.236C117.991 119.228 117.989 119.219 117.986 119.21C117.982 119.234 117.977 119.258 117.973 119.282ZM122.516 116.126C122.36 116.181 122.168 116.258 121.939 116.359C121.718 117.033 121.477 117.691 121.225 118.314C121.158 118.545 121.086 118.774 121.009 119.003C121.491 118.222 121.888 117.518 122.169 116.942C122.334 116.606 122.445 116.333 122.516 116.126ZM107.736 118.339C107.772 118.361 107.806 118.385 107.84 118.41C107.874 118.317 107.908 118.224 107.944 118.131C107.874 118.199 107.805 118.268 107.736 118.339ZM115.963 115.301C115.924 115.488 115.883 115.68 115.838 115.878C115.935 115.804 116.03 115.733 116.125 115.666C116.102 115.504 116.081 115.343 116.062 115.183C116.029 115.222 115.996 115.261 115.963 115.301ZM115.163 112.676C115.076 112.703 114.936 112.773 114.752 112.928C114.612 113.609 114.416 114.369 114.178 115.173C114.177 115.176 114.176 115.179 114.175 115.183C114.183 115.194 114.19 115.206 114.198 115.218C114.243 115.126 114.293 115.028 114.344 114.923C114.605 114.382 114.912 113.697 115.251 112.913C115.241 112.813 115.227 112.741 115.209 112.691C115.206 112.683 115.201 112.676 115.199 112.669C115.189 112.671 115.177 112.672 115.163 112.676ZM123.535 112.812C123.189 113.613 122.804 114.385 122.412 115.108C122.497 115.081 122.558 115.06 122.595 115.048C122.704 115.011 122.875 114.972 123.053 115.004C123.293 114.153 123.464 113.418 123.529 112.863C123.531 112.846 123.533 112.829 123.535 112.812ZM120.37 112.316C120.284 112.74 120.205 113.152 120.132 113.55C120.292 112.978 120.465 112.39 120.648 111.789C120.556 111.965 120.464 112.141 120.37 112.316ZM111.41 109.865C110.825 110.673 110.226 111.52 109.642 112.387C109.614 112.481 109.586 112.575 109.558 112.67C109.83 112.315 110.109 111.961 110.397 111.608C110.5 111.482 110.643 111.359 110.832 111.301C110.887 111.284 110.942 111.275 110.996 111.271C111.146 111.124 111.298 110.978 111.452 110.835C111.428 110.549 111.415 110.225 111.41 109.865ZM117.54 112.57C117.543 112.57 117.545 112.569 117.547 112.569C117.548 112.55 117.549 112.53 117.549 112.51C117.546 112.53 117.543 112.55 117.54 112.57ZM115.352 110.952C115.262 111.201 115.174 111.441 115.087 111.672C115.304 111.643 115.529 111.674 115.724 111.797C115.786 111.648 115.852 111.497 115.915 111.344C115.927 111.058 115.944 110.775 115.965 110.495C115.763 110.646 115.558 110.798 115.352 110.952ZM119.223 106.406C119.09 106.746 118.959 107.097 118.831 107.458C118.752 107.74 118.661 108.027 118.564 108.316C118.567 108.607 118.57 108.891 118.573 109.167C118.575 109.418 118.574 109.665 118.575 109.907C118.8 108.879 119.017 107.741 119.223 106.406ZM116.194 108.499C116.108 108.763 116.023 109.021 115.939 109.272C115.993 109.237 116.047 109.204 116.101 109.174C116.13 108.947 116.16 108.722 116.194 108.499ZM120.401 105.252C120.212 106.634 120.014 107.822 119.807 108.887C120.14 107.69 120.427 106.522 120.657 105.466C120.565 105.399 120.48 105.328 120.401 105.252ZM111.66 105.464C111.409 106.387 111.181 107.215 110.958 107.995C111.141 107.763 111.321 107.541 111.497 107.327C111.537 106.749 111.591 106.127 111.66 105.464ZM117.543 106.758C117.463 107.112 117.388 107.473 117.32 107.842C117.397 107.643 117.474 107.444 117.551 107.245C117.549 107.084 117.546 106.922 117.543 106.758ZM122.119 105.412C121.878 106.203 121.646 107.007 121.431 107.809C121.676 107.226 121.9 106.65 122.097 106.086C122.104 105.857 122.112 105.633 122.119 105.412ZM114.758 96.7764C114.69 96.916 114.623 97.0608 114.556 97.21C114.518 97.3967 114.483 97.5804 114.454 97.7607C114.317 98.6148 113.914 99.4058 113.466 100.367C113.277 101.113 113.115 101.921 112.993 102.788C112.833 103.929 112.711 104.986 112.618 105.947C112.826 104.887 113.073 103.751 113.338 102.601C113.692 101.064 114.097 99.6735 114.514 98.4336C114.599 97.8704 114.679 97.3166 114.758 96.7764ZM116.36 100.986C116.029 102.071 115.681 103.166 115.316 104.255C115.429 104.33 115.514 104.432 115.57 104.538C115.578 104.553 115.583 104.57 115.59 104.586C115.7 104.184 115.809 103.778 115.913 103.37C116.066 102.572 116.216 101.77 116.36 100.986ZM121.209 102.218C121.046 102.502 120.856 102.845 120.652 103.241C120.636 103.381 120.621 103.52 120.605 103.656C120.677 103.904 120.772 104.119 120.897 104.298C121.054 103.467 121.16 102.758 121.209 102.218ZM123.696 93.0068C124.162 97.1169 124.154 99.9774 124.021 101.816C124.104 101.935 124.177 102.061 124.241 102.192C124.141 96.5214 123.914 94.3072 123.696 93.0068ZM119.531 101.051C119.488 101.461 119.446 101.831 119.408 102.152C119.426 102.098 119.445 102.045 119.463 101.991C119.48 101.659 119.514 101.322 119.562 100.987C119.552 101.008 119.541 101.029 119.531 101.051ZM121.391 98.9268C121.303 99.3961 121.132 100.038 120.904 100.785C120.902 100.807 120.9 100.829 120.898 100.851C120.95 100.787 121.002 100.729 121.057 100.68C121.151 100.596 121.39 100.417 121.688 100.492C121.752 100.045 121.816 99.5853 121.878 99.1191C121.84 99.1256 121.798 99.1297 121.753 99.126C121.595 99.1129 121.489 99.0314 121.436 98.9795C121.418 98.962 121.404 98.9435 121.391 98.9268ZM118.865 97.4424C118.782 98.0441 118.68 98.6772 118.556 99.3438C118.577 99.6017 118.6 99.8493 118.622 100.086C118.701 99.2879 118.784 98.3893 118.865 97.4424ZM120.268 91.7959C120.147 93.9999 119.956 96.489 119.767 98.5947C119.899 98.397 120.019 98.2295 120.128 98.0957C120.245 96.6408 120.365 95.0703 120.478 93.4492C120.422 93.0137 120.363 92.5414 120.299 92.0283C120.29 91.9506 120.278 91.873 120.268 91.7959ZM123.056 97.8311C123.061 97.8521 123.067 97.8732 123.072 97.8945C123.07 97.8441 123.069 97.7933 123.067 97.7422C123.063 97.7718 123.06 97.8015 123.056 97.8311ZM117.097 94.625C116.76 95.362 116.386 96.2269 116.01 97.2188C115.999 97.3277 115.988 97.4371 115.977 97.5469C116.294 96.8108 116.601 96.1298 116.881 95.5166C116.953 95.2489 117.023 94.9839 117.092 94.7217C117.094 94.6894 117.095 94.6572 117.097 94.625ZM121.839 87.2822C121.747 89.3235 121.622 91.4102 121.483 93.419C121.525 93.7464 121.567 94.0523 121.606 94.3389C121.716 92.3704 121.865 90.168 122.109 88.8604C122.052 88.5105 121.993 88.1536 121.93 87.79C121.901 87.6222 121.87 87.4529 121.839 87.2822ZM117.138 90.1768C117.007 90.8594 116.871 91.5653 116.726 92.292C116.689 92.4749 116.656 92.6573 116.622 92.8379C116.652 92.8289 116.682 92.8211 116.711 92.8154L116.86 92.7969C116.988 92.5375 117.103 92.3062 117.202 92.1074C117.182 91.4601 117.16 90.8158 117.138 90.1768ZM120.758 87.6484C120.756 87.6569 120.74 87.7313 120.69 87.8086C120.679 87.8247 120.656 87.8548 120.621 87.8897C120.675 88.121 120.726 88.3561 120.774 88.5947C120.79 88.2799 120.806 87.9657 120.821 87.6524C120.809 87.6505 120.796 87.6512 120.785 87.6484C120.776 87.6464 120.768 87.6421 120.759 87.6397C120.758 87.6425 120.759 87.6455 120.758 87.6484ZM111.63 80.5908C111.378 81.6335 111.228 82.5487 111.214 83.2568C111.206 83.6693 111.245 83.9803 111.316 84.1953C111.386 84.4067 111.47 84.4779 111.526 84.5049C111.538 84.5097 111.767 84.5863 112.05 84.2051C112.522 83.5694 113.023 82.8261 113.512 81.9805C112.852 81.7337 112.33 81.2044 111.934 80.6797C111.833 80.6509 111.732 80.622 111.63 80.5908ZM119.548 78.6543C119.38 79.7427 119.217 81.2203 119.129 83.1035C119.164 83.1095 119.199 83.1192 119.233 83.1328C119.344 83.1777 119.41 83.2504 119.442 83.29C119.501 83.3653 119.527 83.4409 119.535 83.4639C119.568 83.5659 119.583 83.7053 119.593 83.8135C119.594 83.821 119.593 83.8292 119.594 83.8369C119.602 83.7928 119.611 83.7489 119.618 83.7051C119.578 82.0309 119.548 80.1151 119.548 78.6543ZM118.167 79.6982C118.144 79.7176 118.12 79.7369 118.094 79.7539C118.006 79.8113 117.913 79.8464 117.82 79.8643C117.846 80.1986 117.873 80.5458 117.901 80.9053C117.922 80.809 117.942 80.7143 117.963 80.6221C118.035 80.3103 118.102 80.0021 118.167 79.6982ZM114.862 78.9727C114.087 79.3191 113.327 79.6063 112.649 79.8438C113.211 79.9954 113.819 80.1559 114.348 80.3887C114.559 79.9436 114.761 79.477 114.951 78.9893C114.922 78.983 114.892 78.9785 114.862 78.9727ZM112.384 77.9824C112.275 78.3155 112.171 78.6454 112.074 78.9697C112.142 78.9547 112.214 78.937 112.288 78.9111C112.539 78.8237 112.799 78.7282 113.066 78.6279C112.918 78.4514 112.82 78.2434 112.755 78.0332C112.71 77.9645 112.666 77.8939 112.626 77.8203C112.544 77.8772 112.462 77.9304 112.384 77.9824ZM117.763 77.9395C117.733 77.9472 117.702 77.9521 117.671 77.9541C117.682 78.0888 117.692 78.2269 117.703 78.3682C117.706 78.3557 117.709 78.343 117.711 78.3301C117.731 78.2127 117.747 78.0812 117.763 77.9395ZM114.217 77.5557C114.095 77.6381 113.972 77.7086 113.844 77.7568C113.897 77.7917 113.939 77.8086 113.969 77.8125C114.041 77.8217 114.159 77.7991 114.319 77.7129C114.285 77.66 114.25 77.6083 114.217 77.5557ZM110.497 77.6807C110.557 77.7688 110.606 77.7917 110.626 77.7979C110.636 77.8008 110.649 77.8028 110.666 77.8037C110.661 77.6347 110.665 77.4641 110.676 77.2959C110.613 77.4318 110.553 77.5608 110.497 77.6807ZM115.592 76.3076C115.368 76.5311 115.164 76.7303 114.986 76.8984C115.016 76.948 115.047 76.9972 115.077 77.0459C115.172 76.9407 115.272 76.8307 115.369 76.7217C115.442 76.586 115.516 76.4477 115.592 76.3076ZM110.108 75.5674C110.106 75.7494 110.11 75.9307 110.123 76.1104C110.176 75.9973 110.23 75.8816 110.285 75.7627C110.22 75.7047 110.161 75.64 110.108 75.5674ZM117.9 74.8994C117.907 74.9581 117.913 75.0168 117.919 75.0752C117.922 74.9931 117.928 74.9135 117.931 74.8369C117.921 74.8579 117.91 74.8786 117.9 74.8994ZM116.222 73.6621C116.005 74.1422 115.76 74.58 115.494 74.9785C115.711 74.7518 115.937 74.5098 116.166 74.2578C116.19 74.0748 116.212 73.8899 116.232 73.7031C116.229 73.6895 116.225 73.6758 116.222 73.6621ZM109.126 70.4092C108.982 71.4858 108.973 72.6479 109.048 73.7559C109.092 74.0036 109.136 74.245 109.181 74.4795C109.252 73.907 109.368 73.3516 109.504 72.833C109.502 72.7881 109.501 72.7431 109.499 72.6983C109.396 72.6115 109.349 72.5095 109.331 72.4678C109.304 72.4021 109.288 72.3344 109.277 72.2783C109.254 72.1639 109.238 72.0146 109.225 71.835C109.199 71.4898 109.183 70.9584 109.17 70.3936C109.156 70.3987 109.141 70.4045 109.126 70.4092ZM120.629 72.9697C120.588 73.2325 120.528 73.4863 120.453 73.7324C120.477 73.8253 120.499 73.9192 120.522 74.0137C120.528 73.9875 120.532 73.9624 120.539 73.9404C120.543 73.9301 120.567 73.8478 120.628 73.7686C120.636 73.758 120.652 73.7392 120.675 73.7168C120.659 73.4616 120.645 73.2124 120.629 72.9697ZM110.019 67.418C110.053 67.5321 110.072 67.6756 110.085 67.8291C110.097 67.783 110.108 67.7373 110.119 67.6924C110.14 67.6148 110.163 67.5384 110.185 67.4629C110.128 67.4524 110.072 67.4377 110.019 67.418ZM115.857 67.0078C115.794 67.0281 115.695 67.0767 115.554 67.1748C115.589 67.2886 115.626 67.403 115.66 67.5186C115.739 67.415 115.818 67.3111 115.899 67.207C115.89 67.1618 115.882 67.1158 115.872 67.0703C115.868 67.0487 115.861 67.0282 115.857 67.0078ZM108.949 65.9453C108.902 66.1223 108.864 66.2975 108.83 66.4697C108.888 66.3667 108.947 66.2647 109.007 66.1641C109.003 66.1508 108.999 66.1375 108.994 66.124C108.977 66.0661 108.963 66.0058 108.949 65.9453ZM111.304 64.7412C110.896 65.1973 110.497 65.7012 110.137 66.2442C110.185 66.3193 110.232 66.3769 110.275 66.417C110.304 66.4445 110.329 66.4578 110.344 66.4668C110.357 66.4579 110.378 66.4468 110.403 66.4258C110.447 66.3885 110.496 66.3413 110.561 66.2783C110.583 66.2564 110.608 66.2331 110.634 66.208C110.637 66.179 110.639 66.1522 110.642 66.1279C110.646 66.0932 110.65 66.0585 110.655 66.0283C110.657 66.0136 110.665 65.9508 110.689 65.8887C110.695 65.8711 110.713 65.8265 110.747 65.7774C110.765 65.7523 110.853 65.6257 111.028 65.5781C111.252 65.2268 111.496 64.9137 111.751 64.6348C111.602 64.6716 111.451 64.7075 111.304 64.7412ZM115.496 65.3213C115.463 65.348 115.407 65.408 115.341 65.5264C115.303 65.5949 115.266 65.6677 115.228 65.7432C115.332 65.6563 115.467 65.5741 115.627 65.5371C115.602 65.4898 115.578 65.4412 115.551 65.3945C115.53 65.3584 115.51 65.3353 115.496 65.3213ZM116.394 64.794C116.383 64.7973 116.371 64.8019 116.36 64.8057L116.414 64.8897C116.408 64.8574 116.401 64.8256 116.394 64.794ZM109.992 64.0215C109.988 64.0298 109.986 64.0384 109.983 64.0469C110.03 64.0325 110.077 64.0203 110.124 64.0068C110.08 64.0117 110.035 64.0161 109.992 64.0215ZM117.408 62.4844C117.472 62.5751 117.528 62.675 117.576 62.7822C117.683 63.0156 117.768 63.2538 117.836 63.4951C118.168 63.5277 118.499 63.5948 118.791 63.7266C118.737 63.665 118.679 63.6046 118.617 63.5469C118.196 63.159 117.803 62.7863 117.413 62.4893C117.411 62.4877 117.41 62.4859 117.408 62.4844ZM111.189 62.7461C111.062 62.8079 110.942 62.8769 110.829 62.9541C111.192 62.9396 111.572 62.9399 111.963 62.9522C111.692 62.8376 111.425 62.7745 111.189 62.7461ZM113.572 62.2246C113.392 62.2398 113.213 62.2573 113.034 62.2783C112.981 62.2845 112.928 62.293 112.876 62.2998C113.005 62.3794 113.132 62.4698 113.256 62.5703C113.362 62.4479 113.468 62.3324 113.572 62.2246ZM116.384 61.9668C116.282 61.9546 116.164 61.9636 115.984 61.9932C115.854 62.0145 115.679 62.0445 115.485 62.0713C115.45 62.1383 115.41 62.2106 115.365 62.2861C115.545 62.2142 115.716 62.1468 115.858 62.0899C116.014 62.0274 116.193 61.9765 116.384 61.9668ZM117.691 10.5957C118.874 10.5675 119.857 10.9461 120.892 11.582C121.902 12.2027 123.029 13.1123 124.453 14.1631C126.057 15.3458 126.988 16.6109 127.74 17.9815C128.111 18.6595 128.441 19.3675 128.782 20.0908C129.124 20.8183 129.481 21.5692 129.916 22.3594C130.651 23.6937 130.969 25.7653 131.009 27.8731C131.049 29.9991 130.807 32.2518 130.353 33.9981C129.991 35.3892 128.972 36.1211 127.235 36.8281C125.521 37.5253 122.884 38.2811 119.111 39.5938L119.072 39.6074L119.031 39.6143C118.8 39.6536 118.572 39.6888 118.346 39.7236C116.803 40.8568 114.98 41.9787 113.18 43.0928C112.527 43.4972 111.525 43.6577 110.35 43.7041C109.15 43.7514 107.671 43.6813 105.992 43.5557C104.035 43.4093 102.788 42.1886 101.919 40.8477C101.485 40.1779 101.133 39.4607 100.827 38.8067C100.515 38.1383 100.261 37.5588 100.004 37.1045C99.086 35.4826 98.2447 32.8078 97.9173 30.5391C97.9122 30.5037 97.9067 30.4683 97.9017 30.4326C97.2524 28.9026 96.7942 27.1616 96.5238 24.9727C96.3344 23.4396 96.3682 22.1046 96.5423 21.0332C96.6989 20.0699 96.9772 19.2805 97.3402 18.7549C97.3603 17.9147 97.4614 17.3217 97.6068 16.8672C97.763 16.3789 97.9641 16.0728 98.1087 15.8399C98.8083 14.713 100.016 14.0401 101.451 13.625C102.873 13.214 104.587 13.0361 106.417 12.9502C108.143 12.4341 109.699 12.0495 110.826 11.6406C112.805 10.923 114.881 10.6627 117.691 10.5957ZM101.734 38.3838C102.036 39.0301 102.364 39.6949 102.758 40.3037C103.547 41.5201 104.555 42.4454 106.066 42.5586C107.737 42.6836 109.17 42.7491 110.31 42.7041C111.474 42.6582 112.241 42.4985 112.654 42.2432C113.872 41.4888 115.078 40.7432 116.196 40.001C114.952 40.1295 113.83 40.1911 112.875 40.2041C111.546 40.2222 110.512 40.1478 109.924 40.0332C109.59 40.1259 109.258 40.2191 108.931 40.3086C105.695 41.1952 103.101 39.2778 101.416 37.6983C101.521 37.9231 101.626 38.154 101.734 38.3838ZM117.243 18.7852C114.545 17.9761 111.815 17.0816 105.785 17.6699C104.293 17.8156 102.975 17.9067 101.794 18.0654C100.703 18.2121 99.7829 18.4124 99.0238 18.7422C98.8954 19.0801 98.8096 19.4406 98.7777 19.8291C98.6309 21.619 98.5602 23.1475 98.5443 24.4746C98.7069 27.1573 98.9441 29.2857 99.2601 30.9824C99.566 31.5835 99.9071 32.1555 100.285 32.7197C100.817 33.512 101.878 34.5343 103.01 35.4697C104.137 36.4006 105.277 37.1986 105.928 37.5527C106.171 37.6847 106.26 37.988 106.128 38.2305C105.996 38.473 105.693 38.5626 105.451 38.4307C104.719 38.0329 103.523 37.1909 102.373 36.2412C101.551 35.5621 100.724 34.8024 100.093 34.0879C100.497 35.1291 100.965 35.8538 101.492 36.3789C103.038 37.9215 105.25 39.8617 107.992 39.4805C107.874 39.3604 107.818 39.1849 107.862 39.0098C107.929 38.742 108.2 38.5788 108.468 38.6455L109.898 39.0029C111.626 38.5215 113.357 38.0134 114.628 37.5234C115.461 37.2023 116.367 36.9103 117.201 36.6172C118.048 36.319 118.838 36.0143 119.506 35.6524C120.181 35.2867 120.906 34.8454 121.551 34.3369C122.351 29.5762 122.53 24.3061 121.959 21.374C121.865 21.269 121.769 21.1674 121.667 21.0723C120.732 20.1971 119.18 19.3662 117.243 18.7852ZM120.819 36.0469C120.533 36.2203 120.253 36.3848 119.983 36.5313C119.241 36.9331 118.388 37.2595 117.533 37.5606C116.662 37.8667 115.804 38.1422 114.988 38.457C114.343 38.7057 113.589 38.956 112.786 39.2041C112.811 39.2038 112.837 39.2045 112.862 39.2041C114.237 39.1854 115.983 39.0654 117.95 38.7734C118.916 38.0512 119.741 37.339 120.36 36.6299C120.531 36.4336 120.683 36.2386 120.819 36.0469ZM117.715 11.5947C114.951 11.6606 113 11.9168 111.168 12.5811C110.858 12.6936 110.511 12.8037 110.139 12.917C111.327 13.0524 112.462 13.4839 113.629 14.044C114.354 14.3915 115.104 14.7958 115.892 15.2178C116.683 15.6416 117.517 16.0862 118.424 16.5244C119.646 17.1148 120.66 17.8388 121.728 18.5918C122.051 18.8194 122.288 19.1789 122.469 19.5801C122.64 19.9586 122.777 20.4144 122.888 20.9238C124.045 22.3493 124.593 24.3308 124.768 26.3184C124.948 28.3623 124.741 30.4794 124.343 32.1504C124.084 33.2394 123.325 34.1457 122.467 34.877C122.266 35.7284 121.773 36.531 121.114 37.2871C120.865 37.5718 120.589 37.8527 120.291 38.1318C123.318 37.1102 125.399 36.4951 126.858 35.9014C128.523 35.2236 129.148 34.6582 129.385 33.7461C129.812 32.1017 130.048 29.9424 130.009 27.8926C129.97 25.8248 129.653 23.9559 129.04 22.8418C128.589 22.0212 128.22 21.2444 127.877 20.5166C127.533 19.7846 127.217 19.1083 126.863 18.4629C126.163 17.1867 125.32 16.0447 123.86 14.9678C122.378 13.8751 121.331 13.0249 120.368 12.4336C119.431 11.8577 118.64 11.5727 117.715 11.5947ZM123.236 23.6904C123.398 26.4044 123.213 29.8586 122.744 33.1621C123.048 32.7652 123.268 32.3501 123.37 31.918C123.745 30.3431 123.941 28.3348 123.772 26.4063C123.687 25.4472 123.513 24.5245 123.236 23.6904ZM97.4251 22.1279C97.3715 22.9164 97.391 23.8303 97.5169 24.8496C97.5248 24.9132 97.5341 24.9763 97.5423 25.0391C97.5424 24.8601 97.5421 24.6776 97.5443 24.4912C97.4994 23.7451 97.4587 22.9582 97.4251 22.1279ZM109.285 13.8731C108.358 13.8857 107.454 13.9047 106.586 13.9434C104.999 14.4219 103.379 14.9881 102.022 15.7373C101.137 16.2257 100.387 16.7788 99.8314 17.417C100.405 17.2684 101.017 17.1607 101.66 17.0742C102.864 16.9124 104.236 16.8164 105.688 16.6748C111.899 16.0686 114.771 16.9997 117.53 17.8272C118.956 18.2551 120.226 18.824 121.231 19.4775C121.203 19.45 121.177 19.427 121.152 19.4092C120.071 18.6471 119.124 17.9732 117.989 17.4248C117.061 16.9765 116.21 16.5233 115.419 16.0996C114.625 15.6742 113.897 15.2812 113.197 14.9453C111.796 14.2733 110.565 13.8556 109.285 13.8731ZM102.431 14.4102C102.188 14.4637 101.954 14.521 101.729 14.5859C100.405 14.9686 99.4718 15.5401 98.9583 16.3672C98.8117 16.6033 98.6741 16.8148 98.5599 17.1719C98.5184 17.3018 98.4792 17.4537 98.4456 17.6348C99.1295 16.4615 100.259 15.5674 101.538 14.8613C101.827 14.7022 102.126 14.5534 102.431 14.4102Z" fill="#CECECE" stroke="url(#paint2_linear_1406_2)" stroke-linecap="round"/>
<defs>
<linearGradient id="paint0_linear_1406_2" x1="66.9855" y1="51.205" x2="66.9855" y2="135.793" gradientUnits="userSpaceOnUse">
<stop stop-color="#F2F2F2"/>
<stop offset="0.588645"/>
</linearGradient>
<linearGradient id="paint1_linear_1406_2" x1="24.4391" y1="51.205" x2="24.4391" y2="135.793" gradientUnits="userSpaceOnUse">
<stop stop-color="#F2F2F2"/>
<stop offset="0.588645"/>
</linearGradient>
<linearGradient id="paint2_linear_1406_2" x1="111.401" y1="51.205" x2="111.401" y2="135.793" gradientUnits="userSpaceOnUse">
<stop stop-color="#F2F2F2"/>
<stop offset="0.588645"/>
</linearGradient>
</defs>
</svg>
