<svg width="463" height="177" viewBox="0 0 463 177" fill="none" xmlns="http://www.w3.org/2000/svg">
<mask id="path-1-outside-1_1401_1801" maskUnits="userSpaceOnUse" x="4" y="25" width="59" height="126" fill="black">
<rect fill="white" x="4" y="25" width="59" height="126"/>
<path d="M20.3849 30.6364V123H9.74148V30.6364H20.3849ZM55.7542 110.372L55.0326 115.243C54.5215 118.67 53.7397 122.339 52.6874 126.247C51.6652 130.156 50.5978 133.839 49.4854 137.297C48.3729 140.754 47.4559 143.505 46.7343 145.55H38.6164C39.0073 143.625 39.5184 141.085 40.1498 137.928C40.7812 134.771 41.4126 131.238 42.0439 127.33C42.7054 123.451 43.2466 119.482 43.6675 115.423L44.2087 110.372H55.7542ZM49.2599 72.3082C47.0349 72.3082 45.1257 71.5115 43.5322 69.918C41.9387 68.3245 41.142 66.4152 41.142 64.1903C41.142 61.9654 41.9387 60.0562 43.5322 58.4627C45.1257 56.8692 47.0349 56.0724 49.2599 56.0724C51.4848 56.0724 53.394 56.8692 54.9875 58.4627C56.581 60.0562 57.3778 61.9654 57.3778 64.1903C57.3778 65.6636 57.0019 67.0166 56.2503 68.2493C55.5287 69.482 54.5515 70.4742 53.3188 71.2259C52.1162 71.9474 50.7632 72.3082 49.2599 72.3082Z"/>
</mask>
<path d="M20.3849 30.6364V123H9.74148V30.6364H20.3849ZM55.7542 110.372L55.0326 115.243C54.5215 118.67 53.7397 122.339 52.6874 126.247C51.6652 130.156 50.5978 133.839 49.4854 137.297C48.3729 140.754 47.4559 143.505 46.7343 145.55H38.6164C39.0073 143.625 39.5184 141.085 40.1498 137.928C40.7812 134.771 41.4126 131.238 42.0439 127.33C42.7054 123.451 43.2466 119.482 43.6675 115.423L44.2087 110.372H55.7542ZM49.2599 72.3082C47.0349 72.3082 45.1257 71.5115 43.5322 69.918C41.9387 68.3245 41.142 66.4152 41.142 64.1903C41.142 61.9654 41.9387 60.0562 43.5322 58.4627C45.1257 56.8692 47.0349 56.0724 49.2599 56.0724C51.4848 56.0724 53.394 56.8692 54.9875 58.4627C56.581 60.0562 57.3778 61.9654 57.3778 64.1903C57.3778 65.6636 57.0019 67.0166 56.2503 68.2493C55.5287 69.482 54.5515 70.4742 53.3188 71.2259C52.1162 71.9474 50.7632 72.3082 49.2599 72.3082Z" fill="#F5F5F5"/>
<path d="M20.3849 30.6364H25.3849V25.6364H20.3849V30.6364ZM20.3849 123V128H25.3849V123H20.3849ZM9.74148 123H4.74148V128H9.74148V123ZM9.74148 30.6364V25.6364H4.74148V30.6364H9.74148ZM20.3849 30.6364H15.3849V123H20.3849H25.3849V30.6364H20.3849ZM20.3849 123V118H9.74148V123V128H20.3849V123ZM9.74148 123H14.7415V30.6364H9.74148H4.74148V123H9.74148ZM9.74148 30.6364V35.6364H20.3849V30.6364V25.6364H9.74148V30.6364ZM55.7542 110.372L60.7002 111.105L61.5495 105.372H55.7542V110.372ZM55.0326 115.243L59.9779 115.98L59.9786 115.976L55.0326 115.243ZM52.6874 126.247L47.8593 124.947L47.8547 124.965L47.8501 124.982L52.6874 126.247ZM49.4854 137.297L44.7256 135.765L49.4854 137.297ZM46.7343 145.55V150.55H50.2719L51.4492 147.214L46.7343 145.55ZM38.6164 145.55L33.7165 144.554L32.4987 150.55H38.6164V145.55ZM40.1498 137.928L35.2469 136.947V136.947L40.1498 137.928ZM42.0439 127.33L37.1151 126.489L37.1114 126.511L37.1079 126.532L42.0439 127.33ZM43.6675 115.423L38.696 114.891L38.6951 114.899L38.6942 114.908L43.6675 115.423ZM44.2087 110.372V105.372H39.7158L39.2372 109.839L44.2087 110.372ZM43.5322 69.918L39.9967 73.4535L39.9967 73.4535L43.5322 69.918ZM43.5322 58.4627L39.9967 54.9272H39.9967L43.5322 58.4627ZM54.9875 58.4627L58.523 54.9272L58.523 54.9272L54.9875 58.4627ZM56.2503 68.2493L51.9813 65.6462L51.9579 65.6846L51.9352 65.7234L56.2503 68.2493ZM53.3188 71.2259L55.8913 75.5133L55.9066 75.5041L55.9218 75.4948L53.3188 71.2259ZM55.7542 110.372L50.8082 109.639L50.0866 114.51L55.0326 115.243L59.9786 115.976L60.7002 111.105L55.7542 110.372ZM55.0326 115.243L50.0873 114.505C49.6086 117.715 48.8699 121.194 47.8593 124.947L52.6874 126.247L57.5155 127.547C58.6096 123.483 59.4343 119.626 59.9779 115.98L55.0326 115.243ZM52.6874 126.247L47.8501 124.982C46.8487 128.811 45.8068 132.405 44.7256 135.765L49.4854 137.297L54.2451 138.828C55.3888 135.273 56.4816 131.501 57.5247 127.512L52.6874 126.247ZM49.4854 137.297L44.7256 135.765C43.6194 139.204 42.7185 141.905 42.0193 143.886L46.7343 145.55L51.4492 147.214C52.1932 145.106 53.1264 142.305 54.2451 138.828L49.4854 137.297ZM46.7343 145.55V140.55H38.6164V145.55V150.55H46.7343V145.55ZM38.6164 145.55L43.5163 146.545C43.9086 144.614 44.4208 142.068 45.0527 138.908L40.1498 137.928L35.2469 136.947C34.6159 140.102 34.1059 142.637 33.7165 144.554L38.6164 145.55ZM40.1498 137.928L45.0527 138.908C45.6986 135.679 46.3408 132.084 46.98 128.127L42.0439 127.33L37.1079 126.532C36.4843 130.393 35.8637 133.863 35.2469 136.947L40.1498 137.928ZM42.0439 127.33L46.9728 128.17C47.6533 124.18 48.2091 120.103 48.6409 115.939L43.6675 115.423L38.6942 114.908C38.2841 118.862 37.7575 122.722 37.1151 126.489L42.0439 127.33ZM43.6675 115.423L48.6391 115.956L49.1803 110.905L44.2087 110.372L39.2372 109.839L38.696 114.891L43.6675 115.423ZM44.2087 110.372V115.372H55.7542V110.372V105.372H44.2087V110.372ZM49.2599 72.3082V67.3082C48.3801 67.3082 47.7372 67.0518 47.0678 66.3824L43.5322 69.918L39.9967 73.4535C42.5143 75.9711 45.6898 77.3082 49.2599 77.3082V72.3082ZM43.5322 69.918L47.0678 66.3824C46.3984 65.713 46.142 65.0701 46.142 64.1903H41.142H36.142C36.142 67.7604 37.4791 70.9359 39.9967 73.4535L43.5322 69.918ZM41.142 64.1903H46.142C46.142 63.3106 46.3984 62.6676 47.0678 61.9982L43.5322 58.4627L39.9967 54.9272C37.4791 57.4448 36.142 60.6203 36.142 64.1903H41.142ZM43.5322 58.4627L47.0678 61.9982C47.7372 61.3288 48.3801 61.0724 49.2599 61.0724V56.0724V51.0724C45.6898 51.0724 42.5143 52.4096 39.9967 54.9272L43.5322 58.4627ZM49.2599 56.0724V61.0724C50.1396 61.0724 50.7826 61.3288 51.452 61.9982L54.9875 58.4627L58.523 54.9272C56.0054 52.4096 52.8299 51.0724 49.2599 51.0724V56.0724ZM54.9875 58.4627L51.452 61.9982C52.1213 62.6676 52.3778 63.3106 52.3778 64.1903H57.3778H62.3778C62.3778 60.6203 61.0406 57.4448 58.523 54.9272L54.9875 58.4627ZM57.3778 64.1903H52.3778C52.3778 64.765 52.2447 65.2143 51.9813 65.6462L56.2503 68.2493L60.5192 70.8523C61.7592 68.8189 62.3778 66.5622 62.3778 64.1903H57.3778ZM56.2503 68.2493L51.9352 65.7234C51.636 66.2344 51.2504 66.6309 50.7158 66.9569L53.3188 71.2259L55.9218 75.4948C57.8526 74.3175 59.4213 72.7296 60.5653 70.7752L56.2503 68.2493ZM53.3188 71.2259L50.7463 66.9384C50.3768 67.1601 49.9246 67.3082 49.2599 67.3082V72.3082V77.3082C51.6018 77.3082 53.8556 76.7347 55.8913 75.5133L53.3188 71.2259Z" fill="url(#paint0_linear_1401_1801)" mask="url(#path-1-outside-1_1401_1801)"/>
<mask id="path-3-outside-2_1401_1801" maskUnits="userSpaceOnUse" x="76.6538" y="47.8848" width="315" height="129" fill="black">
<rect fill="white" x="76.6538" y="47.8848" width="315" height="129"/>
<path d="M81.8385 145.885V53.5211H92.4819V87.6163H93.3839C94.1656 86.4136 95.248 84.8803 96.6311 83.0162C98.0442 81.122 100.059 79.4383 102.674 77.965C105.32 76.4617 108.898 75.7101 113.408 75.7101C119.241 75.7101 124.382 77.1683 128.832 80.0847C133.282 83.0011 136.755 87.1352 139.25 92.487C141.746 97.8388 142.993 104.153 142.993 111.429C142.993 118.765 141.746 125.124 139.25 130.506C136.755 135.858 133.297 140.007 128.877 142.953C124.457 145.87 119.361 147.328 113.588 147.328C109.139 147.328 105.576 146.591 102.9 145.118C100.224 143.615 98.1645 141.916 96.7213 140.022C95.2781 138.098 94.1656 136.504 93.3839 135.241H92.1211V145.885H81.8385ZM92.3015 111.248C92.3015 116.48 93.0682 121.095 94.6016 125.094C96.135 129.063 98.3749 132.175 101.321 134.43C104.268 136.654 107.876 137.767 112.145 137.767C116.595 137.767 120.308 136.594 123.285 134.249C126.291 131.874 128.546 128.687 130.05 124.688C131.583 120.659 132.35 116.179 132.35 111.248C132.35 106.378 131.598 101.988 130.095 98.0794C128.622 94.1407 126.382 91.0288 123.375 88.7438C120.398 86.4287 116.655 85.2711 112.145 85.2711C107.816 85.2711 104.178 86.3685 101.231 88.5634C98.2847 90.7282 96.0598 93.7649 94.5565 97.6735C93.0532 101.552 92.3015 106.077 92.3015 111.248ZM159.274 145.885V76.612H169.557V87.0751H170.278C171.541 83.6476 173.826 80.8664 177.134 78.7317C180.441 76.597 184.169 75.5296 188.318 75.5296C189.1 75.5296 190.077 75.5447 191.25 75.5747C192.422 75.6048 193.309 75.6499 193.911 75.7101V86.5339C193.55 86.4437 192.723 86.3084 191.43 86.128C190.167 85.9176 188.829 85.8123 187.416 85.8123C184.049 85.8123 181.042 86.5189 178.396 87.932C175.781 89.315 173.706 91.2393 172.173 93.7047C170.669 96.1401 169.918 98.9212 169.918 102.048V145.885H159.274ZM226.912 147.508C222.522 147.508 218.539 146.682 214.961 145.028C211.383 143.344 208.542 140.924 206.437 137.767C204.332 134.58 203.28 130.731 203.28 126.221C203.28 122.253 204.062 119.036 205.625 116.57C207.189 114.075 209.278 112.12 211.894 110.707C214.51 109.294 217.396 108.242 220.553 107.55C223.74 106.829 226.942 106.257 230.159 105.836C234.369 105.295 237.781 104.889 240.397 104.619C243.043 104.318 244.967 103.822 246.17 103.131C247.402 102.439 248.019 101.236 248.019 99.5225V99.1618C248.019 94.7119 246.801 91.2543 244.366 88.7889C241.96 86.3234 238.307 85.0907 233.406 85.0907C228.325 85.0907 224.341 86.2032 221.455 88.4281C218.569 90.653 216.539 93.0282 215.367 95.5538L205.264 91.9458C207.068 87.7366 209.474 84.4593 212.48 82.1142C215.517 79.7389 218.824 78.0853 222.402 77.1532C226.01 76.1911 229.558 75.7101 233.046 75.7101C235.27 75.7101 237.826 75.9806 240.712 76.5218C243.629 77.033 246.44 78.1003 249.146 79.7239C251.882 81.3475 254.152 83.7979 255.956 87.0751C257.76 90.3523 258.662 94.742 258.662 100.244V145.885H248.019V136.504H247.477C246.756 138.007 245.553 139.616 243.869 141.33C242.186 143.044 239.946 144.502 237.15 145.704C234.353 146.907 230.941 147.508 226.912 147.508ZM228.536 137.947C232.745 137.947 236.293 137.12 239.179 135.467C242.096 133.813 244.29 131.678 245.764 129.063C247.267 126.447 248.019 123.696 248.019 120.809V111.068C247.568 111.609 246.575 112.105 245.042 112.556C243.539 112.977 241.795 113.353 239.811 113.684C237.856 113.984 235.947 114.255 234.083 114.496C232.249 114.706 230.761 114.886 229.618 115.037C226.852 115.398 224.266 115.984 221.861 116.796C219.486 117.577 217.561 118.765 216.088 120.358C214.645 121.922 213.923 124.057 213.923 126.763C213.923 130.461 215.291 133.257 218.027 135.151C220.794 137.015 224.296 137.947 228.536 137.947ZM278.089 145.885V76.612H288.371V87.0751H289.093C290.356 83.6476 292.641 80.8664 295.948 78.7317C299.255 76.597 302.984 75.5296 307.133 75.5296C307.914 75.5296 308.892 75.5447 310.064 75.5747C311.237 75.6048 312.124 75.6499 312.725 75.7101V86.5339C312.364 86.4437 311.537 86.3084 310.245 86.128C308.982 85.9176 307.644 85.8123 306.231 85.8123C302.863 85.8123 299.857 86.5189 297.211 87.932C294.595 89.315 292.52 91.2393 290.987 93.7047C289.484 96.1401 288.732 98.9212 288.732 102.048V145.885H278.089ZM334.305 171.862C332.501 171.862 330.893 171.712 329.479 171.411C328.066 171.14 327.089 170.87 326.548 170.599L329.254 161.219C331.84 161.88 334.125 162.121 336.109 161.94C338.093 161.76 339.852 160.873 341.386 159.279C342.949 157.716 344.377 155.175 345.67 151.657L347.655 146.246L322.038 76.612H333.583L352.706 131.814H353.427L372.549 76.612H384.095L354.69 155.987C353.367 159.565 351.729 162.526 349.774 164.872C347.82 167.247 345.55 169.006 342.964 170.148C340.409 171.291 337.522 171.862 334.305 171.862Z"/>
</mask>
<path d="M81.8385 145.885V53.5211H92.4819V87.6163H93.3839C94.1656 86.4136 95.248 84.8803 96.6311 83.0162C98.0442 81.122 100.059 79.4383 102.674 77.965C105.32 76.4617 108.898 75.7101 113.408 75.7101C119.241 75.7101 124.382 77.1683 128.832 80.0847C133.282 83.0011 136.755 87.1352 139.25 92.487C141.746 97.8388 142.993 104.153 142.993 111.429C142.993 118.765 141.746 125.124 139.25 130.506C136.755 135.858 133.297 140.007 128.877 142.953C124.457 145.87 119.361 147.328 113.588 147.328C109.139 147.328 105.576 146.591 102.9 145.118C100.224 143.615 98.1645 141.916 96.7213 140.022C95.2781 138.098 94.1656 136.504 93.3839 135.241H92.1211V145.885H81.8385ZM92.3015 111.248C92.3015 116.48 93.0682 121.095 94.6016 125.094C96.135 129.063 98.3749 132.175 101.321 134.43C104.268 136.654 107.876 137.767 112.145 137.767C116.595 137.767 120.308 136.594 123.285 134.249C126.291 131.874 128.546 128.687 130.05 124.688C131.583 120.659 132.35 116.179 132.35 111.248C132.35 106.378 131.598 101.988 130.095 98.0794C128.622 94.1407 126.382 91.0288 123.375 88.7438C120.398 86.4287 116.655 85.2711 112.145 85.2711C107.816 85.2711 104.178 86.3685 101.231 88.5634C98.2847 90.7282 96.0598 93.7649 94.5565 97.6735C93.0532 101.552 92.3015 106.077 92.3015 111.248ZM159.274 145.885V76.612H169.557V87.0751H170.278C171.541 83.6476 173.826 80.8664 177.134 78.7317C180.441 76.597 184.169 75.5296 188.318 75.5296C189.1 75.5296 190.077 75.5447 191.25 75.5747C192.422 75.6048 193.309 75.6499 193.911 75.7101V86.5339C193.55 86.4437 192.723 86.3084 191.43 86.128C190.167 85.9176 188.829 85.8123 187.416 85.8123C184.049 85.8123 181.042 86.5189 178.396 87.932C175.781 89.315 173.706 91.2393 172.173 93.7047C170.669 96.1401 169.918 98.9212 169.918 102.048V145.885H159.274ZM226.912 147.508C222.522 147.508 218.539 146.682 214.961 145.028C211.383 143.344 208.542 140.924 206.437 137.767C204.332 134.58 203.28 130.731 203.28 126.221C203.28 122.253 204.062 119.036 205.625 116.57C207.189 114.075 209.278 112.12 211.894 110.707C214.51 109.294 217.396 108.242 220.553 107.55C223.74 106.829 226.942 106.257 230.159 105.836C234.369 105.295 237.781 104.889 240.397 104.619C243.043 104.318 244.967 103.822 246.17 103.131C247.402 102.439 248.019 101.236 248.019 99.5225V99.1618C248.019 94.7119 246.801 91.2543 244.366 88.7889C241.96 86.3234 238.307 85.0907 233.406 85.0907C228.325 85.0907 224.341 86.2032 221.455 88.4281C218.569 90.653 216.539 93.0282 215.367 95.5538L205.264 91.9458C207.068 87.7366 209.474 84.4593 212.48 82.1142C215.517 79.7389 218.824 78.0853 222.402 77.1532C226.01 76.1911 229.558 75.7101 233.046 75.7101C235.27 75.7101 237.826 75.9806 240.712 76.5218C243.629 77.033 246.44 78.1003 249.146 79.7239C251.882 81.3475 254.152 83.7979 255.956 87.0751C257.76 90.3523 258.662 94.742 258.662 100.244V145.885H248.019V136.504H247.477C246.756 138.007 245.553 139.616 243.869 141.33C242.186 143.044 239.946 144.502 237.15 145.704C234.353 146.907 230.941 147.508 226.912 147.508ZM228.536 137.947C232.745 137.947 236.293 137.12 239.179 135.467C242.096 133.813 244.29 131.678 245.764 129.063C247.267 126.447 248.019 123.696 248.019 120.809V111.068C247.568 111.609 246.575 112.105 245.042 112.556C243.539 112.977 241.795 113.353 239.811 113.684C237.856 113.984 235.947 114.255 234.083 114.496C232.249 114.706 230.761 114.886 229.618 115.037C226.852 115.398 224.266 115.984 221.861 116.796C219.486 117.577 217.561 118.765 216.088 120.358C214.645 121.922 213.923 124.057 213.923 126.763C213.923 130.461 215.291 133.257 218.027 135.151C220.794 137.015 224.296 137.947 228.536 137.947ZM278.089 145.885V76.612H288.371V87.0751H289.093C290.356 83.6476 292.641 80.8664 295.948 78.7317C299.255 76.597 302.984 75.5296 307.133 75.5296C307.914 75.5296 308.892 75.5447 310.064 75.5747C311.237 75.6048 312.124 75.6499 312.725 75.7101V86.5339C312.364 86.4437 311.537 86.3084 310.245 86.128C308.982 85.9176 307.644 85.8123 306.231 85.8123C302.863 85.8123 299.857 86.5189 297.211 87.932C294.595 89.315 292.52 91.2393 290.987 93.7047C289.484 96.1401 288.732 98.9212 288.732 102.048V145.885H278.089ZM334.305 171.862C332.501 171.862 330.893 171.712 329.479 171.411C328.066 171.14 327.089 170.87 326.548 170.599L329.254 161.219C331.84 161.88 334.125 162.121 336.109 161.94C338.093 161.76 339.852 160.873 341.386 159.279C342.949 157.716 344.377 155.175 345.67 151.657L347.655 146.246L322.038 76.612H333.583L352.706 131.814H353.427L372.549 76.612H384.095L354.69 155.987C353.367 159.565 351.729 162.526 349.774 164.872C347.82 167.247 345.55 169.006 342.964 170.148C340.409 171.291 337.522 171.862 334.305 171.862Z" fill="#F5F5F5"/>
<path d="M81.8385 145.885H76.8385V150.885H81.8385V145.885ZM81.8385 53.5211V48.5211H76.8385V53.5211H81.8385ZM92.4819 53.5211H97.4819V48.5211H92.4819V53.5211ZM92.4819 87.6163H87.4819V92.6163H92.4819V87.6163ZM93.3839 87.6163V92.6163H96.0974L97.5761 90.3412L93.3839 87.6163ZM96.6311 83.0162L92.6234 80.0263L92.6156 80.0369L96.6311 83.0162ZM102.674 77.965L105.128 82.3216L105.136 82.3169L105.144 82.3123L102.674 77.965ZM128.832 80.0847L131.573 75.9028V75.9028L128.832 80.0847ZM139.25 130.506L143.782 132.619L143.786 132.609L139.25 130.506ZM128.877 142.953L131.631 147.127L131.641 147.12L131.651 147.114L128.877 142.953ZM102.9 145.118L100.451 149.477L100.47 149.488L100.488 149.498L102.9 145.118ZM96.7213 140.022L92.7213 143.022L92.7326 143.037L92.7441 143.052L96.7213 140.022ZM93.3839 135.241L97.6353 132.61L96.1692 130.241H93.3839V135.241ZM92.1211 135.241V130.241H87.1211V135.241H92.1211ZM92.1211 145.885V150.885H97.1211V145.885H92.1211ZM94.6016 125.094L89.9331 126.884L89.9376 126.896L94.6016 125.094ZM101.321 134.43L98.2827 138.4L98.2955 138.41L98.3084 138.42L101.321 134.43ZM123.285 134.249L126.379 138.177L126.384 138.173L123.285 134.249ZM130.05 124.688L125.377 122.91L125.373 122.919L125.37 122.929L130.05 124.688ZM130.095 98.0794L125.412 99.8311L125.42 99.8527L125.428 99.8743L130.095 98.0794ZM123.375 88.7438L120.305 92.6905L120.327 92.7077L120.35 92.7246L123.375 88.7438ZM101.231 88.5634L104.192 92.5928L104.205 92.583L104.218 92.5732L101.231 88.5634ZM94.5565 97.6735L99.2186 99.4805L99.2232 99.4684L94.5565 97.6735ZM81.8385 145.885H86.8385V53.5211H81.8385H76.8385V145.885H81.8385ZM81.8385 53.5211V58.5211H92.4819V53.5211V48.5211H81.8385V53.5211ZM92.4819 53.5211H87.4819V87.6163H92.4819H97.4819V53.5211H92.4819ZM92.4819 87.6163V92.6163H93.3839V87.6163V82.6163H92.4819V87.6163ZM93.3839 87.6163L97.5761 90.3412C98.2781 89.2612 99.2925 87.8204 100.647 85.9954L96.6311 83.0162L92.6156 80.0369C91.2035 81.9401 90.0532 83.5661 89.1917 84.8914L93.3839 87.6163ZM96.6311 83.0162L100.639 86.006C101.538 84.8001 102.962 83.5418 105.128 82.3216L102.674 77.965L100.221 73.6085C97.1557 75.3347 94.5501 77.4439 92.6235 80.0263L96.6311 83.0162ZM102.674 77.965L105.144 82.3123C106.76 81.3944 109.376 80.71 113.408 80.71V75.71V70.71C108.42 70.71 103.881 71.529 100.204 73.6177L102.674 77.965ZM113.408 75.71V80.71C118.365 80.71 122.534 81.935 126.091 84.2666L128.832 80.0847L131.573 75.9028C126.231 72.4015 120.117 70.71 113.408 70.71V75.71ZM128.832 80.0847L126.091 84.2666C129.68 86.6185 132.571 89.9955 134.718 94.6001L139.25 92.487L143.782 90.374C140.938 84.275 136.884 79.3838 131.573 75.9028L128.832 80.0847ZM139.25 92.487L134.718 94.6001C136.842 99.1549 137.993 104.717 137.993 111.429H142.993H147.993C147.993 103.588 146.649 96.5227 143.782 90.374L139.25 92.487ZM142.993 111.429H137.993C137.993 118.206 136.84 123.817 134.714 128.403L139.25 130.506L143.786 132.609C146.651 126.431 147.993 119.324 147.993 111.429H142.993ZM139.25 130.506L134.718 128.393C132.566 133.009 129.678 136.41 126.104 138.793L128.877 142.953L131.651 147.114C136.916 143.603 140.943 138.706 143.782 132.619L139.25 130.506ZM128.877 142.953L126.123 138.78C122.594 141.109 118.474 142.328 113.588 142.328V147.328V152.328C120.248 152.328 126.32 150.631 131.631 147.127L128.877 142.953ZM113.588 147.328V142.328C109.623 142.328 106.987 141.661 105.311 140.738L102.9 145.118L100.488 149.498C104.164 151.522 108.655 152.328 113.588 152.328V147.328ZM102.9 145.118L105.349 140.759C103.103 139.497 101.627 138.211 100.698 136.992L96.7213 140.022L92.7441 143.052C94.7016 145.621 97.3449 147.732 100.451 149.477L102.9 145.118ZM96.7213 140.022L100.721 137.022C99.3201 135.154 98.306 133.693 97.6353 132.61L93.3839 135.241L89.1326 137.873C90.0253 139.315 91.2361 141.042 92.7213 143.022L96.7213 140.022ZM93.3839 135.241V130.241H92.1211V135.241V140.241H93.3839V135.241ZM92.1211 135.241H87.1211V145.885H92.1211H97.1211V135.241H92.1211ZM92.1211 145.885V140.885H81.8385V145.885V150.885H92.1211V145.885ZM92.3015 111.248H87.3015C87.3015 116.961 88.138 122.203 89.9331 126.884L94.6016 125.094L99.2701 123.304C97.9985 119.987 97.3015 115.999 97.3015 111.248H92.3015ZM94.6016 125.094L89.9376 126.896C91.7531 131.595 94.5029 135.507 98.2827 138.4L101.321 134.43L104.36 130.459C102.247 128.842 100.517 126.53 99.2656 123.292L94.6016 125.094ZM101.321 134.43L98.3084 138.42C102.254 141.399 106.965 142.767 112.145 142.767V137.767V132.767C108.786 132.767 106.282 131.91 104.334 130.439L101.321 134.43ZM112.145 137.767V142.767C117.514 142.767 122.373 141.333 126.379 138.177L123.285 134.249L120.19 130.322C118.243 131.856 115.676 132.767 112.145 132.767V137.767ZM123.285 134.249L126.384 138.173C130.185 135.17 132.944 131.197 134.73 126.448L130.05 124.688L125.37 122.929C124.149 126.176 122.398 128.578 120.185 130.326L123.285 134.249ZM130.05 124.688L134.723 126.467C136.501 121.794 137.35 116.701 137.35 111.248H132.35H127.35C127.35 115.658 126.665 119.524 125.377 122.91L130.05 124.688ZM132.35 111.248H137.35C137.35 105.862 136.518 100.851 134.762 96.2845L130.095 98.0794L125.428 99.8743C126.678 103.125 127.35 106.893 127.35 111.248H132.35ZM130.095 98.0794L134.778 96.3277C133.013 91.608 130.243 87.683 126.4 84.763L123.375 88.7438L120.35 92.7246C122.521 94.3746 124.231 96.6734 125.412 99.8311L130.095 98.0794ZM123.375 88.7438L126.445 84.797C122.428 81.6728 117.542 80.2711 112.145 80.2711V85.2711V90.2711C115.769 90.2711 118.369 91.1846 120.305 92.6905L123.375 88.7438ZM112.145 85.2711V80.2711C106.938 80.2711 102.201 81.6066 98.2443 84.5536L101.231 88.5634L104.218 92.5732C106.155 91.1305 108.694 90.2711 112.145 90.2711V85.2711ZM101.231 88.5634L98.2708 84.534C94.4462 87.3439 91.6853 91.2103 89.8898 95.8786L94.5565 97.6735L99.2232 99.4684C100.434 96.3194 102.123 94.1124 104.192 92.5928L101.231 88.5634ZM94.5565 97.6735L89.8945 95.8665C88.1208 100.443 87.3015 105.604 87.3015 111.248H92.3015H97.3015C97.3015 106.55 97.9856 102.661 99.2186 99.4805L94.5565 97.6735ZM159.274 145.885H154.274V150.885H159.274V145.885ZM159.274 76.612V71.612H154.274V76.612H159.274ZM169.557 76.612H174.557V71.612H169.557V76.612ZM169.557 87.0751H164.557V92.0751H169.557V87.0751ZM170.278 87.0751V92.0751H173.765L174.97 88.8036L170.278 87.0751ZM177.134 78.7317L174.422 74.5308L174.422 74.5308L177.134 78.7317ZM193.911 75.71H198.911V71.1851L194.408 70.7349L193.911 75.71ZM193.911 86.5339L192.698 91.3846L198.911 92.9378V86.5339H193.911ZM191.43 86.128L190.608 91.06L190.673 91.0709L190.739 91.08L191.43 86.128ZM178.396 87.932L180.733 92.3522L180.743 92.3473L180.752 92.3424L178.396 87.932ZM172.173 93.7047L167.927 91.064L167.922 91.0712L167.918 91.0784L172.173 93.7047ZM169.918 145.885V150.885H174.918V145.885H169.918ZM159.274 145.885H164.274V76.612H159.274H154.274V145.885H159.274ZM159.274 76.612V81.612H169.557V76.612V71.612H159.274V76.612ZM169.557 76.612H164.557V87.0751H169.557H174.557V76.612H169.557ZM169.557 87.0751V92.0751H170.278V87.0751V82.0751H169.557V87.0751ZM170.278 87.0751L174.97 88.8036C175.829 86.4738 177.373 84.5281 179.845 82.9326L177.134 78.7317L174.422 74.5308C170.279 77.2048 167.254 80.8213 165.587 85.3466L170.278 87.0751ZM177.134 78.7317L179.845 82.9326C182.3 81.3484 185.076 80.5296 188.318 80.5296V75.5296V70.5296C183.262 70.5296 178.582 71.8456 174.422 74.5308L177.134 78.7317ZM188.318 75.5296V80.5296C189.042 80.5296 189.973 80.5437 191.122 80.5731L191.25 75.5747L191.378 70.5764C190.181 70.5457 189.158 70.5296 188.318 70.5296V75.5296ZM191.25 75.5747L191.122 80.5731C192.262 80.6024 193.001 80.644 193.413 80.6852L193.911 75.71L194.408 70.7349C193.618 70.6558 192.582 70.6073 191.378 70.5764L191.25 75.5747ZM193.911 75.71H188.911V86.5339H193.911H198.911V75.71H193.911ZM193.911 86.5339L195.123 81.6832C194.452 81.5154 193.339 81.346 192.121 81.176L191.43 86.128L190.739 91.08C191.365 91.1674 191.853 91.2403 192.212 91.2992C192.615 91.365 192.735 91.3938 192.698 91.3846L193.911 86.5339ZM191.43 86.128L192.252 81.196C190.691 80.9359 189.077 80.8123 187.416 80.8123V85.8123V90.8123C188.582 90.8123 189.643 90.8992 190.608 91.06L191.43 86.128ZM187.416 85.8123V80.8123C183.329 80.8123 179.497 81.6759 176.041 83.5216L178.396 87.932L180.752 92.3424C182.588 91.3618 184.768 90.8123 187.416 90.8123V85.8123ZM178.396 87.932L176.059 83.5118C172.677 85.3003 169.937 87.832 167.927 91.064L172.173 93.7047L176.418 96.3454C177.475 94.6466 178.885 93.3298 180.733 92.3522L178.396 87.932ZM172.173 93.7047L167.918 91.0784C165.883 94.3755 164.918 98.0825 164.918 102.048H169.918H174.918C174.918 99.76 175.456 97.9047 176.427 96.3311L172.173 93.7047ZM169.918 102.048H164.918V145.885H169.918H174.918V102.048H169.918ZM169.918 145.885V140.885H159.274V145.885V150.885H169.918V145.885ZM214.961 145.028L212.832 149.552L212.847 149.559L212.863 149.567L214.961 145.028ZM206.437 137.767L202.265 140.522L202.271 140.531L202.277 140.54L206.437 137.767ZM205.625 116.57L209.848 119.248L209.855 119.236L209.862 119.225L205.625 116.57ZM220.553 107.55L221.623 112.434L221.64 112.431L221.657 112.427L220.553 107.55ZM230.159 105.836L229.522 100.877L229.511 100.879L230.159 105.836ZM240.397 104.619L240.911 109.592L240.936 109.59L240.961 109.587L240.397 104.619ZM246.17 103.131L243.723 98.7698L243.7 98.7828L243.677 98.796L246.17 103.131ZM244.366 88.7889L240.787 92.2805L240.797 92.2916L240.808 92.3027L244.366 88.7889ZM221.455 88.4281L224.508 92.3881V92.3881L221.455 88.4281ZM215.367 95.5538L213.685 100.263L217.981 101.797L219.902 97.6594L215.367 95.5538ZM205.264 91.9458L200.669 89.9762L198.573 94.8655L203.583 96.6545L205.264 91.9458ZM212.48 82.1142L215.555 86.0567L215.561 86.0525L212.48 82.1142ZM222.402 77.1532L223.663 81.9917L223.677 81.9881L223.69 81.9844L222.402 77.1532ZM240.712 76.5218L239.791 81.4362L239.82 81.4417L239.849 81.4468L240.712 76.5218ZM249.146 79.7239L246.574 84.0114L246.584 84.0176L246.594 84.0238L249.146 79.7239ZM255.956 87.0751L251.576 89.4862V89.4862L255.956 87.0751ZM258.662 145.885V150.885H263.662V145.885H258.662ZM248.019 145.885H243.019V150.885H248.019V145.885ZM248.019 136.504H253.019V131.504H248.019V136.504ZM247.477 136.504V131.504H244.331L242.97 134.34L247.477 136.504ZM243.869 141.33L247.436 144.834V144.834L243.869 141.33ZM237.15 145.704L235.174 141.111V141.111L237.15 145.704ZM239.179 135.467L236.713 131.117L236.703 131.123L236.694 131.128L239.179 135.467ZM245.764 129.063L241.429 126.571L241.418 126.59L241.407 126.609L245.764 129.063ZM248.019 111.068H253.019V97.2577L244.177 107.867L248.019 111.068ZM245.042 112.556L246.39 117.371L246.422 117.362L246.453 117.353L245.042 112.556ZM239.811 113.684L240.571 118.626L240.602 118.621L240.632 118.616L239.811 113.684ZM234.083 114.496L234.653 119.463L234.688 119.459L234.723 119.454L234.083 114.496ZM229.618 115.037L230.265 119.995L230.27 119.994L229.618 115.037ZM221.861 116.796L223.424 121.545L223.442 121.539L223.46 121.533L221.861 116.796ZM216.088 120.358L212.417 116.964L212.414 116.967L216.088 120.358ZM218.027 135.151L215.181 139.262L215.207 139.28L215.233 139.297L218.027 135.151ZM226.912 147.508V142.508C223.164 142.508 219.907 141.806 217.058 140.489L214.961 145.028L212.863 149.567C217.17 151.557 221.881 152.508 226.912 152.508V147.508ZM214.961 145.028L217.09 140.504C214.299 139.191 212.175 137.36 210.597 134.993L206.437 137.767L202.277 140.54C204.908 144.488 208.466 147.498 212.832 149.552L214.961 145.028ZM206.437 137.767L210.609 135.012C209.136 132.781 208.28 129.932 208.28 126.221H203.28H198.28C198.28 131.531 199.529 136.379 202.265 140.522L206.437 137.767ZM203.28 126.221H208.28C208.28 122.871 208.944 120.673 209.848 119.248L205.625 116.57L201.403 113.892C199.18 117.398 198.28 121.635 198.28 126.221H203.28ZM205.625 116.57L209.862 119.225C210.962 117.469 212.408 116.113 214.27 115.106L211.894 110.707L209.517 106.308C206.149 108.128 203.415 110.68 201.388 113.916L205.625 116.57ZM211.894 110.707L214.27 115.106C216.441 113.933 218.883 113.035 221.623 112.434L220.553 107.55L219.483 102.666C215.91 103.449 212.578 104.655 209.517 106.308L211.894 110.707ZM220.553 107.55L221.657 112.427C224.695 111.739 227.745 111.195 230.808 110.794L230.159 105.836L229.511 100.879C226.139 101.32 222.785 101.918 219.449 102.674L220.553 107.55ZM230.159 105.836L230.797 110.796C234.987 110.257 238.354 109.857 240.911 109.592L240.397 104.619L239.882 99.6453C237.208 99.9219 233.75 100.334 229.522 100.877L230.159 105.836ZM240.397 104.619L240.961 109.587C243.776 109.267 246.543 108.684 248.662 107.465L246.17 103.131L243.677 98.796C243.391 98.9605 242.309 99.3693 239.832 99.6508L240.397 104.619ZM246.17 103.131L248.616 107.491C251.786 105.713 253.019 102.59 253.019 99.5225H248.019H243.019C243.019 99.7935 242.969 99.6976 243.107 99.4294C243.176 99.2941 243.275 99.1523 243.401 99.0233C243.525 98.8957 243.643 98.8148 243.723 98.7698L246.17 103.131ZM248.019 99.5225H253.019V99.1618H248.019H243.019V99.5225H248.019ZM248.019 99.1618H253.019C253.019 93.7869 251.525 88.9216 247.923 85.2751L244.366 88.7889L240.808 92.3027C242.077 93.587 243.019 95.637 243.019 99.1618H248.019ZM244.366 88.7889L247.944 85.2973C244.26 81.5206 239.078 80.0907 233.406 80.0907V85.0907V90.0907C237.537 90.0907 239.661 91.1263 240.787 92.2805L244.366 88.7889ZM233.406 85.0907V80.0907C227.648 80.0907 222.45 81.3478 218.402 84.468L221.455 88.4281L224.508 92.3881C226.232 91.0585 229.003 90.0907 233.406 90.0907V85.0907ZM221.455 88.4281L218.402 84.468C215.07 87.0371 212.43 90.0047 210.832 93.4482L215.367 95.5538L219.902 97.6594C220.648 96.0518 222.068 94.2689 224.508 92.3881L221.455 88.4281ZM215.367 95.5538L217.048 90.8451L206.946 87.2371L205.264 91.9458L203.583 96.6545L213.685 100.263L215.367 95.5538ZM205.264 91.9458L209.86 93.9154C211.398 90.3262 213.336 87.7881 215.555 86.0567L212.48 82.1142L209.405 78.1717C205.612 81.1305 202.738 85.1469 200.669 89.9762L205.264 91.9458ZM212.48 82.1142L215.561 86.0525C218.082 84.0803 220.775 82.744 223.663 81.9917L222.402 77.1532L221.142 72.3147C216.874 73.4266 212.952 75.3976 209.4 78.1758L212.48 82.1142ZM222.402 77.1532L223.69 81.9844C226.908 81.1265 230.022 80.71 233.046 80.71V75.71V70.71C229.093 70.71 225.113 71.2557 221.114 72.3221L222.402 77.1532ZM233.046 75.71V80.71C234.881 80.71 237.118 80.9351 239.791 81.4362L240.712 76.5218L241.634 71.6075C238.534 71.0262 235.66 70.71 233.046 70.71V75.71ZM240.712 76.5218L239.849 81.4468C242.123 81.8452 244.359 82.6824 246.574 84.0114L249.146 79.7239L251.719 75.4364C248.522 73.5183 245.135 72.2207 241.576 71.5969L240.712 76.5218ZM249.146 79.7239L246.594 84.0238C248.438 85.1177 250.126 86.8518 251.576 89.4862L255.956 87.0751L260.336 84.664C258.179 80.744 255.326 77.5773 251.698 75.424L249.146 79.7239ZM255.956 87.0751L251.576 89.4862C252.826 91.758 253.662 95.2163 253.662 100.244H258.662H263.662C263.662 94.2677 262.694 88.9467 260.336 84.664L255.956 87.0751ZM258.662 100.244H253.662V145.885H258.662H263.662V100.244H258.662ZM258.662 145.885V140.885H248.019V145.885V150.885H258.662V145.885ZM248.019 145.885H253.019V136.504H248.019H243.019V145.885H248.019ZM248.019 136.504V131.504H247.477V136.504V141.504H248.019V136.504ZM247.477 136.504L242.97 134.34C242.566 135.182 241.756 136.346 240.303 137.826L243.869 141.33L247.436 144.834C249.35 142.885 250.946 140.833 251.985 138.668L247.477 136.504ZM243.869 141.33L240.303 137.826C239.177 138.971 237.527 140.099 235.174 141.111L237.15 145.704L239.125 150.298C242.364 148.904 245.194 147.116 247.436 144.834L243.869 141.33ZM237.15 145.704L235.174 141.111C233.169 141.974 230.47 142.508 226.912 142.508V147.508V152.508C231.412 152.508 235.538 151.84 239.125 150.298L237.15 145.704ZM228.536 137.947V142.947C233.389 142.947 237.846 141.993 241.665 139.805L239.179 135.467L236.694 131.128C234.739 132.248 232.1 132.947 228.536 132.947V137.947ZM239.179 135.467L241.645 139.816C245.258 137.768 248.15 135.014 250.12 131.516L245.764 129.063L241.407 126.609C240.431 128.343 238.933 129.858 236.713 131.117L239.179 135.467ZM245.764 129.063L250.099 131.554C252.017 128.216 253.019 124.61 253.019 120.809H248.019H243.019C243.019 122.781 242.517 124.678 241.429 126.571L245.764 129.063ZM248.019 120.809H253.019V111.068H248.019H243.019V120.809H248.019ZM248.019 111.068L244.177 107.867C244.394 107.607 244.583 107.461 244.661 107.405C244.742 107.347 244.766 107.341 244.7 107.374C244.638 107.405 244.52 107.458 244.335 107.528C244.151 107.597 243.919 107.675 243.631 107.759L245.042 112.556L246.453 117.353C247.391 117.077 248.324 116.742 249.172 116.318C249.97 115.919 251.012 115.286 251.86 114.269L248.019 111.068ZM245.042 112.556L243.694 107.741C242.405 108.102 240.843 108.443 238.989 108.752L239.811 113.684L240.632 118.616C242.747 118.263 244.673 117.852 246.39 117.371L245.042 112.556ZM239.811 113.684L239.05 108.742C237.134 109.037 235.265 109.302 233.443 109.537L234.083 114.496L234.723 119.454C236.629 119.208 238.578 118.932 240.571 118.626L239.811 113.684ZM234.083 114.496L233.513 109.528C231.666 109.74 230.147 109.924 228.966 110.079L229.618 115.037L230.27 119.994C231.374 119.849 232.832 119.672 234.653 119.463L234.083 114.496ZM229.618 115.037L228.971 110.079C225.913 110.478 223.005 111.132 220.262 112.058L221.861 116.796L223.46 121.533C225.527 120.835 227.791 120.317 230.265 119.995L229.618 115.037ZM221.861 116.796L220.298 112.046C217.24 113.053 214.549 114.658 212.417 116.964L216.088 120.358L219.76 123.753C220.574 122.872 221.731 122.102 223.424 121.545L221.861 116.796ZM216.088 120.358L212.414 116.967C209.905 119.685 208.923 123.154 208.923 126.763H213.923H218.923C218.923 124.959 219.385 124.159 219.762 123.75L216.088 120.358ZM213.923 126.763H208.923C208.923 131.888 210.93 136.319 215.181 139.262L218.027 135.151L220.874 131.04C219.653 130.195 218.923 129.033 218.923 126.763H213.923ZM218.027 135.151L215.233 139.297C219.023 141.851 223.57 142.947 228.536 142.947V137.947V132.947C225.023 132.947 222.564 132.179 220.822 131.005L218.027 135.151ZM278.089 145.885H273.089V150.885H278.089V145.885ZM278.089 76.612V71.612H273.089V76.612H278.089ZM288.371 76.612H293.371V71.612H288.371V76.612ZM288.371 87.0751H283.371V92.0751H288.371V87.0751ZM289.093 87.0751V92.0751H292.579L293.785 88.8036L289.093 87.0751ZM295.948 78.7317L293.237 74.5308V74.5308L295.948 78.7317ZM312.725 75.71H317.725V71.1851L313.223 70.7349L312.725 75.71ZM312.725 86.5339L311.512 91.3846L317.725 92.9378V86.5339H312.725ZM310.245 86.128L309.423 91.06L309.488 91.0709L309.554 91.08L310.245 86.128ZM297.211 87.932L299.548 92.3522L299.557 92.3473L299.566 92.3424L297.211 87.932ZM290.987 93.7047L286.741 91.064L286.737 91.0712L286.732 91.0784L290.987 93.7047ZM288.732 145.885V150.885H293.732V145.885H288.732ZM278.089 145.885H283.089V76.612H278.089H273.089V145.885H278.089ZM278.089 76.612V81.612H288.371V76.612V71.612H278.089V76.612ZM288.371 76.612H283.371V87.0751H288.371H293.371V76.612H288.371ZM288.371 87.0751V92.0751H289.093V87.0751V82.0751H288.371V87.0751ZM289.093 87.0751L293.785 88.8036C294.643 86.4738 296.188 84.5281 298.66 82.9326L295.948 78.7317L293.237 74.5308C289.094 77.2048 286.068 80.8213 284.401 85.3466L289.093 87.0751ZM295.948 78.7317L298.66 82.9326C301.114 81.3484 303.891 80.5296 307.133 80.5296V75.5296V70.5296C302.076 70.5296 297.397 71.8456 293.237 74.5308L295.948 78.7317ZM307.133 75.5296V80.5296C307.856 80.5296 308.787 80.5437 309.936 80.5731L310.064 75.5747L310.192 70.5764C308.996 70.5457 307.973 70.5296 307.133 70.5296V75.5296ZM310.064 75.5747L309.936 80.5731C311.077 80.6024 311.815 80.644 312.227 80.6852L312.725 75.71L313.223 70.7349C312.432 70.6558 311.397 70.6073 310.192 70.5764L310.064 75.5747ZM312.725 75.71H307.725V86.5339H312.725H317.725V75.71H312.725ZM312.725 86.5339L313.938 81.6832C313.267 81.5154 312.154 81.346 310.936 81.176L310.245 86.128L309.554 91.08C310.18 91.1674 310.667 91.2403 311.027 91.2992C311.429 91.365 311.549 91.3938 311.512 91.3846L312.725 86.5339ZM310.245 86.128L311.067 81.196C309.506 80.9359 307.891 80.8123 306.231 80.8123V85.8123V90.8123C307.396 90.8123 308.458 90.8992 309.423 91.06L310.245 86.128ZM306.231 85.8123V80.8123C302.144 80.8123 298.311 81.6759 294.855 83.5216L297.211 87.932L299.566 92.3424C301.402 91.3618 303.583 90.8123 306.231 90.8123V85.8123ZM297.211 87.932L294.874 83.5118C291.491 85.3003 288.751 87.832 286.741 91.064L290.987 93.7047L295.233 96.3454C296.289 94.6466 297.699 93.3298 299.548 92.3522L297.211 87.932ZM290.987 93.7047L286.732 91.0784C284.697 94.3755 283.732 98.0825 283.732 102.048H288.732H293.732C293.732 99.76 294.27 97.9047 295.242 96.3311L290.987 93.7047ZM288.732 102.048H283.732V145.885H288.732H293.732V102.048H288.732ZM288.732 145.885V140.885H278.089V145.885V150.885H288.732V145.885ZM329.479 171.411L330.52 166.521L330.47 166.51L330.42 166.5L329.479 171.411ZM326.548 170.599L321.744 169.213L320.591 173.211L324.312 175.071L326.548 170.599ZM329.254 161.219L330.493 156.375L325.794 155.173L324.45 159.833L329.254 161.219ZM336.109 161.94L335.656 156.961H335.656L336.109 161.94ZM341.386 159.279L337.85 155.744L337.816 155.778L337.783 155.812L341.386 159.279ZM345.67 151.657L350.363 153.382L350.365 153.379L345.67 151.657ZM347.655 146.246L352.349 147.967L352.981 146.243L352.347 144.519L347.655 146.246ZM322.038 76.612V71.612H314.871L317.345 78.3383L322.038 76.612ZM333.583 76.612L338.308 74.9754L337.143 71.612H333.583V76.612ZM352.706 131.814L347.981 133.45L349.146 136.814H352.706V131.814ZM353.427 131.814V136.814H356.987L358.152 133.45L353.427 131.814ZM372.549 76.612V71.612H368.99L367.825 74.9754L372.549 76.612ZM384.095 76.612L388.783 78.349L391.279 71.612H384.095V76.612ZM354.69 155.987L350.001 154.25L350 154.253L354.69 155.987ZM349.774 164.872L345.933 161.671L345.923 161.683L345.913 161.695L349.774 164.872ZM342.964 170.148L340.943 165.575L340.933 165.579L340.924 165.584L342.964 170.148ZM334.305 171.862V166.862C332.769 166.862 331.519 166.733 330.52 166.521L329.479 171.411L328.439 176.302C330.266 176.69 332.234 176.862 334.305 176.862V171.862ZM329.479 171.411L330.42 166.5C329.796 166.381 329.338 166.274 329.021 166.186C328.665 166.088 328.638 166.054 328.784 166.127L326.548 170.599L324.312 175.071C325.532 175.682 327.124 176.051 328.539 176.322L329.479 171.411ZM326.548 170.599L331.352 171.985L334.058 162.604L329.254 161.219L324.45 159.833L321.744 169.213L326.548 170.599ZM329.254 161.219L328.015 166.063C330.977 166.82 333.854 167.166 336.562 166.92L336.109 161.94L335.656 156.961C334.396 157.075 332.702 156.94 330.493 156.375L329.254 161.219ZM336.109 161.94L336.562 166.92C339.878 166.618 342.72 165.104 344.989 162.746L341.386 159.279L337.783 155.812C336.985 156.641 336.309 156.901 335.656 156.961L336.109 161.94ZM341.386 159.279L344.921 162.815C347.235 160.501 348.971 157.171 350.363 153.382L345.67 151.657L340.977 149.933C339.784 153.18 338.663 154.931 337.85 155.744L341.386 159.279ZM345.67 151.657L350.365 153.379L352.349 147.967L347.655 146.246L342.96 144.524L340.976 149.936L345.67 151.657ZM347.655 146.246L352.347 144.519L326.731 74.8858L322.038 76.612L317.345 78.3383L342.962 147.972L347.655 146.246ZM322.038 76.612V81.612H333.583V76.612V71.612H322.038V76.612ZM333.583 76.612L328.859 78.2486L347.981 133.45L352.706 131.814L357.43 130.177L338.308 74.9754L333.583 76.612ZM352.706 131.814V136.814H353.427V131.814V126.814H352.706V131.814ZM353.427 131.814L358.152 133.45L377.274 78.2486L372.549 76.612L367.825 74.9754L348.703 130.177L353.427 131.814ZM372.549 76.612V81.612H384.095V76.612V71.612H372.549V76.612ZM384.095 76.612L379.406 74.8751L350.001 154.25L354.69 155.987L359.379 157.724L388.783 78.349L384.095 76.612ZM354.69 155.987L350 154.253C348.828 157.425 347.445 159.856 345.933 161.671L349.774 164.872L353.615 168.073C356.012 165.197 357.907 161.705 359.38 157.721L354.69 155.987ZM349.774 164.872L345.913 161.695C344.41 163.521 342.754 164.775 340.943 165.575L342.964 170.148L344.985 174.722C348.346 173.237 351.229 170.972 353.635 168.048L349.774 164.872ZM342.964 170.148L340.924 165.584C339.099 166.399 336.923 166.862 334.305 166.862V171.862V176.862C338.121 176.862 341.718 176.182 345.005 174.713L342.964 170.148Z" fill="url(#paint1_linear_1401_1801)" mask="url(#path-3-outside-2_1401_1801)"/>
<defs>
<linearGradient id="paint0_linear_1401_1801" x1="226.331" y1="58.2999" x2="228.815" y2="140.121" gradientUnits="userSpaceOnUse">
<stop offset="0.00214007" stop-color="#D7D7D7"/>
<stop offset="1" stop-color="#2B2B2B"/>
</linearGradient>
<linearGradient id="paint1_linear_1401_1801" x1="226.309" y1="86.9923" x2="230.672" y2="176.835" gradientUnits="userSpaceOnUse">
<stop offset="0.00214007" stop-color="#D7D7D7"/>
<stop offset="1" stop-color="#2B2B2B"/>
</linearGradient>
</defs>
</svg>
