<svg width="76" height="90" viewBox="0 0 76 90" fill="none" xmlns="http://www.w3.org/2000/svg">
<g filter="url(#filter0_f_1401_1830)">
<rect x="16.7998" y="16.7998" width="41.6111" height="56.3921" fill="white"/>
<rect x="17.2998" y="17.2998" width="40.6111" height="55.3921" stroke="black"/>
</g>
<mask id="path-3-outside-1_1401_1830" maskUnits="userSpaceOnUse" x="34.1055" y="36.9404" width="7" height="25" fill="black">
<rect fill="white" x="34.1055" y="36.9404" width="7" height="25"/>
<path d="M36.0655 38.6404H36.1255C37.1455 38.1604 37.9855 38.4004 39.6655 40.2004V41.4004C39.6655 42.9004 39.6055 42.9604 38.2255 42.9604C37.6855 42.9604 37.2655 43.0204 37.2655 43.0804C37.2655 43.4404 36.6655 43.6204 36.2455 43.3804C35.4055 42.9004 35.1055 42.1804 35.1055 40.6804C35.1055 39.1804 35.1655 39.0604 36.0655 38.6404ZM37.8055 40.5604L37.7455 40.6204C37.1455 39.9004 36.7255 39.9604 36.7255 41.3404H37.4455C38.2855 41.3404 38.3455 41.2204 37.8055 40.5604ZM36.5455 52.9204L36.4855 52.8004C37.1455 52.2604 38.1055 53.1004 39.2455 55.2004C39.3655 55.4404 39.4255 57.1204 39.3055 57.9604C39.2455 58.6204 38.2255 59.8804 37.5055 60.1804C36.8455 60.4804 35.7055 60.4804 35.4055 60.1804C34.8055 59.6404 35.2255 58.9204 36.1255 58.9204C36.5455 58.9204 36.6655 58.8604 37.7455 57.8404V56.8204C37.7455 55.8004 37.7455 55.8004 37.2655 55.0804C36.9655 54.6604 36.6055 54.2404 36.4855 54.1204C36.1855 53.8204 36.1855 53.1604 36.5455 52.9204Z"/>
</mask>
<path d="M36.0655 38.6404H36.1255C37.1455 38.1604 37.9855 38.4004 39.6655 40.2004V41.4004C39.6655 42.9004 39.6055 42.9604 38.2255 42.9604C37.6855 42.9604 37.2655 43.0204 37.2655 43.0804C37.2655 43.4404 36.6655 43.6204 36.2455 43.3804C35.4055 42.9004 35.1055 42.1804 35.1055 40.6804C35.1055 39.1804 35.1655 39.0604 36.0655 38.6404ZM37.8055 40.5604L37.7455 40.6204C37.1455 39.9004 36.7255 39.9604 36.7255 41.3404H37.4455C38.2855 41.3404 38.3455 41.2204 37.8055 40.5604ZM36.5455 52.9204L36.4855 52.8004C37.1455 52.2604 38.1055 53.1004 39.2455 55.2004C39.3655 55.4404 39.4255 57.1204 39.3055 57.9604C39.2455 58.6204 38.2255 59.8804 37.5055 60.1804C36.8455 60.4804 35.7055 60.4804 35.4055 60.1804C34.8055 59.6404 35.2255 58.9204 36.1255 58.9204C36.5455 58.9204 36.6655 58.8604 37.7455 57.8404V56.8204C37.7455 55.8004 37.7455 55.8004 37.2655 55.0804C36.9655 54.6604 36.6055 54.2404 36.4855 54.1204C36.1855 53.8204 36.1855 53.1604 36.5455 52.9204Z" fill="#D2D2D2"/>
<path d="M36.0655 38.6404V37.6404H35.8436L35.6426 37.7342L36.0655 38.6404ZM36.1255 38.6404V39.6404H36.349L36.5513 39.5452L36.1255 38.6404ZM39.6655 40.2004H40.6655V39.8063L40.3965 39.5181L39.6655 40.2004ZM36.2455 43.3804L36.7416 42.5122H36.7416L36.2455 43.3804ZM37.8055 40.5604L38.5794 39.9272L37.8797 39.072L37.0984 39.8533L37.8055 40.5604ZM37.7455 40.6204L36.9772 41.2606L37.6783 42.1018L38.4526 41.3275L37.7455 40.6204ZM36.7255 41.3404H35.7255V42.3404H36.7255V41.3404ZM36.5455 52.9204L37.1002 53.7525L37.8347 53.2628L37.4399 52.4732L36.5455 52.9204ZM36.4855 52.8004L35.8522 52.0265L35.2336 52.5327L35.591 53.2476L36.4855 52.8004ZM39.2455 55.2004L40.1399 54.7532L40.1324 54.7381L40.1243 54.7233L39.2455 55.2004ZM39.3055 57.9604L38.3155 57.819L38.3119 57.8444L38.3096 57.8699L39.3055 57.9604ZM37.5055 60.1804L37.1209 59.2574L37.1062 59.2635L37.0917 59.2701L37.5055 60.1804ZM35.4055 60.1804L36.1126 59.4733L36.094 59.4547L36.0744 59.4371L35.4055 60.1804ZM37.7455 57.8404L38.4321 58.5674L38.7455 58.2715V57.8404H37.7455ZM37.2655 55.0804L38.0975 54.5257L38.0886 54.5123L38.0792 54.4992L37.2655 55.0804ZM36.4855 54.1204L37.1926 53.4133H37.1926L36.4855 54.1204ZM36.0655 38.6404V39.6404H36.1255V38.6404V37.6404H36.0655V38.6404ZM36.1255 38.6404L36.5513 39.5452C36.8666 39.3969 37.0348 39.3946 37.2679 39.4904C37.6031 39.6281 38.1095 39.9989 38.9344 40.8827L39.6655 40.2004L40.3965 39.5181C39.5414 38.6019 38.7878 37.9527 38.0281 37.6405C37.1661 37.2862 36.4044 37.404 35.6997 37.7356L36.1255 38.6404ZM39.6655 40.2004H38.6655V41.4004H39.6655H40.6655V40.2004H39.6655ZM39.6655 41.4004H38.6655C38.6655 41.7887 38.6603 42.0091 38.6423 42.1524C38.6236 42.3017 38.6082 42.1942 38.7292 42.0635C38.8628 41.9193 38.9957 41.9225 38.8886 41.938C38.7738 41.9548 38.5866 41.9604 38.2255 41.9604V42.9604V43.9604C38.5544 43.9604 38.8922 43.9586 39.1767 43.9172C39.469 43.8746 39.8757 43.7691 40.1967 43.4223C40.5052 43.0892 40.5911 42.6854 40.6267 42.4016C40.6631 42.1117 40.6655 41.7622 40.6655 41.4004H39.6655ZM38.2255 42.9604V41.9604C37.9236 41.9604 37.639 41.9769 37.4136 42.0063C37.3074 42.0202 37.1786 42.0413 37.0574 42.077C37.0042 42.0926 36.8943 42.1274 36.7772 42.1963C36.719 42.2306 36.613 42.2997 36.5117 42.4177C36.4062 42.5405 36.2655 42.7667 36.2655 43.0804H37.2655H38.2655C38.2655 43.3867 38.128 43.6054 38.0289 43.7207C37.9341 43.8312 37.8376 43.8929 37.7919 43.9198C37.6999 43.974 37.627 43.9942 37.6217 43.9957C37.5961 44.0033 37.6061 43.9982 37.6723 43.9895C37.792 43.9739 37.9874 43.9604 38.2255 43.9604V42.9604ZM37.2655 43.0804H36.2655C36.2655 42.869 36.3604 42.7049 36.4528 42.6111C36.5347 42.528 36.6076 42.5029 36.6289 42.4966C36.662 42.4868 36.6922 42.484 36.7416 42.5122L36.2455 43.3804L35.7493 44.2487C36.2187 44.5169 36.759 44.544 37.1971 44.4142C37.587 44.2987 38.2655 43.9092 38.2655 43.0804H37.2655ZM36.2455 43.3804L36.7416 42.5122C36.4867 42.3665 36.3661 42.2243 36.2821 42.0249C36.1793 41.7806 36.1055 41.3838 36.1055 40.6804H35.1055H34.1055C34.1055 41.477 34.1817 42.1902 34.4388 42.801C34.7148 43.4565 35.1642 43.9143 35.7493 44.2487L36.2455 43.3804ZM35.1055 40.6804H36.1055C36.1055 40.3013 36.1097 40.0536 36.1252 39.8737C36.1408 39.6925 36.1625 39.6606 36.1522 39.6824C36.103 39.7866 35.9882 39.78 36.4884 39.5466L36.0655 38.6404L35.6426 37.7342C35.2427 37.9208 34.6479 38.1843 34.3437 38.8284C34.2059 39.1203 34.1564 39.4258 34.1326 39.7022C34.1087 39.9798 34.1055 40.3095 34.1055 40.6804H35.1055ZM37.8055 40.5604L37.0984 39.8533L37.0384 39.9133L37.7455 40.6204L38.4526 41.3275L38.5126 41.2675L37.8055 40.5604ZM37.7455 40.6204L38.5137 39.9802C38.336 39.7671 38.1123 39.5361 37.8465 39.3771C37.5856 39.2209 37.0736 39.0215 36.5342 39.3136C36.0675 39.5664 35.9007 40.0298 35.8323 40.294C35.7532 40.5999 35.7255 40.958 35.7255 41.3404H36.7255H37.7255C37.7255 41.0328 37.7502 40.866 37.7686 40.795C37.7772 40.7616 37.7759 40.7837 37.7461 40.8331C37.7148 40.8849 37.6369 40.9909 37.4868 41.0722C37.326 41.1593 37.1579 41.1771 37.0234 41.1587C36.9041 41.1424 36.8332 41.1014 36.8194 41.0932C36.8011 41.0822 36.8549 41.1138 36.9772 41.2606L37.7455 40.6204ZM36.7255 41.3404V42.3404H37.4455V41.3404V40.3404H36.7255V41.3404ZM37.4455 41.3404V42.3404C37.6595 42.3404 37.9017 42.3344 38.1158 42.2943C38.256 42.2681 38.7967 42.1617 39.0492 41.6208C39.2994 41.0847 39.0399 40.6034 38.9715 40.4791C38.8665 40.288 38.7173 40.0957 38.5794 39.9272L37.8055 40.5604L37.0315 41.1937C37.0925 41.2682 37.1378 41.3264 37.1712 41.3722C37.1876 41.3947 37.1994 41.4119 37.2077 41.4246C37.2161 41.4375 37.2192 41.4431 37.2188 41.4424C37.2186 41.442 37.2123 41.4306 37.2038 41.4096C37.1954 41.3891 37.1817 41.3513 37.1709 41.299C37.149 41.1925 37.1344 40.9944 37.2368 40.775C37.3396 40.5548 37.5022 40.4375 37.6014 40.3847C37.6497 40.3591 37.6887 40.3452 37.7108 40.3382C37.7333 40.3312 37.7471 40.3286 37.7482 40.3284C37.7498 40.3281 37.7442 40.3292 37.7296 40.3308C37.7152 40.3323 37.695 40.334 37.6679 40.3356C37.6126 40.3387 37.5402 40.3404 37.4455 40.3404V41.3404ZM36.5455 52.9204L37.4399 52.4732L37.3799 52.3532L36.4855 52.8004L35.591 53.2476L35.651 53.3676L36.5455 52.9204ZM36.4855 52.8004L37.1187 53.5744C37.0664 53.6172 36.9571 53.6541 36.86 53.6369C36.8121 53.6284 36.8671 53.6237 37.0287 53.7645C37.3551 54.0488 37.8113 54.6546 38.3666 55.6775L39.2455 55.2004L40.1243 54.7233C39.5396 53.6463 38.9459 52.7821 38.3422 52.2563C38.0389 51.9921 37.6588 51.7475 37.2097 51.6677C36.7113 51.5792 36.2346 51.7137 35.8522 52.0265L36.4855 52.8004ZM39.2455 55.2004L38.351 55.6476C38.2967 55.5389 38.2915 55.4666 38.3037 55.5332C38.31 55.5679 38.3186 55.6277 38.3274 55.7152C38.3449 55.8882 38.3588 56.1213 38.3658 56.3824C38.3803 56.9176 38.3637 57.482 38.3155 57.819L39.3055 57.9604L40.2954 58.1019C40.3673 57.5989 40.3806 56.9033 40.3651 56.3284C40.3572 56.0346 40.3411 55.7502 40.3173 55.5144C40.3055 55.3975 40.2906 55.2802 40.2711 55.1737C40.2575 55.0992 40.2243 54.922 40.1399 54.7532L39.2455 55.2004ZM39.3055 57.9604L38.3096 57.8699C38.3123 57.8403 38.308 57.9043 38.2183 58.072C38.1383 58.2216 38.0203 58.3978 37.876 58.5758C37.5596 58.9663 37.2518 59.2028 37.1209 59.2574L37.5055 60.1804L37.8901 61.1035C38.4792 60.8581 39.0413 60.3145 39.4299 59.835C39.6381 59.5781 39.8314 59.2967 39.982 59.0151C40.1229 58.7515 40.2687 58.4106 40.3014 58.051L39.3055 57.9604ZM37.5055 60.1804L37.0917 59.2701C36.9283 59.3443 36.6294 59.4054 36.3205 59.4054C36.1735 59.4054 36.0622 59.3913 35.9964 59.3758C35.9643 59.3682 35.9588 59.364 35.9725 59.3703C35.9829 59.3751 36.0422 59.403 36.1126 59.4733L35.4055 60.1804L34.6984 60.8875C34.9703 61.1594 35.3163 61.2704 35.5383 61.3226C35.7912 61.3821 36.0625 61.4054 36.3205 61.4054C36.8216 61.4054 37.4227 61.3165 37.9193 61.0908L37.5055 60.1804ZM35.4055 60.1804L36.0744 59.4371C36.049 59.4143 36.0942 59.4448 36.1158 59.5449C36.1389 59.652 36.1176 59.7634 36.0696 59.8469C35.9814 60.0001 35.9144 59.9204 36.1255 59.9204V58.9204V57.9204C35.4365 57.9204 34.7096 58.2008 34.3363 58.849C33.9133 59.5838 34.1578 60.4029 34.7365 60.9237L35.4055 60.1804ZM36.1255 58.9204V59.9204C36.2458 59.9204 36.4332 59.918 36.644 59.8659C36.8662 59.8109 37.0577 59.7162 37.236 59.5994C37.5441 59.3975 37.9152 59.0556 38.4321 58.5674L37.7455 57.8404L37.0588 57.1134C36.4957 57.6452 36.2668 57.8433 36.1399 57.9265C36.1007 57.9522 36.116 57.9362 36.1638 57.9244C36.2002 57.9154 36.2151 57.9204 36.1255 57.9204V58.9204ZM37.7455 57.8404H38.7455V56.8204H37.7455H36.7455V57.8404H37.7455ZM37.7455 56.8204H38.7455C38.7455 56.3732 38.7543 55.9522 38.6495 55.572C38.5373 55.1654 38.3057 54.838 38.0975 54.5257L37.2655 55.0804L36.4334 55.6351C36.7052 56.0428 36.7136 56.0755 36.7215 56.1039C36.7241 56.1134 36.7334 56.1503 36.7391 56.2679C36.7452 56.3928 36.7455 56.5559 36.7455 56.8204H37.7455ZM37.2655 55.0804L38.0792 54.4992C37.7575 54.0489 37.3624 53.5831 37.1926 53.4133L36.4855 54.1204L35.7784 54.8275C35.8486 54.8978 36.1734 55.272 36.4517 55.6617L37.2655 55.0804ZM36.4855 54.1204L37.1926 53.4133C37.2454 53.4662 37.2615 53.5097 37.2647 53.519C37.2669 53.5255 37.2674 53.5288 37.2674 53.5291C37.2675 53.5294 37.2675 53.5295 37.2674 53.5302C37.2674 53.5308 37.2673 53.5347 37.2656 53.5423C37.2639 53.5498 37.2601 53.564 37.2512 53.5834C37.2336 53.6219 37.1899 53.6926 37.1002 53.7525L36.5455 52.9204L35.9908 52.0884C35.4521 52.4475 35.2823 53.0362 35.2685 53.4657C35.2545 53.8983 35.3849 54.434 35.7784 54.8275L36.4855 54.1204Z" fill="url(#paint0_linear_1401_1830)" mask="url(#path-3-outside-1_1401_1830)"/>
<defs>
<filter id="filter0_f_1401_1830" x="-0.00019455" y="-0.00019455" width="75.2108" height="89.9921" filterUnits="userSpaceOnUse" color-interpolation-filters="sRGB">
<feFlood flood-opacity="0" result="BackgroundImageFix"/>
<feBlend mode="normal" in="SourceGraphic" in2="BackgroundImageFix" result="shape"/>
<feGaussianBlur stdDeviation="8.4" result="effect1_foregroundBlur_1401_1830"/>
</filter>
<linearGradient id="paint0_linear_1401_1830" x1="37.4898" y1="37.9174" x2="52.2601" y2="64.9262" gradientUnits="userSpaceOnUse">
<stop offset="0.00214007" stop-color="#B4B4B4"/>
<stop offset="1" stop-color="#4F4F4F"/>
</linearGradient>
</defs>
</svg>
