<svg width="712" height="18" viewBox="0 0 712 18" fill="none" xmlns="http://www.w3.org/2000/svg">
<path opacity="0.5" d="M0.954 8.8L0.882 8.764C1.044 8.584 1.296 8.728 1.35 9.034C1.368 9.124 1.404 9.304 1.44 9.43C1.512 9.646 1.548 9.862 1.71 11.014C1.746 11.23 1.782 11.464 1.836 11.662V11.536C1.836 11.464 1.854 11.23 1.89 10.996C1.926 10.78 1.944 10.564 1.926 10.546C1.872 10.384 2.106 9.862 2.34 9.646C2.502 9.502 3.114 9.412 4.248 9.448L4.536 9.628C4.698 9.718 4.86 9.808 4.878 9.826C4.986 9.862 5.454 10.654 5.454 10.78C5.454 10.816 5.508 10.996 5.562 11.176C5.742 11.734 5.85 13.174 5.742 13.498C5.67 13.714 5.472 13.768 5.238 13.534L5.256 12.85C5.274 11.986 5.238 11.626 5.112 11.248C5.058 11.086 5.004 10.924 5.004 10.888C5.004 10.726 4.662 10.204 4.482 10.114C4.392 10.06 4.266 9.988 4.194 9.952C4.014 9.844 3.402 9.826 3.06 9.916C2.916 9.952 2.772 9.988 2.736 10.006C2.556 10.024 2.43 10.312 2.43 10.69C2.43 10.798 2.412 10.978 2.394 11.086C2.376 11.194 2.358 11.392 2.358 11.518C2.34 11.644 2.322 11.806 2.304 11.878C2.286 11.95 2.268 12.13 2.268 12.274C2.268 12.418 2.232 12.652 2.196 12.814C2.16 12.976 2.124 13.192 2.124 13.3C2.106 13.588 2.088 13.624 1.98 13.678C1.782 13.768 1.674 13.66 1.656 13.318C1.62 12.886 1.602 12.778 1.548 12.652C1.512 12.598 1.494 12.526 1.494 12.49C1.494 12.346 1.296 10.852 1.224 10.528C1.206 10.42 1.188 10.24 1.17 10.114C1.152 9.988 1.098 9.736 1.044 9.574C0.9 9.142 0.864 8.89 0.954 8.8ZM11.2316 6.1L11.2496 6.046C11.3216 5.956 11.4476 5.956 11.5736 6.046C11.6636 6.118 11.6636 6.136 11.6636 6.442C11.6636 6.604 11.6816 6.838 11.7176 6.946C11.7536 7.054 11.8076 7.306 11.8436 7.486C11.8796 7.666 11.9516 7.954 11.9876 8.116C12.0416 8.278 12.1136 8.602 12.1496 8.836C12.2216 9.358 12.3296 9.916 12.4196 10.204C12.4556 10.33 12.5456 10.69 12.6356 11.014C12.8156 11.734 12.8876 11.986 12.9956 12.22C13.1396 12.544 13.3196 13.084 13.3736 13.336C13.4276 13.588 13.4456 13.642 13.5896 13.984C13.6796 14.2 13.6256 14.344 13.4456 14.38C13.2296 14.434 13.0676 14.164 12.9236 13.498C12.9056 13.39 12.8336 13.174 12.7796 13.03C12.7256 12.886 12.6716 12.706 12.6536 12.634C12.6356 12.562 12.5816 12.418 12.5276 12.328C12.4196 12.094 12.2396 11.536 12.2216 11.41C12.2216 11.248 12.1856 11.248 12.1856 11.41C12.1856 11.482 12.1496 11.644 12.0956 11.77C12.0416 11.896 11.9876 12.04 11.9876 12.076C11.9696 12.112 11.8976 12.238 11.8256 12.346C11.7536 12.454 11.6816 12.544 11.6816 12.562C11.6816 12.598 11.3756 12.886 11.3396 12.886C11.3216 12.886 11.1956 12.958 11.0516 13.048C10.9256 13.138 10.7636 13.228 10.6916 13.246C10.5476 13.282 10.3676 13.354 10.2776 13.426C10.0796 13.588 9.23358 13.57 8.63958 13.372C8.13558 13.21 7.75758 12.742 7.68558 12.166C7.64958 11.914 7.63158 10.24 7.66758 10.006C7.81158 9.088 8.13558 8.224 8.51358 7.792C8.58558 7.702 8.69358 7.54 8.74758 7.432C8.80158 7.324 8.87358 7.216 8.90958 7.18C8.94558 7.144 9.03558 7.036 9.10758 6.946C9.28758 6.73 9.43158 6.694 9.88158 6.712C10.5116 6.73 10.8716 6.802 11.0516 6.946C11.1056 7 11.1056 6.982 11.1056 6.694C11.1056 6.37 11.1416 6.19 11.2316 6.1ZM10.7456 7.306L10.6916 7.198L9.61158 7.144L9.43158 7.378C9.32358 7.504 9.21558 7.666 9.17958 7.738C9.14358 7.81 9.05358 7.954 8.96358 8.062C8.65758 8.44 8.27958 9.376 8.27958 9.736C8.27958 9.79 8.26158 9.916 8.22558 10.006C8.13558 10.294 8.17158 11.806 8.27958 12.22C8.44158 12.796 8.71158 12.958 9.61158 12.994C9.95358 13.012 9.97158 13.012 10.2416 12.886C10.3856 12.814 10.5296 12.76 10.5656 12.76C10.6376 12.76 10.7816 12.67 10.8716 12.58C10.9076 12.544 10.9796 12.508 11.0336 12.49C11.1956 12.454 11.5376 11.986 11.6636 11.644C11.7896 11.32 11.8076 10.528 11.7176 10.294C11.6816 10.222 11.6276 10.096 11.5916 10.006C11.5556 9.916 11.5016 9.754 11.4476 9.664C11.2856 9.25 11.2316 8.908 11.2136 8.062C11.1956 7.234 11.1956 7.288 11.1056 7.36C10.9976 7.45 10.8716 7.432 10.7456 7.306ZM15.7088 9.232L15.7448 9.25C15.8348 9.16 15.9248 9.16 16.0328 9.268C16.1408 9.358 16.1408 9.376 16.0148 9.988C15.9608 10.312 15.9428 11.788 15.9968 11.734C16.0328 11.716 16.0508 11.68 16.0508 11.662C16.0508 11.644 16.1408 11.464 16.2488 11.266C16.3568 11.068 16.4468 10.87 16.4468 10.834C16.4468 10.798 16.5548 10.654 16.6808 10.528C16.8068 10.402 16.9328 10.24 16.9508 10.186C16.9868 10.114 17.0768 10.042 17.2208 9.97C17.3468 9.898 17.4908 9.808 17.5268 9.772C17.5808 9.736 17.6528 9.7 17.7068 9.7C17.7428 9.7 17.7968 9.682 17.8148 9.664C17.8508 9.628 18.0848 9.592 18.5168 9.556C18.8588 9.538 19.0748 9.628 19.1648 9.844C19.2008 9.916 19.2908 10.114 19.3628 10.294C19.4348 10.456 19.5068 10.636 19.5428 10.798L19.7048 10.582C19.7948 10.456 19.9028 10.312 19.9388 10.258C19.9928 10.132 20.6228 9.79 20.9648 9.7C21.3068 9.61 21.5588 9.808 21.7028 10.294C21.7388 10.42 21.8108 10.582 21.8468 10.654C21.8828 10.726 21.9548 10.888 22.1168 11.284L22.1348 12.58C22.1528 13.858 22.1528 13.876 22.0808 13.948C21.9908 14.038 21.8468 14.038 21.7568 13.966C21.7028 13.912 21.7028 13.822 21.7028 12.796C21.7028 11.428 21.6668 11.176 21.3968 10.744C21.3608 10.672 21.3068 10.546 21.2888 10.456C21.2348 10.114 21.1628 10.096 20.6588 10.33C20.4068 10.456 20.3528 10.492 20.2088 10.69C19.9208 11.086 19.6328 11.698 19.6148 11.968C19.5968 12.292 19.5068 12.652 19.3808 12.922C19.2368 13.246 19.0928 13.3 18.9128 13.12C18.7688 12.976 18.8048 12.634 19.0208 12.13C19.2548 11.536 19.2008 11.032 18.8408 10.366C18.6608 10.042 18.6788 10.042 18.2108 10.096C17.7968 10.15 17.4728 10.33 17.2208 10.654C17.1128 10.78 17.0048 10.888 16.9868 10.906C16.9688 10.924 16.8428 11.14 16.7168 11.392C16.5908 11.644 16.4468 11.896 16.4108 11.95C16.3748 12.004 16.3028 12.148 16.2668 12.274C16.2308 12.4 16.1408 12.634 16.0688 12.796C15.9428 13.066 15.9248 13.12 15.8888 13.462C15.8528 13.984 15.7268 14.128 15.3668 13.84L15.4028 13.03C15.4208 12.58 15.4388 12.058 15.4388 11.86C15.4568 11.662 15.4748 11.158 15.4928 10.744C15.5108 10.222 15.5288 9.916 15.5648 9.736C15.6008 9.592 15.6368 9.448 15.6368 9.394C15.6368 9.34 15.6728 9.268 15.7088 9.232ZM26.3209 7.252H26.3389C26.5909 7.162 27.3109 7.36 27.4189 7.54C27.4729 7.648 27.4909 8.386 27.4549 8.512C27.4369 8.566 27.3829 8.746 27.3469 8.926C27.2929 9.214 27.2029 9.43 26.9689 9.844C26.7529 10.24 26.6269 10.438 26.5189 10.564C26.4469 10.636 26.3929 10.708 26.3929 10.726C26.3929 10.744 26.3209 10.852 26.2309 10.96C26.1409 11.068 25.9789 11.266 25.8709 11.392C25.7629 11.518 25.6549 11.626 25.6369 11.626C25.6189 11.626 25.5469 11.698 25.4749 11.77C25.3669 11.896 25.3129 11.914 25.2229 11.914C24.9349 11.878 24.9169 11.518 25.1869 11.356C25.4929 11.176 26.3569 10.096 26.4289 9.808C26.4469 9.754 26.4829 9.682 26.5009 9.664C26.6269 9.556 26.8249 9.106 26.8429 8.854C26.8609 8.71 26.8969 8.548 26.9329 8.494C26.9689 8.422 26.9869 8.278 26.9869 8.098C26.9869 7.81 26.9869 7.81 26.8969 7.792C26.1949 7.594 24.7369 8.278 24.5209 8.908C24.4489 9.088 24.4489 11.23 24.5209 11.392C24.5569 11.464 24.5929 11.626 24.6109 11.734C24.6469 11.986 24.7369 12.256 24.8809 12.526C24.9349 12.634 24.9709 12.742 24.9709 12.778C24.9709 12.85 25.3489 13.174 25.5289 13.264C26.2489 13.642 27.2929 13.894 27.6889 13.786C27.9409 13.714 28.1389 13.354 28.1749 12.868C28.2109 12.526 28.2469 12.454 28.4269 12.454C28.7329 12.454 28.7509 13.012 28.4809 13.696C28.2649 14.2 27.7429 14.362 26.8609 14.2C26.7349 14.182 26.5729 14.146 26.5009 14.146C26.3749 14.128 25.6549 13.84 25.2409 13.66C24.9709 13.534 24.5929 13.174 24.5029 12.958C24.1969 12.256 24.1789 12.184 24.0889 11.734C24.0709 11.608 24.0349 11.446 24.0169 11.374C23.9629 11.212 23.9449 8.998 23.9989 8.818C24.1069 8.404 24.5749 7.918 25.1869 7.612C25.4029 7.504 26.1949 7.234 26.2309 7.27C26.2489 7.27 26.2849 7.27 26.3209 7.252ZM31.2588 7.72H31.2408C31.5108 7.648 31.6908 7.756 31.6728 7.972C31.6548 8.08 31.6548 8.098 31.7448 8.098C32.1228 8.098 32.0868 8.836 31.6908 9.07C31.6008 9.124 31.5108 9.142 31.0068 9.142L30.8448 8.98C30.7008 8.818 30.7008 8.8 30.7008 8.548C30.7008 8.17 30.9348 7.81 31.2588 7.72ZM31.2948 8.296C31.3128 8.242 31.3128 8.224 31.2948 8.224C31.2408 8.224 31.1868 8.35 31.1688 8.494C31.1508 8.62 31.1508 8.62 31.4208 8.62L31.3308 8.53C31.2408 8.44 31.2408 8.404 31.2948 8.296ZM30.7728 11.554L30.8268 11.518C31.2588 11.284 31.6548 11.392 31.8348 11.806C31.9608 12.076 32.0328 13.048 31.9428 13.282C31.7808 13.696 31.2048 13.57 30.4488 12.886L30.4668 12.418C30.4848 11.788 30.5208 11.698 30.7728 11.554ZM31.4208 12.004H31.4568C31.3848 11.86 31.2948 11.842 31.1328 11.932C31.0248 12.004 31.0248 12.022 31.0248 12.256C31.0248 12.508 31.0968 12.652 31.2048 12.652C31.2228 12.652 31.2588 12.706 31.2768 12.778C31.3128 12.886 31.4208 12.976 31.5108 12.976C31.5648 12.976 31.4928 12.13 31.4208 12.004Z" fill="black"/>
<path opacity="0.5" d="M158.057 6.1L158.075 6.046C158.147 5.956 158.273 5.956 158.399 6.046C158.489 6.118 158.489 6.136 158.489 6.442C158.489 6.604 158.507 6.838 158.543 6.946C158.579 7.054 158.633 7.306 158.669 7.486C158.705 7.666 158.777 7.954 158.813 8.116C158.867 8.278 158.939 8.602 158.975 8.836C159.047 9.358 159.155 9.916 159.245 10.204C159.281 10.33 159.371 10.69 159.461 11.014C159.641 11.734 159.713 11.986 159.821 12.22C159.965 12.544 160.145 13.084 160.199 13.336C160.253 13.588 160.271 13.642 160.415 13.984C160.505 14.2 160.451 14.344 160.271 14.38C160.055 14.434 159.893 14.164 159.749 13.498C159.731 13.39 159.659 13.174 159.605 13.03C159.551 12.886 159.497 12.706 159.479 12.634C159.461 12.562 159.407 12.418 159.353 12.328C159.245 12.094 159.065 11.536 159.047 11.41C159.047 11.248 159.011 11.248 159.011 11.41C159.011 11.482 158.975 11.644 158.921 11.77C158.867 11.896 158.813 12.04 158.813 12.076C158.795 12.112 158.723 12.238 158.651 12.346C158.579 12.454 158.507 12.544 158.507 12.562C158.507 12.598 158.201 12.886 158.165 12.886C158.147 12.886 158.021 12.958 157.877 13.048C157.751 13.138 157.589 13.228 157.517 13.246C157.373 13.282 157.193 13.354 157.103 13.426C156.905 13.588 156.059 13.57 155.465 13.372C154.961 13.21 154.583 12.742 154.511 12.166C154.475 11.914 154.457 10.24 154.493 10.006C154.637 9.088 154.961 8.224 155.339 7.792C155.411 7.702 155.519 7.54 155.573 7.432C155.627 7.324 155.699 7.216 155.735 7.18C155.771 7.144 155.861 7.036 155.933 6.946C156.113 6.73 156.257 6.694 156.707 6.712C157.337 6.73 157.697 6.802 157.877 6.946C157.931 7 157.931 6.982 157.931 6.694C157.931 6.37 157.967 6.19 158.057 6.1ZM157.571 7.306L157.517 7.198L156.437 7.144L156.257 7.378C156.149 7.504 156.041 7.666 156.005 7.738C155.969 7.81 155.879 7.954 155.789 8.062C155.483 8.44 155.105 9.376 155.105 9.736C155.105 9.79 155.087 9.916 155.051 10.006C154.961 10.294 154.997 11.806 155.105 12.22C155.267 12.796 155.537 12.958 156.437 12.994C156.779 13.012 156.797 13.012 157.067 12.886C157.211 12.814 157.355 12.76 157.391 12.76C157.463 12.76 157.607 12.67 157.697 12.58C157.733 12.544 157.805 12.508 157.859 12.49C158.021 12.454 158.363 11.986 158.489 11.644C158.615 11.32 158.633 10.528 158.543 10.294C158.507 10.222 158.453 10.096 158.417 10.006C158.381 9.916 158.327 9.754 158.273 9.664C158.111 9.25 158.057 8.908 158.039 8.062C158.021 7.234 158.021 7.288 157.931 7.36C157.823 7.45 157.697 7.432 157.571 7.306ZM165.378 7.09L165.396 7.054C165.468 6.964 165.63 6.964 165.72 7.054C165.792 7.126 165.792 7.144 165.756 7.846C165.738 8.242 165.702 8.728 165.684 8.908C165.648 9.124 165.63 9.736 165.63 11.878L165.756 12.148C165.828 12.292 165.882 12.436 165.882 12.472C165.882 12.508 165.9 12.58 165.936 12.652C165.972 12.724 166.008 12.85 166.026 12.94C166.044 13.084 166.08 13.138 166.206 13.264C166.44 13.48 166.386 13.66 166.08 13.696C165.774 13.732 165.576 13.516 165.576 13.138C165.576 13.048 165.54 12.922 165.504 12.832C165.468 12.76 165.414 12.616 165.396 12.508C165.378 12.4 165.342 12.274 165.306 12.22C165.216 12.076 165.18 11.824 165.18 11.284C165.18 10.618 165.162 10.6 164.946 11.032C164.856 11.23 164.73 11.446 164.676 11.518C164.622 11.59 164.568 11.662 164.568 11.698C164.568 11.752 164.37 12.022 164.226 12.166C164.154 12.238 164.1 12.31 164.1 12.328C164.1 12.382 163.596 12.724 163.452 12.778C163.02 12.922 162.498 12.58 162.282 12.04C162.156 11.68 162.21 8.782 162.372 8.26C162.408 8.134 162.462 7.936 162.498 7.828C162.588 7.54 162.786 7.45 162.966 7.63C163.056 7.72 163.056 7.72 162.948 8.044C162.822 8.476 162.786 8.638 162.75 9.088C162.696 9.844 162.714 11.716 162.768 11.878C162.84 12.058 163.128 12.328 163.236 12.328C163.398 12.328 164.082 11.77 164.082 11.644C164.082 11.626 164.136 11.536 164.208 11.446C164.352 11.23 164.676 10.618 164.676 10.546C164.676 10.528 164.748 10.366 164.82 10.186C164.964 9.844 165.144 9.214 165.162 9.034C165.162 8.98 165.18 8.818 165.198 8.692C165.252 8.404 165.252 8.35 165.288 7.684C165.306 7.288 165.324 7.144 165.378 7.09ZM169.88 4.57L169.808 4.588C169.916 4.48 169.934 4.48 170.06 4.534C170.168 4.588 170.24 4.786 170.312 5.218C170.384 5.686 170.366 5.974 170.168 7.648C170.132 7.99 170.078 8.404 170.06 8.566C170.042 8.728 170.024 8.944 169.97 9.268H171.86L171.95 9.358C172.058 9.466 172.058 9.574 171.968 9.664C171.896 9.736 171.842 9.736 169.952 9.736L169.934 9.898C169.916 9.988 169.898 10.294 169.88 10.564C169.862 10.834 169.826 11.158 169.808 11.284C169.79 11.392 169.772 11.59 169.772 11.716C169.772 11.842 169.754 12.022 169.736 12.13C169.682 12.364 169.592 13.066 169.592 13.21C169.592 13.264 169.574 13.372 169.556 13.444C169.538 13.57 169.538 13.588 169.592 13.552C169.628 13.534 169.934 13.516 170.258 13.498C170.996 13.462 171.14 13.408 171.464 13.048C171.698 12.778 171.752 12.742 171.896 12.796C172.148 12.904 172.094 13.138 171.734 13.48C171.392 13.822 170.906 13.966 170.168 13.966C170.132 13.966 169.934 13.984 169.736 14.002C169.034 14.056 169.034 14.056 169.142 12.958C169.16 12.76 169.196 12.508 169.214 12.382C169.232 12.256 169.268 12.04 169.286 11.896C169.304 11.752 169.358 11.428 169.394 11.194C169.43 10.942 169.466 10.582 169.466 10.312C169.466 10.06 169.484 9.844 169.502 9.79C169.556 9.664 169.556 9.664 168.872 9.664C168.188 9.664 168.116 9.646 168.116 9.412C168.116 9.196 168.206 9.16 169.556 9.16L169.574 8.944C169.61 8.53 169.682 7.972 169.718 7.792C169.736 7.702 169.772 7.468 169.79 7.27C169.808 7.072 169.844 6.676 169.88 6.406C169.952 5.794 169.952 5.56 169.88 5.182C169.772 4.66 169.772 4.678 169.88 4.57ZM174.602 3.616L174.62 3.58C174.854 3.4 175.034 3.634 174.944 3.976C174.926 4.048 174.89 4.444 174.872 4.84C174.836 5.578 174.782 6.208 174.728 6.712C174.71 6.874 174.674 7.27 174.638 7.594C174.602 7.918 174.548 8.422 174.53 8.728C174.476 9.214 174.44 10.204 174.368 12.472L174.44 12.238C174.476 12.112 174.53 11.95 174.548 11.896C174.566 11.842 174.602 11.734 174.62 11.662C174.638 11.59 174.746 11.32 174.854 11.068C174.962 10.798 175.052 10.564 175.052 10.546C175.052 10.528 175.07 10.474 175.106 10.438C175.124 10.402 175.16 10.33 175.178 10.276C175.196 10.168 175.466 9.952 175.574 9.952C175.61 9.952 175.7 9.916 175.754 9.88C175.916 9.79 176.438 9.754 176.564 9.826C176.942 10.024 177.122 10.24 177.266 10.672C177.482 11.338 177.518 11.59 177.536 12.562C177.536 13.336 177.554 13.498 177.608 13.588C177.77 13.894 177.356 14.074 177.158 13.786C177.068 13.678 177.068 13.66 177.05 12.58C177.032 11.428 177.014 11.338 176.834 10.816C176.636 10.276 176.402 10.168 175.664 10.456L175.484 10.834C175.394 11.032 175.322 11.212 175.322 11.23C175.322 11.248 175.286 11.32 175.25 11.392C175.214 11.464 175.16 11.608 175.142 11.698C175.124 11.788 175.07 11.95 175.016 12.058C174.98 12.166 174.908 12.382 174.854 12.526C174.818 12.67 174.746 12.886 174.71 12.994C174.584 13.282 174.476 13.66 174.44 13.984C174.386 14.416 174.242 14.56 174.026 14.416C173.9 14.326 173.9 14.29 173.936 12.598C173.972 9.862 173.972 9.628 174.026 9.088C174.062 8.8 174.098 8.332 174.116 8.044C174.152 7.54 174.188 7.216 174.26 6.676C174.314 6.226 174.368 5.578 174.404 4.822C174.44 4.066 174.494 3.706 174.602 3.616ZM180.84 9.376L180.786 9.43C181.092 9.268 181.38 9.25 182.244 9.322C182.946 9.376 183.432 9.772 183.738 10.528C183.9 10.942 183.81 11.95 183.558 12.508C183.504 12.616 183.45 12.76 183.432 12.832C183.324 13.192 183 13.678 182.73 13.894C182.55 14.038 182.55 14.038 182.262 14.038C181.92 14.038 181.704 13.984 181.524 13.84C181.218 13.606 180.858 13.264 180.75 13.084C180.696 12.976 180.57 12.778 180.48 12.634C180.3 12.364 180.264 12.31 180.156 12.058C180.102 11.95 180.102 11.95 179.85 11.95C179.454 11.95 179.364 11.752 179.508 11.14C179.544 11.014 179.562 10.87 179.562 10.816C179.562 10.762 179.598 10.672 179.634 10.618C179.67 10.564 179.706 10.492 179.706 10.456C179.706 10.402 179.796 10.222 179.85 10.186C179.868 10.168 179.94 10.06 180.012 9.934C180.138 9.7 180.336 9.538 180.516 9.52C180.552 9.52 180.696 9.448 180.84 9.376ZM182.298 9.808H182.28C181.2 9.754 181.218 9.754 181.074 9.826C180.786 9.97 180.516 10.096 180.48 10.096C180.444 10.096 180.12 10.636 180.12 10.708C180.12 10.744 180.084 10.816 180.048 10.87C179.976 10.978 179.958 11.176 180.012 11.176C180.048 11.176 180.588 11.932 180.588 11.986C180.588 12.166 181.164 12.976 181.488 13.264C181.794 13.534 181.866 13.57 182.226 13.57C182.406 13.57 182.406 13.57 182.514 13.39C182.586 13.3 182.694 13.156 182.748 13.084C182.856 12.922 182.964 12.67 182.964 12.544C182.964 12.508 183 12.436 183.036 12.4C183.288 12.076 183.396 11.068 183.234 10.618C183.072 10.186 182.658 9.826 182.298 9.808ZM185.732 8.242L185.768 8.278C185.876 8.17 185.966 8.152 186.074 8.224C186.128 8.278 186.2 8.602 186.344 9.448L186.47 9.322C186.596 9.196 186.776 9.142 187.424 9.016C187.838 8.926 189.062 8.926 189.35 9.016C189.62 9.106 189.764 9.214 189.854 9.394C189.89 9.466 189.944 9.574 189.98 9.628C190.034 9.718 190.178 10.204 190.178 10.294C190.178 10.348 189.998 10.492 189.926 10.492C189.818 10.492 189.692 10.348 189.656 10.168C189.62 9.898 189.386 9.538 189.224 9.466C188.954 9.358 187.514 9.376 187.37 9.484C187.352 9.502 187.262 9.52 187.172 9.52C187.082 9.538 186.992 9.556 186.992 9.574C186.974 9.592 186.92 9.61 186.866 9.61C186.758 9.61 186.596 9.772 186.56 9.916C186.542 9.97 186.524 10.852 186.524 11.878C186.524 13.93 186.542 13.822 186.29 13.822C186.074 13.822 186.056 13.768 186.02 12.598C186.002 12.022 185.966 11.482 185.948 11.41C185.93 11.338 185.912 11.032 185.912 10.708C185.912 10.384 185.894 10.096 185.876 10.06C185.858 10.024 185.84 9.808 185.822 9.592C185.804 9.376 185.75 9.052 185.714 8.872C185.624 8.422 185.624 8.35 185.732 8.242ZM192.745 7.72H192.727C192.997 7.648 193.177 7.756 193.159 7.972C193.141 8.08 193.141 8.098 193.231 8.098C193.609 8.098 193.573 8.836 193.177 9.07C193.087 9.124 192.997 9.142 192.493 9.142L192.331 8.98C192.187 8.818 192.187 8.8 192.187 8.548C192.187 8.17 192.421 7.81 192.745 7.72ZM192.781 8.296C192.799 8.242 192.799 8.224 192.781 8.224C192.727 8.224 192.673 8.35 192.655 8.494C192.637 8.62 192.637 8.62 192.907 8.62L192.817 8.53C192.727 8.44 192.727 8.404 192.781 8.296ZM192.259 11.554L192.313 11.518C192.745 11.284 193.141 11.392 193.321 11.806C193.447 12.076 193.519 13.048 193.429 13.282C193.267 13.696 192.691 13.57 191.935 12.886L191.953 12.418C191.971 11.788 192.007 11.698 192.259 11.554ZM192.907 12.004H192.943C192.871 11.86 192.781 11.842 192.619 11.932C192.511 12.004 192.511 12.022 192.511 12.256C192.511 12.508 192.583 12.652 192.691 12.652C192.709 12.652 192.745 12.706 192.763 12.778C192.799 12.886 192.907 12.976 192.997 12.976C193.051 12.976 192.979 12.13 192.907 12.004Z" fill="black"/>
<path opacity="0.5" d="M295.102 9.052L295.138 9.034C295.282 8.908 295.498 9.016 295.498 9.196C295.498 9.34 295.732 9.34 296.398 9.196C296.542 9.16 296.794 9.142 297.064 9.16C297.496 9.16 297.496 9.16 297.604 9.268C298.09 9.718 298.162 9.934 298.216 11.158C298.252 12.346 298.252 12.778 298.198 12.886C298.162 12.94 298.126 13.03 298.108 13.084C298.09 13.138 298.036 13.228 297.982 13.282C297.928 13.336 297.856 13.426 297.82 13.48C297.694 13.678 297.55 13.714 296.128 13.714L295.894 13.552C295.768 13.462 295.588 13.354 295.498 13.318C295.3 13.246 295.066 13.102 294.94 12.976C294.85 12.904 294.832 12.904 294.814 12.958C294.796 12.994 294.778 13.048 294.778 13.066C294.76 13.102 294.742 13.264 294.724 13.426C294.67 13.966 294.58 14.56 294.526 14.794C294.472 15.01 294.436 15.262 294.328 16.162C294.256 16.81 294.238 16.918 294.202 17.008C294.184 17.044 294.166 17.17 294.148 17.278C294.112 17.728 294.094 17.818 294.004 17.872C293.896 17.944 293.752 17.908 293.68 17.8C293.608 17.674 293.572 16.288 293.644 15.91C293.662 15.766 293.698 15.586 293.698 15.514C293.716 15.442 293.752 15.298 293.77 15.19C293.806 15.064 293.824 14.938 293.806 14.83C293.788 14.722 293.788 14.596 293.806 14.542C293.824 14.488 293.86 14.38 293.878 14.29C293.914 14.11 293.986 13.894 294.112 13.498C294.166 13.354 294.202 13.192 294.202 13.138C294.202 13.084 294.22 12.994 294.256 12.94C294.328 12.814 294.418 12.436 294.418 12.31C294.418 12.256 294.436 12.166 294.454 12.094C294.508 11.896 294.67 10.978 294.688 10.816C294.706 10.69 294.724 10.618 294.814 10.258C294.832 10.186 294.868 10.024 294.886 9.88C294.94 9.376 295.012 9.106 295.102 9.052ZM297.442 9.772L297.28 9.682H296.902C296.686 9.682 296.416 9.7 296.29 9.718C296.164 9.754 295.948 9.79 295.588 9.826L295.498 10.024C295.444 10.132 295.39 10.294 295.372 10.384C295.354 10.474 295.318 10.636 295.282 10.744C295.246 10.852 295.192 11.122 295.156 11.356C295.12 11.59 295.066 11.896 295.03 12.058C294.994 12.22 294.976 12.346 294.976 12.364C294.976 12.364 295.03 12.382 295.084 12.4C295.174 12.436 295.21 12.49 295.318 12.706C295.336 12.742 295.498 12.832 295.678 12.922C295.858 13.012 296.056 13.12 296.128 13.174C296.254 13.264 296.272 13.264 296.722 13.264C297.298 13.264 297.442 13.246 297.478 13.138C297.496 13.084 297.532 13.03 297.568 13.012C297.658 12.958 297.748 12.634 297.748 12.346C297.748 10.474 297.694 10.006 297.442 9.772ZM300.113 8.242L300.149 8.278C300.257 8.17 300.347 8.152 300.455 8.224C300.509 8.278 300.581 8.602 300.725 9.448L300.851 9.322C300.977 9.196 301.157 9.142 301.805 9.016C302.219 8.926 303.443 8.926 303.731 9.016C304.001 9.106 304.145 9.214 304.235 9.394C304.271 9.466 304.325 9.574 304.361 9.628C304.415 9.718 304.559 10.204 304.559 10.294C304.559 10.348 304.379 10.492 304.307 10.492C304.199 10.492 304.073 10.348 304.037 10.168C304.001 9.898 303.767 9.538 303.605 9.466C303.335 9.358 301.895 9.376 301.751 9.484C301.733 9.502 301.643 9.52 301.553 9.52C301.463 9.538 301.373 9.556 301.373 9.574C301.355 9.592 301.301 9.61 301.247 9.61C301.139 9.61 300.977 9.772 300.941 9.916C300.923 9.97 300.905 10.852 300.905 11.878C300.905 13.93 300.923 13.822 300.671 13.822C300.455 13.822 300.437 13.768 300.401 12.598C300.383 12.022 300.347 11.482 300.329 11.41C300.311 11.338 300.293 11.032 300.293 10.708C300.293 10.384 300.275 10.096 300.257 10.06C300.239 10.024 300.221 9.808 300.203 9.592C300.185 9.376 300.131 9.052 300.095 8.872C300.005 8.422 300.005 8.35 300.113 8.242ZM307.702 9.376L307.648 9.43C307.954 9.268 308.242 9.25 309.106 9.322C309.808 9.376 310.294 9.772 310.6 10.528C310.762 10.942 310.672 11.95 310.42 12.508C310.366 12.616 310.312 12.76 310.294 12.832C310.186 13.192 309.862 13.678 309.592 13.894C309.412 14.038 309.412 14.038 309.124 14.038C308.782 14.038 308.566 13.984 308.386 13.84C308.08 13.606 307.72 13.264 307.612 13.084C307.558 12.976 307.432 12.778 307.342 12.634C307.162 12.364 307.126 12.31 307.018 12.058C306.964 11.95 306.964 11.95 306.712 11.95C306.316 11.95 306.226 11.752 306.37 11.14C306.406 11.014 306.424 10.87 306.424 10.816C306.424 10.762 306.46 10.672 306.496 10.618C306.532 10.564 306.568 10.492 306.568 10.456C306.568 10.402 306.658 10.222 306.712 10.186C306.73 10.168 306.802 10.06 306.874 9.934C307 9.7 307.198 9.538 307.378 9.52C307.414 9.52 307.558 9.448 307.702 9.376ZM309.16 9.808H309.142C308.062 9.754 308.08 9.754 307.936 9.826C307.648 9.97 307.378 10.096 307.342 10.096C307.306 10.096 306.982 10.636 306.982 10.708C306.982 10.744 306.946 10.816 306.91 10.87C306.838 10.978 306.82 11.176 306.874 11.176C306.91 11.176 307.45 11.932 307.45 11.986C307.45 12.166 308.026 12.976 308.35 13.264C308.656 13.534 308.728 13.57 309.088 13.57C309.268 13.57 309.268 13.57 309.376 13.39C309.448 13.3 309.556 13.156 309.61 13.084C309.718 12.922 309.826 12.67 309.826 12.544C309.826 12.508 309.862 12.436 309.898 12.4C310.15 12.076 310.258 11.068 310.096 10.618C309.934 10.186 309.52 9.826 309.16 9.808ZM316.464 8.314L316.446 8.206C316.554 8.152 316.824 8.17 317.04 8.26C317.238 8.332 317.526 8.638 317.616 8.872C317.634 8.926 317.67 9.016 317.688 9.052C317.706 9.088 317.724 9.142 317.724 9.178C317.724 9.214 317.76 9.286 317.814 9.34C317.904 9.43 317.904 9.43 317.886 9.736C317.868 9.898 317.85 10.132 317.85 10.258C317.832 10.69 317.652 11.626 317.562 11.77C317.526 11.842 317.436 12.202 317.328 12.742C317.31 12.85 317.292 13.048 317.274 13.192C317.256 13.336 317.238 13.462 317.238 13.48C317.238 13.498 317.238 13.588 317.238 13.858H317.4C317.49 13.858 317.67 13.84 317.796 13.822C317.922 13.804 318.138 13.768 318.264 13.75C318.39 13.732 318.57 13.678 318.642 13.624C318.732 13.588 318.822 13.552 318.858 13.552C318.894 13.552 318.948 13.534 318.984 13.516C319.02 13.498 319.182 13.426 319.344 13.372C319.686 13.246 319.92 13.066 319.938 12.94C319.974 12.706 320.244 12.67 320.388 12.886C320.604 13.21 320.136 13.66 319.236 13.984C318.822 14.128 318.606 14.2 318.48 14.218C318.408 14.236 318.174 14.272 317.976 14.29C317.778 14.326 317.526 14.344 317.202 14.344V14.794C317.202 15.244 317.112 15.892 317.04 15.982C317.022 16 317.004 16.054 316.986 16.108C316.968 16.162 316.878 16.324 316.788 16.468C316.698 16.612 316.626 16.756 316.626 16.792C316.626 16.9 316.266 17.35 316.05 17.512C315.654 17.8 315.348 17.89 314.682 17.908C314.142 17.926 314.106 17.926 313.89 17.836C313.674 17.746 313.116 17.368 313.116 17.296C313.116 17.278 313.08 17.206 313.026 17.152C312.774 16.828 312.522 16.09 312.522 15.676C312.522 15.298 312.594 15.136 312.828 14.956C312.918 14.884 313.026 14.794 313.062 14.758C313.332 14.56 313.71 14.38 313.962 14.326C314.034 14.308 314.25 14.254 314.43 14.218C314.61 14.182 314.898 14.128 315.06 14.11C315.222 14.092 315.582 14.038 315.852 14.002C316.122 13.966 316.446 13.93 316.77 13.93L316.806 13.804C316.824 13.732 316.824 13.624 316.824 13.552C316.806 13.48 316.806 13.354 316.842 13.282C316.86 13.21 316.878 13.03 316.914 12.634H316.68C315.744 12.634 315.312 12.31 315.132 11.446C315.096 11.302 315.042 11.14 315.006 11.086C314.844 10.78 314.97 9.772 315.222 9.304C315.492 8.8 315.618 8.674 316.014 8.512C316.212 8.422 316.41 8.332 316.464 8.314ZM316.878 8.692V8.71C316.626 8.62 316.086 8.836 315.87 9.106C315.546 9.484 315.384 9.97 315.51 10.132C315.582 10.222 315.582 10.258 315.546 10.33C315.474 10.474 315.492 10.996 315.564 11.104C315.744 11.374 316.05 11.608 316.23 11.608C316.392 11.608 317.058 10.834 317.058 10.636C317.058 10.618 317.112 10.51 317.166 10.42C317.22 10.33 317.274 10.222 317.274 10.186C317.274 10.15 317.31 10.078 317.328 10.006C317.472 9.718 317.148 8.782 316.878 8.692ZM317.058 11.644L317.04 11.662C317.076 11.518 317.076 11.518 317.004 11.626C316.968 11.662 316.86 11.788 316.752 11.896C316.554 12.094 316.554 12.094 316.662 12.094C316.788 12.094 317.022 11.824 317.058 11.644ZM316.716 14.668L316.68 14.29H316.482C316.212 14.29 315.636 14.38 315.546 14.434C315.51 14.452 315.366 14.47 315.222 14.47C314.988 14.47 314.772 14.506 314.124 14.668C313.872 14.722 313.548 14.866 313.386 14.992C313.332 15.046 313.242 15.118 313.188 15.154C312.864 15.316 312.846 15.586 313.098 16.234C313.332 16.828 313.566 17.098 313.998 17.278C314.394 17.44 315.348 17.332 315.708 17.08C315.744 17.044 315.834 16.99 315.888 16.954C316.014 16.864 316.194 16.594 316.23 16.45C316.248 16.396 316.32 16.27 316.392 16.18C316.626 15.82 316.716 15.388 316.716 14.668ZM322.385 8.242L322.421 8.278C322.529 8.17 322.619 8.152 322.727 8.224C322.781 8.278 322.853 8.602 322.997 9.448L323.123 9.322C323.249 9.196 323.429 9.142 324.077 9.016C324.491 8.926 325.715 8.926 326.003 9.016C326.273 9.106 326.417 9.214 326.507 9.394C326.543 9.466 326.597 9.574 326.633 9.628C326.687 9.718 326.831 10.204 326.831 10.294C326.831 10.348 326.651 10.492 326.579 10.492C326.471 10.492 326.345 10.348 326.309 10.168C326.273 9.898 326.039 9.538 325.877 9.466C325.607 9.358 324.167 9.376 324.023 9.484C324.005 9.502 323.915 9.52 323.825 9.52C323.735 9.538 323.645 9.556 323.645 9.574C323.627 9.592 323.573 9.61 323.519 9.61C323.411 9.61 323.249 9.772 323.213 9.916C323.195 9.97 323.177 10.852 323.177 11.878C323.177 13.93 323.195 13.822 322.943 13.822C322.727 13.822 322.709 13.768 322.673 12.598C322.655 12.022 322.619 11.482 322.601 11.41C322.583 11.338 322.565 11.032 322.565 10.708C322.565 10.384 322.547 10.096 322.529 10.06C322.511 10.024 322.493 9.808 322.475 9.592C322.457 9.376 322.403 9.052 322.367 8.872C322.277 8.422 322.277 8.35 322.385 8.242ZM332.152 6.1L332.17 6.046C332.242 5.956 332.368 5.956 332.494 6.046C332.584 6.118 332.584 6.136 332.584 6.442C332.584 6.604 332.602 6.838 332.638 6.946C332.674 7.054 332.728 7.306 332.764 7.486C332.8 7.666 332.872 7.954 332.908 8.116C332.962 8.278 333.034 8.602 333.07 8.836C333.142 9.358 333.25 9.916 333.34 10.204C333.376 10.33 333.466 10.69 333.556 11.014C333.736 11.734 333.808 11.986 333.916 12.22C334.06 12.544 334.24 13.084 334.294 13.336C334.348 13.588 334.366 13.642 334.51 13.984C334.6 14.2 334.546 14.344 334.366 14.38C334.15 14.434 333.988 14.164 333.844 13.498C333.826 13.39 333.754 13.174 333.7 13.03C333.646 12.886 333.592 12.706 333.574 12.634C333.556 12.562 333.502 12.418 333.448 12.328C333.34 12.094 333.16 11.536 333.142 11.41C333.142 11.248 333.106 11.248 333.106 11.41C333.106 11.482 333.07 11.644 333.016 11.77C332.962 11.896 332.908 12.04 332.908 12.076C332.89 12.112 332.818 12.238 332.746 12.346C332.674 12.454 332.602 12.544 332.602 12.562C332.602 12.598 332.296 12.886 332.26 12.886C332.242 12.886 332.116 12.958 331.972 13.048C331.846 13.138 331.684 13.228 331.612 13.246C331.468 13.282 331.288 13.354 331.198 13.426C331 13.588 330.154 13.57 329.56 13.372C329.056 13.21 328.678 12.742 328.606 12.166C328.57 11.914 328.552 10.24 328.588 10.006C328.732 9.088 329.056 8.224 329.434 7.792C329.506 7.702 329.614 7.54 329.668 7.432C329.722 7.324 329.794 7.216 329.83 7.18C329.866 7.144 329.956 7.036 330.028 6.946C330.208 6.73 330.352 6.694 330.802 6.712C331.432 6.73 331.792 6.802 331.972 6.946C332.026 7 332.026 6.982 332.026 6.694C332.026 6.37 332.062 6.19 332.152 6.1ZM331.666 7.306L331.612 7.198L330.532 7.144L330.352 7.378C330.244 7.504 330.136 7.666 330.1 7.738C330.064 7.81 329.974 7.954 329.884 8.062C329.578 8.44 329.2 9.376 329.2 9.736C329.2 9.79 329.182 9.916 329.146 10.006C329.056 10.294 329.092 11.806 329.2 12.22C329.362 12.796 329.632 12.958 330.532 12.994C330.874 13.012 330.892 13.012 331.162 12.886C331.306 12.814 331.45 12.76 331.486 12.76C331.558 12.76 331.702 12.67 331.792 12.58C331.828 12.544 331.9 12.508 331.954 12.49C332.116 12.454 332.458 11.986 332.584 11.644C332.71 11.32 332.728 10.528 332.638 10.294C332.602 10.222 332.548 10.096 332.512 10.006C332.476 9.916 332.422 9.754 332.368 9.664C332.206 9.25 332.152 8.908 332.134 8.062C332.116 7.234 332.116 7.288 332.026 7.36C331.918 7.45 331.792 7.432 331.666 7.306ZM336.629 9.232L336.665 9.25C336.755 9.16 336.845 9.16 336.953 9.268C337.061 9.358 337.061 9.376 336.935 9.988C336.881 10.312 336.863 11.788 336.917 11.734C336.953 11.716 336.971 11.68 336.971 11.662C336.971 11.644 337.061 11.464 337.169 11.266C337.277 11.068 337.367 10.87 337.367 10.834C337.367 10.798 337.475 10.654 337.601 10.528C337.727 10.402 337.853 10.24 337.871 10.186C337.907 10.114 337.997 10.042 338.141 9.97C338.267 9.898 338.411 9.808 338.447 9.772C338.501 9.736 338.573 9.7 338.627 9.7C338.663 9.7 338.717 9.682 338.735 9.664C338.771 9.628 339.005 9.592 339.437 9.556C339.779 9.538 339.995 9.628 340.085 9.844C340.121 9.916 340.211 10.114 340.283 10.294C340.355 10.456 340.427 10.636 340.463 10.798L340.625 10.582C340.715 10.456 340.823 10.312 340.859 10.258C340.913 10.132 341.543 9.79 341.885 9.7C342.227 9.61 342.479 9.808 342.623 10.294C342.659 10.42 342.731 10.582 342.767 10.654C342.803 10.726 342.875 10.888 343.037 11.284L343.055 12.58C343.073 13.858 343.073 13.876 343.001 13.948C342.911 14.038 342.767 14.038 342.677 13.966C342.623 13.912 342.623 13.822 342.623 12.796C342.623 11.428 342.587 11.176 342.317 10.744C342.281 10.672 342.227 10.546 342.209 10.456C342.155 10.114 342.083 10.096 341.579 10.33C341.327 10.456 341.273 10.492 341.129 10.69C340.841 11.086 340.553 11.698 340.535 11.968C340.517 12.292 340.427 12.652 340.301 12.922C340.157 13.246 340.013 13.3 339.833 13.12C339.689 12.976 339.725 12.634 339.941 12.13C340.175 11.536 340.121 11.032 339.761 10.366C339.581 10.042 339.599 10.042 339.131 10.096C338.717 10.15 338.393 10.33 338.141 10.654C338.033 10.78 337.925 10.888 337.907 10.906C337.889 10.924 337.763 11.14 337.637 11.392C337.511 11.644 337.367 11.896 337.331 11.95C337.295 12.004 337.223 12.148 337.187 12.274C337.151 12.4 337.061 12.634 336.989 12.796C336.863 13.066 336.845 13.12 336.809 13.462C336.773 13.984 336.647 14.128 336.287 13.84L336.323 13.03C336.341 12.58 336.359 12.058 336.359 11.86C336.377 11.662 336.395 11.158 336.413 10.744C336.431 10.222 336.449 9.916 336.485 9.736C336.521 9.592 336.557 9.448 336.557 9.394C336.557 9.34 336.593 9.268 336.629 9.232ZM345.675 7.72H345.657C345.927 7.648 346.107 7.756 346.089 7.972C346.071 8.08 346.071 8.098 346.161 8.098C346.539 8.098 346.503 8.836 346.107 9.07C346.017 9.124 345.927 9.142 345.423 9.142L345.261 8.98C345.117 8.818 345.117 8.8 345.117 8.548C345.117 8.17 345.351 7.81 345.675 7.72ZM345.711 8.296C345.729 8.242 345.729 8.224 345.711 8.224C345.657 8.224 345.603 8.35 345.585 8.494C345.567 8.62 345.567 8.62 345.837 8.62L345.747 8.53C345.657 8.44 345.657 8.404 345.711 8.296ZM345.189 11.554L345.243 11.518C345.675 11.284 346.071 11.392 346.251 11.806C346.377 12.076 346.449 13.048 346.359 13.282C346.197 13.696 345.621 13.57 344.865 12.886L344.883 12.418C344.901 11.788 344.937 11.698 345.189 11.554ZM345.837 12.004H345.873C345.801 11.86 345.711 11.842 345.549 11.932C345.441 12.004 345.441 12.022 345.441 12.256C345.441 12.508 345.513 12.652 345.621 12.652C345.639 12.652 345.675 12.706 345.693 12.778C345.729 12.886 345.837 12.976 345.927 12.976C345.981 12.976 345.909 12.13 345.837 12.004Z" fill="black"/>
<path opacity="0.5" d="M444.15 8.71L444.294 8.674C444.474 8.494 444.708 8.638 444.708 8.908C444.708 9.106 444.6 9.52 444.456 9.844C444.402 9.988 444.348 10.114 444.348 10.132C444.348 10.15 444.294 10.258 444.222 10.366C444.15 10.474 444.042 10.69 443.988 10.852C443.754 11.446 443.718 11.518 443.628 11.644C443.556 11.752 443.232 12.418 442.854 13.21C442.728 13.462 442.638 13.606 442.53 13.714C442.422 13.822 442.314 13.984 442.26 14.11C442.17 14.326 441.918 14.362 441.81 14.164C441.792 14.128 441.666 13.894 441.522 13.642C441.378 13.39 441.27 13.156 441.27 13.138C441.27 13.12 441.234 13.048 441.18 12.976C441.126 12.922 441.072 12.832 441.054 12.778C441.036 12.724 440.982 12.616 440.928 12.526C440.766 12.256 440.46 11.626 440.37 11.392C440.334 11.266 440.244 11.068 440.172 10.942C440.118 10.816 440.064 10.636 440.046 10.546C440.028 10.456 439.992 10.294 439.956 10.204C439.938 10.114 439.902 9.934 439.866 9.808C439.848 9.682 439.812 9.484 439.794 9.358C439.74 9.07 439.812 8.926 440.01 8.926C440.172 8.926 440.226 9.034 440.28 9.376C440.298 9.556 440.334 9.808 440.352 9.934C440.388 10.06 440.424 10.276 440.442 10.402C440.46 10.528 440.514 10.708 440.55 10.798C440.586 10.888 440.676 11.104 440.748 11.266C440.802 11.428 440.928 11.734 441.036 11.932C441.144 12.13 441.288 12.4 441.342 12.544C441.414 12.688 441.486 12.832 441.504 12.868C441.522 12.904 441.576 12.994 441.612 13.066C441.648 13.156 441.72 13.3 441.882 13.552L441.972 13.462C442.062 13.39 442.8 11.986 442.8 11.878C442.8 11.86 442.872 11.716 442.98 11.572C443.07 11.41 443.196 11.14 443.268 10.96C443.394 10.636 443.502 10.384 443.646 10.15C443.916 9.664 444.078 9.214 444.06 8.944C444.06 8.836 444.078 8.782 444.15 8.71ZM448.743 7.252H448.761C449.013 7.162 449.733 7.36 449.841 7.54C449.895 7.648 449.913 8.386 449.877 8.512C449.859 8.566 449.805 8.746 449.769 8.926C449.715 9.214 449.625 9.43 449.391 9.844C449.175 10.24 449.049 10.438 448.941 10.564C448.869 10.636 448.815 10.708 448.815 10.726C448.815 10.744 448.743 10.852 448.653 10.96C448.563 11.068 448.401 11.266 448.293 11.392C448.185 11.518 448.077 11.626 448.059 11.626C448.041 11.626 447.969 11.698 447.897 11.77C447.789 11.896 447.735 11.914 447.645 11.914C447.357 11.878 447.339 11.518 447.609 11.356C447.915 11.176 448.779 10.096 448.851 9.808C448.869 9.754 448.905 9.682 448.923 9.664C449.049 9.556 449.247 9.106 449.265 8.854C449.283 8.71 449.319 8.548 449.355 8.494C449.391 8.422 449.409 8.278 449.409 8.098C449.409 7.81 449.409 7.81 449.319 7.792C448.617 7.594 447.159 8.278 446.943 8.908C446.871 9.088 446.871 11.23 446.943 11.392C446.979 11.464 447.015 11.626 447.033 11.734C447.069 11.986 447.159 12.256 447.303 12.526C447.357 12.634 447.393 12.742 447.393 12.778C447.393 12.85 447.771 13.174 447.951 13.264C448.671 13.642 449.715 13.894 450.111 13.786C450.363 13.714 450.561 13.354 450.597 12.868C450.633 12.526 450.669 12.454 450.849 12.454C451.155 12.454 451.173 13.012 450.903 13.696C450.687 14.2 450.165 14.362 449.283 14.2C449.157 14.182 448.995 14.146 448.923 14.146C448.797 14.128 448.077 13.84 447.663 13.66C447.393 13.534 447.015 13.174 446.925 12.958C446.619 12.256 446.601 12.184 446.511 11.734C446.493 11.608 446.457 11.446 446.439 11.374C446.385 11.212 446.367 8.998 446.421 8.818C446.529 8.404 446.997 7.918 447.609 7.612C447.825 7.504 448.617 7.234 448.653 7.27C448.671 7.27 448.707 7.27 448.743 7.252ZM452.961 8.242L452.997 8.278C453.105 8.17 453.195 8.152 453.303 8.224C453.357 8.278 453.429 8.602 453.573 9.448L453.699 9.322C453.825 9.196 454.005 9.142 454.653 9.016C455.067 8.926 456.291 8.926 456.579 9.016C456.849 9.106 456.993 9.214 457.083 9.394C457.119 9.466 457.173 9.574 457.209 9.628C457.263 9.718 457.407 10.204 457.407 10.294C457.407 10.348 457.227 10.492 457.155 10.492C457.047 10.492 456.921 10.348 456.885 10.168C456.849 9.898 456.615 9.538 456.453 9.466C456.183 9.358 454.743 9.376 454.599 9.484C454.581 9.502 454.491 9.52 454.401 9.52C454.311 9.538 454.221 9.556 454.221 9.574C454.203 9.592 454.149 9.61 454.095 9.61C453.987 9.61 453.825 9.772 453.789 9.916C453.771 9.97 453.753 10.852 453.753 11.878C453.753 13.93 453.771 13.822 453.519 13.822C453.303 13.822 453.285 13.768 453.249 12.598C453.231 12.022 453.195 11.482 453.177 11.41C453.159 11.338 453.141 11.032 453.141 10.708C453.141 10.384 453.123 10.096 453.105 10.06C453.087 10.024 453.069 9.808 453.051 9.592C453.033 9.376 452.979 9.052 452.943 8.872C452.853 8.422 452.853 8.35 452.961 8.242ZM460.406 6.712L460.352 6.856C460.64 6.784 460.802 6.802 461.018 6.928C461.126 7 461.234 7.054 461.252 7.054C461.306 7.054 461.792 7.468 461.846 7.558C461.882 7.612 461.99 7.774 462.098 7.936C462.368 8.35 462.656 8.962 462.638 9.07C462.584 9.268 462.332 9.286 462.188 9.106C462.098 8.98 462.08 8.962 461.846 8.476C461.774 8.314 461.666 8.134 461.612 8.08C461.558 8.026 461.486 7.936 461.468 7.882C461.432 7.756 461.162 7.54 460.856 7.378C460.676 7.288 460.64 7.288 460.514 7.306C460.37 7.342 460.01 7.63 460.01 7.72C460.01 7.738 459.956 7.846 459.866 7.954C459.632 8.296 459.614 8.386 459.596 9.466C459.578 10.006 459.578 10.042 459.668 10.222C459.794 10.474 459.794 10.474 460.622 10.546C461.018 10.582 461.486 10.636 461.666 10.654C461.846 10.672 462.062 10.69 462.134 10.69C462.62 10.726 463.286 11.032 463.574 11.338C463.844 11.644 463.862 11.698 463.862 12.31C463.862 12.922 463.844 12.994 463.574 13.21C463.448 13.3 462.872 13.57 462.8 13.57C462.782 13.57 462.674 13.606 462.548 13.66C462.026 13.858 460.676 13.93 460.568 13.75C460.352 13.462 460.154 13.048 460.154 12.904C460.154 12.796 460.28 12.688 460.406 12.688C460.55 12.688 460.658 12.796 460.712 12.976C460.73 13.066 460.784 13.174 460.91 13.318H461.378C461.81 13.318 462.116 13.264 462.35 13.156C462.386 13.138 462.476 13.102 462.566 13.066C462.638 13.03 462.728 13.012 462.764 13.012C462.854 13.012 463.214 12.832 463.34 12.724C463.412 12.652 463.412 12.616 463.412 11.77L463.25 11.59C462.908 11.212 462.476 11.086 460.892 10.942C459.542 10.816 459.542 10.816 459.146 10.06V9.484C459.146 8.386 459.218 7.954 459.434 7.684C459.452 7.666 459.524 7.54 459.596 7.414C459.668 7.27 459.74 7.162 459.794 7.144C459.83 7.126 459.902 7.072 459.938 7.036C460.046 6.892 460.262 6.748 460.406 6.712ZM466.279 7.756L466.261 7.666C466.315 7.576 466.495 7.558 466.603 7.648C466.657 7.702 466.657 7.756 466.657 8.116C466.657 8.656 466.621 9.25 466.585 9.304C466.567 9.322 466.549 9.556 466.531 9.808C466.513 10.06 466.477 10.384 466.441 10.528C466.405 10.654 466.369 10.996 466.351 11.284C466.333 11.572 466.315 11.824 466.315 11.86C466.279 11.932 466.225 12.472 466.189 13.102C466.171 13.768 466.153 13.804 465.937 13.804C465.721 13.804 465.685 13.678 465.703 13.048C465.703 12.742 465.721 12.418 465.757 12.328C465.829 12.04 465.883 11.572 465.919 11.068C465.937 10.816 465.973 10.564 465.991 10.51C466.009 10.456 466.045 10.204 466.063 9.952C466.081 9.7 466.117 9.43 466.135 9.358C466.153 9.286 466.189 8.908 466.207 8.53C466.225 8.044 466.243 7.828 466.279 7.756ZM469.884 9.376L469.83 9.43C470.136 9.268 470.424 9.25 471.288 9.322C471.99 9.376 472.476 9.772 472.782 10.528C472.944 10.942 472.854 11.95 472.602 12.508C472.548 12.616 472.494 12.76 472.476 12.832C472.368 13.192 472.044 13.678 471.774 13.894C471.594 14.038 471.594 14.038 471.306 14.038C470.964 14.038 470.748 13.984 470.568 13.84C470.262 13.606 469.902 13.264 469.794 13.084C469.74 12.976 469.614 12.778 469.524 12.634C469.344 12.364 469.308 12.31 469.2 12.058C469.146 11.95 469.146 11.95 468.894 11.95C468.498 11.95 468.408 11.752 468.552 11.14C468.588 11.014 468.606 10.87 468.606 10.816C468.606 10.762 468.642 10.672 468.678 10.618C468.714 10.564 468.75 10.492 468.75 10.456C468.75 10.402 468.84 10.222 468.894 10.186C468.912 10.168 468.984 10.06 469.056 9.934C469.182 9.7 469.38 9.538 469.56 9.52C469.596 9.52 469.74 9.448 469.884 9.376ZM471.342 9.808H471.324C470.244 9.754 470.262 9.754 470.118 9.826C469.83 9.97 469.56 10.096 469.524 10.096C469.488 10.096 469.164 10.636 469.164 10.708C469.164 10.744 469.128 10.816 469.092 10.87C469.02 10.978 469.002 11.176 469.056 11.176C469.092 11.176 469.632 11.932 469.632 11.986C469.632 12.166 470.208 12.976 470.532 13.264C470.838 13.534 470.91 13.57 471.27 13.57C471.45 13.57 471.45 13.57 471.558 13.39C471.63 13.3 471.738 13.156 471.792 13.084C471.9 12.922 472.008 12.67 472.008 12.544C472.008 12.508 472.044 12.436 472.08 12.4C472.332 12.076 472.44 11.068 472.278 10.618C472.116 10.186 471.702 9.826 471.342 9.808ZM474.74 8.8L474.668 8.764C474.83 8.584 475.082 8.728 475.136 9.034C475.154 9.124 475.19 9.304 475.226 9.43C475.298 9.646 475.334 9.862 475.496 11.014C475.532 11.23 475.568 11.464 475.622 11.662V11.536C475.622 11.464 475.64 11.23 475.676 10.996C475.712 10.78 475.73 10.564 475.712 10.546C475.658 10.384 475.892 9.862 476.126 9.646C476.288 9.502 476.9 9.412 478.034 9.448L478.322 9.628C478.484 9.718 478.646 9.808 478.664 9.826C478.772 9.862 479.24 10.654 479.24 10.78C479.24 10.816 479.294 10.996 479.348 11.176C479.528 11.734 479.636 13.174 479.528 13.498C479.456 13.714 479.258 13.768 479.024 13.534L479.042 12.85C479.06 11.986 479.024 11.626 478.898 11.248C478.844 11.086 478.79 10.924 478.79 10.888C478.79 10.726 478.448 10.204 478.268 10.114C478.178 10.06 478.052 9.988 477.98 9.952C477.8 9.844 477.188 9.826 476.846 9.916C476.702 9.952 476.558 9.988 476.522 10.006C476.342 10.024 476.216 10.312 476.216 10.69C476.216 10.798 476.198 10.978 476.18 11.086C476.162 11.194 476.144 11.392 476.144 11.518C476.126 11.644 476.108 11.806 476.09 11.878C476.072 11.95 476.054 12.13 476.054 12.274C476.054 12.418 476.018 12.652 475.982 12.814C475.946 12.976 475.91 13.192 475.91 13.3C475.892 13.588 475.874 13.624 475.766 13.678C475.568 13.768 475.46 13.66 475.442 13.318C475.406 12.886 475.388 12.778 475.334 12.652C475.298 12.598 475.28 12.526 475.28 12.49C475.28 12.346 475.082 10.852 475.01 10.528C474.992 10.42 474.974 10.24 474.956 10.114C474.938 9.988 474.884 9.736 474.83 9.574C474.686 9.142 474.65 8.89 474.74 8.8ZM482.263 7.72H482.245C482.515 7.648 482.695 7.756 482.677 7.972C482.659 8.08 482.659 8.098 482.749 8.098C483.127 8.098 483.091 8.836 482.695 9.07C482.605 9.124 482.515 9.142 482.011 9.142L481.849 8.98C481.705 8.818 481.705 8.8 481.705 8.548C481.705 8.17 481.939 7.81 482.263 7.72ZM482.299 8.296C482.317 8.242 482.317 8.224 482.299 8.224C482.245 8.224 482.191 8.35 482.173 8.494C482.155 8.62 482.155 8.62 482.425 8.62L482.335 8.53C482.245 8.44 482.245 8.404 482.299 8.296ZM481.777 11.554L481.831 11.518C482.263 11.284 482.659 11.392 482.839 11.806C482.965 12.076 483.037 13.048 482.947 13.282C482.785 13.696 482.209 13.57 481.453 12.886L481.471 12.418C481.489 11.788 481.525 11.698 481.777 11.554ZM482.425 12.004H482.461C482.389 11.86 482.299 11.842 482.137 11.932C482.029 12.004 482.029 12.022 482.029 12.256C482.029 12.508 482.101 12.652 482.209 12.652C482.227 12.652 482.263 12.706 482.281 12.778C482.317 12.886 482.425 12.976 482.515 12.976C482.569 12.976 482.497 12.13 482.425 12.004Z" fill="black"/>
<path opacity="0.5" d="M556.672 4.57L556.6 4.588C556.708 4.48 556.726 4.48 556.852 4.534C556.96 4.588 557.032 4.786 557.104 5.218C557.176 5.686 557.158 5.974 556.96 7.648C556.924 7.99 556.87 8.404 556.852 8.566C556.834 8.728 556.816 8.944 556.762 9.268H558.652L558.742 9.358C558.85 9.466 558.85 9.574 558.76 9.664C558.688 9.736 558.634 9.736 556.744 9.736L556.726 9.898C556.708 9.988 556.69 10.294 556.672 10.564C556.654 10.834 556.618 11.158 556.6 11.284C556.582 11.392 556.564 11.59 556.564 11.716C556.564 11.842 556.546 12.022 556.528 12.13C556.474 12.364 556.384 13.066 556.384 13.21C556.384 13.264 556.366 13.372 556.348 13.444C556.33 13.57 556.33 13.588 556.384 13.552C556.42 13.534 556.726 13.516 557.05 13.498C557.788 13.462 557.932 13.408 558.256 13.048C558.49 12.778 558.544 12.742 558.688 12.796C558.94 12.904 558.886 13.138 558.526 13.48C558.184 13.822 557.698 13.966 556.96 13.966C556.924 13.966 556.726 13.984 556.528 14.002C555.826 14.056 555.826 14.056 555.934 12.958C555.952 12.76 555.988 12.508 556.006 12.382C556.024 12.256 556.06 12.04 556.078 11.896C556.096 11.752 556.15 11.428 556.186 11.194C556.222 10.942 556.258 10.582 556.258 10.312C556.258 10.06 556.276 9.844 556.294 9.79C556.348 9.664 556.348 9.664 555.664 9.664C554.98 9.664 554.908 9.646 554.908 9.412C554.908 9.196 554.998 9.16 556.348 9.16L556.366 8.944C556.402 8.53 556.474 7.972 556.51 7.792C556.528 7.702 556.564 7.468 556.582 7.27C556.6 7.072 556.636 6.676 556.672 6.406C556.744 5.794 556.744 5.56 556.672 5.182C556.564 4.66 556.564 4.678 556.672 4.57ZM562.258 8.836L562.312 8.908C562.438 8.854 562.474 8.854 562.564 8.944C562.654 9.034 562.654 9.07 562.564 9.304C562.42 9.736 562.312 10.348 562.312 10.762C562.312 11.536 562.762 12.544 563.248 12.832C563.626 13.066 563.788 12.994 564.184 12.4C564.472 11.968 564.958 10.888 564.904 10.798C564.886 10.78 564.904 10.69 564.94 10.618C565.012 10.42 565.03 10.294 565.048 9.826C565.066 9.34 565.066 9.304 565.174 9.25C565.318 9.178 565.372 9.196 565.588 9.43L565.57 10.312C565.552 10.798 565.534 11.662 565.534 12.238C565.534 12.832 565.516 13.408 565.48 13.588C565.426 13.948 565.426 13.948 565.624 13.876C565.714 13.84 565.966 13.804 566.2 13.786C566.434 13.768 566.668 13.75 566.722 13.732C566.812 13.714 566.992 13.588 566.992 13.534C566.992 13.39 567.28 13.336 567.406 13.462C567.55 13.606 567.514 13.768 567.316 13.948C567.064 14.182 567.01 14.2 566.452 14.254C566.182 14.272 565.84 14.326 565.714 14.362C565.57 14.398 565.426 14.434 565.408 14.434C565.372 14.434 565.318 14.524 565.228 14.704C565.156 14.848 565.066 14.992 565.03 15.028C564.994 15.064 564.904 15.172 564.832 15.262C564.688 15.46 564.22 15.856 564.004 15.964C563.914 16 563.806 16.072 563.752 16.126C563.428 16.45 563.284 16.54 562.996 16.594C562.906 16.612 562.726 16.648 562.582 16.684C562.294 16.756 561.772 16.774 561.592 16.72C561.52 16.702 561.376 16.594 561.268 16.486C560.89 16.144 560.728 15.766 560.728 14.92L560.962 14.686C561.178 14.47 561.196 14.47 561.34 14.488C561.43 14.506 561.574 14.488 561.718 14.452C562.294 14.326 562.708 14.254 562.906 14.254C563.302 14.236 564.13 14.128 564.202 14.092C564.238 14.074 564.418 14.056 564.94 14.038L564.994 13.75C565.048 13.48 565.102 11.77 565.066 11.806C565.066 11.824 564.994 11.95 564.904 12.094C564.292 13.246 563.788 13.624 563.248 13.336C562.888 13.138 562.69 13.012 562.564 12.868C562.402 12.67 562.024 11.878 561.934 11.536C561.898 11.392 561.844 11.23 561.826 11.194C561.772 11.068 561.808 10.312 561.88 9.934C561.916 9.736 561.97 9.466 561.988 9.322C562.042 9.052 562.132 8.89 562.258 8.836ZM564.778 14.578L564.832 14.542C564.832 14.524 564.526 14.524 564.508 14.542C564.472 14.578 563.68 14.686 563.248 14.722C562.87 14.74 562.564 14.794 561.97 14.938C561.79 14.974 561.61 15.01 561.556 15.01C561.502 15.01 561.412 15.046 561.358 15.082C561.25 15.154 561.25 15.172 561.268 15.388C561.286 15.658 561.394 15.91 561.736 16.27H562.042C562.204 16.27 562.42 16.252 562.51 16.216C562.618 16.18 562.78 16.144 562.888 16.126C563.104 16.09 563.428 15.892 563.5 15.748C563.554 15.64 563.626 15.604 563.734 15.604C563.824 15.604 564.418 15.082 564.544 14.884C564.598 14.794 564.67 14.686 564.706 14.65C564.742 14.614 564.778 14.578 564.778 14.578ZM570.799 9.052L570.835 9.034C570.979 8.908 571.195 9.016 571.195 9.196C571.195 9.34 571.429 9.34 572.095 9.196C572.239 9.16 572.491 9.142 572.761 9.16C573.193 9.16 573.193 9.16 573.301 9.268C573.787 9.718 573.859 9.934 573.913 11.158C573.949 12.346 573.949 12.778 573.895 12.886C573.859 12.94 573.823 13.03 573.805 13.084C573.787 13.138 573.733 13.228 573.679 13.282C573.625 13.336 573.553 13.426 573.517 13.48C573.391 13.678 573.247 13.714 571.825 13.714L571.591 13.552C571.465 13.462 571.285 13.354 571.195 13.318C570.997 13.246 570.763 13.102 570.637 12.976C570.547 12.904 570.529 12.904 570.511 12.958C570.493 12.994 570.475 13.048 570.475 13.066C570.457 13.102 570.439 13.264 570.421 13.426C570.367 13.966 570.277 14.56 570.223 14.794C570.169 15.01 570.133 15.262 570.025 16.162C569.953 16.81 569.935 16.918 569.899 17.008C569.881 17.044 569.863 17.17 569.845 17.278C569.809 17.728 569.791 17.818 569.701 17.872C569.593 17.944 569.449 17.908 569.377 17.8C569.305 17.674 569.269 16.288 569.341 15.91C569.359 15.766 569.395 15.586 569.395 15.514C569.413 15.442 569.449 15.298 569.467 15.19C569.503 15.064 569.521 14.938 569.503 14.83C569.485 14.722 569.485 14.596 569.503 14.542C569.521 14.488 569.557 14.38 569.575 14.29C569.611 14.11 569.683 13.894 569.809 13.498C569.863 13.354 569.899 13.192 569.899 13.138C569.899 13.084 569.917 12.994 569.953 12.94C570.025 12.814 570.115 12.436 570.115 12.31C570.115 12.256 570.133 12.166 570.151 12.094C570.205 11.896 570.367 10.978 570.385 10.816C570.403 10.69 570.421 10.618 570.511 10.258C570.529 10.186 570.565 10.024 570.583 9.88C570.637 9.376 570.709 9.106 570.799 9.052ZM573.139 9.772L572.977 9.682H572.599C572.383 9.682 572.113 9.7 571.987 9.718C571.861 9.754 571.645 9.79 571.285 9.826L571.195 10.024C571.141 10.132 571.087 10.294 571.069 10.384C571.051 10.474 571.015 10.636 570.979 10.744C570.943 10.852 570.889 11.122 570.853 11.356C570.817 11.59 570.763 11.896 570.727 12.058C570.691 12.22 570.673 12.346 570.673 12.364C570.673 12.364 570.727 12.382 570.781 12.4C570.871 12.436 570.907 12.49 571.015 12.706C571.033 12.742 571.195 12.832 571.375 12.922C571.555 13.012 571.753 13.12 571.825 13.174C571.951 13.264 571.969 13.264 572.419 13.264C572.995 13.264 573.139 13.246 573.175 13.138C573.193 13.084 573.229 13.03 573.265 13.012C573.355 12.958 573.445 12.634 573.445 12.346C573.445 10.474 573.391 10.006 573.139 9.772ZM578.097 7.252H578.115C578.367 7.162 579.087 7.36 579.195 7.54C579.249 7.648 579.267 8.386 579.231 8.512C579.213 8.566 579.159 8.746 579.123 8.926C579.069 9.214 578.979 9.43 578.745 9.844C578.529 10.24 578.403 10.438 578.295 10.564C578.223 10.636 578.169 10.708 578.169 10.726C578.169 10.744 578.097 10.852 578.007 10.96C577.917 11.068 577.755 11.266 577.647 11.392C577.539 11.518 577.431 11.626 577.413 11.626C577.395 11.626 577.323 11.698 577.251 11.77C577.143 11.896 577.089 11.914 576.999 11.914C576.711 11.878 576.693 11.518 576.963 11.356C577.269 11.176 578.133 10.096 578.205 9.808C578.223 9.754 578.259 9.682 578.277 9.664C578.403 9.556 578.601 9.106 578.619 8.854C578.637 8.71 578.673 8.548 578.709 8.494C578.745 8.422 578.763 8.278 578.763 8.098C578.763 7.81 578.763 7.81 578.673 7.792C577.971 7.594 576.513 8.278 576.297 8.908C576.225 9.088 576.225 11.23 576.297 11.392C576.333 11.464 576.369 11.626 576.387 11.734C576.423 11.986 576.513 12.256 576.657 12.526C576.711 12.634 576.747 12.742 576.747 12.778C576.747 12.85 577.125 13.174 577.305 13.264C578.025 13.642 579.069 13.894 579.465 13.786C579.717 13.714 579.915 13.354 579.951 12.868C579.987 12.526 580.023 12.454 580.203 12.454C580.509 12.454 580.527 13.012 580.257 13.696C580.041 14.2 579.519 14.362 578.637 14.2C578.511 14.182 578.349 14.146 578.277 14.146C578.151 14.128 577.431 13.84 577.017 13.66C576.747 13.534 576.369 13.174 576.279 12.958C575.973 12.256 575.955 12.184 575.865 11.734C575.847 11.608 575.811 11.446 575.793 11.374C575.739 11.212 575.721 8.998 575.775 8.818C575.883 8.404 576.351 7.918 576.963 7.612C577.179 7.504 577.971 7.234 578.007 7.27C578.025 7.27 578.061 7.27 578.097 7.252ZM583.035 7.72H583.017C583.287 7.648 583.467 7.756 583.449 7.972C583.431 8.08 583.431 8.098 583.521 8.098C583.899 8.098 583.863 8.836 583.467 9.07C583.377 9.124 583.287 9.142 582.783 9.142L582.621 8.98C582.477 8.818 582.477 8.8 582.477 8.548C582.477 8.17 582.711 7.81 583.035 7.72ZM583.071 8.296C583.089 8.242 583.089 8.224 583.071 8.224C583.017 8.224 582.963 8.35 582.945 8.494C582.927 8.62 582.927 8.62 583.197 8.62L583.107 8.53C583.017 8.44 583.017 8.404 583.071 8.296ZM582.549 11.554L582.603 11.518C583.035 11.284 583.431 11.392 583.611 11.806C583.737 12.076 583.809 13.048 583.719 13.282C583.557 13.696 582.981 13.57 582.225 12.886L582.243 12.418C582.261 11.788 582.297 11.698 582.549 11.554ZM583.197 12.004H583.233C583.161 11.86 583.071 11.842 582.909 11.932C582.801 12.004 582.801 12.022 582.801 12.256C582.801 12.508 582.873 12.652 582.981 12.652C582.999 12.652 583.035 12.706 583.053 12.778C583.089 12.886 583.197 12.976 583.287 12.976C583.341 12.976 583.269 12.13 583.197 12.004Z" fill="black"/>
<path opacity="0.5" d="M648.089 2.824L648.125 2.788C648.161 2.77 648.197 2.752 648.215 2.752C648.251 2.752 648.431 2.878 648.431 2.914C648.449 3.094 648.449 3.202 648.413 3.328C648.395 3.4 648.359 3.67 648.341 3.922C648.287 4.462 648.233 4.894 648.179 5.254C648.125 5.56 648.071 5.974 648.017 6.478C647.999 6.694 647.963 7 647.945 7.162C647.927 7.324 647.909 7.684 647.909 7.954C647.909 8.224 647.891 8.476 647.873 8.53C647.855 8.584 647.819 9.124 647.801 9.736C647.747 10.708 647.729 11.356 647.747 13.138L647.855 13.12C647.981 13.102 648.143 13.246 648.143 13.372C648.143 13.66 647.783 13.768 646.919 13.732C646.127 13.714 646.199 13.714 646.001 13.66C645.839 13.606 645.641 13.57 645.407 13.552C645.119 13.534 644.723 13.462 644.525 13.408C644.417 13.372 644.183 13.318 644.021 13.282C643.859 13.246 643.643 13.192 643.553 13.156C643.463 13.12 643.229 13.03 643.049 12.958C641.951 12.598 640.835 11.302 641.195 10.798C641.213 10.762 641.249 10.672 641.267 10.6C641.303 10.438 641.501 10.024 641.555 10.024C641.573 10.024 641.645 9.934 641.735 9.808C641.969 9.448 642.923 8.566 643.067 8.566C643.103 8.566 643.139 8.548 643.157 8.53C643.337 8.35 644.183 8.242 644.561 8.35C644.633 8.368 644.921 8.422 645.209 8.458C645.479 8.494 645.713 8.548 645.749 8.566C645.767 8.584 645.983 8.692 646.217 8.8C646.451 8.908 646.685 9.034 646.739 9.088C646.955 9.286 647.243 9.826 647.369 10.366V10.114C647.369 9.97 647.387 9.556 647.405 9.196C647.423 8.836 647.441 8.224 647.441 7.846C647.441 7.468 647.459 7.09 647.477 7.018C647.495 6.946 647.531 6.676 647.549 6.424C647.567 6.172 647.603 5.776 647.621 5.56C647.657 5.344 647.693 5.056 647.711 4.912C647.729 4.768 647.765 4.462 647.783 4.228C647.801 3.994 647.837 3.706 647.855 3.58C647.873 3.454 647.891 3.274 647.891 3.184C647.891 3.004 647.963 2.878 648.089 2.824ZM644.597 8.854L644.705 8.89C643.895 8.728 643.391 8.926 642.635 9.718C641.879 10.492 641.663 10.96 641.861 11.392C642.059 11.824 643.103 12.598 643.463 12.598C643.499 12.598 643.625 12.652 643.733 12.706C643.841 12.76 644.021 12.832 644.129 12.85C644.237 12.868 644.453 12.922 644.615 12.958C644.777 12.994 644.975 13.03 645.047 13.048C645.677 13.12 646.055 13.174 646.145 13.21C646.199 13.228 646.487 13.264 647.315 13.282V13.156C647.315 13.084 647.297 12.94 647.261 12.85C647.225 12.76 647.171 12.454 647.135 12.184C647.081 11.698 646.991 11.086 646.955 10.906C646.937 10.852 646.901 10.636 646.865 10.42C646.811 10.078 646.775 9.97 646.649 9.754C646.631 9.718 646.577 9.628 646.523 9.556C646.451 9.43 646.397 9.394 646.163 9.304C646.019 9.232 645.875 9.16 645.857 9.142C645.767 9.07 645.407 8.962 645.137 8.926C644.975 8.908 644.741 8.872 644.597 8.854ZM652.588 7.252H652.606C652.858 7.162 653.578 7.36 653.686 7.54C653.74 7.648 653.758 8.386 653.722 8.512C653.704 8.566 653.65 8.746 653.614 8.926C653.56 9.214 653.47 9.43 653.236 9.844C653.02 10.24 652.894 10.438 652.786 10.564C652.714 10.636 652.66 10.708 652.66 10.726C652.66 10.744 652.588 10.852 652.498 10.96C652.408 11.068 652.246 11.266 652.138 11.392C652.03 11.518 651.922 11.626 651.904 11.626C651.886 11.626 651.814 11.698 651.742 11.77C651.634 11.896 651.58 11.914 651.49 11.914C651.202 11.878 651.184 11.518 651.454 11.356C651.76 11.176 652.624 10.096 652.696 9.808C652.714 9.754 652.75 9.682 652.768 9.664C652.894 9.556 653.092 9.106 653.11 8.854C653.128 8.71 653.164 8.548 653.2 8.494C653.236 8.422 653.254 8.278 653.254 8.098C653.254 7.81 653.254 7.81 653.164 7.792C652.462 7.594 651.004 8.278 650.788 8.908C650.716 9.088 650.716 11.23 650.788 11.392C650.824 11.464 650.86 11.626 650.878 11.734C650.914 11.986 651.004 12.256 651.148 12.526C651.202 12.634 651.238 12.742 651.238 12.778C651.238 12.85 651.616 13.174 651.796 13.264C652.516 13.642 653.56 13.894 653.956 13.786C654.208 13.714 654.406 13.354 654.442 12.868C654.478 12.526 654.514 12.454 654.694 12.454C655 12.454 655.018 13.012 654.748 13.696C654.532 14.2 654.01 14.362 653.128 14.2C653.002 14.182 652.84 14.146 652.768 14.146C652.642 14.128 651.922 13.84 651.508 13.66C651.238 13.534 650.86 13.174 650.77 12.958C650.464 12.256 650.446 12.184 650.356 11.734C650.338 11.608 650.302 11.446 650.284 11.374C650.23 11.212 650.212 8.998 650.266 8.818C650.374 8.404 650.842 7.918 651.454 7.612C651.67 7.504 652.462 7.234 652.498 7.27C652.516 7.27 652.552 7.27 652.588 7.252ZM657.957 6.712L657.903 6.856C658.191 6.784 658.353 6.802 658.569 6.928C658.677 7 658.785 7.054 658.803 7.054C658.857 7.054 659.343 7.468 659.397 7.558C659.433 7.612 659.541 7.774 659.649 7.936C659.919 8.35 660.207 8.962 660.189 9.07C660.135 9.268 659.883 9.286 659.739 9.106C659.649 8.98 659.631 8.962 659.397 8.476C659.325 8.314 659.217 8.134 659.163 8.08C659.109 8.026 659.037 7.936 659.019 7.882C658.983 7.756 658.713 7.54 658.407 7.378C658.227 7.288 658.191 7.288 658.065 7.306C657.921 7.342 657.561 7.63 657.561 7.72C657.561 7.738 657.507 7.846 657.417 7.954C657.183 8.296 657.165 8.386 657.147 9.466C657.129 10.006 657.129 10.042 657.219 10.222C657.345 10.474 657.345 10.474 658.173 10.546C658.569 10.582 659.037 10.636 659.217 10.654C659.397 10.672 659.613 10.69 659.685 10.69C660.171 10.726 660.837 11.032 661.125 11.338C661.395 11.644 661.413 11.698 661.413 12.31C661.413 12.922 661.395 12.994 661.125 13.21C660.999 13.3 660.423 13.57 660.351 13.57C660.333 13.57 660.225 13.606 660.099 13.66C659.577 13.858 658.227 13.93 658.119 13.75C657.903 13.462 657.705 13.048 657.705 12.904C657.705 12.796 657.831 12.688 657.957 12.688C658.101 12.688 658.209 12.796 658.263 12.976C658.281 13.066 658.335 13.174 658.461 13.318H658.929C659.361 13.318 659.667 13.264 659.901 13.156C659.937 13.138 660.027 13.102 660.117 13.066C660.189 13.03 660.279 13.012 660.315 13.012C660.405 13.012 660.765 12.832 660.891 12.724C660.963 12.652 660.963 12.616 660.963 11.77L660.801 11.59C660.459 11.212 660.027 11.086 658.443 10.942C657.093 10.816 657.093 10.816 656.697 10.06V9.484C656.697 8.386 656.769 7.954 656.985 7.684C657.003 7.666 657.075 7.54 657.147 7.414C657.219 7.27 657.291 7.162 657.345 7.144C657.381 7.126 657.453 7.072 657.489 7.036C657.597 6.892 657.813 6.748 657.957 6.712ZM664.784 6.874V6.82C665 6.712 665.81 6.694 666.17 6.784C666.278 6.82 666.404 6.838 666.44 6.838C666.476 6.82 666.584 6.838 666.674 6.874C666.764 6.91 666.854 6.946 666.872 6.946C666.926 6.946 667.124 7.018 667.286 7.09C667.592 7.216 668.51 8.152 668.618 8.44C668.78 8.836 668.798 9.07 668.672 9.178C668.474 9.376 668.258 9.232 668.204 8.872C668.168 8.584 668.06 8.404 667.574 7.918C667.214 7.558 667.142 7.504 666.944 7.468C666.872 7.45 666.728 7.414 666.62 7.36C666.26 7.234 665.81 7.162 665 7.18L664.766 7.414C664.64 7.54 664.478 7.738 664.424 7.864C664.172 8.35 664.118 8.458 664.118 8.53C664.118 8.566 664.1 8.638 664.082 8.674C664.028 8.782 663.938 9.16 663.92 9.394C663.92 9.502 663.902 9.682 663.902 9.79C663.65 12.4 663.668 12.688 664.082 13.048C664.19 13.138 664.298 13.21 664.316 13.21C664.352 13.21 664.46 13.246 664.568 13.3C664.676 13.354 664.82 13.408 664.892 13.408C664.946 13.426 665.036 13.462 665.09 13.498C665.144 13.534 665.234 13.57 665.288 13.57C665.342 13.57 665.432 13.588 665.468 13.624C665.522 13.66 665.72 13.696 666.062 13.714C666.836 13.768 666.998 13.768 667.178 13.678C667.268 13.642 667.43 13.552 667.538 13.498C667.646 13.444 667.772 13.354 667.826 13.318C667.88 13.264 667.988 13.174 668.078 13.12C668.222 13.012 668.312 12.868 668.312 12.742C668.312 12.67 668.402 12.508 668.528 12.328C668.564 12.274 668.6 12.148 668.618 12.058C668.654 11.752 668.78 11.392 668.87 11.338C668.978 11.266 669.122 11.32 669.176 11.446C669.23 11.608 669.05 12.454 668.942 12.58C668.906 12.616 668.834 12.778 668.78 12.94C668.636 13.318 668.528 13.462 668.168 13.714C667.934 13.876 667.916 13.894 667.214 14.272H666.782C666.152 14.272 665.54 14.218 665.378 14.146C665.342 14.128 665.252 14.11 665.162 14.092C665.09 14.074 664.964 14.038 664.892 14.002C664.73 13.912 664.28 13.732 664.082 13.678C663.704 13.57 663.38 13.156 663.272 12.652C663.218 12.364 663.29 10.51 663.38 10.024C663.398 9.934 663.416 9.718 663.434 9.556C663.452 9.178 663.542 8.764 663.632 8.566C663.668 8.476 663.704 8.386 663.704 8.368C663.704 8.278 664.028 7.648 664.154 7.486C664.208 7.414 664.28 7.306 664.316 7.234C664.352 7.18 664.406 7.144 664.442 7.144C664.478 7.144 664.514 7.108 664.55 7.054C664.586 7 664.676 6.928 664.784 6.874ZM671.114 8.242L671.15 8.278C671.258 8.17 671.348 8.152 671.456 8.224C671.51 8.278 671.582 8.602 671.726 9.448L671.852 9.322C671.978 9.196 672.158 9.142 672.806 9.016C673.22 8.926 674.444 8.926 674.732 9.016C675.002 9.106 675.146 9.214 675.236 9.394C675.272 9.466 675.326 9.574 675.362 9.628C675.416 9.718 675.56 10.204 675.56 10.294C675.56 10.348 675.38 10.492 675.308 10.492C675.2 10.492 675.074 10.348 675.038 10.168C675.002 9.898 674.768 9.538 674.606 9.466C674.336 9.358 672.896 9.376 672.752 9.484C672.734 9.502 672.644 9.52 672.554 9.52C672.464 9.538 672.374 9.556 672.374 9.574C672.356 9.592 672.302 9.61 672.248 9.61C672.14 9.61 671.978 9.772 671.942 9.916C671.924 9.97 671.906 10.852 671.906 11.878C671.906 13.93 671.924 13.822 671.672 13.822C671.456 13.822 671.438 13.768 671.402 12.598C671.384 12.022 671.348 11.482 671.33 11.41C671.312 11.338 671.294 11.032 671.294 10.708C671.294 10.384 671.276 10.096 671.258 10.06C671.24 10.024 671.222 9.808 671.204 9.592C671.186 9.376 671.132 9.052 671.096 8.872C671.006 8.422 671.006 8.35 671.114 8.242ZM677.875 7.756L677.857 7.666C677.911 7.576 678.091 7.558 678.199 7.648C678.253 7.702 678.253 7.756 678.253 8.116C678.253 8.656 678.217 9.25 678.181 9.304C678.163 9.322 678.145 9.556 678.127 9.808C678.109 10.06 678.073 10.384 678.037 10.528C678.001 10.654 677.965 10.996 677.947 11.284C677.929 11.572 677.911 11.824 677.911 11.86C677.875 11.932 677.821 12.472 677.785 13.102C677.767 13.768 677.749 13.804 677.533 13.804C677.317 13.804 677.281 13.678 677.299 13.048C677.299 12.742 677.317 12.418 677.353 12.328C677.425 12.04 677.479 11.572 677.515 11.068C677.533 10.816 677.569 10.564 677.587 10.51C677.605 10.456 677.641 10.204 677.659 9.952C677.677 9.7 677.713 9.43 677.731 9.358C677.749 9.286 677.785 8.908 677.803 8.53C677.821 8.044 677.839 7.828 677.875 7.756ZM681.606 9.052L681.642 9.034C681.786 8.908 682.002 9.016 682.002 9.196C682.002 9.34 682.236 9.34 682.902 9.196C683.046 9.16 683.298 9.142 683.568 9.16C684 9.16 684 9.16 684.108 9.268C684.594 9.718 684.666 9.934 684.72 11.158C684.756 12.346 684.756 12.778 684.702 12.886C684.666 12.94 684.63 13.03 684.612 13.084C684.594 13.138 684.54 13.228 684.486 13.282C684.432 13.336 684.36 13.426 684.324 13.48C684.198 13.678 684.054 13.714 682.632 13.714L682.398 13.552C682.272 13.462 682.092 13.354 682.002 13.318C681.804 13.246 681.57 13.102 681.444 12.976C681.354 12.904 681.336 12.904 681.318 12.958C681.3 12.994 681.282 13.048 681.282 13.066C681.264 13.102 681.246 13.264 681.228 13.426C681.174 13.966 681.084 14.56 681.03 14.794C680.976 15.01 680.94 15.262 680.832 16.162C680.76 16.81 680.742 16.918 680.706 17.008C680.688 17.044 680.67 17.17 680.652 17.278C680.616 17.728 680.598 17.818 680.508 17.872C680.4 17.944 680.256 17.908 680.184 17.8C680.112 17.674 680.076 16.288 680.148 15.91C680.166 15.766 680.202 15.586 680.202 15.514C680.22 15.442 680.256 15.298 680.274 15.19C680.31 15.064 680.328 14.938 680.31 14.83C680.292 14.722 680.292 14.596 680.31 14.542C680.328 14.488 680.364 14.38 680.382 14.29C680.418 14.11 680.49 13.894 680.616 13.498C680.67 13.354 680.706 13.192 680.706 13.138C680.706 13.084 680.724 12.994 680.76 12.94C680.832 12.814 680.922 12.436 680.922 12.31C680.922 12.256 680.94 12.166 680.958 12.094C681.012 11.896 681.174 10.978 681.192 10.816C681.21 10.69 681.228 10.618 681.318 10.258C681.336 10.186 681.372 10.024 681.39 9.88C681.444 9.376 681.516 9.106 681.606 9.052ZM683.946 9.772L683.784 9.682H683.406C683.19 9.682 682.92 9.7 682.794 9.718C682.668 9.754 682.452 9.79 682.092 9.826L682.002 10.024C681.948 10.132 681.894 10.294 681.876 10.384C681.858 10.474 681.822 10.636 681.786 10.744C681.75 10.852 681.696 11.122 681.66 11.356C681.624 11.59 681.57 11.896 681.534 12.058C681.498 12.22 681.48 12.346 681.48 12.364C681.48 12.364 681.534 12.382 681.588 12.4C681.678 12.436 681.714 12.49 681.822 12.706C681.84 12.742 682.002 12.832 682.182 12.922C682.362 13.012 682.56 13.12 682.632 13.174C682.758 13.264 682.776 13.264 683.226 13.264C683.802 13.264 683.946 13.246 683.982 13.138C684 13.084 684.036 13.03 684.072 13.012C684.162 12.958 684.252 12.634 684.252 12.346C684.252 10.474 684.198 10.006 683.946 9.772ZM688.274 4.57L688.202 4.588C688.31 4.48 688.328 4.48 688.454 4.534C688.562 4.588 688.634 4.786 688.706 5.218C688.778 5.686 688.76 5.974 688.562 7.648C688.526 7.99 688.472 8.404 688.454 8.566C688.436 8.728 688.418 8.944 688.364 9.268H690.254L690.344 9.358C690.452 9.466 690.452 9.574 690.362 9.664C690.29 9.736 690.236 9.736 688.346 9.736L688.328 9.898C688.31 9.988 688.292 10.294 688.274 10.564C688.256 10.834 688.22 11.158 688.202 11.284C688.184 11.392 688.166 11.59 688.166 11.716C688.166 11.842 688.148 12.022 688.13 12.13C688.076 12.364 687.986 13.066 687.986 13.21C687.986 13.264 687.968 13.372 687.95 13.444C687.932 13.57 687.932 13.588 687.986 13.552C688.022 13.534 688.328 13.516 688.652 13.498C689.39 13.462 689.534 13.408 689.858 13.048C690.092 12.778 690.146 12.742 690.29 12.796C690.542 12.904 690.488 13.138 690.128 13.48C689.786 13.822 689.3 13.966 688.562 13.966C688.526 13.966 688.328 13.984 688.13 14.002C687.428 14.056 687.428 14.056 687.536 12.958C687.554 12.76 687.59 12.508 687.608 12.382C687.626 12.256 687.662 12.04 687.68 11.896C687.698 11.752 687.752 11.428 687.788 11.194C687.824 10.942 687.86 10.582 687.86 10.312C687.86 10.06 687.878 9.844 687.896 9.79C687.95 9.664 687.95 9.664 687.266 9.664C686.582 9.664 686.51 9.646 686.51 9.412C686.51 9.196 686.6 9.16 687.95 9.16L687.968 8.944C688.004 8.53 688.076 7.972 688.112 7.792C688.13 7.702 688.166 7.468 688.184 7.27C688.202 7.072 688.238 6.676 688.274 6.406C688.346 5.794 688.346 5.56 688.274 5.182C688.166 4.66 688.166 4.678 688.274 4.57ZM692.852 7.756L692.834 7.666C692.888 7.576 693.068 7.558 693.176 7.648C693.23 7.702 693.23 7.756 693.23 8.116C693.23 8.656 693.194 9.25 693.158 9.304C693.14 9.322 693.122 9.556 693.104 9.808C693.086 10.06 693.05 10.384 693.014 10.528C692.978 10.654 692.942 10.996 692.924 11.284C692.906 11.572 692.888 11.824 692.888 11.86C692.852 11.932 692.798 12.472 692.762 13.102C692.744 13.768 692.726 13.804 692.51 13.804C692.294 13.804 692.258 13.678 692.276 13.048C692.276 12.742 692.294 12.418 692.33 12.328C692.402 12.04 692.456 11.572 692.492 11.068C692.51 10.816 692.546 10.564 692.564 10.51C692.582 10.456 692.618 10.204 692.636 9.952C692.654 9.7 692.69 9.43 692.708 9.358C692.726 9.286 692.762 8.908 692.78 8.53C692.798 8.044 692.816 7.828 692.852 7.756ZM696.457 9.376L696.403 9.43C696.709 9.268 696.997 9.25 697.861 9.322C698.563 9.376 699.049 9.772 699.355 10.528C699.517 10.942 699.427 11.95 699.175 12.508C699.121 12.616 699.067 12.76 699.049 12.832C698.941 13.192 698.617 13.678 698.347 13.894C698.167 14.038 698.167 14.038 697.879 14.038C697.537 14.038 697.321 13.984 697.141 13.84C696.835 13.606 696.475 13.264 696.367 13.084C696.313 12.976 696.187 12.778 696.097 12.634C695.917 12.364 695.881 12.31 695.773 12.058C695.719 11.95 695.719 11.95 695.467 11.95C695.071 11.95 694.981 11.752 695.125 11.14C695.161 11.014 695.179 10.87 695.179 10.816C695.179 10.762 695.215 10.672 695.251 10.618C695.287 10.564 695.323 10.492 695.323 10.456C695.323 10.402 695.413 10.222 695.467 10.186C695.485 10.168 695.557 10.06 695.629 9.934C695.755 9.7 695.953 9.538 696.133 9.52C696.169 9.52 696.313 9.448 696.457 9.376ZM697.915 9.808H697.897C696.817 9.754 696.835 9.754 696.691 9.826C696.403 9.97 696.133 10.096 696.097 10.096C696.061 10.096 695.737 10.636 695.737 10.708C695.737 10.744 695.701 10.816 695.665 10.87C695.593 10.978 695.575 11.176 695.629 11.176C695.665 11.176 696.205 11.932 696.205 11.986C696.205 12.166 696.781 12.976 697.105 13.264C697.411 13.534 697.483 13.57 697.843 13.57C698.023 13.57 698.023 13.57 698.131 13.39C698.203 13.3 698.311 13.156 698.365 13.084C698.473 12.922 698.581 12.67 698.581 12.544C698.581 12.508 698.617 12.436 698.653 12.4C698.905 12.076 699.013 11.068 698.851 10.618C698.689 10.186 698.275 9.826 697.915 9.808ZM701.312 8.8L701.24 8.764C701.402 8.584 701.654 8.728 701.708 9.034C701.726 9.124 701.762 9.304 701.798 9.43C701.87 9.646 701.906 9.862 702.068 11.014C702.104 11.23 702.14 11.464 702.194 11.662V11.536C702.194 11.464 702.212 11.23 702.248 10.996C702.284 10.78 702.302 10.564 702.284 10.546C702.23 10.384 702.464 9.862 702.698 9.646C702.86 9.502 703.472 9.412 704.606 9.448L704.894 9.628C705.056 9.718 705.218 9.808 705.236 9.826C705.344 9.862 705.812 10.654 705.812 10.78C705.812 10.816 705.866 10.996 705.92 11.176C706.1 11.734 706.208 13.174 706.1 13.498C706.028 13.714 705.83 13.768 705.596 13.534L705.614 12.85C705.632 11.986 705.596 11.626 705.47 11.248C705.416 11.086 705.362 10.924 705.362 10.888C705.362 10.726 705.02 10.204 704.84 10.114C704.75 10.06 704.624 9.988 704.552 9.952C704.372 9.844 703.76 9.826 703.418 9.916C703.274 9.952 703.13 9.988 703.094 10.006C702.914 10.024 702.788 10.312 702.788 10.69C702.788 10.798 702.77 10.978 702.752 11.086C702.734 11.194 702.716 11.392 702.716 11.518C702.698 11.644 702.68 11.806 702.662 11.878C702.644 11.95 702.626 12.13 702.626 12.274C702.626 12.418 702.59 12.652 702.554 12.814C702.518 12.976 702.482 13.192 702.482 13.3C702.464 13.588 702.446 13.624 702.338 13.678C702.14 13.768 702.032 13.66 702.014 13.318C701.978 12.886 701.96 12.778 701.906 12.652C701.87 12.598 701.852 12.526 701.852 12.49C701.852 12.346 701.654 10.852 701.582 10.528C701.564 10.42 701.546 10.24 701.528 10.114C701.51 9.988 701.456 9.736 701.402 9.574C701.258 9.142 701.222 8.89 701.312 8.8ZM708.836 7.72H708.818C709.088 7.648 709.268 7.756 709.25 7.972C709.232 8.08 709.232 8.098 709.322 8.098C709.7 8.098 709.664 8.836 709.268 9.07C709.178 9.124 709.088 9.142 708.584 9.142L708.422 8.98C708.278 8.818 708.278 8.8 708.278 8.548C708.278 8.17 708.512 7.81 708.836 7.72ZM708.872 8.296C708.89 8.242 708.89 8.224 708.872 8.224C708.818 8.224 708.764 8.35 708.746 8.494C708.728 8.62 708.728 8.62 708.998 8.62L708.908 8.53C708.818 8.44 708.818 8.404 708.872 8.296ZM708.35 11.554L708.404 11.518C708.836 11.284 709.232 11.392 709.412 11.806C709.538 12.076 709.61 13.048 709.52 13.282C709.358 13.696 708.782 13.57 708.026 12.886L708.044 12.418C708.062 11.788 708.098 11.698 708.35 11.554ZM708.998 12.004H709.034C708.962 11.86 708.872 11.842 708.71 11.932C708.602 12.004 708.602 12.022 708.602 12.256C708.602 12.508 708.674 12.652 708.782 12.652C708.8 12.652 708.836 12.706 708.854 12.778C708.89 12.886 708.998 12.976 709.088 12.976C709.142 12.976 709.07 12.13 708.998 12.004Z" fill="black"/>
</svg>
