<svg width="116" height="90" viewBox="0 0 116 90" fill="none" xmlns="http://www.w3.org/2000/svg">
<g filter="url(#filter0_f_1401_1834)">
<rect x="16.7998" y="16.7998" width="82.3474" height="56.3921" fill="white"/>
<rect x="17.2998" y="17.2998" width="81.3474" height="55.3921" stroke="black"/>
</g>
<mask id="path-3-outside-1_1401_1834" maskUnits="userSpaceOnUse" x="30.9736" y="36.4961" width="53" height="28" fill="black">
<rect fill="white" x="30.9736" y="36.4961" width="53" height="28"/>
<path d="M35.9316 45.2141L36.0056 45.1771C36.3016 44.9181 36.7456 45.1401 36.7456 45.5101C36.7456 45.8061 37.2266 45.8061 38.5956 45.5101C38.8916 45.4361 39.4096 45.3991 39.9646 45.4361C40.8526 45.4361 40.8526 45.4361 41.0746 45.6581C42.0736 46.5831 42.2216 47.0271 42.3326 49.5431C42.4066 51.9851 42.4066 52.8731 42.2956 53.0951C42.2216 53.2061 42.1476 53.3911 42.1106 53.5021C42.0736 53.6131 41.9626 53.7981 41.8516 53.9091C41.7406 54.0201 41.5926 54.2051 41.5186 54.3161C41.2596 54.7231 40.9636 54.7971 38.0406 54.7971L37.5596 54.4641C37.3006 54.2791 36.9306 54.0571 36.7456 53.9831C36.3386 53.8351 35.8576 53.5391 35.5986 53.2801C35.4136 53.1321 35.3766 53.1321 35.3396 53.2431C35.3026 53.3171 35.2656 53.4281 35.2656 53.4651C35.2286 53.5391 35.1916 53.8721 35.1546 54.2051C35.0436 55.3151 34.8586 56.5361 34.7476 57.0171C34.6366 57.4611 34.5626 57.9791 34.3406 59.8291C34.1926 61.1611 34.1556 61.3831 34.0816 61.5681C34.0446 61.6421 34.0076 61.9011 33.9706 62.1231C33.8966 63.0481 33.8596 63.2331 33.6746 63.3441C33.4526 63.4921 33.1566 63.4181 33.0086 63.1961C32.8606 62.9371 32.7866 60.0881 32.9346 59.3111C32.9716 59.0151 33.0456 58.6451 33.0456 58.4971C33.0826 58.3491 33.1566 58.0531 33.1936 57.8311C33.2676 57.5721 33.3046 57.3131 33.2676 57.0911C33.2306 56.8691 33.2306 56.6101 33.2676 56.4991C33.3046 56.3881 33.3786 56.1661 33.4156 55.9811C33.4896 55.6111 33.6376 55.1671 33.8966 54.3531C34.0076 54.0571 34.0816 53.7241 34.0816 53.6131C34.0816 53.5021 34.1186 53.3171 34.1926 53.2061C34.3406 52.9471 34.5256 52.1701 34.5256 51.9111C34.5256 51.8001 34.5626 51.6151 34.5996 51.4671C34.7106 51.0601 35.0436 49.1731 35.0806 48.8401C35.1176 48.5811 35.1546 48.4331 35.3396 47.6931C35.3766 47.5451 35.4506 47.2121 35.4876 46.9161C35.5986 45.8801 35.7466 45.3251 35.9316 45.2141ZM40.7416 46.6941L40.4086 46.5091H39.6316C39.1876 46.5091 38.6326 46.5461 38.3736 46.5831C38.1146 46.6571 37.6706 46.7311 36.9306 46.8051L36.7456 47.2121C36.6346 47.4341 36.5236 47.7671 36.4866 47.9521C36.4496 48.1371 36.3756 48.4701 36.3016 48.6921C36.2276 48.9141 36.1166 49.4691 36.0426 49.9501C35.9686 50.4311 35.8576 51.0601 35.7836 51.3931C35.7096 51.7261 35.6726 51.9851 35.6726 52.0221C35.6726 52.0221 35.7836 52.0591 35.8946 52.0961C36.0796 52.1701 36.1536 52.2811 36.3756 52.7251C36.4126 52.7991 36.7456 52.9841 37.1156 53.1691C37.4856 53.3541 37.8926 53.5761 38.0406 53.6871C38.2996 53.8721 38.3366 53.8721 39.2616 53.8721C40.4456 53.8721 40.7416 53.8351 40.8156 53.6131C40.8526 53.5021 40.9266 53.3911 41.0006 53.3541C41.1856 53.2431 41.3706 52.5771 41.3706 51.9851C41.3706 48.1371 41.2596 47.1751 40.7416 46.6941ZM47.9722 38.6281L48.5642 38.2951H49.9332C50.6732 38.2951 51.4502 38.3321 51.6352 38.3691C51.8202 38.4061 52.1532 38.4431 52.3382 38.4431C52.8562 38.4431 53.5222 38.5911 53.7812 38.7391C54.0032 38.8871 54.5952 38.9981 54.8172 38.9611C55.0022 38.9241 55.8532 39.1831 56.0012 39.3311C56.3712 39.6271 55.9642 40.2191 55.4462 40.1081C55.2982 40.0711 54.9282 40.0341 54.5952 39.9971C53.9292 39.9231 53.6702 39.8491 53.3002 39.6271C53.1152 39.5161 52.8562 39.4791 52.3382 39.4421C51.9312 39.4051 51.4872 39.3681 51.3762 39.3311C51.2282 39.2941 50.5622 39.2571 49.8962 39.2571C48.4902 39.2571 48.0832 39.3311 47.8242 39.7381C47.5282 40.1451 47.6762 41.5141 48.1942 42.9941C48.3422 43.4011 48.4902 43.8821 48.5272 44.0671C48.6382 44.8071 49.0082 45.9541 49.0082 45.5471C49.0082 45.3251 49.7112 44.6961 50.2292 44.4371C51.5242 43.8081 54.8542 43.4381 55.6312 43.8081C55.8902 43.9561 56.5192 44.4741 56.5192 44.5481C56.5192 44.5851 56.5932 44.6961 56.6672 44.8071C56.8152 45.0291 57.0742 45.7691 57.3702 46.7681C57.5552 47.4711 57.5922 49.6171 57.4072 50.2091C57.3702 50.3941 57.2962 50.6901 57.2592 50.8381C57.1482 51.4301 56.7782 52.3551 56.6302 52.4661C56.5562 52.5031 56.0752 53.3911 55.5572 54.3901C55.2982 54.8711 54.3732 55.4261 53.7442 55.5001C53.1892 55.5741 51.4872 55.5001 51.2282 55.3891C50.8212 55.2411 50.2662 55.1671 48.3792 54.9821C48.0832 54.9451 47.1212 54.5751 46.5292 54.2421C46.0112 53.9461 45.9002 53.2801 46.3072 53.0581C46.5662 52.9101 46.7142 52.9841 47.1212 53.3541C47.2692 53.5021 47.4172 53.6131 47.4542 53.6131C47.4912 53.6131 47.6762 53.6871 47.8242 53.7611C48.1942 53.9461 48.5642 54.0201 49.7112 54.1311C50.1552 54.1681 50.7842 54.2791 51.1172 54.3531C51.8202 54.5381 53.1152 54.6121 53.5592 54.5011C54.2622 54.3161 54.4102 54.2051 54.7432 53.6131C55.0392 53.0951 55.5572 52.2441 55.7422 51.9851C56.0382 51.5781 56.2602 50.9491 56.2602 50.6161C56.2602 50.4311 56.2972 50.1721 56.3712 50.0241C56.5192 49.6911 56.5562 47.6931 56.4082 47.4711C56.3712 47.3971 56.3342 47.1751 56.2972 46.9901C56.1862 46.1391 55.6682 45.0661 55.2982 44.8441C54.8172 44.5851 52.0052 44.8441 51.1172 45.2511C50.9692 45.3251 50.7102 45.4361 50.5622 45.5101C50.0072 45.7321 49.3782 46.5831 49.3412 47.1751C49.3042 47.6191 49.1192 47.8411 48.7862 47.8411C48.4162 47.8411 48.2682 47.5821 48.1942 46.8791C48.1572 46.5091 48.0832 46.1391 48.0092 45.9541C47.9352 45.8061 47.7872 45.3251 47.6762 44.9181C47.5282 44.1781 47.3062 43.3641 47.1212 42.9201C46.9732 42.4761 46.7512 40.9961 46.7512 40.4041C46.7512 39.4051 47.0102 38.9981 47.9722 38.6281ZM66.774 41.9211L66.811 41.8471C67.07 41.5141 67.551 41.6621 67.625 42.1431C67.662 42.2541 67.699 42.4391 67.736 42.5501C67.773 42.6611 67.921 43.2531 68.032 43.8451C68.143 44.4371 68.291 45.1031 68.365 45.3251C68.624 46.2871 68.735 47.8411 68.735 50.8751C68.735 52.2811 68.661 52.6141 67.995 53.8351C67.44 54.8341 66.404 55.6851 65.738 55.6851C65.627 55.6851 65.405 55.7221 65.257 55.7961C65.072 55.8701 64.665 55.9071 63.407 55.9071L62.778 55.4261C62.408 55.1301 62.112 54.8341 62.001 54.6121C61.705 54.0941 61.261 52.7991 61.261 52.4291C61.261 51.8001 62.112 51.7631 62.26 52.3921C62.63 54.1311 63.259 54.9081 64.295 54.9081C64.591 54.9081 64.998 54.8711 65.183 54.7971C65.368 54.7231 65.553 54.6861 65.553 54.7231C65.738 54.9081 66.959 53.8351 67.144 53.3541C67.181 53.2061 67.255 53.0581 67.292 52.9841C67.625 52.4291 67.81 51.6151 67.773 50.7271C67.662 47.5081 67.588 46.1761 67.477 45.8431C67.292 45.2511 67.144 44.6221 67.033 43.8821C66.959 43.5121 66.848 43.0681 66.774 42.9201C66.589 42.5501 66.589 42.1801 66.774 41.9211ZM74.9782 40.4041L74.8672 40.7001C75.4592 40.5521 75.7922 40.5891 76.2362 40.8481C76.4582 40.9961 76.6802 41.1071 76.7172 41.1071C76.8282 41.1071 77.8272 41.9581 77.9382 42.1431C78.0122 42.2541 78.2342 42.5871 78.4562 42.9201C79.0112 43.7711 79.6032 45.0291 79.5662 45.2511C79.4552 45.6581 78.9372 45.6951 78.6412 45.3251C78.4562 45.0661 78.4192 45.0291 77.9382 44.0301C77.7902 43.6971 77.5682 43.3271 77.4572 43.2161C77.3462 43.1051 77.1982 42.9201 77.1612 42.8091C77.0872 42.5501 76.5322 42.1061 75.9032 41.7731C75.5332 41.5881 75.4592 41.5881 75.2002 41.6251C74.9042 41.6991 74.1642 42.2911 74.1642 42.4761C74.1642 42.5131 74.0532 42.7351 73.8682 42.9571C73.3872 43.6601 73.3502 43.8451 73.3132 46.0651C73.2762 47.1751 73.2762 47.2491 73.4612 47.6191C73.7202 48.1371 73.7202 48.1371 75.4222 48.2851C76.2362 48.3591 77.1982 48.4701 77.5682 48.5071C77.9382 48.5441 78.3822 48.5811 78.5302 48.5811C79.5292 48.6551 80.8982 49.2841 81.4902 49.9131C82.0452 50.5421 82.0822 50.6531 82.0822 51.9111C82.0822 53.1691 82.0452 53.3171 81.4902 53.7611C81.2312 53.9461 80.0472 54.5011 79.8992 54.5011C79.8622 54.5011 79.6402 54.5751 79.3812 54.6861C78.3082 55.0931 75.5332 55.2411 75.3112 54.8711C74.8672 54.2791 74.4602 53.4281 74.4602 53.1321C74.4602 52.9101 74.7192 52.6881 74.9782 52.6881C75.2742 52.6881 75.4962 52.9101 75.6072 53.2801C75.6442 53.4651 75.7552 53.6871 76.0142 53.9831H76.9762C77.8642 53.9831 78.4932 53.8721 78.9742 53.6501C79.0482 53.6131 79.2332 53.5391 79.4182 53.4651C79.5662 53.3911 79.7512 53.3541 79.8252 53.3541C80.0102 53.3541 80.7502 52.9841 81.0092 52.7621C81.1572 52.6141 81.1572 52.5401 81.1572 50.8011L80.8242 50.4311C80.1212 49.6541 79.2332 49.3951 75.9772 49.0991C73.2022 48.8401 73.2022 48.8401 72.3882 47.2861V46.1021C72.3882 43.8451 72.5362 42.9571 72.9802 42.4021C73.0172 42.3651 73.1652 42.1061 73.3132 41.8471C73.4612 41.5511 73.6092 41.3291 73.7202 41.2921C73.7942 41.2551 73.9422 41.1441 74.0162 41.0701C74.2382 40.7741 74.6822 40.4781 74.9782 40.4041Z"/>
</mask>
<path d="M35.9316 45.2141L36.0056 45.1771C36.3016 44.9181 36.7456 45.1401 36.7456 45.5101C36.7456 45.8061 37.2266 45.8061 38.5956 45.5101C38.8916 45.4361 39.4096 45.3991 39.9646 45.4361C40.8526 45.4361 40.8526 45.4361 41.0746 45.6581C42.0736 46.5831 42.2216 47.0271 42.3326 49.5431C42.4066 51.9851 42.4066 52.8731 42.2956 53.0951C42.2216 53.2061 42.1476 53.3911 42.1106 53.5021C42.0736 53.6131 41.9626 53.7981 41.8516 53.9091C41.7406 54.0201 41.5926 54.2051 41.5186 54.3161C41.2596 54.7231 40.9636 54.7971 38.0406 54.7971L37.5596 54.4641C37.3006 54.2791 36.9306 54.0571 36.7456 53.9831C36.3386 53.8351 35.8576 53.5391 35.5986 53.2801C35.4136 53.1321 35.3766 53.1321 35.3396 53.2431C35.3026 53.3171 35.2656 53.4281 35.2656 53.4651C35.2286 53.5391 35.1916 53.8721 35.1546 54.2051C35.0436 55.3151 34.8586 56.5361 34.7476 57.0171C34.6366 57.4611 34.5626 57.9791 34.3406 59.8291C34.1926 61.1611 34.1556 61.3831 34.0816 61.5681C34.0446 61.6421 34.0076 61.9011 33.9706 62.1231C33.8966 63.0481 33.8596 63.2331 33.6746 63.3441C33.4526 63.4921 33.1566 63.4181 33.0086 63.1961C32.8606 62.9371 32.7866 60.0881 32.9346 59.3111C32.9716 59.0151 33.0456 58.6451 33.0456 58.4971C33.0826 58.3491 33.1566 58.0531 33.1936 57.8311C33.2676 57.5721 33.3046 57.3131 33.2676 57.0911C33.2306 56.8691 33.2306 56.6101 33.2676 56.4991C33.3046 56.3881 33.3786 56.1661 33.4156 55.9811C33.4896 55.6111 33.6376 55.1671 33.8966 54.3531C34.0076 54.0571 34.0816 53.7241 34.0816 53.6131C34.0816 53.5021 34.1186 53.3171 34.1926 53.2061C34.3406 52.9471 34.5256 52.1701 34.5256 51.9111C34.5256 51.8001 34.5626 51.6151 34.5996 51.4671C34.7106 51.0601 35.0436 49.1731 35.0806 48.8401C35.1176 48.5811 35.1546 48.4331 35.3396 47.6931C35.3766 47.5451 35.4506 47.2121 35.4876 46.9161C35.5986 45.8801 35.7466 45.3251 35.9316 45.2141ZM40.7416 46.6941L40.4086 46.5091H39.6316C39.1876 46.5091 38.6326 46.5461 38.3736 46.5831C38.1146 46.6571 37.6706 46.7311 36.9306 46.8051L36.7456 47.2121C36.6346 47.4341 36.5236 47.7671 36.4866 47.9521C36.4496 48.1371 36.3756 48.4701 36.3016 48.6921C36.2276 48.9141 36.1166 49.4691 36.0426 49.9501C35.9686 50.4311 35.8576 51.0601 35.7836 51.3931C35.7096 51.7261 35.6726 51.9851 35.6726 52.0221C35.6726 52.0221 35.7836 52.0591 35.8946 52.0961C36.0796 52.1701 36.1536 52.2811 36.3756 52.7251C36.4126 52.7991 36.7456 52.9841 37.1156 53.1691C37.4856 53.3541 37.8926 53.5761 38.0406 53.6871C38.2996 53.8721 38.3366 53.8721 39.2616 53.8721C40.4456 53.8721 40.7416 53.8351 40.8156 53.6131C40.8526 53.5021 40.9266 53.3911 41.0006 53.3541C41.1856 53.2431 41.3706 52.5771 41.3706 51.9851C41.3706 48.1371 41.2596 47.1751 40.7416 46.6941ZM47.9722 38.6281L48.5642 38.2951H49.9332C50.6732 38.2951 51.4502 38.3321 51.6352 38.3691C51.8202 38.4061 52.1532 38.4431 52.3382 38.4431C52.8562 38.4431 53.5222 38.5911 53.7812 38.7391C54.0032 38.8871 54.5952 38.9981 54.8172 38.9611C55.0022 38.9241 55.8532 39.1831 56.0012 39.3311C56.3712 39.6271 55.9642 40.2191 55.4462 40.1081C55.2982 40.0711 54.9282 40.0341 54.5952 39.9971C53.9292 39.9231 53.6702 39.8491 53.3002 39.6271C53.1152 39.5161 52.8562 39.4791 52.3382 39.4421C51.9312 39.4051 51.4872 39.3681 51.3762 39.3311C51.2282 39.2941 50.5622 39.2571 49.8962 39.2571C48.4902 39.2571 48.0832 39.3311 47.8242 39.7381C47.5282 40.1451 47.6762 41.5141 48.1942 42.9941C48.3422 43.4011 48.4902 43.8821 48.5272 44.0671C48.6382 44.8071 49.0082 45.9541 49.0082 45.5471C49.0082 45.3251 49.7112 44.6961 50.2292 44.4371C51.5242 43.8081 54.8542 43.4381 55.6312 43.8081C55.8902 43.9561 56.5192 44.4741 56.5192 44.5481C56.5192 44.5851 56.5932 44.6961 56.6672 44.8071C56.8152 45.0291 57.0742 45.7691 57.3702 46.7681C57.5552 47.4711 57.5922 49.6171 57.4072 50.2091C57.3702 50.3941 57.2962 50.6901 57.2592 50.8381C57.1482 51.4301 56.7782 52.3551 56.6302 52.4661C56.5562 52.5031 56.0752 53.3911 55.5572 54.3901C55.2982 54.8711 54.3732 55.4261 53.7442 55.5001C53.1892 55.5741 51.4872 55.5001 51.2282 55.3891C50.8212 55.2411 50.2662 55.1671 48.3792 54.9821C48.0832 54.9451 47.1212 54.5751 46.5292 54.2421C46.0112 53.9461 45.9002 53.2801 46.3072 53.0581C46.5662 52.9101 46.7142 52.9841 47.1212 53.3541C47.2692 53.5021 47.4172 53.6131 47.4542 53.6131C47.4912 53.6131 47.6762 53.6871 47.8242 53.7611C48.1942 53.9461 48.5642 54.0201 49.7112 54.1311C50.1552 54.1681 50.7842 54.2791 51.1172 54.3531C51.8202 54.5381 53.1152 54.6121 53.5592 54.5011C54.2622 54.3161 54.4102 54.2051 54.7432 53.6131C55.0392 53.0951 55.5572 52.2441 55.7422 51.9851C56.0382 51.5781 56.2602 50.9491 56.2602 50.6161C56.2602 50.4311 56.2972 50.1721 56.3712 50.0241C56.5192 49.6911 56.5562 47.6931 56.4082 47.4711C56.3712 47.3971 56.3342 47.1751 56.2972 46.9901C56.1862 46.1391 55.6682 45.0661 55.2982 44.8441C54.8172 44.5851 52.0052 44.8441 51.1172 45.2511C50.9692 45.3251 50.7102 45.4361 50.5622 45.5101C50.0072 45.7321 49.3782 46.5831 49.3412 47.1751C49.3042 47.6191 49.1192 47.8411 48.7862 47.8411C48.4162 47.8411 48.2682 47.5821 48.1942 46.8791C48.1572 46.5091 48.0832 46.1391 48.0092 45.9541C47.9352 45.8061 47.7872 45.3251 47.6762 44.9181C47.5282 44.1781 47.3062 43.3641 47.1212 42.9201C46.9732 42.4761 46.7512 40.9961 46.7512 40.4041C46.7512 39.4051 47.0102 38.9981 47.9722 38.6281ZM66.774 41.9211L66.811 41.8471C67.07 41.5141 67.551 41.6621 67.625 42.1431C67.662 42.2541 67.699 42.4391 67.736 42.5501C67.773 42.6611 67.921 43.2531 68.032 43.8451C68.143 44.4371 68.291 45.1031 68.365 45.3251C68.624 46.2871 68.735 47.8411 68.735 50.8751C68.735 52.2811 68.661 52.6141 67.995 53.8351C67.44 54.8341 66.404 55.6851 65.738 55.6851C65.627 55.6851 65.405 55.7221 65.257 55.7961C65.072 55.8701 64.665 55.9071 63.407 55.9071L62.778 55.4261C62.408 55.1301 62.112 54.8341 62.001 54.6121C61.705 54.0941 61.261 52.7991 61.261 52.4291C61.261 51.8001 62.112 51.7631 62.26 52.3921C62.63 54.1311 63.259 54.9081 64.295 54.9081C64.591 54.9081 64.998 54.8711 65.183 54.7971C65.368 54.7231 65.553 54.6861 65.553 54.7231C65.738 54.9081 66.959 53.8351 67.144 53.3541C67.181 53.2061 67.255 53.0581 67.292 52.9841C67.625 52.4291 67.81 51.6151 67.773 50.7271C67.662 47.5081 67.588 46.1761 67.477 45.8431C67.292 45.2511 67.144 44.6221 67.033 43.8821C66.959 43.5121 66.848 43.0681 66.774 42.9201C66.589 42.5501 66.589 42.1801 66.774 41.9211ZM74.9782 40.4041L74.8672 40.7001C75.4592 40.5521 75.7922 40.5891 76.2362 40.8481C76.4582 40.9961 76.6802 41.1071 76.7172 41.1071C76.8282 41.1071 77.8272 41.9581 77.9382 42.1431C78.0122 42.2541 78.2342 42.5871 78.4562 42.9201C79.0112 43.7711 79.6032 45.0291 79.5662 45.2511C79.4552 45.6581 78.9372 45.6951 78.6412 45.3251C78.4562 45.0661 78.4192 45.0291 77.9382 44.0301C77.7902 43.6971 77.5682 43.3271 77.4572 43.2161C77.3462 43.1051 77.1982 42.9201 77.1612 42.8091C77.0872 42.5501 76.5322 42.1061 75.9032 41.7731C75.5332 41.5881 75.4592 41.5881 75.2002 41.6251C74.9042 41.6991 74.1642 42.2911 74.1642 42.4761C74.1642 42.5131 74.0532 42.7351 73.8682 42.9571C73.3872 43.6601 73.3502 43.8451 73.3132 46.0651C73.2762 47.1751 73.2762 47.2491 73.4612 47.6191C73.7202 48.1371 73.7202 48.1371 75.4222 48.2851C76.2362 48.3591 77.1982 48.4701 77.5682 48.5071C77.9382 48.5441 78.3822 48.5811 78.5302 48.5811C79.5292 48.6551 80.8982 49.2841 81.4902 49.9131C82.0452 50.5421 82.0822 50.6531 82.0822 51.9111C82.0822 53.1691 82.0452 53.3171 81.4902 53.7611C81.2312 53.9461 80.0472 54.5011 79.8992 54.5011C79.8622 54.5011 79.6402 54.5751 79.3812 54.6861C78.3082 55.0931 75.5332 55.2411 75.3112 54.8711C74.8672 54.2791 74.4602 53.4281 74.4602 53.1321C74.4602 52.9101 74.7192 52.6881 74.9782 52.6881C75.2742 52.6881 75.4962 52.9101 75.6072 53.2801C75.6442 53.4651 75.7552 53.6871 76.0142 53.9831H76.9762C77.8642 53.9831 78.4932 53.8721 78.9742 53.6501C79.0482 53.6131 79.2332 53.5391 79.4182 53.4651C79.5662 53.3911 79.7512 53.3541 79.8252 53.3541C80.0102 53.3541 80.7502 52.9841 81.0092 52.7621C81.1572 52.6141 81.1572 52.5401 81.1572 50.8011L80.8242 50.4311C80.1212 49.6541 79.2332 49.3951 75.9772 49.0991C73.2022 48.8401 73.2022 48.8401 72.3882 47.2861V46.1021C72.3882 43.8451 72.5362 42.9571 72.9802 42.4021C73.0172 42.3651 73.1652 42.1061 73.3132 41.8471C73.4612 41.5511 73.6092 41.3291 73.7202 41.2921C73.7942 41.2551 73.9422 41.1441 74.0162 41.0701C74.2382 40.7741 74.6822 40.4781 74.9782 40.4041Z" fill="#D2D2D2"/>
<path d="M35.9316 45.2141L35.4844 44.3197L35.4501 44.3368L35.4171 44.3566L35.9316 45.2141ZM36.0056 45.1771L36.4529 46.0715L36.5676 46.0141L36.6641 45.9297L36.0056 45.1771ZM38.5956 45.5101L38.807 46.4875L38.8226 46.4841L38.8382 46.4802L38.5956 45.5101ZM39.9646 45.4361L39.8981 46.4339L39.9313 46.4361H39.9646V45.4361ZM41.0746 45.6581L40.3675 46.3652L40.3811 46.3788L40.3952 46.3919L41.0746 45.6581ZM42.3326 49.5431L43.3323 49.5128L43.3317 49.499L42.3326 49.5431ZM42.2956 53.0951L43.1277 53.6498L43.1622 53.598L43.1901 53.5423L42.2956 53.0951ZM42.1106 53.5021L43.0593 53.8183L43.0593 53.8183L42.1106 53.5021ZM41.8516 53.9091L41.1445 53.202L41.1445 53.202L41.8516 53.9091ZM41.5186 54.3161L40.6866 53.7614L40.6807 53.7702L40.675 53.7792L41.5186 54.3161ZM38.0406 54.7971L37.4714 55.6193L37.7283 55.7971H38.0406V54.7971ZM37.5596 54.4641L36.9784 55.2778L36.9844 55.2821L36.9904 55.2863L37.5596 54.4641ZM36.7456 53.9831L37.117 53.0546L37.1023 53.0487L37.0874 53.0433L36.7456 53.9831ZM35.5986 53.2801L36.3057 52.573L36.2666 52.5338L36.2233 52.4992L35.5986 53.2801ZM35.3396 53.2431L36.2341 53.6903L36.2658 53.6267L36.2883 53.5593L35.3396 53.2431ZM35.2656 53.4651L36.1601 53.9123L36.2656 53.7012V53.4651H35.2656ZM35.1546 54.2051L34.1607 54.0947L34.1596 54.1056L35.1546 54.2051ZM34.7476 57.0171L35.7178 57.2596L35.72 57.2508L35.722 57.242L34.7476 57.0171ZM34.3406 59.8291L33.3477 59.7099L33.3467 59.7187L34.3406 59.8291ZM34.0816 61.5681L34.9761 62.0153L34.9947 61.9781L35.0101 61.9395L34.0816 61.5681ZM33.9706 62.1231L32.9842 61.9587L32.9772 62.0008L32.9738 62.0434L33.9706 62.1231ZM33.6746 63.3441L33.1601 62.4866L33.1397 62.4988L33.1199 62.512L33.6746 63.3441ZM33.0086 63.1961L32.1404 63.6922L32.1575 63.7221L32.1766 63.7508L33.0086 63.1961ZM32.9346 59.3111L33.917 59.4982L33.9229 59.4668L33.9269 59.4351L32.9346 59.3111ZM33.0456 58.4971L32.0755 58.2546L32.0456 58.374V58.4971H33.0456ZM33.1936 57.8311L32.2321 57.5564L32.2165 57.6108L32.2072 57.6667L33.1936 57.8311ZM33.2676 57.0911L34.254 56.9267V56.9267L33.2676 57.0911ZM33.2676 56.4991L34.2163 56.8153H34.2163L33.2676 56.4991ZM33.4156 55.9811L32.4351 55.785L32.4351 55.785L33.4156 55.9811ZM33.8966 54.3531L32.9603 54.002L32.9514 54.0257L32.9437 54.0499L33.8966 54.3531ZM34.1926 53.2061L35.0247 53.7608L35.0438 53.7321L35.0609 53.7022L34.1926 53.2061ZM34.5996 51.4671L33.6349 51.204L33.6321 51.2142L33.6295 51.2246L34.5996 51.4671ZM35.0806 48.8401L34.0907 48.6987L34.0885 48.7141L34.0867 48.7297L35.0806 48.8401ZM35.3396 47.6931L36.3098 47.9356L36.3098 47.9356L35.3396 47.6931ZM35.4876 46.9161L36.4799 47.0401L36.481 47.0314L36.4819 47.0226L35.4876 46.9161ZM40.7416 46.6941L41.4221 45.9613L41.3332 45.8788L41.2273 45.8199L40.7416 46.6941ZM40.4086 46.5091L40.8943 45.6349L40.6678 45.5091H40.4086V46.5091ZM38.3736 46.5831L38.2322 45.5931L38.1646 45.6028L38.0989 45.6216L38.3736 46.5831ZM36.9306 46.8051L36.8311 45.8101L36.2584 45.8673L36.0203 46.3913L36.9306 46.8051ZM36.7456 47.2121L37.6401 47.6593L37.6483 47.6427L37.656 47.6259L36.7456 47.2121ZM36.3016 48.6921L35.353 48.3759L35.3529 48.3759L36.3016 48.6921ZM35.7836 51.3931L36.7598 51.61H36.7598L35.7836 51.3931ZM35.6726 52.0221H34.6726V52.7429L35.3564 52.9708L35.6726 52.0221ZM35.8946 52.0961L36.266 51.1676L36.2387 51.1567L36.2109 51.1474L35.8946 52.0961ZM36.3756 52.7251L37.2701 52.2779L37.2701 52.2779L36.3756 52.7251ZM37.1156 53.1691L36.6684 54.0635H36.6684L37.1156 53.1691ZM38.0406 53.6871L37.4406 54.4871L37.4499 54.4941L37.4594 54.5008L38.0406 53.6871ZM40.8156 53.6131L39.867 53.2969L39.867 53.2969L40.8156 53.6131ZM41.0006 53.3541L41.4478 54.2485L41.4822 54.2313L41.5151 54.2116L41.0006 53.3541ZM35.9316 45.2141L36.3789 46.1085L36.4529 46.0715L36.0056 45.1771L35.5584 44.2827L35.4844 44.3197L35.9316 45.2141ZM36.0056 45.1771L36.6641 45.9297C36.2836 46.2626 35.7456 45.9593 35.7456 45.5101H36.7456H37.7456C37.7456 44.3209 36.3196 43.5736 35.3471 44.4245L36.0056 45.1771ZM36.7456 45.5101H35.7456C35.7456 45.6844 35.782 45.8952 35.9003 46.1026C36.02 46.3125 36.1884 46.4572 36.3559 46.5504C36.6514 46.7148 36.9661 46.7321 37.1573 46.7321C37.5696 46.7321 38.1301 46.6339 38.807 46.4875L38.5956 45.5101L38.3843 44.5327C37.6922 44.6823 37.3277 44.7321 37.1573 44.7321C37.057 44.7321 37.166 44.7124 37.3285 44.8028C37.4295 44.859 37.5496 44.9574 37.6376 45.1118C37.7243 45.2638 37.7456 45.4098 37.7456 45.5101H36.7456ZM38.5956 45.5101L38.8382 46.4802C38.9972 46.4405 39.402 46.4008 39.8981 46.4339L39.9646 45.4361L40.0312 44.4383C39.4173 44.3974 38.786 44.4317 38.3531 44.54L38.5956 45.5101ZM39.9646 45.4361V46.4361C40.1924 46.4361 40.3429 46.4362 40.4545 46.4392C40.5729 46.4424 40.5919 46.4482 40.5733 46.4444C40.5572 46.4412 40.5237 46.4332 40.4808 46.4156C40.4359 46.3972 40.3959 46.3746 40.3632 46.3519C40.3337 46.3315 40.3176 46.3162 40.3208 46.3191C40.3265 46.3244 40.336 46.3337 40.3675 46.3652L41.0746 45.6581L41.7817 44.951C41.7453 44.9146 41.6362 44.8007 41.5016 44.7076C41.3307 44.5892 41.1515 44.5205 40.9655 44.4833C40.7022 44.4306 40.3438 44.4361 39.9646 44.4361V45.4361ZM41.0746 45.6581L40.3952 46.3919C40.847 46.8101 40.9877 47.0116 41.0855 47.3129C41.212 47.7022 41.2769 48.302 41.3336 49.5872L42.3326 49.5431L43.3317 49.499C43.2774 48.2682 43.2128 47.388 42.9877 46.6951C42.7341 45.9141 42.3013 45.4311 41.754 44.9243L41.0746 45.6581ZM42.3326 49.5431L41.3331 49.5734C41.3702 50.7967 41.388 51.6105 41.3835 52.1433C41.3813 52.4111 41.3735 52.5857 41.3631 52.6956C41.349 52.8443 41.3379 52.7744 41.4012 52.6479L42.2956 53.0951L43.1901 53.5423C43.3088 53.3048 43.3394 53.0407 43.3542 52.8841C43.3727 52.6888 43.3811 52.4471 43.3835 52.1599C43.3883 51.5827 43.3691 50.7315 43.3322 49.5128L42.3326 49.5431ZM42.2956 53.0951L41.4636 52.5404C41.3136 52.7653 41.2061 53.0533 41.1619 53.1859L42.1106 53.5021L43.0593 53.8183C43.0687 53.7902 43.0857 53.7445 43.1054 53.6994C43.1149 53.6776 43.1231 53.6606 43.1291 53.6489C43.136 53.6357 43.1358 53.6376 43.1277 53.6498L42.2956 53.0951ZM42.1106 53.5021L41.162 53.1859C41.1676 53.1691 41.1721 53.1582 41.1739 53.154C41.1758 53.1493 41.1766 53.1479 41.1757 53.1497C41.1749 53.1513 41.1732 53.1546 41.1705 53.1595C41.1678 53.1642 41.1646 53.1697 41.1609 53.1756C41.1532 53.188 41.1457 53.1985 41.1401 53.2058C41.1375 53.2093 41.1361 53.2108 41.1363 53.2107C41.1364 53.2106 41.139 53.2075 41.1445 53.202L41.8516 53.9091L42.5587 54.6162C42.7746 54.4003 42.9711 54.0831 43.0593 53.8183L42.1106 53.5021ZM41.8516 53.9091L41.1445 53.202C40.9829 53.3636 40.7938 53.6006 40.6866 53.7614L41.5186 54.3161L42.3507 54.8708C42.3646 54.8499 42.3994 54.8022 42.4474 54.7432C42.4954 54.6841 42.5363 54.6386 42.5587 54.6162L41.8516 53.9091ZM41.5186 54.3161L40.675 53.7792C40.656 53.809 40.6928 53.7461 40.7725 53.6995C40.8227 53.6702 40.8152 53.6931 40.6331 53.7199C40.2497 53.7762 39.5278 53.7971 38.0406 53.7971V54.7971V55.7971C39.4765 55.7971 40.3641 55.7809 40.9241 55.6986C41.2138 55.656 41.5116 55.584 41.7814 55.4264C42.0808 55.2515 42.2518 55.0267 42.3623 54.853L41.5186 54.3161ZM38.0406 54.7971L38.6098 53.9749L38.1288 53.6419L37.5596 54.4641L36.9904 55.2863L37.4714 55.6193L38.0406 54.7971ZM37.5596 54.4641L38.1409 53.6504C37.8612 53.4506 37.414 53.1734 37.117 53.0546L36.7456 53.9831L36.3742 54.9116C36.3721 54.9107 36.3778 54.9129 36.3925 54.92C36.4067 54.9267 36.4253 54.936 36.4484 54.9482C36.4949 54.9727 36.5515 55.0045 36.6143 55.0418C36.7414 55.1173 36.8747 55.2038 36.9784 55.2778L37.5596 54.4641ZM36.7456 53.9831L37.0874 53.0433C36.7955 52.9371 36.4459 52.7131 36.3057 52.573L35.5986 53.2801L34.8915 53.9872C35.2694 54.365 35.8818 54.733 36.4039 54.9229L36.7456 53.9831ZM35.5986 53.2801L36.2233 52.4992C36.1711 52.4575 36.0993 52.4015 36.0211 52.3519C35.9656 52.3167 35.7862 52.2033 35.5377 52.1722C35.392 52.154 35.2126 52.1625 35.0257 52.2353C34.8399 52.3078 34.7056 52.421 34.6151 52.5251C34.4629 52.7001 34.4037 52.8887 34.3909 52.9269L35.3396 53.2431L36.2883 53.5593C36.2862 53.5656 36.2762 53.5956 36.2569 53.6362C36.2385 53.6749 36.198 53.7526 36.1243 53.8374C36.0454 53.9282 35.9238 54.0318 35.7524 54.0987C35.58 54.1659 35.4167 54.1726 35.2896 54.1567C35.1711 54.1419 35.0836 54.1078 35.0385 54.0877C34.9914 54.0667 34.9601 54.0473 34.9495 54.0406C34.9315 54.0292 34.9337 54.0287 34.9739 54.061L35.5986 53.2801ZM35.3396 53.2431L34.4452 52.7959C34.4013 52.8837 34.3656 52.9753 34.3401 53.0517C34.3269 53.0914 34.3123 53.1391 34.2999 53.1906C34.2927 53.2206 34.2656 53.3308 34.2656 53.4651H35.2656H36.2656C36.2656 53.5347 36.2578 53.5869 36.2545 53.6072C36.2505 53.6324 36.2463 53.6508 36.2441 53.6598C36.2417 53.6698 36.2398 53.6765 36.2389 53.6795C36.2384 53.6812 36.238 53.6824 36.2378 53.6831C36.2376 53.6838 36.2375 53.6841 36.2374 53.6842C36.2374 53.6842 36.2377 53.6835 36.2381 53.6824C36.2385 53.6812 36.2389 53.6802 36.2392 53.6795C36.2403 53.6769 36.2389 53.6807 36.2341 53.6903L35.3396 53.2431ZM35.2656 53.4651L34.3712 53.0179C34.2934 53.1736 34.2639 53.3357 34.2568 53.3713C34.2421 53.4459 34.2298 53.5268 34.2195 53.6013C34.1988 53.7513 34.1788 53.9324 34.1607 54.0947L35.1546 54.2051L36.1485 54.3155C36.1675 54.1448 36.1844 53.9929 36.2008 53.8746C36.209 53.815 36.2152 53.778 36.2189 53.7589C36.2208 53.7493 36.2201 53.7545 36.216 53.7693C36.2139 53.7772 36.2094 53.7927 36.2022 53.8133C36.1956 53.8322 36.1822 53.868 36.1601 53.9123L35.2656 53.4651ZM35.1546 54.2051L34.1596 54.1056C34.0502 55.1998 33.8702 56.3722 33.7732 56.7922L34.7476 57.0171L35.722 57.242C35.8471 56.7 36.0371 55.4303 36.1497 54.3046L35.1546 54.2051ZM34.7476 57.0171L33.7775 56.7746C33.6477 57.2939 33.5667 57.8856 33.3478 59.7099L34.3406 59.8291L35.3335 59.9482C35.5586 58.0726 35.6256 57.6283 35.7178 57.2596L34.7476 57.0171ZM34.3406 59.8291L33.3467 59.7187C33.2723 60.3889 33.2281 60.7572 33.1946 60.9795C33.1781 61.0887 33.1668 61.1443 33.16 61.1729C33.1551 61.1933 33.1536 61.1955 33.1532 61.1967L34.0816 61.5681L35.0101 61.9395C35.0888 61.7427 35.1305 61.5538 35.1722 61.278C35.2126 61.01 35.261 60.6013 35.3345 59.9395L34.3406 59.8291ZM34.0816 61.5681L33.1872 61.1209C33.123 61.2493 33.0925 61.3762 33.082 61.4192C33.0661 61.4849 33.0529 61.5529 33.0423 61.6112C33.0222 61.7216 32.9995 61.8671 32.9842 61.9587L33.9706 62.1231L34.957 62.2875C34.9666 62.2301 34.9768 62.1664 34.9853 62.1143C34.9944 62.0587 35.0024 62.0106 35.01 61.969C35.0179 61.9255 35.0232 61.9011 35.0257 61.8904C35.027 61.8854 35.0255 61.8919 35.0211 61.9061C35.0181 61.9154 35.0045 61.9585 34.9761 62.0153L34.0816 61.5681ZM33.9706 62.1231L32.9738 62.0434C32.9554 62.2734 32.9403 62.4447 32.9254 62.5768C32.9102 62.7128 32.8981 62.7792 32.8912 62.8084C32.8842 62.8379 32.8937 62.7789 32.9487 62.6937C32.9781 62.6482 33.0148 62.604 33.0575 62.5644C33.0991 62.5259 33.1366 62.5007 33.1601 62.4866L33.6746 63.3441L34.1891 64.2016C34.3406 64.1107 34.4998 63.9783 34.6284 63.7794C34.7447 63.5995 34.8027 63.4156 34.8373 63.2693C34.9004 63.0031 34.9325 62.6401 34.9674 62.2028L33.9706 62.1231ZM33.6746 63.3441L33.1199 62.512C33.4029 62.3234 33.7135 62.4507 33.8407 62.6414L33.0086 63.1961L32.1766 63.7508C32.5997 64.3855 33.5024 64.6608 34.2293 64.1761L33.6746 63.3441ZM33.0086 63.1961L33.8769 62.7C33.9148 62.7663 33.9339 62.8197 33.9406 62.839C33.9488 62.8628 33.9525 62.8782 33.9531 62.8806C33.9541 62.8846 33.951 62.8721 33.9455 62.8358C33.9346 62.7648 33.9224 62.6555 33.9106 62.5087C33.8872 62.2184 33.8694 61.8343 33.8604 61.4259C33.8415 60.5659 33.866 59.7657 33.917 59.4982L32.9346 59.3111L31.9523 59.124C31.8553 59.6334 31.8428 60.6463 31.8609 61.4698C31.8704 61.9032 31.8896 62.3284 31.9171 62.6694C31.9307 62.8383 31.9474 63.0001 31.9683 63.1375C31.9787 63.2055 31.9922 63.2814 32.0105 63.3561C32.0232 63.408 32.0582 63.5484 32.1404 63.6922L33.0086 63.1961ZM32.9346 59.3111L33.9269 59.4351C33.9429 59.3073 33.9665 59.1666 33.992 59.003C34.0038 58.9274 34.0162 58.8453 34.0258 58.7691C34.0342 58.702 34.0456 58.5997 34.0456 58.4971H33.0456H32.0456C32.0456 58.4685 32.0479 58.4679 32.0412 58.5211C32.0357 58.5651 32.0273 58.6218 32.016 58.6942C31.9953 58.8266 31.9634 59.0189 31.9424 59.1871L32.9346 59.3111ZM33.0456 58.4971L34.0158 58.7396C34.0503 58.6016 34.1352 58.2646 34.18 57.9955L33.1936 57.8311L32.2072 57.6667C32.1781 57.8416 32.115 58.0966 32.0755 58.2546L33.0456 58.4971ZM33.1936 57.8311L34.1552 58.1058C34.2472 57.7837 34.3261 57.3592 34.254 56.9267L33.2676 57.0911L32.2812 57.2555C32.281 57.2539 32.2849 57.2785 32.2784 57.3368C32.272 57.3938 32.2576 57.4672 32.2321 57.5564L33.1936 57.8311ZM33.2676 57.0911L34.254 56.9267C34.2498 56.9015 34.2461 56.8718 34.2436 56.84C34.241 56.8082 34.2399 56.7785 34.2399 56.7535C34.2399 56.7412 34.2402 56.7312 34.2405 56.7238C34.2409 56.7162 34.2412 56.7128 34.2412 56.7133C34.2412 56.7133 34.2404 56.7211 34.2377 56.7351C34.2353 56.7478 34.2293 56.7765 34.2163 56.8153L33.2676 56.4991L32.3189 56.1829C32.2471 56.3985 32.2399 56.6257 32.2399 56.7535C32.2399 56.9123 32.2533 57.0876 32.2812 57.2555L33.2676 57.0911ZM33.2676 56.4991L34.2163 56.8153C34.2495 56.7157 34.3449 56.4339 34.3962 56.1772L33.4156 55.9811L32.4351 55.785C32.4254 55.8333 32.4076 55.9012 32.3838 55.9805C32.3609 56.057 32.3375 56.1273 32.3189 56.1829L33.2676 56.4991ZM33.4156 55.9811L34.3962 56.1772C34.4562 55.8775 34.5783 55.5088 34.8496 54.6563L33.8966 54.3531L32.9437 54.0499C32.697 54.8253 32.5231 55.3447 32.4351 55.785L33.4156 55.9811ZM33.8966 54.3531L34.833 54.7042C34.9046 54.5131 34.9623 54.3163 35.0028 54.1484C35.0354 54.0137 35.0816 53.7995 35.0816 53.6131H34.0816H33.0816C33.0816 53.5932 33.0824 53.5785 33.083 53.5705C33.0835 53.562 33.0841 53.5567 33.0843 53.555C33.0846 53.552 33.0842 53.5559 33.0822 53.5677C33.0782 53.5915 33.0706 53.6295 33.0587 53.6791C33.0345 53.7794 32.9996 53.8971 32.9603 54.002L33.8966 54.3531ZM34.0816 53.6131H35.0816C35.0816 53.6376 35.0798 53.6501 35.0798 53.6504C35.0796 53.6522 35.0795 53.6521 35.0795 53.6521C35.0794 53.6525 35.079 53.6541 35.0781 53.657C35.0772 53.6598 35.0755 53.665 35.0725 53.6723C35.0678 53.6842 35.0539 53.717 35.0247 53.7608L34.1926 53.2061L33.3606 52.6514C33.2358 52.8386 33.1725 53.034 33.1392 53.1671C33.1043 53.3067 33.0816 53.4629 33.0816 53.6131H34.0816ZM34.1926 53.2061L35.0609 53.7022C35.2106 53.4403 35.3204 53.0587 35.3848 52.8011C35.4501 52.5398 35.5256 52.1753 35.5256 51.9111H34.5256H33.5256C33.5256 51.8867 33.5266 51.9147 33.5091 52.0154C33.4942 52.1012 33.4719 52.2066 33.4445 52.3161C33.417 52.4258 33.3873 52.529 33.3594 52.6118C33.327 52.7081 33.3122 52.7312 33.3244 52.71L34.1926 53.2061ZM34.5256 51.9111H35.5256C35.5256 51.9343 35.524 51.9426 35.5255 51.9297C35.5267 51.9192 35.5292 51.9016 35.5335 51.8768C35.5424 51.8264 35.5555 51.7667 35.5698 51.7096L34.5996 51.4671L33.6295 51.2246C33.5933 51.3695 33.5256 51.6631 33.5256 51.9111H34.5256ZM34.5996 51.4671L35.5644 51.7302C35.6341 51.4745 35.7533 50.8505 35.852 50.3033C35.9517 49.7504 36.0515 49.1581 36.0745 48.9505L35.0806 48.8401L34.0867 48.7297C34.0728 48.8551 33.9876 49.3728 33.8838 49.9484C33.7789 50.5297 33.6761 51.0527 33.6349 51.204L34.5996 51.4671ZM35.0806 48.8401L36.0706 48.9815C36.0986 48.7853 36.1199 48.6951 36.3098 47.9356L35.3396 47.6931L34.3695 47.4506C34.1893 48.1711 34.1367 48.3769 34.0907 48.6987L35.0806 48.8401ZM35.3396 47.6931L36.3098 47.9356C36.352 47.7668 36.436 47.3911 36.4799 47.0401L35.4876 46.9161L34.4954 46.7921C34.4652 47.0331 34.4013 47.3233 34.3695 47.4506L35.3396 47.6931ZM35.4876 46.9161L36.4819 47.0226C36.5355 46.523 36.5939 46.1827 36.6492 45.9719C36.6771 45.8653 36.6959 45.8251 36.6955 45.8259C36.6945 45.8279 36.6807 45.8559 36.6488 45.8963C36.6177 45.9357 36.5533 46.0073 36.4461 46.0716L35.9316 45.2141L35.4171 44.3566C35.1272 44.5306 34.9768 44.7901 34.9042 44.9364C34.8205 45.1049 34.7606 45.289 34.7146 45.4645C34.6219 45.818 34.5508 46.2732 34.4933 46.8096L35.4876 46.9161ZM40.7416 46.6941L41.2273 45.8199L40.8943 45.6349L40.4086 46.5091L39.923 47.3832L40.256 47.5683L40.7416 46.6941ZM40.4086 46.5091V45.5091H39.6316V46.5091V47.5091H40.4086V46.5091ZM39.6316 46.5091V45.5091C39.1543 45.5091 38.5501 45.5477 38.2322 45.5931L38.3736 46.5831L38.5151 47.573C38.7151 47.5445 39.2209 47.5091 39.6316 47.5091V46.5091ZM38.3736 46.5831L38.0989 45.6216C37.9322 45.6692 37.5646 45.7367 36.8311 45.8101L36.9306 46.8051L37.0301 47.8001C37.7767 47.7255 38.2971 47.645 38.6484 47.5446L38.3736 46.5831ZM36.9306 46.8051L36.0203 46.3913L35.8353 46.7983L36.7456 47.2121L37.656 47.6259L37.841 47.2189L36.9306 46.8051ZM36.7456 47.2121L35.8512 46.7649C35.7014 47.0645 35.5609 47.4818 35.5061 47.756L36.4866 47.9521L37.4672 48.1482C37.4737 48.1157 37.4956 48.0325 37.5338 47.922C37.571 47.8139 37.6103 47.7188 37.6401 47.6593L36.7456 47.2121ZM36.4866 47.9521L35.5061 47.756C35.4701 47.9355 35.406 48.2167 35.353 48.3759L36.3016 48.6921L37.2503 49.0083C37.3453 48.7234 37.4291 48.3387 37.4672 48.1482L36.4866 47.9521ZM36.3016 48.6921L35.3529 48.3759C35.2491 48.6873 35.128 49.3188 35.0543 49.798L36.0426 49.9501L37.031 50.1021C37.1053 49.6194 37.2061 49.1409 37.2503 49.0083L36.3016 48.6921ZM36.0426 49.9501L35.0543 49.798C34.9815 50.2707 34.8744 50.8747 34.8074 51.1762L35.7836 51.3931L36.7598 51.61C36.8408 51.2455 36.9557 50.5915 37.031 50.1021L36.0426 49.9501ZM35.7836 51.3931L34.8074 51.1762C34.7664 51.361 34.7353 51.5266 34.714 51.6542C34.7034 51.7178 34.6947 51.775 34.6883 51.8229C34.6859 51.8409 34.6726 51.9336 34.6726 52.0221H35.6726H36.6726C36.6726 52.0548 36.6709 52.079 36.6705 52.0845C36.6698 52.0935 36.6692 52.0992 36.6691 52.1001C36.6689 52.1021 36.6693 52.0983 36.6708 52.0872C36.6737 52.0656 36.6789 52.0304 36.6868 51.983C36.7025 51.8886 36.7269 51.7582 36.7598 51.61L35.7836 51.3931ZM35.6726 52.0221C35.3564 52.9708 35.3564 52.9708 35.3564 52.9708C35.3564 52.9708 35.3564 52.9708 35.3564 52.9708C35.3564 52.9708 35.3564 52.9708 35.3564 52.9708C35.3564 52.9708 35.3565 52.9708 35.3565 52.9708C35.3565 52.9708 35.3566 52.9708 35.3567 52.9709C35.3569 52.971 35.3573 52.9711 35.3577 52.9712C35.3585 52.9715 35.3598 52.9719 35.3614 52.9724C35.3646 52.9735 35.3694 52.9751 35.3755 52.9771C35.3876 52.9812 35.405 52.987 35.4258 52.9939C35.4674 53.0078 35.5229 53.0263 35.5784 53.0448L35.8946 52.0961L36.2109 51.1474C36.1554 51.1289 36.0999 51.1104 36.0582 51.0965C36.0374 51.0896 36.0201 51.0838 36.0079 51.0798C36.0019 51.0777 35.9971 51.0762 35.9938 51.0751C35.9922 51.0745 35.991 51.0741 35.9901 51.0738C35.9897 51.0737 35.9894 51.0736 35.9892 51.0735C35.9891 51.0735 35.989 51.0735 35.9889 51.0734C35.9889 51.0734 35.9889 51.0734 35.9889 51.0734C35.9889 51.0734 35.9889 51.0734 35.9889 51.0734C35.9889 51.0734 35.9889 51.0734 35.9889 51.0734C35.9889 51.0734 35.9889 51.0734 35.6726 52.0221ZM35.8946 52.0961L35.5232 53.0246C35.5081 53.0185 35.463 52.9985 35.4106 52.9586C35.3587 52.9191 35.3294 52.8827 35.3213 52.8718C35.317 52.8661 35.3276 52.8795 35.3584 52.935C35.3885 52.9892 35.4268 53.0634 35.4812 53.1723L36.3756 52.7251L37.2701 52.2779C37.1678 52.0734 37.0546 51.8496 36.9213 51.6718C36.7395 51.4295 36.5252 51.2713 36.266 51.1676L35.8946 52.0961ZM36.3756 52.7251L35.4812 53.1723C35.5668 53.3435 35.6816 53.4524 35.7199 53.4882C35.7744 53.5392 35.8277 53.5801 35.8673 53.6089C35.9476 53.6672 36.0359 53.7218 36.115 53.7682C36.2771 53.8631 36.4754 53.967 36.6684 54.0635L37.1156 53.1691L37.5628 52.2747C37.3859 52.1862 37.2327 52.105 37.1265 52.0428C37.101 52.0278 37.0807 52.0154 37.0654 52.0057C37.0578 52.0008 37.052 51.997 37.0479 51.9943C37.0437 51.9915 37.042 51.9902 37.0423 51.9905C37.0425 51.9906 37.0463 51.9933 37.0527 51.9985C37.0588 52.0034 37.0706 52.0131 37.0859 52.0274C37.1003 52.0409 37.1251 52.0652 37.1537 52.0994C37.1801 52.131 37.2268 52.1914 37.2701 52.2779L36.3756 52.7251ZM37.1156 53.1691L36.6684 54.0635C36.8429 54.1507 37.024 54.2457 37.1757 54.33C37.2517 54.3722 37.3162 54.4095 37.3667 54.4401C37.4223 54.4739 37.4428 54.4887 37.4406 54.4871L38.0406 53.6871L38.6406 52.8871C38.4077 52.7124 37.9165 52.4515 37.5628 52.2747L37.1156 53.1691ZM38.0406 53.6871L37.4594 54.5008C37.5226 54.546 37.6371 54.6282 37.7788 54.696C37.9392 54.7728 38.0966 54.8149 38.2559 54.8383C38.5056 54.8751 38.8446 54.8721 39.2616 54.8721V53.8721V52.8721C39.0261 52.8721 38.8627 52.872 38.738 52.8694C38.6095 52.8667 38.5612 52.8617 38.5469 52.8596C38.5439 52.8592 38.5555 52.8607 38.576 52.8667C38.5981 52.8731 38.6211 52.8819 38.6424 52.8921C38.6754 52.9079 38.6882 52.9207 38.6219 52.8734L38.0406 53.6871ZM39.2616 53.8721V54.8721C39.8318 54.8721 40.2875 54.8654 40.6129 54.8133C40.7784 54.7868 41.0097 54.7351 41.2303 54.6001C41.4946 54.4382 41.6738 54.2007 41.7643 53.9293L40.8156 53.6131L39.867 53.2969C39.8888 53.2312 39.9267 53.1505 39.9899 53.0701C40.0532 52.9896 40.1237 52.9325 40.1859 52.8944C40.2932 52.8287 40.3626 52.8279 40.2969 52.8384C40.242 52.8472 40.1397 52.857 39.9581 52.8635C39.781 52.8698 39.5549 52.8721 39.2616 52.8721V53.8721ZM40.8156 53.6131L41.7643 53.9293C41.7534 53.962 41.7384 53.9937 41.7135 54.0293C41.7002 54.0484 41.6771 54.0784 41.6411 54.1132C41.6073 54.1459 41.544 54.2004 41.4478 54.2485L41.0006 53.3541L40.5534 52.4597C40.3053 52.5837 40.1527 52.7715 40.075 52.8824C39.9853 53.0105 39.9149 53.1532 39.867 53.2969L40.8156 53.6131ZM41.0006 53.3541L41.5151 54.2116C41.821 54.0281 41.9731 53.7403 42.0321 53.6214C42.1131 53.4583 42.1741 53.2806 42.2198 53.1131C42.3114 52.7773 42.3706 52.3743 42.3706 51.9851H41.3706H40.3706C40.3706 52.1879 40.3374 52.4139 40.2902 52.5869C40.2665 52.6738 40.2466 52.7203 40.2409 52.7318C40.2382 52.7372 40.2474 52.7169 40.2731 52.6831C40.2942 52.6553 40.3612 52.5716 40.4861 52.4966L41.0006 53.3541ZM41.3706 51.9851H42.3706C42.3706 50.072 42.3441 48.8097 42.2435 47.9594C42.1431 47.1116 41.9487 46.4503 41.4221 45.9613L40.7416 46.6941L40.0612 47.4269C40.0676 47.4328 40.0901 47.4501 40.1243 47.5394C40.1658 47.6482 40.2156 47.8424 40.2573 48.1945C40.3417 48.9075 40.3706 50.0502 40.3706 51.9851H41.3706ZM47.9722 38.6281L48.3312 39.5614L48.3991 39.5353L48.4625 39.4997L47.9722 38.6281ZM48.5642 38.2951V37.2951H48.3023L48.074 37.4235L48.5642 38.2951ZM51.6352 38.3691L51.4391 39.3497V39.3497L51.6352 38.3691ZM53.7812 38.7391L54.3359 37.907L54.3073 37.8879L54.2774 37.8708L53.7812 38.7391ZM54.8172 38.9611L54.9816 39.9475L54.9975 39.9448L55.0134 39.9417L54.8172 38.9611ZM56.0012 39.3311L55.2941 40.0382L55.3333 40.0774L55.3765 40.112L56.0012 39.3311ZM55.4462 40.1081L55.2037 41.0782L55.2201 41.0823L55.2367 41.0859L55.4462 40.1081ZM54.5952 39.9971L54.4848 40.991H54.4848L54.5952 39.9971ZM53.3002 39.6271L52.7857 40.4846L52.7857 40.4846L53.3002 39.6271ZM52.3382 39.4421L52.2477 40.438L52.2573 40.4389L52.267 40.4396L52.3382 39.4421ZM51.3762 39.3311L51.6925 38.3824L51.656 38.3703L51.6188 38.361L51.3762 39.3311ZM47.8242 39.7381L48.633 40.3263L48.6512 40.3012L48.6679 40.275L47.8242 39.7381ZM48.1942 42.9941L47.2503 43.3245L47.2544 43.3358L48.1942 42.9941ZM48.5272 44.0671L49.5162 43.9188L49.5126 43.8948L49.5078 43.871L48.5272 44.0671ZM50.2292 44.4371L49.7923 43.5375L49.782 43.5427L50.2292 44.4371ZM55.6312 43.8081L56.1274 42.9398L56.0949 42.9213L56.0612 42.9052L55.6312 43.8081ZM57.3702 46.7681L58.3373 46.5136L58.3334 46.4987L58.329 46.484L57.3702 46.7681ZM57.4072 50.2091L56.4528 49.9108L56.437 49.9612L56.4267 50.013L57.4072 50.2091ZM57.2592 50.8381L56.2891 50.5956L56.2819 50.6245L56.2764 50.6538L57.2592 50.8381ZM56.6302 52.4661L57.0775 53.3605L57.1581 53.3202L57.2302 53.2661L56.6302 52.4661ZM55.5572 54.3901L56.4377 54.8642L56.4414 54.8573L56.445 54.8504L55.5572 54.3901ZM53.7442 55.5001L53.6274 54.5069L53.6197 54.5078L53.6121 54.5089L53.7442 55.5001ZM51.2282 55.3891L51.6222 54.4699L51.5964 54.4589L51.57 54.4493L51.2282 55.3891ZM48.3792 54.9821L48.2552 55.9744L48.2684 55.976L48.2817 55.9773L48.3792 54.9821ZM46.5292 54.2421L46.0331 55.1104L46.039 55.1137L46.5292 54.2421ZM46.3072 53.0581L46.7861 53.936L46.7948 53.9312L46.8034 53.9263L46.3072 53.0581ZM47.1212 53.3541L47.8284 52.647L47.8115 52.6302L47.7939 52.6142L47.1212 53.3541ZM47.8242 53.7611L47.377 54.6555H47.377L47.8242 53.7611ZM49.7112 54.1311L49.6149 55.1265L49.6282 55.1276L49.7112 54.1311ZM51.1172 54.3531L51.3717 53.386L51.353 53.3811L51.3342 53.3769L51.1172 54.3531ZM53.5592 54.5011L53.8018 55.4713L53.8137 55.4682L53.5592 54.5011ZM54.7432 53.6131L53.875 53.1169L53.8717 53.1228L54.7432 53.6131ZM55.7422 51.9851L54.9335 51.3969L54.9285 51.4039L55.7422 51.9851ZM56.3712 50.0241L57.2657 50.4713L57.2758 50.451L57.2851 50.4302L56.3712 50.0241ZM56.4082 47.4711L55.5138 47.9183L55.5417 47.974L55.5762 48.0258L56.4082 47.4711ZM56.2972 46.9901L55.3056 47.1194L55.31 47.153L55.3167 47.1862L56.2972 46.9901ZM55.2982 44.8441L55.8127 43.9866L55.7928 43.9746L55.7723 43.9636L55.2982 44.8441ZM51.1172 45.2511L50.7006 44.342L50.6852 44.3491L50.67 44.3567L51.1172 45.2511ZM50.5622 45.5101L50.9336 46.4386L50.9723 46.4231L51.0095 46.4045L50.5622 45.5101ZM49.3412 47.1751L50.3378 47.2581L50.3386 47.2478L50.3393 47.2375L49.3412 47.1751ZM48.1942 46.8791L47.1992 46.9786L47.1997 46.9838L48.1942 46.8791ZM48.0092 45.9541L48.9377 45.5827L48.9223 45.5441L48.9037 45.5069L48.0092 45.9541ZM47.6762 44.9181L46.6957 45.1142L46.7024 45.148L46.7115 45.1812L47.6762 44.9181ZM47.1212 42.9201L46.1726 43.2363L46.1841 43.271L46.1982 43.3047L47.1212 42.9201ZM47.9722 38.6281L48.4625 39.4997L49.0545 39.1667L48.5642 38.2951L48.074 37.4235L47.482 37.7565L47.9722 38.6281ZM48.5642 38.2951V39.2951H49.9332V38.2951V37.2951H48.5642V38.2951ZM49.9332 38.2951V39.2951C50.2882 39.2951 50.6525 39.304 50.9476 39.3172C51.0954 39.3238 51.2212 39.3313 51.317 39.3389C51.4294 39.3477 51.4582 39.3535 51.4391 39.3497L51.6352 38.3691L51.8314 37.3885C51.6486 37.352 51.3249 37.3321 51.0371 37.3192C50.7125 37.3047 50.3183 37.2951 49.9332 37.2951V38.2951ZM51.6352 38.3691L51.4391 39.3497C51.6777 39.3974 52.0771 39.4431 52.3382 39.4431V38.4431V37.4431C52.2294 37.4431 51.9628 37.4148 51.8314 37.3885L51.6352 38.3691ZM52.3382 38.4431V39.4431C52.513 39.4431 52.7384 39.4694 52.9509 39.5141C53.0545 39.536 53.1433 39.5597 53.2108 39.5816C53.2868 39.6063 53.3046 39.6185 53.2851 39.6073L53.7812 38.7391L54.2774 37.8708C54.0085 37.7172 53.6524 37.618 53.3629 37.557C53.048 37.4908 52.6815 37.4431 52.3382 37.4431V38.4431ZM53.7812 38.7391L53.2265 39.5711C53.508 39.7588 53.8739 39.8532 54.0988 39.8992C54.3214 39.9447 54.6781 39.9981 54.9816 39.9475L54.8172 38.9611L54.6528 37.9747C54.6946 37.9677 54.7178 37.9682 54.7124 37.9683C54.7103 37.9683 54.6984 37.9681 54.676 37.9663C54.6305 37.9625 54.5683 37.9538 54.4996 37.9398C54.4308 37.9257 54.3706 37.9093 54.3272 37.8946C54.306 37.8874 54.2949 37.8826 54.2925 37.8815C54.2881 37.8795 54.3058 37.8869 54.3359 37.907L53.7812 38.7391ZM54.8172 38.9611L55.0134 39.9417C54.9409 39.9562 54.8864 39.9574 54.8655 39.9575C54.8405 39.9577 54.8252 39.9562 54.8227 39.956C54.8187 39.9556 54.8318 39.9568 54.8654 39.9635C54.9313 39.9765 55.025 40.0004 55.1278 40.0321C55.2306 40.0639 55.3218 40.0972 55.3847 40.1243C55.4165 40.1379 55.4289 40.1448 55.4267 40.1436C55.4252 40.1427 55.4132 40.1361 55.3947 40.1232C55.3785 40.1119 55.34 40.084 55.2941 40.0382L56.0012 39.3311L56.7084 38.624C56.5921 38.5078 56.4676 38.4343 56.4042 38.3988C56.3264 38.3552 56.2466 38.3178 56.175 38.287C56.0308 38.225 55.87 38.1682 55.7184 38.1213C55.5668 38.0745 55.4039 38.0312 55.2536 38.0015C55.1791 37.9868 55.0941 37.9726 55.0076 37.9646C54.942 37.9585 54.7907 37.9466 54.6211 37.9805L54.8172 38.9611ZM56.0012 39.3311L55.3765 40.112C55.2545 40.0143 55.1571 39.848 55.1453 39.6535C55.135 39.4828 55.1935 39.3614 55.2386 39.2973C55.324 39.1756 55.4816 39.093 55.6558 39.1303L55.4462 40.1081L55.2367 41.0859C55.9289 41.2342 56.549 40.911 56.8749 40.4472C57.0402 40.2119 57.1635 39.8939 57.1416 39.5325C57.1183 39.1472 56.933 38.7959 56.6259 38.5502L56.0012 39.3311ZM55.4462 40.1081L55.6888 39.1379C55.544 39.1018 55.3517 39.077 55.2104 39.0599C55.0513 39.0406 54.8635 39.0207 54.7057 39.0032L54.5952 39.9971L54.4848 40.991C54.66 41.0104 54.8237 41.0276 54.9698 41.0453C55.0414 41.054 55.1006 41.0619 55.147 41.0689C55.1992 41.0769 55.2131 41.0806 55.2037 41.0782L55.4462 40.1081ZM54.5952 39.9971L54.7057 39.0032C54.3851 38.9676 54.2221 38.9377 54.1115 38.9061C54.0211 38.8802 53.9446 38.8475 53.8147 38.7696L53.3002 39.6271L52.7857 40.4846C53.3283 40.8101 53.7469 40.909 54.4848 40.991L54.5952 39.9971ZM53.3002 39.6271L53.8147 38.7696C53.3863 38.5125 52.867 38.4773 52.4095 38.4446L52.3382 39.4421L52.267 40.4396C52.525 40.458 52.6712 40.4736 52.7652 40.4907C52.8511 40.5063 52.8337 40.5134 52.7857 40.4846L53.3002 39.6271ZM52.3382 39.4421L52.4288 38.4462C52.2185 38.4271 52.0173 38.4096 51.8509 38.3921C51.7681 38.3834 51.7045 38.3757 51.6601 38.3693C51.6379 38.366 51.6273 38.3641 51.6254 38.3637C51.6171 38.3621 51.6465 38.3671 51.6925 38.3824L51.3762 39.3311L51.06 40.2798C51.1827 40.3207 51.3135 40.3399 51.3722 40.3484C51.455 40.3605 51.5487 40.3713 51.6416 40.3811C51.8266 40.4006 52.051 40.4201 52.2477 40.438L52.3382 39.4421ZM51.3762 39.3311L51.6188 38.361C51.4305 38.3139 51.1183 38.2938 50.8821 38.2816C50.5963 38.2668 50.2461 38.2571 49.8962 38.2571V39.2571V40.2571C50.2124 40.2571 50.5282 40.2659 50.7788 40.2789C50.9045 40.2854 51.0081 40.2926 51.084 40.2997C51.1828 40.3088 51.1806 40.313 51.1337 40.3012L51.3762 39.3311ZM49.8962 39.2571V38.2571C49.2114 38.2571 48.6471 38.2716 48.2116 38.3691C47.9752 38.4221 47.7326 38.5078 47.506 38.6584C47.2724 38.8136 47.1057 39.0046 46.9806 39.2012L47.8242 39.7381L48.6679 40.275C48.6723 40.2681 48.6535 40.2972 48.6131 40.324C48.5796 40.3463 48.5751 40.3373 48.6486 40.3208C48.8328 40.2796 49.1751 40.2571 49.8962 40.2571V39.2571ZM47.8242 39.7381L47.0155 39.1499C46.7829 39.4697 46.714 39.8481 46.6887 40.1167C46.6606 40.415 46.673 40.7432 46.7102 41.075C46.7849 41.7417 46.9716 42.528 47.2504 43.3244L48.1942 42.9941L49.1381 42.6637C48.8988 41.9801 48.7526 41.342 48.6978 40.8524C48.6702 40.6061 48.6687 40.4232 48.6799 40.3042C48.694 40.1553 48.7176 40.21 48.633 40.3263L47.8242 39.7381ZM48.1942 42.9941L47.2544 43.3358C47.3224 43.5228 47.3913 43.7294 47.4471 43.9095C47.5068 44.1026 47.5392 44.2259 47.5467 44.2632L48.5272 44.0671L49.5078 43.871C49.4551 43.6073 49.2847 43.0667 49.134 42.6523L48.1942 42.9941ZM48.5272 44.0671L47.5383 44.2154C47.6037 44.6512 47.7388 45.1773 47.858 45.5454C47.9087 45.7018 47.9874 45.9299 48.087 46.099C48.1099 46.138 48.1787 46.2533 48.298 46.3626C48.362 46.4211 48.8786 46.8615 49.5031 46.4903C49.7394 46.3498 49.8527 46.1545 49.9003 46.0553C49.9517 45.9484 49.9743 45.8541 49.9849 45.8006C50.0063 45.693 50.0082 45.5985 50.0082 45.5471H49.0082H48.0082C48.0082 45.5465 48.0073 45.4908 48.0232 45.4108C48.0311 45.371 48.0503 45.2877 48.0977 45.1891C48.1413 45.0982 48.25 44.9085 48.4812 44.7711C49.0953 44.406 49.5993 44.8424 49.6487 44.8876C49.7535 44.9835 49.8057 45.0762 49.8104 45.0842C49.8371 45.1296 49.8164 45.101 49.7607 44.929C49.6672 44.6404 49.5618 44.223 49.5162 43.9188L48.5272 44.0671ZM49.0082 45.5471H50.0082C50.0082 45.6612 49.9864 45.749 49.9707 45.7994C49.9543 45.8519 49.9365 45.8887 49.9269 45.9073C49.9087 45.9422 49.8985 45.9521 49.9127 45.934C49.9399 45.8993 50 45.8337 50.095 45.7478C50.2895 45.5721 50.5205 45.4095 50.6765 45.3315L50.2292 44.4371L49.782 43.5427C49.4199 43.7237 49.0405 44.0051 48.754 44.2641C48.6085 44.3956 48.4605 44.545 48.3397 44.6988C48.2799 44.7749 48.2107 44.8724 48.1521 44.9853C48.1033 45.0791 48.0082 45.283 48.0082 45.5471H49.0082ZM50.2292 44.4371L50.6661 45.3366C51.1556 45.0989 52.1726 44.8634 53.2382 44.7415C53.753 44.6826 54.2374 44.6551 54.6245 44.6617C55.0682 44.6692 55.2228 44.7212 55.2013 44.711L55.6312 43.8081L56.0612 42.9052C55.6512 42.71 55.0982 42.6695 54.6585 42.662C54.1622 42.6535 53.5874 42.6885 53.0108 42.7544C51.8934 42.8823 50.5979 43.1463 49.7923 43.5376L50.2292 44.4371ZM55.6312 43.8081L55.1351 44.6763C55.1349 44.6762 55.136 44.6769 55.1384 44.6783C55.1408 44.6798 55.1441 44.6818 55.1484 44.6845C55.1571 44.6901 55.1685 44.6975 55.1825 44.707C55.2108 44.7262 55.2453 44.7507 55.2847 44.7798C55.3639 44.8383 55.4522 44.9077 55.534 44.9756C55.6182 45.0454 55.6829 45.1031 55.7197 45.139C55.7406 45.1592 55.7359 45.1565 55.7193 45.1362C55.7122 45.1276 55.6835 45.0926 55.6514 45.0383C55.6351 45.0107 55.6078 44.9613 55.5826 44.8949C55.56 44.8354 55.5192 44.7116 55.5192 44.5481H56.5192H57.5192C57.5192 44.2553 57.3895 44.0483 57.3728 44.0201C57.3314 43.95 57.2889 43.8962 57.2642 43.8661C57.2121 43.8027 57.1562 43.7462 57.1141 43.7052C57.0249 43.6184 56.9161 43.5235 56.8107 43.4361C56.6142 43.2731 56.3366 43.0594 56.1274 42.9398L55.6312 43.8081ZM56.5192 44.5481H55.5192C55.5192 44.8018 55.6188 44.9966 55.6258 45.0114C55.6553 45.0746 55.687 45.1294 55.708 45.1643C55.7506 45.2353 55.8024 45.3127 55.8352 45.3618L56.6672 44.8071L57.4993 44.2524C57.458 44.1905 57.4359 44.1568 57.423 44.1353C57.4162 44.124 57.4249 44.1372 57.4381 44.1657C57.4449 44.1801 57.4601 44.2139 57.4752 44.2613C57.4831 44.2858 57.4931 44.321 57.5016 44.3645C57.5098 44.4067 57.5192 44.4701 57.5192 44.5481H56.5192ZM56.6672 44.8071L55.8352 45.3618C55.8295 45.3533 55.8944 45.4756 56.0212 45.8317C56.1332 46.1461 56.2662 46.5621 56.4114 47.0522L57.3702 46.7681L58.329 46.484C58.1783 45.9751 58.0338 45.5216 57.9053 45.1607C57.7916 44.8416 57.6529 44.4829 57.4993 44.2524L56.6672 44.8071ZM57.3702 46.7681L56.4032 47.0226C56.4614 47.244 56.5184 47.8466 56.5276 48.5435C56.5319 48.8731 56.5252 49.1914 56.5077 49.4542C56.499 49.5855 56.4881 49.6955 56.476 49.7815C56.463 49.8743 56.4525 49.9117 56.4528 49.9108L57.4072 50.2091L58.3617 50.5074C58.4463 50.2368 58.4833 49.8882 58.5033 49.5869C58.5252 49.2588 58.5323 48.8857 58.5274 48.517C58.5181 47.817 58.4641 46.9952 58.3373 46.5136L57.3702 46.7681ZM57.4072 50.2091L56.4267 50.013C56.3954 50.1693 56.3283 50.4388 56.2891 50.5956L57.2592 50.8381L58.2294 51.0806C58.2642 50.9414 58.3451 50.6189 58.3878 50.4052L57.4072 50.2091ZM57.2592 50.8381L56.2764 50.6538C56.2365 50.8667 56.1392 51.1824 56.0274 51.4681C55.9728 51.6076 55.9228 51.7193 55.8856 51.7917C55.8665 51.8289 55.858 51.8416 55.8609 51.8372C55.8625 51.8348 55.8732 51.8187 55.8928 51.7952C55.9087 51.7762 55.9545 51.7229 56.0302 51.6661L56.6302 52.4661L57.2302 53.2661C57.3942 53.1431 57.4942 52.9933 57.5295 52.9399C57.5814 52.8614 57.627 52.7789 57.6651 52.7045C57.7424 52.5539 57.8196 52.3765 57.8899 52.1969C58.0278 51.8443 58.171 51.4015 58.2421 51.0224L57.2592 50.8381ZM56.6302 52.4661L56.183 51.5717C55.9873 51.6695 55.87 51.8119 55.8605 51.8228C55.8213 51.8673 55.7901 51.9095 55.7701 51.9375C55.7285 51.9959 55.6873 52.0608 55.6509 52.1204C55.5759 52.2432 55.4844 52.4038 55.385 52.5837C55.1845 52.9465 54.9301 53.4272 54.6695 53.9298L55.5572 54.3901L56.445 54.8504C56.7024 54.354 56.9475 53.8912 57.1355 53.551C57.2304 53.3794 57.3053 53.2487 57.3575 53.1633C57.3701 53.1427 57.3801 53.1268 57.3877 53.1151C57.3956 53.1028 57.3989 53.0982 57.3981 53.0993C57.3976 53.1 57.3948 53.104 57.3899 53.1103C57.3853 53.1162 57.3762 53.1278 57.3629 53.1429C57.351 53.1565 57.3269 53.183 57.2923 53.2142C57.265 53.2388 57.1908 53.3039 57.0775 53.3605L56.6302 52.4661ZM55.5572 54.3901L54.6768 53.916C54.6848 53.901 54.6658 53.9386 54.5806 54.016C54.5022 54.0872 54.3958 54.1668 54.2699 54.2433C53.9989 54.4081 53.7496 54.4926 53.6274 54.5069L53.7442 55.5001L53.8611 56.4932C54.3679 56.4336 54.8956 56.2036 55.3091 55.9521C55.7041 55.7119 56.182 55.339 56.4377 54.8642L55.5572 54.3901ZM53.7442 55.5001L53.6121 54.5089C53.4318 54.5329 52.9477 54.5381 52.4191 54.5149C52.1685 54.5039 51.9353 54.4878 51.7565 54.4691C51.6664 54.4597 51.6005 54.4507 51.5581 54.4433C51.4899 54.4316 51.5372 54.4335 51.6222 54.4699L51.2282 55.3891L50.8343 56.3082C50.9841 56.3724 51.1412 56.401 51.2178 56.4142C51.3202 56.4319 51.4341 56.4463 51.5486 56.4583C51.7792 56.4824 52.0547 56.5009 52.3314 56.513C52.8573 56.5361 53.5016 56.5413 53.8764 56.4913L53.7442 55.5001ZM51.2282 55.3891L51.57 54.4493C51.014 54.2471 50.3001 54.1656 48.4768 53.9869L48.3792 54.9821L48.2817 55.9773C50.2324 56.1686 50.6284 56.235 50.8865 56.3289L51.2282 55.3891ZM48.3792 54.9821L48.5033 53.9898C48.5276 53.9929 48.4869 53.988 48.353 53.9452C48.2378 53.9083 48.0927 53.8562 47.9324 53.7929C47.6067 53.6644 47.2629 53.5074 47.0195 53.3705L46.5292 54.2421L46.039 55.1137C46.3876 55.3097 46.8207 55.5043 47.1981 55.6532C47.5363 55.7868 47.9634 55.9379 48.2552 55.9744L48.3792 54.9821ZM46.5292 54.2421L47.0254 53.3738C47.0157 53.3683 47.0432 53.3767 47.0556 53.4452C47.0622 53.482 47.0676 53.5608 47.0277 53.6618C46.9839 53.773 46.898 53.8749 46.7861 53.936L46.3072 53.0581L45.8284 52.1802C45.1492 52.5507 44.991 53.2653 45.0872 53.7995C45.1828 54.3304 45.5248 54.8199 46.0331 55.1103L46.5292 54.2421ZM46.3072 53.0581L46.8034 53.9263C46.803 53.9265 46.7991 53.9288 46.7921 53.9322C46.785 53.9356 46.774 53.9406 46.7595 53.9463C46.73 53.9576 46.6852 53.9716 46.6279 53.9798C46.5691 53.9882 46.5072 53.989 46.4454 53.9812C46.3847 53.9735 46.3353 53.9589 46.2998 53.9452C46.2368 53.921 46.2169 53.8994 46.2568 53.9295C46.2943 53.9577 46.3525 54.0067 46.4486 54.094L47.1212 53.3541L47.7939 52.6142C47.6158 52.4522 47.3423 52.2033 47.0177 52.0785C46.8163 52.001 46.5886 51.9651 46.345 51.9999C46.1183 52.0323 45.9371 52.1178 45.8111 52.1898L46.3072 53.0581ZM47.1212 53.3541L46.4141 54.0612C46.5148 54.1618 46.6211 54.2559 46.7197 54.3317C46.7672 54.3683 46.8283 54.4125 46.8963 54.453C46.9294 54.4727 46.9817 54.502 47.0466 54.5294C47.0856 54.5458 47.2434 54.6131 47.4542 54.6131V53.6131V52.6131C47.5689 52.6131 47.6582 52.6333 47.7061 52.6462C47.7584 52.6603 47.799 52.6761 47.8242 52.6867C47.8733 52.7074 47.9068 52.7269 47.9185 52.7339C47.9437 52.7489 47.9517 52.7562 47.9391 52.7465C47.9174 52.7298 47.8757 52.6944 47.8284 52.647L47.1212 53.3541ZM47.4542 53.6131V54.6131C47.4152 54.6131 47.3828 54.6107 47.3598 54.6085C47.3362 54.6061 47.3164 54.6033 47.3014 54.6008C47.2724 54.5961 47.2501 54.591 47.2377 54.5879C47.2134 54.582 47.1983 54.577 47.1973 54.5767C47.1939 54.5756 47.2031 54.5786 47.2262 54.5878C47.2473 54.5963 47.273 54.6071 47.3005 54.6194C47.328 54.6318 47.3544 54.6442 47.377 54.6555L47.8242 53.7611L48.2715 52.8667C48.1714 52.8166 48.0628 52.7684 47.969 52.7309C47.9228 52.7124 47.8695 52.6922 47.8164 52.6749C47.7905 52.6665 47.7538 52.6552 47.7117 52.6449C47.6905 52.6397 47.5857 52.6131 47.4542 52.6131V53.6131ZM47.8242 53.7611L47.377 54.6555C47.9367 54.9354 48.4882 55.0174 49.6149 55.1264L49.7112 54.1311L49.8076 53.1357C48.6403 53.0228 48.4518 52.9568 48.2715 52.8667L47.8242 53.7611ZM49.7112 54.1311L49.6282 55.1276C50.0134 55.1597 50.5955 55.2615 50.9003 55.3293L51.1172 54.3531L51.3342 53.3769C50.973 53.2966 50.2971 53.1765 49.7943 53.1345L49.7112 54.1311ZM51.1172 54.3531L50.8627 55.3202C51.3032 55.4361 51.8753 55.5066 52.3761 55.5363C52.8422 55.564 53.4156 55.5678 53.8018 55.4712L53.5592 54.5011L53.3167 53.531C53.3231 53.5293 53.3048 53.5341 53.2523 53.5395C53.2033 53.5446 53.1389 53.5489 53.0596 53.5513C52.9006 53.556 52.7055 53.5524 52.4947 53.5399C52.0612 53.5141 51.6342 53.4551 51.3717 53.386L51.1172 54.3531ZM53.5592 54.5011L53.8137 55.4682C54.1619 55.3766 54.5505 55.2643 54.89 55.0097C55.2388 54.7481 55.4449 54.4055 55.6148 54.1034L54.7432 53.6131L53.8717 53.1228C53.7086 53.4127 53.6741 53.4216 53.69 53.4097C53.6965 53.4049 53.6596 53.4406 53.3048 53.534L53.5592 54.5011ZM54.7432 53.6131L55.6115 54.1092C55.9071 53.5919 56.4033 52.7801 56.556 52.5663L55.7422 51.9851L54.9285 51.4039C54.7112 51.7081 54.1714 52.5983 53.875 53.117L54.7432 53.6131ZM55.7422 51.9851L56.551 52.5733C56.7652 52.2786 56.934 51.9333 57.05 51.6202C57.1594 51.3246 57.2602 50.9551 57.2602 50.6161H56.2602H55.2602C55.2602 50.5994 55.2615 50.6224 55.2457 50.6921C55.2313 50.7557 55.2077 50.8359 55.1745 50.9255C55.1055 51.1119 55.0152 51.2845 54.9335 51.3969L55.7422 51.9851ZM56.2602 50.6161H57.2602C57.2602 50.602 57.261 50.5805 57.2633 50.5539C57.2656 50.5277 57.2691 50.5013 57.2732 50.4776C57.2775 50.4531 57.2814 50.4374 57.2833 50.4308C57.286 50.4216 57.2822 50.4383 57.2657 50.4713L56.3712 50.0241L55.4768 49.5769C55.3015 49.9275 55.2602 50.3678 55.2602 50.6161H56.2602ZM56.3712 50.0241L57.2851 50.4302C57.3576 50.2671 57.3904 50.0942 57.407 49.9967C57.4278 49.8754 57.4437 49.7416 57.456 49.608C57.4809 49.3392 57.4957 49.0252 57.5006 48.7222C57.5055 48.4202 57.5009 48.1098 57.4835 47.8498C57.4748 47.7216 57.462 47.5875 57.4414 47.4651C57.4311 47.4042 57.4164 47.3303 57.3941 47.2535C57.3762 47.192 57.3336 47.0564 57.2403 46.9164L56.4082 47.4711L55.5762 48.0258C55.5013 47.9135 55.4758 47.8196 55.4736 47.8118C55.4669 47.7889 55.4664 47.781 55.469 47.7966C55.4742 47.8273 55.4815 47.8883 55.488 47.9839C55.5006 48.1713 55.5052 48.4229 55.5009 48.6897C55.4966 48.9556 55.4836 49.2174 55.4645 49.4239C55.4549 49.5278 55.4448 49.6065 55.4357 49.6591C55.4227 49.7355 55.4219 49.6979 55.4574 49.618L56.3712 50.0241ZM56.4082 47.4711L57.3027 47.0239C57.3253 47.0691 57.3371 47.103 57.3405 47.113C57.3449 47.1258 57.3465 47.1322 57.3456 47.129C57.3437 47.1217 57.3389 47.1025 57.3313 47.0662C57.324 47.0314 57.3161 46.9913 57.3069 46.9436C57.2983 46.8988 57.288 46.8447 57.2778 46.794L56.2972 46.9901L55.3167 47.1862C55.3289 47.2476 55.3556 47.39 55.3742 47.4782C55.385 47.5298 55.3988 47.5915 55.4154 47.6525C55.4278 47.6983 55.4578 47.8063 55.5138 47.9183L56.4082 47.4711ZM56.2972 46.9901L57.2888 46.8608C57.217 46.3097 57.0224 45.728 56.7994 45.2549C56.6864 45.015 56.5555 44.7806 56.4121 44.5771C56.2842 44.3958 56.0855 44.1503 55.8127 43.9866L55.2982 44.8441L54.7837 45.7016C54.6959 45.6489 54.7007 45.6207 54.7776 45.7297C54.8388 45.8164 54.9137 45.945 54.9903 46.1075C55.1466 46.4392 55.2665 46.8195 55.3056 47.1194L56.2972 46.9901ZM55.2982 44.8441L55.7723 43.9636C55.546 43.8418 55.2993 43.7997 55.1513 43.7796C54.9741 43.7556 54.7789 43.7446 54.5837 43.7413C54.191 43.7347 53.7277 43.7583 53.2656 43.8023C52.8017 43.8465 52.3189 43.9132 51.8855 43.998C51.4715 44.079 51.034 44.1892 50.7006 44.342L51.1172 45.2511L51.5339 46.1602C51.6445 46.1095 51.8915 46.0347 52.2695 45.9608C52.6281 45.8906 53.0449 45.8324 53.4552 45.7933C53.8671 45.7541 54.2526 45.7361 54.5502 45.741C54.7 45.7436 54.8105 45.7517 54.8825 45.7614C54.9839 45.7752 54.9302 45.7817 54.8241 45.7246L55.2982 44.8441ZM51.1172 45.2511L50.67 44.3567C50.6164 44.3835 50.5341 44.421 50.4259 44.4702C50.3306 44.5135 50.2094 44.5685 50.115 44.6157L50.5622 45.5101L51.0095 46.4045C51.0631 46.3777 51.1453 46.3401 51.2535 46.291C51.3489 46.2476 51.4701 46.1927 51.5645 46.1455L51.1172 45.2511ZM50.5622 45.5101L50.1909 44.5816C49.6714 44.7894 49.2396 45.2201 48.9518 45.6115C48.6655 46.0008 48.3786 46.546 48.3432 47.1127L49.3412 47.1751L50.3393 47.2375C50.3391 47.2408 50.3435 47.1937 50.3857 47.0972C50.4255 47.0063 50.4859 46.9012 50.5631 46.7962C50.6403 46.6913 50.7236 46.6009 50.8006 46.5336C50.8385 46.5005 50.8709 46.4764 50.8963 46.46C50.9222 46.4432 50.9349 46.4381 50.9336 46.4386L50.5622 45.5101ZM49.3412 47.1751L48.3447 47.092C48.3346 47.2128 48.3138 47.1457 48.4065 47.0344C48.4586 46.9719 48.5303 46.9164 48.6143 46.8803C48.6945 46.8459 48.7583 46.8411 48.7862 46.8411V47.8411V48.8411C49.199 48.8411 49.6303 48.6899 49.943 48.3148C50.2207 47.9815 50.3109 47.5814 50.3378 47.2581L49.3412 47.1751ZM48.7862 47.8411V46.8411C48.8096 46.8411 48.9009 46.8454 49.0135 46.9046C49.1323 46.967 49.2023 47.0525 49.2344 47.1054C49.2596 47.147 49.2536 47.1551 49.2374 47.0888C49.222 47.0257 49.2047 46.9263 49.1887 46.7744L48.1942 46.8791L47.1997 46.9838C47.2376 47.3436 47.3064 47.7828 47.524 48.142C47.6486 48.3476 47.8297 48.5417 48.0826 48.6747C48.3293 48.8044 48.5779 48.8411 48.7862 48.8411V47.8411ZM48.1942 46.8791L49.1893 46.7796C49.1495 46.3821 49.0647 45.9001 48.9377 45.5827L48.0092 45.9541L47.0808 46.3255C47.0799 46.3233 47.0868 46.3409 47.0986 46.3849C47.1098 46.4262 47.1223 46.4795 47.135 46.5433C47.1607 46.6717 47.1838 46.8244 47.1992 46.9786L48.1942 46.8791ZM48.0092 45.9541L48.9037 45.5069C48.9131 45.5257 48.9064 45.5146 48.8825 45.4483C48.8623 45.3921 48.8376 45.3185 48.8098 45.231C48.7545 45.0565 48.6936 44.8478 48.641 44.655L47.6762 44.9181L46.7115 45.1812C46.7699 45.3954 46.8385 45.6307 46.9034 45.8355C46.9591 46.0113 47.0367 46.2451 47.1148 46.4013L48.0092 45.9541ZM47.6762 44.9181L48.6568 44.722C48.5038 43.9569 48.2665 43.0687 48.0443 42.5355L47.1212 42.9201L46.1982 43.3047C46.346 43.6595 46.5527 44.3993 46.6957 45.1142L47.6762 44.9181ZM47.1212 42.9201L48.0699 42.6039C48.0272 42.4757 47.9448 42.0763 47.8699 41.571C47.7968 41.0776 47.7512 40.6215 47.7512 40.4041H46.7512H45.7512C45.7512 40.7787 45.8166 41.3586 45.8915 41.8641C45.9647 42.3579 46.0673 42.9205 46.1726 43.2363L47.1212 42.9201ZM46.7512 40.4041H47.7512C47.7512 39.9647 47.8148 39.8618 47.8287 39.8414C47.8412 39.8229 47.9141 39.7219 48.3312 39.5614L47.9722 38.6281L47.6133 37.6947C47.0684 37.9043 46.5308 38.1918 46.1733 38.7191C45.8172 39.2443 45.7512 39.8444 45.7512 40.4041H46.7512ZM66.774 41.9211L67.5878 42.5023L67.6334 42.4385L67.6684 42.3683L66.774 41.9211ZM66.811 41.8471L66.0217 41.2332L65.9609 41.3113L65.9166 41.3999L66.811 41.8471ZM67.625 42.1431L66.6367 42.2951L66.6495 42.3789L66.6763 42.4593L67.625 42.1431ZM67.736 42.5501L68.6847 42.2339V42.2339L67.736 42.5501ZM68.365 45.3251L69.3306 45.0651L69.323 45.0367L69.3137 45.0089L68.365 45.3251ZM67.995 53.8351L68.8692 54.3208L68.8729 54.3139L67.995 53.8351ZM65.257 55.7961L65.6284 56.7246L65.667 56.7091L65.7042 56.6905L65.257 55.7961ZM63.407 55.9071L62.7996 56.7015L63.0685 56.9071H63.407V55.9071ZM62.778 55.4261L62.1533 56.207L62.1619 56.2138L62.1706 56.2205L62.778 55.4261ZM62.001 54.6121L62.8955 54.1649L62.883 54.1401L62.8693 54.116L62.001 54.6121ZM62.26 52.3921L63.2381 52.184L63.2359 52.1735L63.2334 52.1631L62.26 52.3921ZM65.553 54.7231H64.553V55.1373L64.8459 55.4302L65.553 54.7231ZM67.144 53.3541L68.0774 53.7131L68.0993 53.656L68.1142 53.5966L67.144 53.3541ZM67.292 52.9841L66.4345 52.4696L66.4148 52.5025L66.3976 52.5369L67.292 52.9841ZM67.773 50.7271L66.7736 50.7616L66.7739 50.7687L67.773 50.7271ZM67.477 45.8431L66.5225 46.1414L66.5254 46.1504L66.5283 46.1593L67.477 45.8431ZM67.033 43.8821L68.022 43.7338L68.0184 43.7098L68.0136 43.686L67.033 43.8821ZM66.774 42.9201L65.8796 43.3673V43.3673L66.774 42.9201ZM66.774 41.9211L67.6684 42.3683L67.7055 42.2943L66.811 41.8471L65.9166 41.3999L65.8796 41.4739L66.774 41.9211ZM66.811 41.8471L67.6004 42.461C67.5482 42.5281 67.4586 42.6018 67.3312 42.641C67.2056 42.6796 67.0758 42.6744 66.9631 42.6358C66.7246 42.554 66.6479 42.3684 66.6367 42.2951L67.625 42.1431L68.6134 41.991C68.5281 41.4368 68.174 40.9367 67.6117 40.7439C67.0323 40.5452 66.4045 40.7409 66.0217 41.2332L66.811 41.8471ZM67.625 42.1431L66.6763 42.4593C66.6762 42.4589 66.6794 42.4688 66.6865 42.4956C66.6934 42.5213 66.7007 42.5505 66.7104 42.5891C66.7255 42.6498 66.754 42.7663 66.7873 42.8663L67.736 42.5501L68.6847 42.2339C68.6849 42.2343 68.6817 42.2244 68.6745 42.1976C68.6676 42.1718 68.6603 42.1427 68.6507 42.1041C68.6355 42.0434 68.6071 41.9269 68.5737 41.8269L67.625 42.1431ZM67.736 42.5501L66.7873 42.8663C66.7843 42.8573 66.7928 42.884 66.8142 42.9667C66.8328 43.0387 66.8565 43.1342 66.8829 43.2463C66.9357 43.4708 66.9971 43.7516 67.0492 44.0294L68.032 43.8451L69.0149 43.6608C68.902 43.0584 68.744 42.4118 68.6847 42.2339L67.736 42.5501ZM68.032 43.8451L67.0492 44.0294C67.1584 44.6122 67.3174 45.3444 67.4163 45.6413L68.365 45.3251L69.3137 45.0089C69.2647 44.8618 69.1276 44.262 69.0149 43.6608L68.032 43.8451ZM68.365 45.3251L67.3994 45.5851C67.6187 46.3994 67.735 47.8223 67.735 50.8751H68.735H69.735C69.735 47.8599 69.6294 46.1748 69.3306 45.0651L68.365 45.3251ZM68.735 50.8751H67.735C67.735 51.5807 67.7133 51.9042 67.644 52.1845C67.5758 52.4604 67.4472 52.751 67.1171 53.3562L67.995 53.8351L68.8729 54.3139C69.2088 53.6982 69.4503 53.2118 69.5856 52.6644C69.7198 52.1215 69.735 51.5755 69.735 50.8751H68.735ZM67.995 53.8351L67.1209 53.3495C66.9076 53.7334 66.5932 54.0997 66.274 54.3615C65.9129 54.6577 65.7155 54.6851 65.738 54.6851V55.6851V56.6851C66.4265 56.6851 67.0802 56.287 67.5423 55.9079C68.0464 55.4945 68.5275 54.9358 68.8692 54.3207L67.995 53.8351ZM65.738 55.6851V54.6851C65.5068 54.6851 65.1249 54.7441 64.8098 54.9017L65.257 55.7961L65.7042 56.6905C65.6933 56.696 65.6862 56.6989 65.6836 56.6999C65.6809 56.701 65.6809 56.7009 65.6838 56.7C65.6902 56.6979 65.7018 56.6947 65.7174 56.6914C65.7328 56.6881 65.7464 56.6861 65.7554 56.685C65.7597 56.6845 65.7611 56.6844 65.7595 56.6845C65.7584 56.6846 65.7509 56.6851 65.738 56.6851V55.6851ZM65.257 55.7961L64.8856 54.8676C64.951 54.8415 64.9402 54.8637 64.669 54.8815C64.4213 54.8977 64.0323 54.9071 63.407 54.9071V55.9071V56.9071C64.0398 56.9071 64.4833 56.898 64.7998 56.8772C65.0928 56.858 65.3781 56.8247 65.6284 56.7246L65.257 55.7961ZM63.407 55.9071L64.0145 55.1127L63.3855 54.6317L62.778 55.4261L62.1706 56.2205L62.7996 56.7015L63.407 55.9071ZM62.778 55.4261L63.4027 54.6452C63.2406 54.5155 63.108 54.3962 63.0114 54.2963C62.9035 54.1847 62.8836 54.1412 62.8955 54.1649L62.001 54.6121L61.1066 55.0593C61.2294 55.305 61.4131 55.5205 61.5734 55.6864C61.7451 55.864 61.9455 56.0407 62.1533 56.207L62.778 55.4261ZM62.001 54.6121L62.8693 54.116C62.7694 53.9411 62.6087 53.56 62.4667 53.1428C62.3987 52.943 62.3422 52.7562 62.3041 52.6065C62.2582 52.4267 62.261 52.3842 62.261 52.4291H61.261H60.261C60.261 52.659 60.3193 52.9171 60.366 53.1003C60.4203 53.3137 60.4934 53.5524 60.5734 53.7874C60.7274 54.2397 60.9367 54.7651 61.1328 55.1082L62.001 54.6121ZM61.261 52.4291H62.261C62.261 52.5099 62.2273 52.6528 62.1034 52.7766C61.9895 52.8905 61.8535 52.9337 61.745 52.938C61.5118 52.9474 61.3256 52.7867 61.2866 52.6211L62.26 52.3921L63.2334 52.1631C63.0465 51.3685 62.3607 50.9118 61.6651 50.9396C61.3253 50.9532 60.9673 51.0843 60.6892 51.3624C60.4012 51.6504 60.261 52.0338 60.261 52.4291H61.261ZM62.26 52.3921L61.2819 52.6002C61.4791 53.527 61.7706 54.3381 62.2503 54.9312C62.7747 55.5793 63.4776 55.9081 64.295 55.9081V54.9081V53.9081C64.0765 53.9081 63.9469 53.8483 63.8052 53.6733C63.619 53.4431 63.4109 52.9962 63.2381 52.184L62.26 52.3921ZM64.295 54.9081V55.9081C64.4796 55.9081 64.6933 55.8968 64.8942 55.8739C65.0687 55.8539 65.3299 55.8154 65.5544 55.7256L65.183 54.7971L64.8116 53.8686C64.8449 53.8553 64.8507 53.8572 64.8102 53.8654C64.7762 53.8722 64.728 53.8799 64.6671 53.8868C64.5443 53.9009 64.4064 53.9081 64.295 53.9081V54.9081ZM65.183 54.7971L65.5544 55.7256C65.6014 55.7068 65.6348 55.6988 65.6335 55.699C65.6311 55.6995 65.62 55.7017 65.6019 55.7039C65.5869 55.7056 65.5474 55.7098 65.4927 55.7082C65.4594 55.7073 65.3136 55.7035 65.142 55.6279C65.0482 55.5867 64.9001 55.5037 64.7712 55.3432C64.6295 55.1667 64.553 54.9477 64.553 54.7231H65.553H66.553C66.553 54.1772 66.1617 53.8916 65.9475 53.7973C65.7649 53.717 65.6033 53.7106 65.5498 53.709C65.4164 53.7052 65.3002 53.7261 65.2413 53.7379C65.1012 53.7659 64.9496 53.8134 64.8116 53.8686L65.183 54.7971ZM65.553 54.7231L64.8459 55.4302C65.2633 55.8476 65.7825 55.7383 65.9043 55.7085C66.0888 55.6635 66.2466 55.5822 66.3505 55.5227C66.5727 55.3955 66.8035 55.2177 67.0042 55.0434C67.2107 54.8641 67.4207 54.6576 67.5989 54.4521C67.7555 54.2715 67.9652 54.0048 68.0774 53.7131L67.144 53.3541L66.2107 52.9951C66.2267 52.9536 66.2345 52.9506 66.2055 52.993C66.1807 53.0291 66.142 53.0795 66.0879 53.1418C65.9794 53.267 65.8379 53.4073 65.6928 53.5333C65.5421 53.6642 65.4214 53.7501 65.3568 53.7871C65.3173 53.8096 65.348 53.7856 65.4295 53.7657C65.4717 53.7554 65.5748 53.7342 65.7128 53.7499C65.8623 53.767 66.0762 53.832 66.2601 54.016L65.553 54.7231ZM67.144 53.3541L68.1142 53.5966C68.1141 53.5968 68.1156 53.5909 68.12 53.5787C68.1242 53.5667 68.1299 53.5522 68.1372 53.5353C68.1522 53.5001 68.1682 53.4678 68.1865 53.4313L67.292 52.9841L66.3976 52.5369C66.3653 52.6015 66.2412 52.8421 66.1739 53.1116L67.144 53.3541ZM67.292 52.9841L68.1495 53.4986C68.6072 52.7358 68.8151 51.7159 68.7722 50.6855L67.773 50.7271L66.7739 50.7687C66.805 51.5143 66.6429 52.1223 66.4345 52.4696L67.292 52.9841ZM67.773 50.7271L68.7724 50.6926C68.7169 49.0834 68.6703 47.9343 68.6233 47.1434C68.5998 46.7487 68.5755 46.4314 68.5486 46.1853C68.5244 45.9645 68.4909 45.7223 68.4257 45.5269L67.477 45.8431L66.5283 46.1593C66.5187 46.1304 66.536 46.1796 66.5604 46.4028C66.5821 46.6006 66.604 46.88 66.6268 47.2623C66.6722 48.0254 66.7181 49.1518 66.7736 50.7616L67.773 50.7271ZM67.477 45.8431L68.4315 45.5448C68.2623 45.0033 68.1256 44.4245 68.022 43.7338L67.033 43.8821L66.0441 44.0304C66.1625 44.8197 66.3218 45.4989 66.5225 46.1414L67.477 45.8431ZM67.033 43.8821L68.0136 43.686C67.9733 43.4845 67.9227 43.2613 67.8706 43.0633C67.8275 42.8994 67.7586 42.6532 67.6684 42.4729L66.774 42.9201L65.8796 43.3673C65.863 43.3342 65.8652 43.3308 65.8834 43.3873C65.8981 43.4329 65.9162 43.4954 65.9365 43.5723C65.9769 43.7259 66.0187 43.9096 66.0524 44.0782L67.033 43.8821ZM66.774 42.9201L67.6684 42.4729C67.6342 42.4043 67.6353 42.3716 67.6353 42.379C67.6353 42.3835 67.6346 42.399 67.6276 42.4224C67.6204 42.4464 67.6077 42.4744 67.5878 42.5023L66.774 41.9211L65.9603 41.3399C65.4938 41.9929 65.5869 42.782 65.8796 43.3673L66.774 42.9201ZM74.9782 40.4041L75.9145 40.7552L76.5832 38.9721L74.7357 39.434L74.9782 40.4041ZM74.8672 40.7001L73.9309 40.349L73.2622 42.1321L75.1097 41.6702L74.8672 40.7001ZM76.2362 40.8481L76.7909 40.016L76.766 39.9994L76.7401 39.9843L76.2362 40.8481ZM77.9382 42.1431L77.0807 42.6576L77.0929 42.678L77.1061 42.6978L77.9382 42.1431ZM78.4562 42.9201L79.2938 42.3738L79.2882 42.3654L78.4562 42.9201ZM79.5662 45.2511L80.531 45.5142L80.5443 45.4654L80.5526 45.4155L79.5662 45.2511ZM78.6412 45.3251L77.8275 45.9063L77.8433 45.9285L77.8603 45.9498L78.6412 45.3251ZM77.9382 44.0301L77.0244 44.4362L77.0306 44.4502L77.0372 44.4639L77.9382 44.0301ZM77.4572 43.2161L78.1643 42.509V42.509L77.4572 43.2161ZM77.1612 42.8091L76.1997 43.0838L76.2056 43.1047L76.2125 43.1253L77.1612 42.8091ZM75.9032 41.7731L76.3711 40.8893L76.3608 40.8839L76.3504 40.8787L75.9032 41.7731ZM75.2002 41.6251L75.0588 40.6351L75.0077 40.6424L74.9577 40.655L75.2002 41.6251ZM73.8682 42.9571L73.1 42.3169L73.0696 42.3533L73.0429 42.3924L73.8682 42.9571ZM73.3132 46.0651L74.3126 46.0984L74.3129 46.0901L74.3131 46.0818L73.3132 46.0651ZM73.4612 47.6191L72.5668 48.0663V48.0663L73.4612 47.6191ZM75.4222 48.2851L75.5127 47.2892L75.5088 47.2889L75.4222 48.2851ZM77.5682 48.5071L77.6677 47.5121H77.6677L77.5682 48.5071ZM78.5302 48.5811L78.6041 47.5838L78.5672 47.5811H78.5302V48.5811ZM81.4902 49.9131L82.24 49.2515L82.2294 49.2394L82.2184 49.2277L81.4902 49.9131ZM81.4902 53.7611L82.0714 54.5748L82.0936 54.559L82.1149 54.542L81.4902 53.7611ZM79.3812 54.6861L79.7359 55.6211L79.7556 55.6136L79.7751 55.6052L79.3812 54.6861ZM75.3112 54.8711L76.1687 54.3566L76.1421 54.3124L76.1112 54.2711L75.3112 54.8711ZM75.6072 53.2801L76.5878 53.084L76.5785 53.0378L76.565 52.9927L75.6072 53.2801ZM76.0142 53.9831L75.2616 54.6416L75.5604 54.9831H76.0142V53.9831ZM78.9742 53.6501L79.3933 54.5581L79.4074 54.5515L79.4214 54.5445L78.9742 53.6501ZM79.4182 53.4651L79.7896 54.3936L79.8282 54.3781L79.8654 54.3595L79.4182 53.4651ZM81.0092 52.7621L81.66 53.5214L81.6891 53.4964L81.7163 53.4692L81.0092 52.7621ZM81.1572 50.8011H82.1572V50.4174L81.9005 50.1321L81.1572 50.8011ZM80.8242 50.4311L81.5675 49.7621L81.5657 49.7602L80.8242 50.4311ZM75.9772 49.0991L75.8843 50.0948L75.8867 50.095L75.9772 49.0991ZM72.3882 47.2861H71.3882V47.5321L71.5024 47.7501L72.3882 47.2861ZM72.9802 42.4021L72.2731 41.695L72.2339 41.7342L72.1993 41.7774L72.9802 42.4021ZM73.3132 41.8471L74.1814 42.3432L74.1952 42.3191L74.2076 42.2943L73.3132 41.8471ZM73.7202 41.2921L74.0364 42.2408L74.1038 42.2183L74.1674 42.1865L73.7202 41.2921ZM74.0162 41.0701L74.7233 41.7772L74.7736 41.7269L74.8162 41.6701L74.0162 41.0701ZM74.9782 40.4041L74.0419 40.053L73.9309 40.349L74.8672 40.7001L75.8035 41.0512L75.9145 40.7552L74.9782 40.4041ZM74.8672 40.7001L75.1097 41.6702C75.3508 41.61 75.4523 41.6105 75.4991 41.6156C75.5322 41.6192 75.5912 41.6296 75.7323 41.7119L76.2362 40.8481L76.7401 39.9843C76.4372 39.8076 76.1077 39.67 75.7153 39.6273C75.3366 39.5862 74.9756 39.6422 74.6247 39.73L74.8672 40.7001ZM76.2362 40.8481L75.6815 41.6801C75.822 41.7738 75.9627 41.8561 76.0803 41.918C76.1382 41.9484 76.2007 41.9794 76.2616 42.0056C76.2909 42.0183 76.3327 42.0355 76.3808 42.0514C76.3921 42.0551 76.5357 42.1071 76.7172 42.1071V41.1071V40.1071C76.7756 40.1071 76.823 40.1123 76.8537 40.1167C76.8858 40.1212 76.9123 40.1267 76.9311 40.131C76.9677 40.1394 76.9952 40.148 77.0092 40.1527C77.0247 40.1578 77.036 40.1621 77.042 40.1645C77.0484 40.1669 77.0524 40.1687 77.0537 40.1692C77.0556 40.17 77.0419 40.164 77.0118 40.1482C76.9537 40.1176 76.8724 40.0704 76.7909 40.016L76.2362 40.8481ZM76.7172 41.1071V42.1071C76.577 42.1071 76.4718 42.0765 76.4307 42.0637C76.3803 42.0478 76.3433 42.0314 76.3248 42.0227C76.3044 42.0132 76.2899 42.0053 76.2829 42.0014C76.2753 41.9972 76.271 41.9945 76.2705 41.9942C76.2699 41.9938 76.276 41.9977 76.29 42.0074C76.3034 42.0167 76.3206 42.0291 76.3419 42.045C76.4298 42.1105 76.551 42.2079 76.68 42.3177C76.8083 42.4267 76.9323 42.5375 77.0263 42.627C77.0737 42.6723 77.1069 42.7058 77.1266 42.727C77.1364 42.7375 77.138 42.7397 77.1341 42.735C77.1339 42.7348 77.1098 42.7061 77.0807 42.6576L77.9382 42.1431L78.7957 41.6286C78.7229 41.5072 78.6305 41.4072 78.5902 41.364C78.5336 41.3032 78.4696 41.2398 78.4061 41.1793C78.2781 41.0573 78.1246 40.9206 77.9753 40.7938C77.8269 40.6676 77.6706 40.5408 77.5365 40.441C77.4715 40.3926 77.3969 40.3393 77.3235 40.2939C77.2882 40.272 77.2346 40.2403 77.1712 40.2107C77.1514 40.2014 76.9646 40.1071 76.7172 40.1071V41.1071ZM77.9382 42.1431L77.1061 42.6978C77.1801 42.8088 77.4021 43.1418 77.6241 43.4748L78.4562 42.9201L79.2882 42.3654C79.0662 42.0324 78.8442 41.6994 78.7702 41.5884L77.9382 42.1431ZM78.4562 42.9201L77.6186 43.4664C77.8671 43.8474 78.1324 44.334 78.3296 44.75C78.4283 44.9581 78.502 45.1318 78.5464 45.2541C78.5691 45.3167 78.5778 45.3484 78.5794 45.3551C78.5911 45.4039 78.5484 45.2749 78.5798 45.0867L79.5662 45.2511L80.5526 45.4155C80.5932 45.1718 80.5401 44.9549 80.5244 44.8891C80.4985 44.7811 80.4627 44.6716 80.4264 44.5717C80.3529 44.3691 80.2508 44.1335 80.1367 43.893C79.9085 43.4116 79.6003 42.8438 79.2938 42.3738L78.4562 42.9201ZM79.5662 45.2511L78.6014 44.988C78.6266 44.8959 78.6872 44.789 78.7926 44.7049C78.8941 44.6238 79.0049 44.5895 79.0964 44.5824C79.2765 44.5686 79.3834 44.652 79.4221 44.7004L78.6412 45.3251L77.8603 45.9498C78.195 46.3682 78.7089 46.6181 79.2498 46.5765C79.8236 46.5324 80.3571 46.1518 80.531 45.5142L79.5662 45.2511ZM78.6412 45.3251L79.4549 44.7439C79.3614 44.6129 79.3366 44.5807 79.2749 44.4694C79.1988 44.3325 79.0815 44.0996 78.8392 43.5963L77.9382 44.0301L77.0372 44.4639C77.5246 45.4762 77.5913 45.5757 77.8275 45.9063L78.6412 45.3251ZM77.9382 44.0301L78.852 43.624C78.7604 43.4179 78.6494 43.2073 78.5437 43.0293C78.4556 42.881 78.3175 42.6621 78.1643 42.509L77.4572 43.2161L76.7501 43.9232C76.7151 43.8882 76.71 43.875 76.7383 43.9156C76.7598 43.9463 76.7892 43.9919 76.824 44.0504C76.894 44.1684 76.968 44.3093 77.0244 44.4362L77.9382 44.0301ZM77.4572 43.2161L78.1643 42.509C78.1553 42.4999 78.1414 42.4852 78.125 42.4663C78.1088 42.4477 78.0937 42.429 78.0814 42.4126C78.0754 42.4046 78.0709 42.3982 78.0678 42.3936C78.0646 42.3889 78.0638 42.3875 78.0649 42.3894C78.0659 42.3909 78.0707 42.3991 78.0777 42.4132C78.0812 42.4205 78.086 42.4306 78.0913 42.4433C78.0966 42.4558 78.1031 42.4725 78.1099 42.4929L77.1612 42.8091L76.2125 43.1253C76.2853 43.3436 76.4166 43.5261 76.4814 43.6126C76.565 43.7241 76.6608 43.8339 76.7501 43.9232L77.4572 43.2161ZM77.1612 42.8091L78.1227 42.5344C78.0441 42.2591 77.8818 42.05 77.777 41.9293C77.656 41.7898 77.5146 41.66 77.3727 41.5442C77.0877 41.3116 76.735 41.082 76.3711 40.8893L75.9032 41.7731L75.4353 42.6569C75.7004 42.7972 75.9397 42.9561 76.1079 43.0935C76.1927 43.1627 76.2432 43.2132 76.2667 43.2403C76.3064 43.2861 76.2413 43.2295 76.1997 43.0838L77.1612 42.8091ZM75.9032 41.7731L76.3504 40.8787C76.1671 40.787 75.945 40.6807 75.6972 40.6335C75.4182 40.5804 75.1838 40.6173 75.0588 40.6351L75.2002 41.6251L75.3416 42.615C75.3721 42.6107 75.3907 42.6082 75.4043 42.6066C75.4173 42.6051 75.4191 42.6053 75.4143 42.6055C75.4085 42.6058 75.3954 42.6061 75.3775 42.605C75.359 42.6039 75.3405 42.6015 75.323 42.5982C75.2886 42.5916 75.2759 42.5846 75.2994 42.594C75.3255 42.6046 75.3718 42.6254 75.456 42.6675L75.9032 41.7731ZM75.2002 41.6251L74.9577 40.655C74.7257 40.7129 74.5146 40.834 74.3866 40.9133C74.2345 41.0076 74.0796 41.1199 73.9406 41.2329C73.8043 41.3436 73.6599 41.4738 73.5393 41.6085C73.4804 41.6744 73.4075 41.763 73.3434 41.8678C73.2993 41.9399 73.1642 42.1668 73.1642 42.4761H74.1642H75.1642C75.1642 42.624 75.129 42.735 75.1079 42.7907C75.0852 42.8507 75.0614 42.892 75.0497 42.9111C75.0273 42.9478 75.0145 42.9592 75.0296 42.9424C75.057 42.9118 75.1161 42.8547 75.2018 42.7851C75.2848 42.7177 75.3704 42.6565 75.4403 42.6132C75.475 42.5917 75.4978 42.5796 75.5082 42.5745C75.5246 42.5666 75.4992 42.5811 75.4427 42.5952L75.2002 41.6251ZM74.1642 42.4761H73.1642C73.1642 42.4176 73.1694 42.3701 73.1739 42.3389C73.1785 42.3063 73.1841 42.2794 73.1886 42.2599C73.1973 42.2221 73.2065 42.1934 73.2118 42.178C73.2222 42.147 73.231 42.1277 73.2324 42.1245C73.2362 42.1161 73.2331 42.1237 73.2201 42.1462C73.1948 42.19 73.1527 42.2537 73.1 42.3169L73.8682 42.9571L74.6364 43.5973C74.7687 43.4385 74.8746 43.2802 74.951 43.1483C74.9889 43.0828 75.0252 43.0141 75.0555 42.9467C75.0703 42.9141 75.0891 42.8697 75.1064 42.8186C75.1115 42.8034 75.1642 42.6594 75.1642 42.4761H74.1642ZM73.8682 42.9571L73.0429 42.3924C72.77 42.7913 72.5504 43.1508 72.44 43.7653C72.3483 44.2751 72.3313 44.9717 72.3133 46.0484L73.3132 46.0651L74.3131 46.0818C74.3321 44.9385 74.3521 44.4325 74.4084 44.1192C74.4459 43.9104 74.4854 43.8259 74.6935 43.5218L73.8682 42.9571ZM73.3132 46.0651L72.3138 46.0318C72.2964 46.5522 72.2824 46.9283 72.3081 47.2101C72.3427 47.5909 72.4488 47.8303 72.5668 48.0663L73.4612 47.6191L74.3556 47.1719C74.312 47.0846 74.3049 47.0644 74.3035 47.0601C74.3034 47.0598 74.3036 47.0603 74.3038 47.0612C74.3041 47.062 74.3041 47.0622 74.3039 47.0614C74.3036 47.0598 74.3018 47.0505 74.2998 47.0291C74.2885 46.9038 74.293 46.6879 74.3126 46.0984L73.3132 46.0651ZM73.4612 47.6191L72.5668 48.0663C72.6145 48.1617 72.7166 48.379 72.8712 48.5634C73.0691 48.7993 73.3104 48.9465 73.579 49.0377C73.8076 49.1154 74.0644 49.1545 74.3162 49.1845C74.579 49.2157 74.9168 49.2449 75.3356 49.2813L75.4222 48.2851L75.5088 47.2889C75.0766 47.2513 74.7761 47.225 74.5521 47.1984C74.4421 47.1854 74.3631 47.1736 74.3052 47.1628C74.277 47.1576 74.2566 47.153 74.2423 47.1495C74.2281 47.146 74.222 47.1439 74.2222 47.144C74.2456 47.1519 74.332 47.1927 74.4038 47.2784C74.4324 47.3125 74.4374 47.3355 74.3556 47.1719L73.4612 47.6191ZM75.4222 48.2851L75.3317 49.281C76.147 49.3551 77.0666 49.4619 77.4687 49.5021L77.5682 48.5071L77.6677 47.5121C77.3298 47.4783 76.3253 47.3631 75.5127 47.2892L75.4222 48.2851ZM77.5682 48.5071L77.4687 49.5021C77.8221 49.5375 78.3215 49.5811 78.5302 49.5811V48.5811V47.5811C78.5302 47.5811 78.5217 47.581 78.5016 47.5802C78.4827 47.5795 78.4584 47.5783 78.4287 47.5765C78.3691 47.573 78.2951 47.5677 78.2111 47.5611C78.0435 47.5478 77.847 47.53 77.6677 47.5121L77.5682 48.5071ZM78.5302 48.5811L78.4563 49.5784C78.8041 49.6041 79.279 49.7364 79.7502 49.9499C80.229 50.1668 80.59 50.4157 80.762 50.5985L81.4902 49.9131L82.2184 49.2277C81.7984 48.7815 81.1789 48.4014 80.5755 48.1281C79.9644 47.8513 79.2553 47.6321 78.6041 47.5838L78.5302 48.5811ZM81.4902 49.9131L80.7404 50.5747C81.0275 50.9002 81.0281 50.9354 81.036 50.962C81.0641 51.0561 81.0822 51.2345 81.0822 51.9111H82.0822H83.0822C83.0822 51.3297 83.0818 50.8236 82.9526 50.3904C82.8033 49.8898 82.5078 49.555 82.24 49.2515L81.4902 49.9131ZM82.0822 51.9111H81.0822C81.0822 52.228 81.0796 52.4442 81.0696 52.6071C81.0596 52.771 81.0444 52.8287 81.0405 52.8411C81.0398 52.8432 81.042 52.8361 81.0481 52.8251C81.0541 52.8144 81.0582 52.81 81.0547 52.8142C81.0394 52.8322 80.9975 52.8746 80.8655 52.9802L81.4902 53.7611L82.1149 54.542C82.4156 54.3014 82.774 53.9948 82.9482 53.4416C83.0833 53.0123 83.0822 52.4827 83.0822 51.9111H82.0822ZM81.4902 53.7611L80.909 52.9474C80.9175 52.9412 80.9049 52.9506 80.8568 52.9781C80.8141 53.0025 80.7582 53.0329 80.6909 53.068C80.5565 53.138 80.393 53.2183 80.2302 53.2943C80.0663 53.3708 79.9133 53.4382 79.799 53.4844C79.7406 53.508 79.7036 53.5214 79.6858 53.5273C79.6765 53.5304 79.6835 53.5277 79.7018 53.5233C79.7027 53.523 79.7845 53.5011 79.8992 53.5011V54.5011V55.5011C80.0324 55.5011 80.1408 55.4748 80.1754 55.4664C80.2275 55.4537 80.2754 55.4389 80.313 55.4264C80.3893 55.4012 80.4712 55.3699 80.5486 55.3386C80.706 55.275 80.893 55.1921 81.076 55.1067C81.405 54.9531 81.8535 54.7305 82.0714 54.5748L81.4902 53.7611ZM79.8992 54.5011V53.5011C79.7757 53.5011 79.6749 53.525 79.6607 53.5281C79.6227 53.5366 79.5882 53.546 79.5619 53.5536C79.508 53.5691 79.4499 53.5882 79.3931 53.6081C79.2778 53.6485 79.1363 53.7031 78.9873 53.7669L79.3812 54.6861L79.7751 55.6052C79.885 55.5581 79.9841 55.5202 80.0538 55.4958C80.0895 55.4833 80.11 55.477 80.1162 55.4752C80.12 55.4741 80.1109 55.4769 80.0931 55.4808C80.0842 55.4828 80.0659 55.4867 80.0413 55.4905C80.0286 55.4924 80.011 55.4948 79.9895 55.4968C79.9691 55.4988 79.9377 55.5011 79.8992 55.5011V54.5011ZM79.3812 54.6861L79.0265 53.7511C78.6406 53.8975 77.8061 54.0309 76.9785 54.0711C76.5784 54.0906 76.232 54.0855 75.9925 54.0608C75.9349 54.0548 75.889 54.0483 75.854 54.042C75.8367 54.0389 75.8235 54.0361 75.814 54.0339C75.8043 54.0317 75.8 54.0303 75.8002 54.0304C75.8002 54.0304 75.8076 54.0326 75.8206 54.038C75.8332 54.0433 75.8563 54.0536 75.8859 54.0709C75.9342 54.0991 76.0645 54.183 76.1687 54.3566L75.3112 54.8711L74.4537 55.3856C74.5856 55.6054 74.7636 55.7315 74.8775 55.798C74.998 55.8684 75.1171 55.9127 75.2114 55.9417C75.3993 55.9996 75.6027 56.0312 75.7873 56.0502C76.1641 56.0891 76.6202 56.0909 77.0757 56.0688C77.9593 56.0258 79.0488 55.8817 79.7359 55.6211L79.3812 54.6861ZM75.3112 54.8711L76.1112 54.2711C75.9332 54.0338 75.7526 53.7293 75.6187 53.4537C75.5523 53.3169 75.5047 53.2022 75.476 53.1192C75.4375 53.0076 75.4602 53.0308 75.4602 53.1321H74.4602H73.4602C73.4602 53.3814 73.5338 53.622 73.5854 53.7717C73.647 53.95 73.7289 54.1405 73.8197 54.3275C74.0003 54.6994 74.2452 55.1164 74.5112 55.4711L75.3112 54.8711ZM74.4602 53.1321H75.4602C75.4602 53.4047 75.3167 53.5485 75.2729 53.5861C75.218 53.6331 75.1233 53.6881 74.9782 53.6881V52.6881V51.6881C74.5741 51.6881 74.2204 51.8541 73.9713 52.0676C73.7332 52.2717 73.4602 52.6375 73.4602 53.1321H74.4602ZM74.9782 52.6881V53.6881C74.9244 53.6881 74.8634 53.6775 74.8029 53.6524C74.7433 53.6277 74.6994 53.5953 74.6708 53.568C74.6184 53.5179 74.6282 53.4968 74.6494 53.5674L75.6072 53.2801L76.565 52.9927C76.3908 52.4122 75.9035 51.6881 74.9782 51.6881V52.6881ZM75.6072 53.2801L74.6266 53.4762C74.7107 53.8965 74.9398 54.2738 75.2616 54.6416L76.0142 53.9831L76.7668 53.3246C76.5706 53.1004 76.5777 53.0337 76.5878 53.084L75.6072 53.2801ZM76.0142 53.9831V54.9831H76.9762V53.9831V52.9831H76.0142V53.9831ZM76.9762 53.9831V54.9831C77.935 54.9831 78.7272 54.8655 79.3933 54.5581L78.9742 53.6501L78.5551 52.7421C78.2592 52.8787 77.7934 52.9831 76.9762 52.9831V53.9831ZM78.9742 53.6501L79.4214 54.5445C79.4155 54.5475 79.4213 54.5444 79.4469 54.5333C79.4695 54.5235 79.499 54.5111 79.5353 54.4961C79.6083 54.4661 79.6958 54.4311 79.7896 54.3936L79.4182 53.4651L79.0468 52.5366C78.8898 52.5994 78.6491 52.6946 78.527 52.7557L78.9742 53.6501ZM79.4182 53.4651L79.8654 54.3595C79.8589 54.3628 79.859 54.3622 79.8666 54.3595C79.8738 54.357 79.8828 54.3543 79.892 54.352C79.9015 54.3496 79.906 54.349 79.9033 54.3494C79.9017 54.3496 79.8955 54.3506 79.8852 54.3515C79.8798 54.352 79.8723 54.3526 79.863 54.3531C79.8538 54.3536 79.841 54.3541 79.8252 54.3541V53.3541V52.3541C79.6709 52.3541 79.5161 52.3844 79.4069 52.4117C79.283 52.4427 79.127 52.4926 78.971 52.5707L79.4182 53.4651ZM79.8252 53.3541V54.3541C79.9844 54.3541 80.1197 54.3195 80.1832 54.3021C80.2636 54.28 80.3416 54.2527 80.4101 54.2264C80.5481 54.1735 80.6966 54.1058 80.8367 54.0358C81.0928 53.9077 81.4335 53.7154 81.66 53.5214L81.0092 52.7621L80.3584 52.0028C80.3605 52.0011 80.3504 52.0097 80.323 52.0286C80.2972 52.0464 80.2636 52.0682 80.2224 52.0932C80.1397 52.1433 80.0412 52.1974 79.9422 52.2469C79.8418 52.2972 79.7544 52.3358 79.6936 52.3592C79.6626 52.3711 79.6504 52.3744 79.6539 52.3734C79.6561 52.3728 79.6697 52.3691 79.6922 52.3651C79.7115 52.3617 79.7594 52.3541 79.8252 52.3541V53.3541ZM81.0092 52.7621L81.7163 53.4692C81.7968 53.3887 81.9367 53.2381 82.0299 52.9922C82.1039 52.7967 82.1252 52.6001 82.1361 52.4508C82.158 52.1496 82.1572 51.6449 82.1572 50.8011H81.1572H80.1572C80.1572 51.6962 80.1564 52.0981 80.1413 52.3057C80.1337 52.4107 80.1272 52.3691 80.1596 52.2834C80.1804 52.2286 80.2102 52.1726 80.2478 52.1206C80.2805 52.0754 80.3086 52.0485 80.3021 52.055L81.0092 52.7621ZM81.1572 50.8011L81.9005 50.1321L81.5675 49.7621L80.8242 50.4311L80.0809 51.1001L80.4139 51.4701L81.1572 50.8011ZM80.8242 50.4311L81.5657 49.7602C81.0711 49.2135 80.5005 48.8639 79.6254 48.6211C78.8104 48.395 77.69 48.2507 76.0677 48.1032L75.9772 49.0991L75.8867 50.095C77.5204 50.2435 78.472 50.3767 79.0907 50.5483C79.6494 50.7033 79.8743 50.8717 80.0827 51.102L80.8242 50.4311ZM75.9772 49.0991L76.0701 48.1034C75.3646 48.0376 74.8775 47.9917 74.5091 47.9362C74.1377 47.8803 73.9785 47.8262 73.8982 47.7856C73.7943 47.7331 73.7293 47.6913 73.274 46.8221L72.3882 47.2861L71.5024 47.7501C71.8611 48.4349 72.2031 49.17 72.9964 49.5708C73.3648 49.7569 73.7767 49.8485 74.2112 49.9139C74.6487 49.9798 75.2023 50.0311 75.8843 50.0948L75.9772 49.0991ZM72.3882 47.2861H73.3882V46.1021H72.3882H71.3882V47.2861H72.3882ZM72.3882 46.1021H73.3882C73.3882 44.9808 73.426 44.2624 73.5049 43.7731C73.5812 43.3003 73.6837 43.1235 73.7611 43.0268L72.9802 42.4021L72.1993 41.7774C71.8327 42.2357 71.6392 42.7804 71.5305 43.4546C71.4244 44.1123 71.3882 44.9663 71.3882 46.1021H72.3882ZM72.9802 42.4021L73.6873 43.1092C73.7894 43.0071 73.8656 42.8811 73.8701 42.874C73.9006 42.8261 73.934 42.7707 73.966 42.7166C74.0306 42.6072 74.1087 42.4706 74.1814 42.3432L73.3132 41.8471L72.445 41.351C72.3697 41.4826 72.2998 41.605 72.2441 41.6991C72.216 41.7467 72.1962 41.7792 72.184 41.7984C72.1776 41.8083 72.1778 41.8077 72.1828 41.8005C72.1854 41.7968 72.1927 41.7867 72.2036 41.7729C72.212 41.7622 72.2364 41.7317 72.2731 41.695L72.9802 42.4021ZM73.3132 41.8471L74.2076 42.2943C74.2374 42.2347 74.2649 42.1835 74.2894 42.1411C74.3144 42.0979 74.3329 42.0697 74.3443 42.0537C74.3578 42.0348 74.3517 42.0467 74.3245 42.0729C74.3099 42.0869 74.2818 42.1124 74.2399 42.1409C74.1989 42.1688 74.1307 42.2094 74.0364 42.2408L73.7202 41.2921L73.404 40.3434C73.1736 40.4202 73.0167 40.5556 72.9367 40.6327C72.8459 40.7202 72.7727 40.813 72.7168 40.8912C72.6048 41.0481 72.5042 41.229 72.4188 41.3999L73.3132 41.8471ZM73.7202 41.2921L74.1674 42.1865C74.2873 42.1266 74.401 42.0454 74.4682 41.995C74.5435 41.9385 74.64 41.8605 74.7233 41.7772L74.0162 41.0701L73.3091 40.363C73.3141 40.358 73.3162 40.3561 73.3147 40.3575C73.3134 40.3586 73.3104 40.3613 73.3055 40.3654C73.2955 40.3739 73.2824 40.3843 73.2682 40.395C73.2538 40.4058 73.2427 40.4134 73.2369 40.4172C73.2342 40.419 73.235 40.4184 73.2391 40.416C73.2423 40.4141 73.2542 40.4071 73.273 40.3977L73.7202 41.2921ZM74.0162 41.0701L74.8162 41.6701C74.8428 41.6346 74.9185 41.5583 75.0341 41.4792C75.087 41.443 75.1365 41.4144 75.1767 41.3946C75.2202 41.3731 75.2351 41.3707 75.2207 41.3742L74.9782 40.4041L74.7357 39.434C74.4302 39.5103 74.1345 39.6714 73.9048 39.8285C73.6689 39.9899 73.4116 40.2095 73.2162 40.4701L74.0162 41.0701Z" fill="url(#paint0_linear_1401_1834)" mask="url(#path-3-outside-1_1401_1834)"/>
<defs>
<filter id="filter0_f_1401_1834" x="-0.00019455" y="-0.00019455" width="115.947" height="89.9921" filterUnits="userSpaceOnUse" color-interpolation-filters="sRGB">
<feFlood flood-opacity="0" result="BackgroundImageFix"/>
<feBlend mode="normal" in="SourceGraphic" in2="BackgroundImageFix" result="shape"/>
<feGaussianBlur stdDeviation="8.4" result="effect1_foregroundBlur_1401_1834"/>
</filter>
<linearGradient id="paint0_linear_1401_1834" x1="57.3777" y1="42.0235" x2="59.0884" y2="63.4069" gradientUnits="userSpaceOnUse">
<stop offset="0.201426" stop-color="#B4B4B4"/>
<stop offset="1" stop-color="#2D2D2D"/>
</linearGradient>
</defs>
</svg>
