<svg width="141" height="90" viewBox="0 0 141 90" fill="none" xmlns="http://www.w3.org/2000/svg">
<g filter="url(#filter0_f_1401_1827)">
<rect x="16.7998" y="16.7998" width="107.362" height="56.3921" fill="white"/>
<rect x="17.2998" y="17.2998" width="106.362" height="55.3921" stroke="black"/>
</g>
<mask id="path-3-outside-1_1401_1827" maskUnits="userSpaceOnUse" x="27.0488" y="35.5488" width="87" height="20" fill="black">
<rect fill="white" x="27.0488" y="35.5488" width="87" height="20"/>
<path d="M31.0568 36.7079C31.2488 36.5159 31.2808 36.5159 31.5048 36.6119C31.6968 36.7079 31.8248 37.0599 31.9528 37.8279C32.0808 38.6599 32.0488 39.1719 31.6968 42.1479C31.6328 42.7559 31.5368 43.4919 31.5048 43.7799C31.4728 44.0679 31.4408 44.4519 31.3448 45.0279H34.7048L34.8648 45.1879C35.0568 45.3799 35.0568 45.5719 34.8968 45.7319C34.7688 45.8599 34.6728 45.8599 31.3128 45.8599L31.2808 46.1479C31.2488 46.3079 31.2168 46.8519 31.1848 47.3319C31.1528 47.8119 31.0888 48.3879 31.0568 48.6119C31.0248 48.8039 30.9928 49.1559 30.9928 49.3799C30.9928 49.6039 30.9608 49.9239 30.9288 50.1159C30.8328 50.5319 30.6728 51.7799 30.6728 52.0359C30.6728 52.1319 30.6408 52.3239 30.6088 52.4519C30.5768 52.6759 30.5768 52.7079 30.6728 52.6439C30.7368 52.6119 31.2808 52.5799 31.8568 52.5479C33.1688 52.4839 33.4248 52.3879 34.0008 51.7479C34.4168 51.2679 34.5128 51.2039 34.7688 51.2999C35.2168 51.4919 35.1208 51.9079 34.4808 52.5159C33.8728 53.1239 33.0088 53.3799 31.6968 53.3799C31.6328 53.3799 31.2808 53.4119 30.9288 53.4439C29.6808 53.5399 29.6808 53.5399 29.8728 51.5879C29.9048 51.2359 29.9688 50.7879 30.0008 50.5639C30.0328 50.3399 30.0968 49.9559 30.1288 49.6999C30.1608 49.4439 30.2568 48.8679 30.3208 48.4519C30.3848 48.0039 30.4488 47.3639 30.4488 46.8839C30.4488 46.4359 30.4808 46.0519 30.5128 45.9559C30.6088 45.7319 30.6088 45.7319 29.3928 45.7319C28.1768 45.7319 28.0488 45.6999 28.0488 45.2839C28.0488 44.8999 28.2088 44.8359 30.6088 44.8359L30.6408 44.4519C30.7048 43.7159 30.8328 42.7239 30.8968 42.4039C30.9288 42.2439 30.9928 41.8279 31.0248 41.4759C31.0568 41.1239 31.1208 40.4199 31.1848 39.9399C31.3128 38.8519 31.3128 38.4359 31.1848 37.7639C30.9928 36.8359 30.8648 36.8999 31.0568 36.7079Z"/>
<path d="M43.9948 41.1559L44.0268 41.0919C44.1548 40.9319 44.4428 40.9319 44.6028 41.0919C44.7308 41.2199 44.7308 41.2519 44.6668 42.4999C44.6348 43.2039 44.5708 44.0679 44.5388 44.3879C44.4748 44.7719 44.4428 45.8599 44.4428 49.6679L44.6668 50.1479C44.7948 50.4039 44.8908 50.6599 44.8908 50.7239C44.8908 50.7879 44.9228 50.9159 44.9868 51.0439C45.0508 51.1719 45.1148 51.3959 45.1468 51.5559C45.1788 51.8119 45.2428 51.9079 45.4668 52.1319C45.8828 52.5159 45.7868 52.8359 45.2428 52.8999C44.6988 52.9639 44.3468 52.5799 44.3468 51.9079C44.3468 51.7479 44.2828 51.5239 44.2188 51.3639C44.1548 51.2359 44.0588 50.9799 44.0268 50.7879C43.9948 50.5959 43.9308 50.3719 43.8668 50.2759C43.7068 50.0199 43.6428 49.5719 43.6428 48.6119C43.6428 47.4279 43.6108 47.3959 43.2268 48.1639C43.0668 48.5159 42.8428 48.8999 42.7468 49.0279C42.6508 49.1559 42.5548 49.2839 42.5548 49.3479C42.5548 49.4439 42.2028 49.9239 41.9468 50.1799C41.8188 50.3079 41.7228 50.4359 41.7228 50.4679C41.7228 50.5639 40.8268 51.1719 40.5708 51.2679C39.8028 51.5239 38.8748 50.9159 38.4908 49.9559C38.2668 49.3159 38.3628 44.1639 38.6508 43.2359C38.7148 43.0119 38.8108 42.6599 38.8748 42.4679C39.0348 41.9559 39.3868 41.7959 39.7068 42.1159C39.8668 42.2759 39.8668 42.2759 39.6748 42.8519C39.4508 43.6199 39.3868 43.9079 39.3228 44.7079C39.2268 46.0519 39.2588 49.3799 39.3548 49.6679C39.4828 49.9879 39.9948 50.4679 40.1868 50.4679C40.4748 50.4679 41.6908 49.4759 41.6908 49.2519C41.6908 49.2199 41.7868 49.0599 41.9148 48.8999C42.1708 48.5159 42.7468 47.4279 42.7468 47.2999C42.7468 47.2679 42.8748 46.9799 43.0028 46.6599C43.2588 46.0519 43.5788 44.9319 43.6108 44.6119C43.6108 44.5159 43.6428 44.2279 43.6748 44.0039C43.7708 43.4919 43.7708 43.3959 43.8348 42.2119C43.8668 41.5079 43.8988 41.2519 43.9948 41.1559Z"/>
<path d="M51.8693 36.7079C52.0613 36.5159 52.0933 36.5159 52.3173 36.6119C52.5093 36.7079 52.6373 37.0599 52.7653 37.8279C52.8933 38.6599 52.8613 39.1719 52.5093 42.1479C52.4453 42.7559 52.3493 43.4919 52.3173 43.7799C52.2853 44.0679 52.2533 44.4519 52.1573 45.0279H55.5173L55.6773 45.1879C55.8693 45.3799 55.8693 45.5719 55.7093 45.7319C55.5813 45.8599 55.4853 45.8599 52.1253 45.8599L52.0933 46.1479C52.0613 46.3079 52.0293 46.8519 51.9973 47.3319C51.9653 47.8119 51.9013 48.3879 51.8693 48.6119C51.8373 48.8039 51.8053 49.1559 51.8053 49.3799C51.8053 49.6039 51.7733 49.9239 51.7413 50.1159C51.6453 50.5319 51.4853 51.7799 51.4853 52.0359C51.4853 52.1319 51.4533 52.3239 51.4213 52.4519C51.3893 52.6759 51.3893 52.7079 51.4853 52.6439C51.5493 52.6119 52.0933 52.5799 52.6693 52.5479C53.9813 52.4839 54.2373 52.3879 54.8133 51.7479C55.2293 51.2679 55.3253 51.2039 55.5813 51.2999C56.0293 51.4919 55.9333 51.9079 55.2933 52.5159C54.6853 53.1239 53.8213 53.3799 52.5093 53.3799C52.4453 53.3799 52.0933 53.4119 51.7413 53.4439C50.4933 53.5399 50.4933 53.5399 50.6853 51.5879C50.7173 51.2359 50.7813 50.7879 50.8133 50.5639C50.8453 50.3399 50.9093 49.9559 50.9413 49.6999C50.9733 49.4439 51.0693 48.8679 51.1333 48.4519C51.1973 48.0039 51.2613 47.3639 51.2613 46.8839C51.2613 46.4359 51.2933 46.0519 51.3253 45.9559C51.4213 45.7319 51.4213 45.7319 50.2053 45.7319C48.9893 45.7319 48.8613 45.6999 48.8613 45.2839C48.8613 44.8999 49.0213 44.8359 51.4213 44.8359L51.4533 44.4519C51.5173 43.7159 51.6453 42.7239 51.7093 42.4039C51.7413 42.2439 51.8053 41.8279 51.8373 41.4759C51.8693 41.1239 51.9333 40.4199 51.9973 39.9399C52.1253 38.8519 52.1253 38.4359 51.9973 37.7639C51.8053 36.8359 51.6773 36.8999 51.8693 36.7079Z"/>
<path d="M61.6073 45.2199L61.5113 45.3159C62.0553 45.0279 62.5673 44.9959 64.1033 45.1239C65.3513 45.2199 66.2153 45.9239 66.7593 47.2679C67.0473 48.0039 66.8873 49.7959 66.4393 50.7879C66.3433 50.9799 66.2473 51.2359 66.2153 51.3639C66.0233 52.0039 65.4473 52.8679 64.9673 53.2519C64.6473 53.5079 64.6473 53.5079 64.1353 53.5079C63.5273 53.5079 63.1433 53.4119 62.8233 53.1559C62.2793 52.7399 61.6393 52.1319 61.4473 51.8119C61.3513 51.6199 61.1273 51.2679 60.9673 51.0119C60.6473 50.5319 60.5833 50.4359 60.3913 49.9879C60.2953 49.7959 60.2953 49.7959 59.8473 49.7959C59.1433 49.7959 58.9833 49.4439 59.2393 48.3559C59.3033 48.1319 59.3353 47.8759 59.3353 47.7799C59.3353 47.6839 59.3993 47.5239 59.4633 47.4279C59.5273 47.3319 59.5913 47.2039 59.5913 47.1399C59.5913 47.0439 59.7513 46.7239 59.8473 46.6599C59.8793 46.6279 60.0073 46.4359 60.1353 46.2119C60.3593 45.7959 60.7113 45.5079 61.0313 45.4759C61.0953 45.4759 61.3513 45.3479 61.6073 45.2199ZM64.1993 45.9879H64.1673C62.2473 45.8919 62.2793 45.8919 62.0233 46.0199C61.5113 46.2759 61.0313 46.4999 60.9673 46.4999C60.9033 46.4999 60.3273 47.4599 60.3273 47.5879C60.3273 47.6519 60.2633 47.7799 60.1993 47.8759C60.0713 48.0679 60.0393 48.4199 60.1353 48.4199C60.1993 48.4199 61.1593 49.7639 61.1593 49.8599C61.1593 50.1799 62.1833 51.6199 62.7593 52.1319C63.3033 52.6119 63.4313 52.6759 64.0713 52.6759C64.3913 52.6759 64.3913 52.6759 64.5833 52.3559C64.7113 52.1959 64.9033 51.9399 64.9993 51.8119C65.1913 51.5239 65.3833 51.0759 65.3833 50.8519C65.3833 50.7879 65.4473 50.6599 65.5113 50.5959C65.9593 50.0199 66.1513 48.2279 65.8633 47.4279C65.5753 46.6599 64.8393 46.0199 64.1993 45.9879Z"/>
<path d="M70.3033 43.2039L70.3673 43.2679C70.5593 43.0759 70.7193 43.0439 70.9113 43.1719C71.0073 43.2679 71.1353 43.8439 71.3913 45.3479L71.6153 45.1239C71.8393 44.8999 72.1593 44.8039 73.3113 44.5799C74.0473 44.4199 76.2233 44.4199 76.7353 44.5799C77.2153 44.7399 77.4713 44.9319 77.6313 45.2519C77.6953 45.3799 77.7913 45.5719 77.8553 45.6679C77.9513 45.8279 78.2073 46.6919 78.2073 46.8519C78.2073 46.9479 77.8873 47.2039 77.7593 47.2039C77.5673 47.2039 77.3433 46.9479 77.2793 46.6279C77.2153 46.1479 76.7993 45.5079 76.5113 45.3799C76.0313 45.1879 73.4713 45.2199 73.2153 45.4119C73.1833 45.4439 73.0233 45.4759 72.8633 45.4759C72.7033 45.5079 72.5433 45.5399 72.5433 45.5719C72.5113 45.6039 72.4153 45.6359 72.3193 45.6359C72.1273 45.6359 71.8393 45.9239 71.7753 46.1799C71.7433 46.2759 71.7113 47.8439 71.7113 49.6679C71.7113 53.3159 71.7433 53.1239 71.2953 53.1239C70.9113 53.1239 70.8793 53.0279 70.8153 50.9479C70.7833 49.9239 70.7193 48.9639 70.6873 48.8359C70.6553 48.7079 70.6233 48.1639 70.6233 47.5879C70.6233 47.0119 70.5913 46.4999 70.5593 46.4359C70.5273 46.3719 70.4953 45.9879 70.4633 45.6039C70.4313 45.2199 70.3353 44.6439 70.2713 44.3239C70.1113 43.5239 70.1113 43.3959 70.3033 43.2039Z"/>
<path d="M82.3228 42.3399L82.2908 42.1799C82.3868 42.0199 82.7068 41.9879 82.8988 42.1479C82.9948 42.2439 82.9948 42.3399 82.9948 42.9799C82.9948 43.9399 82.9308 44.9959 82.8668 45.0919C82.8348 45.1239 82.8028 45.5399 82.7708 45.9879C82.7388 46.4359 82.6748 47.0119 82.6108 47.2679C82.5468 47.4919 82.4828 48.0999 82.4508 48.6119C82.4188 49.1239 82.3868 49.5719 82.3868 49.6359C82.3228 49.7639 82.2268 50.7239 82.1628 51.8439C82.1308 53.0279 82.0988 53.0919 81.7148 53.0919C81.3308 53.0919 81.2668 52.8679 81.2988 51.7479C81.2988 51.2039 81.3308 50.6279 81.3948 50.4679C81.5228 49.9559 81.6188 49.1239 81.6828 48.2279C81.7148 47.7799 81.7788 47.3319 81.8108 47.2359C81.8428 47.1399 81.9068 46.6919 81.9388 46.2439C81.9708 45.7959 82.0348 45.3159 82.0668 45.1879C82.0988 45.0599 82.1628 44.3879 82.1948 43.7159C82.2268 42.8519 82.2588 42.4679 82.3228 42.3399Z"/>
<path d="M92.6043 39.3959L92.6363 39.2999C92.7643 39.1399 92.9883 39.1399 93.2123 39.2999C93.3723 39.4279 93.3723 39.4599 93.3723 40.0039C93.3723 40.2919 93.4043 40.7079 93.4683 40.8999C93.5323 41.0919 93.6283 41.5399 93.6923 41.8599C93.7563 42.1799 93.8843 42.6919 93.9483 42.9799C94.0443 43.2679 94.1723 43.8439 94.2363 44.2599C94.3643 45.1879 94.5563 46.1799 94.7163 46.6919C94.7803 46.9159 94.9403 47.5559 95.1003 48.1319C95.4203 49.4119 95.5483 49.8599 95.7403 50.2759C95.9963 50.8519 96.3163 51.8119 96.4123 52.2599C96.5083 52.7079 96.5403 52.8039 96.7963 53.4119C96.9563 53.7959 96.8603 54.0519 96.5403 54.1159C96.1563 54.2119 95.8683 53.7319 95.6123 52.5479C95.5803 52.3559 95.4523 51.9719 95.3563 51.7159C95.2603 51.4599 95.1643 51.1399 95.1323 51.0119C95.1003 50.8839 95.0043 50.6279 94.9083 50.4679C94.7163 50.0519 94.3963 49.0599 94.3643 48.8359C94.3643 48.5479 94.3003 48.5479 94.3003 48.8359C94.3003 48.9639 94.2363 49.2519 94.1403 49.4759C94.0443 49.6999 93.9483 49.9559 93.9483 50.0199C93.9163 50.0839 93.7883 50.3079 93.6603 50.4999C93.5323 50.6919 93.4043 50.8519 93.4043 50.8839C93.4043 50.9479 92.8603 51.4599 92.7963 51.4599C92.7643 51.4599 92.5403 51.5879 92.2843 51.7479C92.0603 51.9079 91.7723 52.0679 91.6443 52.0999C91.3883 52.1639 91.0683 52.2919 90.9083 52.4199C90.5563 52.7079 89.0523 52.6759 87.9963 52.3239C87.1003 52.0359 86.4283 51.2039 86.3003 50.1799C86.2363 49.7319 86.2043 46.7559 86.2683 46.3399C86.5243 44.7079 87.1003 43.1719 87.7723 42.4039C87.9003 42.2439 88.0923 41.9559 88.1883 41.7639C88.2843 41.5719 88.4123 41.3799 88.4763 41.3159C88.5403 41.2519 88.7003 41.0599 88.8283 40.8999C89.1483 40.5159 89.4043 40.4519 90.2043 40.4839C91.3243 40.5159 91.9643 40.6439 92.2843 40.8999C92.3803 40.9959 92.3803 40.9639 92.3803 40.4519C92.3803 39.8759 92.4443 39.5559 92.6043 39.3959ZM91.7403 41.5399L91.6443 41.3479L89.7243 41.2519L89.4043 41.6679C89.2123 41.8919 89.0203 42.1799 88.9563 42.3079C88.8923 42.4359 88.7323 42.6919 88.5723 42.8839C88.0283 43.5559 87.3563 45.2199 87.3563 45.8599C87.3563 45.9559 87.3243 46.1799 87.2603 46.3399C87.1003 46.8519 87.1643 49.5399 87.3563 50.2759C87.6443 51.2999 88.1243 51.5879 89.7243 51.6519C90.3323 51.6839 90.3643 51.6839 90.8443 51.4599C91.1003 51.3319 91.3563 51.2359 91.4203 51.2359C91.5483 51.2359 91.8043 51.0759 91.9643 50.9159C92.0283 50.8519 92.1563 50.7879 92.2523 50.7559C92.5403 50.6919 93.1483 49.8599 93.3723 49.2519C93.5963 48.6759 93.6283 47.2679 93.4683 46.8519C93.4043 46.7239 93.3083 46.4999 93.2443 46.3399C93.1803 46.1799 93.0843 45.8919 92.9883 45.7319C92.7003 44.9959 92.6043 44.3879 92.5723 42.8839C92.5403 41.4119 92.5403 41.5079 92.3803 41.6359C92.1883 41.7959 91.9643 41.7639 91.7403 41.5399Z"/>
<path d="M100.244 38.8839C100.372 38.7879 100.692 38.8519 100.788 38.9479C100.884 39.0759 100.948 39.7159 100.98 40.8999C101.012 41.6999 101.14 43.2679 101.172 43.3319C101.204 43.3639 101.204 45.2519 101.204 47.5559C101.204 52.0999 101.172 53.0279 100.916 53.5079C100.884 53.6039 100.852 53.7639 100.852 53.8599C100.852 54.0199 100.596 54.2759 100.404 54.2759C99.9238 54.2759 99.8278 53.5079 100.244 52.7079C100.372 52.4839 100.372 51.9719 100.372 47.7799C100.404 44.3559 100.404 43.5879 100.308 43.0439C100.244 42.6919 100.212 42.3399 100.212 42.2759C100.212 42.1159 100.084 40.0359 100.052 39.5239C100.02 39.2039 100.084 38.9799 100.244 38.8839Z"/>
<path d="M106.633 40.4839C107.145 40.3559 107.337 40.6439 107.721 40.8679C107.913 40.9959 108.105 41.0919 108.137 41.0919C108.233 41.0919 109.097 41.8279 109.193 41.9879C109.257 42.0839 109.449 42.3719 109.641 42.6599C110.121 43.3959 110.633 44.4839 110.601 44.6759C110.505 45.0279 110.057 45.0599 109.801 44.7399C109.641 44.5159 109.609 44.4839 109.193 43.6199C109.065 43.3319 108.873 43.0119 108.777 42.9159C108.681 42.8199 108.553 42.6599 108.521 42.5639C108.457 42.3399 107.977 41.9559 107.433 41.6679C107.113 41.5079 107.049 41.5079 106.825 41.5399C106.569 41.6039 105.929 42.1159 105.929 42.2759C105.929 42.3079 105.833 42.4999 105.673 42.6919C105.257 43.2999 105.225 43.4599 105.193 45.3799C105.161 46.3399 105.161 46.4039 105.321 46.7239C105.545 47.1719 105.545 47.1719 107.017 47.2999C107.721 47.3639 108.553 47.4599 108.873 47.4919C109.193 47.5239 109.577 47.5559 109.705 47.5559C110.569 47.6199 111.753 48.1639 112.265 48.7079C112.745 49.2519 112.777 49.3479 112.777 50.4359C112.777 51.5239 112.745 51.6519 112.265 52.0359C112.041 52.1959 111.017 52.6759 110.889 52.6759C110.857 52.6759 110.665 52.7399 110.441 52.8359C109.513 53.1879 107.113 53.3159 106.921 52.9959C106.537 52.4839 106.185 51.7479 106.185 51.4919C106.185 51.2999 106.409 51.1079 106.633 51.1079C106.889 51.1079 107.081 51.2999 107.177 51.6199C107.209 51.7799 107.305 51.9719 107.529 52.2279H108.361C109.129 52.2279 109.673 52.1319 110.089 51.9399C110.153 51.9079 110.313 51.8439 110.473 51.7799C110.601 51.7159 110.761 51.6839 110.825 51.6839C110.985 51.6839 111.625 51.3639 111.849 51.1719C111.977 51.0439 111.977 50.9799 111.977 49.4759L111.689 49.1559C111.081 48.4839 110.313 48.2599 107.497 48.0039C105.097 47.7799 105.097 47.7799 104.393 46.4359V45.4119C104.393 43.4599 104.521 42.6919 104.905 42.2119C104.937 42.1799 105.065 41.9559 105.193 41.7319C105.321 41.4759 105.449 41.2839 105.545 41.2519C105.609 41.2199 105.737 41.1239 105.801 41.0599C105.993 40.8039 106.377 40.5479 106.633 40.4839Z"/>
</mask>
<path d="M31.0568 36.7079C31.2488 36.5159 31.2808 36.5159 31.5048 36.6119C31.6968 36.7079 31.8248 37.0599 31.9528 37.8279C32.0808 38.6599 32.0488 39.1719 31.6968 42.1479C31.6328 42.7559 31.5368 43.4919 31.5048 43.7799C31.4728 44.0679 31.4408 44.4519 31.3448 45.0279H34.7048L34.8648 45.1879C35.0568 45.3799 35.0568 45.5719 34.8968 45.7319C34.7688 45.8599 34.6728 45.8599 31.3128 45.8599L31.2808 46.1479C31.2488 46.3079 31.2168 46.8519 31.1848 47.3319C31.1528 47.8119 31.0888 48.3879 31.0568 48.6119C31.0248 48.8039 30.9928 49.1559 30.9928 49.3799C30.9928 49.6039 30.9608 49.9239 30.9288 50.1159C30.8328 50.5319 30.6728 51.7799 30.6728 52.0359C30.6728 52.1319 30.6408 52.3239 30.6088 52.4519C30.5768 52.6759 30.5768 52.7079 30.6728 52.6439C30.7368 52.6119 31.2808 52.5799 31.8568 52.5479C33.1688 52.4839 33.4248 52.3879 34.0008 51.7479C34.4168 51.2679 34.5128 51.2039 34.7688 51.2999C35.2168 51.4919 35.1208 51.9079 34.4808 52.5159C33.8728 53.1239 33.0088 53.3799 31.6968 53.3799C31.6328 53.3799 31.2808 53.4119 30.9288 53.4439C29.6808 53.5399 29.6808 53.5399 29.8728 51.5879C29.9048 51.2359 29.9688 50.7879 30.0008 50.5639C30.0328 50.3399 30.0968 49.9559 30.1288 49.6999C30.1608 49.4439 30.2568 48.8679 30.3208 48.4519C30.3848 48.0039 30.4488 47.3639 30.4488 46.8839C30.4488 46.4359 30.4808 46.0519 30.5128 45.9559C30.6088 45.7319 30.6088 45.7319 29.3928 45.7319C28.1768 45.7319 28.0488 45.6999 28.0488 45.2839C28.0488 44.8999 28.2088 44.8359 30.6088 44.8359L30.6408 44.4519C30.7048 43.7159 30.8328 42.7239 30.8968 42.4039C30.9288 42.2439 30.9928 41.8279 31.0248 41.4759C31.0568 41.1239 31.1208 40.4199 31.1848 39.9399C31.3128 38.8519 31.3128 38.4359 31.1848 37.7639C30.9928 36.8359 30.8648 36.8999 31.0568 36.7079Z" fill="#D2D2D2"/>
<path d="M43.9948 41.1559L44.0268 41.0919C44.1548 40.9319 44.4428 40.9319 44.6028 41.0919C44.7308 41.2199 44.7308 41.2519 44.6668 42.4999C44.6348 43.2039 44.5708 44.0679 44.5388 44.3879C44.4748 44.7719 44.4428 45.8599 44.4428 49.6679L44.6668 50.1479C44.7948 50.4039 44.8908 50.6599 44.8908 50.7239C44.8908 50.7879 44.9228 50.9159 44.9868 51.0439C45.0508 51.1719 45.1148 51.3959 45.1468 51.5559C45.1788 51.8119 45.2428 51.9079 45.4668 52.1319C45.8828 52.5159 45.7868 52.8359 45.2428 52.8999C44.6988 52.9639 44.3468 52.5799 44.3468 51.9079C44.3468 51.7479 44.2828 51.5239 44.2188 51.3639C44.1548 51.2359 44.0588 50.9799 44.0268 50.7879C43.9948 50.5959 43.9308 50.3719 43.8668 50.2759C43.7068 50.0199 43.6428 49.5719 43.6428 48.6119C43.6428 47.4279 43.6108 47.3959 43.2268 48.1639C43.0668 48.5159 42.8428 48.8999 42.7468 49.0279C42.6508 49.1559 42.5548 49.2839 42.5548 49.3479C42.5548 49.4439 42.2028 49.9239 41.9468 50.1799C41.8188 50.3079 41.7228 50.4359 41.7228 50.4679C41.7228 50.5639 40.8268 51.1719 40.5708 51.2679C39.8028 51.5239 38.8748 50.9159 38.4908 49.9559C38.2668 49.3159 38.3628 44.1639 38.6508 43.2359C38.7148 43.0119 38.8108 42.6599 38.8748 42.4679C39.0348 41.9559 39.3868 41.7959 39.7068 42.1159C39.8668 42.2759 39.8668 42.2759 39.6748 42.8519C39.4508 43.6199 39.3868 43.9079 39.3228 44.7079C39.2268 46.0519 39.2588 49.3799 39.3548 49.6679C39.4828 49.9879 39.9948 50.4679 40.1868 50.4679C40.4748 50.4679 41.6908 49.4759 41.6908 49.2519C41.6908 49.2199 41.7868 49.0599 41.9148 48.8999C42.1708 48.5159 42.7468 47.4279 42.7468 47.2999C42.7468 47.2679 42.8748 46.9799 43.0028 46.6599C43.2588 46.0519 43.5788 44.9319 43.6108 44.6119C43.6108 44.5159 43.6428 44.2279 43.6748 44.0039C43.7708 43.4919 43.7708 43.3959 43.8348 42.2119C43.8668 41.5079 43.8988 41.2519 43.9948 41.1559Z" fill="#D2D2D2"/>
<path d="M51.8693 36.7079C52.0613 36.5159 52.0933 36.5159 52.3173 36.6119C52.5093 36.7079 52.6373 37.0599 52.7653 37.8279C52.8933 38.6599 52.8613 39.1719 52.5093 42.1479C52.4453 42.7559 52.3493 43.4919 52.3173 43.7799C52.2853 44.0679 52.2533 44.4519 52.1573 45.0279H55.5173L55.6773 45.1879C55.8693 45.3799 55.8693 45.5719 55.7093 45.7319C55.5813 45.8599 55.4853 45.8599 52.1253 45.8599L52.0933 46.1479C52.0613 46.3079 52.0293 46.8519 51.9973 47.3319C51.9653 47.8119 51.9013 48.3879 51.8693 48.6119C51.8373 48.8039 51.8053 49.1559 51.8053 49.3799C51.8053 49.6039 51.7733 49.9239 51.7413 50.1159C51.6453 50.5319 51.4853 51.7799 51.4853 52.0359C51.4853 52.1319 51.4533 52.3239 51.4213 52.4519C51.3893 52.6759 51.3893 52.7079 51.4853 52.6439C51.5493 52.6119 52.0933 52.5799 52.6693 52.5479C53.9813 52.4839 54.2373 52.3879 54.8133 51.7479C55.2293 51.2679 55.3253 51.2039 55.5813 51.2999C56.0293 51.4919 55.9333 51.9079 55.2933 52.5159C54.6853 53.1239 53.8213 53.3799 52.5093 53.3799C52.4453 53.3799 52.0933 53.4119 51.7413 53.4439C50.4933 53.5399 50.4933 53.5399 50.6853 51.5879C50.7173 51.2359 50.7813 50.7879 50.8133 50.5639C50.8453 50.3399 50.9093 49.9559 50.9413 49.6999C50.9733 49.4439 51.0693 48.8679 51.1333 48.4519C51.1973 48.0039 51.2613 47.3639 51.2613 46.8839C51.2613 46.4359 51.2933 46.0519 51.3253 45.9559C51.4213 45.7319 51.4213 45.7319 50.2053 45.7319C48.9893 45.7319 48.8613 45.6999 48.8613 45.2839C48.8613 44.8999 49.0213 44.8359 51.4213 44.8359L51.4533 44.4519C51.5173 43.7159 51.6453 42.7239 51.7093 42.4039C51.7413 42.2439 51.8053 41.8279 51.8373 41.4759C51.8693 41.1239 51.9333 40.4199 51.9973 39.9399C52.1253 38.8519 52.1253 38.4359 51.9973 37.7639C51.8053 36.8359 51.6773 36.8999 51.8693 36.7079Z" fill="#D2D2D2"/>
<path d="M61.6073 45.2199L61.5113 45.3159C62.0553 45.0279 62.5673 44.9959 64.1033 45.1239C65.3513 45.2199 66.2153 45.9239 66.7593 47.2679C67.0473 48.0039 66.8873 49.7959 66.4393 50.7879C66.3433 50.9799 66.2473 51.2359 66.2153 51.3639C66.0233 52.0039 65.4473 52.8679 64.9673 53.2519C64.6473 53.5079 64.6473 53.5079 64.1353 53.5079C63.5273 53.5079 63.1433 53.4119 62.8233 53.1559C62.2793 52.7399 61.6393 52.1319 61.4473 51.8119C61.3513 51.6199 61.1273 51.2679 60.9673 51.0119C60.6473 50.5319 60.5833 50.4359 60.3913 49.9879C60.2953 49.7959 60.2953 49.7959 59.8473 49.7959C59.1433 49.7959 58.9833 49.4439 59.2393 48.3559C59.3033 48.1319 59.3353 47.8759 59.3353 47.7799C59.3353 47.6839 59.3993 47.5239 59.4633 47.4279C59.5273 47.3319 59.5913 47.2039 59.5913 47.1399C59.5913 47.0439 59.7513 46.7239 59.8473 46.6599C59.8793 46.6279 60.0073 46.4359 60.1353 46.2119C60.3593 45.7959 60.7113 45.5079 61.0313 45.4759C61.0953 45.4759 61.3513 45.3479 61.6073 45.2199ZM64.1993 45.9879H64.1673C62.2473 45.8919 62.2793 45.8919 62.0233 46.0199C61.5113 46.2759 61.0313 46.4999 60.9673 46.4999C60.9033 46.4999 60.3273 47.4599 60.3273 47.5879C60.3273 47.6519 60.2633 47.7799 60.1993 47.8759C60.0713 48.0679 60.0393 48.4199 60.1353 48.4199C60.1993 48.4199 61.1593 49.7639 61.1593 49.8599C61.1593 50.1799 62.1833 51.6199 62.7593 52.1319C63.3033 52.6119 63.4313 52.6759 64.0713 52.6759C64.3913 52.6759 64.3913 52.6759 64.5833 52.3559C64.7113 52.1959 64.9033 51.9399 64.9993 51.8119C65.1913 51.5239 65.3833 51.0759 65.3833 50.8519C65.3833 50.7879 65.4473 50.6599 65.5113 50.5959C65.9593 50.0199 66.1513 48.2279 65.8633 47.4279C65.5753 46.6599 64.8393 46.0199 64.1993 45.9879Z" fill="#D2D2D2"/>
<path d="M70.3033 43.2039L70.3673 43.2679C70.5593 43.0759 70.7193 43.0439 70.9113 43.1719C71.0073 43.2679 71.1353 43.8439 71.3913 45.3479L71.6153 45.1239C71.8393 44.8999 72.1593 44.8039 73.3113 44.5799C74.0473 44.4199 76.2233 44.4199 76.7353 44.5799C77.2153 44.7399 77.4713 44.9319 77.6313 45.2519C77.6953 45.3799 77.7913 45.5719 77.8553 45.6679C77.9513 45.8279 78.2073 46.6919 78.2073 46.8519C78.2073 46.9479 77.8873 47.2039 77.7593 47.2039C77.5673 47.2039 77.3433 46.9479 77.2793 46.6279C77.2153 46.1479 76.7993 45.5079 76.5113 45.3799C76.0313 45.1879 73.4713 45.2199 73.2153 45.4119C73.1833 45.4439 73.0233 45.4759 72.8633 45.4759C72.7033 45.5079 72.5433 45.5399 72.5433 45.5719C72.5113 45.6039 72.4153 45.6359 72.3193 45.6359C72.1273 45.6359 71.8393 45.9239 71.7753 46.1799C71.7433 46.2759 71.7113 47.8439 71.7113 49.6679C71.7113 53.3159 71.7433 53.1239 71.2953 53.1239C70.9113 53.1239 70.8793 53.0279 70.8153 50.9479C70.7833 49.9239 70.7193 48.9639 70.6873 48.8359C70.6553 48.7079 70.6233 48.1639 70.6233 47.5879C70.6233 47.0119 70.5913 46.4999 70.5593 46.4359C70.5273 46.3719 70.4953 45.9879 70.4633 45.6039C70.4313 45.2199 70.3353 44.6439 70.2713 44.3239C70.1113 43.5239 70.1113 43.3959 70.3033 43.2039Z" fill="#D2D2D2"/>
<path d="M82.3228 42.3399L82.2908 42.1799C82.3868 42.0199 82.7068 41.9879 82.8988 42.1479C82.9948 42.2439 82.9948 42.3399 82.9948 42.9799C82.9948 43.9399 82.9308 44.9959 82.8668 45.0919C82.8348 45.1239 82.8028 45.5399 82.7708 45.9879C82.7388 46.4359 82.6748 47.0119 82.6108 47.2679C82.5468 47.4919 82.4828 48.0999 82.4508 48.6119C82.4188 49.1239 82.3868 49.5719 82.3868 49.6359C82.3228 49.7639 82.2268 50.7239 82.1628 51.8439C82.1308 53.0279 82.0988 53.0919 81.7148 53.0919C81.3308 53.0919 81.2668 52.8679 81.2988 51.7479C81.2988 51.2039 81.3308 50.6279 81.3948 50.4679C81.5228 49.9559 81.6188 49.1239 81.6828 48.2279C81.7148 47.7799 81.7788 47.3319 81.8108 47.2359C81.8428 47.1399 81.9068 46.6919 81.9388 46.2439C81.9708 45.7959 82.0348 45.3159 82.0668 45.1879C82.0988 45.0599 82.1628 44.3879 82.1948 43.7159C82.2268 42.8519 82.2588 42.4679 82.3228 42.3399Z" fill="#D2D2D2"/>
<path d="M92.6043 39.3959L92.6363 39.2999C92.7643 39.1399 92.9883 39.1399 93.2123 39.2999C93.3723 39.4279 93.3723 39.4599 93.3723 40.0039C93.3723 40.2919 93.4043 40.7079 93.4683 40.8999C93.5323 41.0919 93.6283 41.5399 93.6923 41.8599C93.7563 42.1799 93.8843 42.6919 93.9483 42.9799C94.0443 43.2679 94.1723 43.8439 94.2363 44.2599C94.3643 45.1879 94.5563 46.1799 94.7163 46.6919C94.7803 46.9159 94.9403 47.5559 95.1003 48.1319C95.4203 49.4119 95.5483 49.8599 95.7403 50.2759C95.9963 50.8519 96.3163 51.8119 96.4123 52.2599C96.5083 52.7079 96.5403 52.8039 96.7963 53.4119C96.9563 53.7959 96.8603 54.0519 96.5403 54.1159C96.1563 54.2119 95.8683 53.7319 95.6123 52.5479C95.5803 52.3559 95.4523 51.9719 95.3563 51.7159C95.2603 51.4599 95.1643 51.1399 95.1323 51.0119C95.1003 50.8839 95.0043 50.6279 94.9083 50.4679C94.7163 50.0519 94.3963 49.0599 94.3643 48.8359C94.3643 48.5479 94.3003 48.5479 94.3003 48.8359C94.3003 48.9639 94.2363 49.2519 94.1403 49.4759C94.0443 49.6999 93.9483 49.9559 93.9483 50.0199C93.9163 50.0839 93.7883 50.3079 93.6603 50.4999C93.5323 50.6919 93.4043 50.8519 93.4043 50.8839C93.4043 50.9479 92.8603 51.4599 92.7963 51.4599C92.7643 51.4599 92.5403 51.5879 92.2843 51.7479C92.0603 51.9079 91.7723 52.0679 91.6443 52.0999C91.3883 52.1639 91.0683 52.2919 90.9083 52.4199C90.5563 52.7079 89.0523 52.6759 87.9963 52.3239C87.1003 52.0359 86.4283 51.2039 86.3003 50.1799C86.2363 49.7319 86.2043 46.7559 86.2683 46.3399C86.5243 44.7079 87.1003 43.1719 87.7723 42.4039C87.9003 42.2439 88.0923 41.9559 88.1883 41.7639C88.2843 41.5719 88.4123 41.3799 88.4763 41.3159C88.5403 41.2519 88.7003 41.0599 88.8283 40.8999C89.1483 40.5159 89.4043 40.4519 90.2043 40.4839C91.3243 40.5159 91.9643 40.6439 92.2843 40.8999C92.3803 40.9959 92.3803 40.9639 92.3803 40.4519C92.3803 39.8759 92.4443 39.5559 92.6043 39.3959ZM91.7403 41.5399L91.6443 41.3479L89.7243 41.2519L89.4043 41.6679C89.2123 41.8919 89.0203 42.1799 88.9563 42.3079C88.8923 42.4359 88.7323 42.6919 88.5723 42.8839C88.0283 43.5559 87.3563 45.2199 87.3563 45.8599C87.3563 45.9559 87.3243 46.1799 87.2603 46.3399C87.1003 46.8519 87.1643 49.5399 87.3563 50.2759C87.6443 51.2999 88.1243 51.5879 89.7243 51.6519C90.3323 51.6839 90.3643 51.6839 90.8443 51.4599C91.1003 51.3319 91.3563 51.2359 91.4203 51.2359C91.5483 51.2359 91.8043 51.0759 91.9643 50.9159C92.0283 50.8519 92.1563 50.7879 92.2523 50.7559C92.5403 50.6919 93.1483 49.8599 93.3723 49.2519C93.5963 48.6759 93.6283 47.2679 93.4683 46.8519C93.4043 46.7239 93.3083 46.4999 93.2443 46.3399C93.1803 46.1799 93.0843 45.8919 92.9883 45.7319C92.7003 44.9959 92.6043 44.3879 92.5723 42.8839C92.5403 41.4119 92.5403 41.5079 92.3803 41.6359C92.1883 41.7959 91.9643 41.7639 91.7403 41.5399Z" fill="#D2D2D2"/>
<path d="M100.244 38.8839C100.372 38.7879 100.692 38.8519 100.788 38.9479C100.884 39.0759 100.948 39.7159 100.98 40.8999C101.012 41.6999 101.14 43.2679 101.172 43.3319C101.204 43.3639 101.204 45.2519 101.204 47.5559C101.204 52.0999 101.172 53.0279 100.916 53.5079C100.884 53.6039 100.852 53.7639 100.852 53.8599C100.852 54.0199 100.596 54.2759 100.404 54.2759C99.9238 54.2759 99.8278 53.5079 100.244 52.7079C100.372 52.4839 100.372 51.9719 100.372 47.7799C100.404 44.3559 100.404 43.5879 100.308 43.0439C100.244 42.6919 100.212 42.3399 100.212 42.2759C100.212 42.1159 100.084 40.0359 100.052 39.5239C100.02 39.2039 100.084 38.9799 100.244 38.8839Z" fill="#D2D2D2"/>
<path d="M106.633 40.4839C107.145 40.3559 107.337 40.6439 107.721 40.8679C107.913 40.9959 108.105 41.0919 108.137 41.0919C108.233 41.0919 109.097 41.8279 109.193 41.9879C109.257 42.0839 109.449 42.3719 109.641 42.6599C110.121 43.3959 110.633 44.4839 110.601 44.6759C110.505 45.0279 110.057 45.0599 109.801 44.7399C109.641 44.5159 109.609 44.4839 109.193 43.6199C109.065 43.3319 108.873 43.0119 108.777 42.9159C108.681 42.8199 108.553 42.6599 108.521 42.5639C108.457 42.3399 107.977 41.9559 107.433 41.6679C107.113 41.5079 107.049 41.5079 106.825 41.5399C106.569 41.6039 105.929 42.1159 105.929 42.2759C105.929 42.3079 105.833 42.4999 105.673 42.6919C105.257 43.2999 105.225 43.4599 105.193 45.3799C105.161 46.3399 105.161 46.4039 105.321 46.7239C105.545 47.1719 105.545 47.1719 107.017 47.2999C107.721 47.3639 108.553 47.4599 108.873 47.4919C109.193 47.5239 109.577 47.5559 109.705 47.5559C110.569 47.6199 111.753 48.1639 112.265 48.7079C112.745 49.2519 112.777 49.3479 112.777 50.4359C112.777 51.5239 112.745 51.6519 112.265 52.0359C112.041 52.1959 111.017 52.6759 110.889 52.6759C110.857 52.6759 110.665 52.7399 110.441 52.8359C109.513 53.1879 107.113 53.3159 106.921 52.9959C106.537 52.4839 106.185 51.7479 106.185 51.4919C106.185 51.2999 106.409 51.1079 106.633 51.1079C106.889 51.1079 107.081 51.2999 107.177 51.6199C107.209 51.7799 107.305 51.9719 107.529 52.2279H108.361C109.129 52.2279 109.673 52.1319 110.089 51.9399C110.153 51.9079 110.313 51.8439 110.473 51.7799C110.601 51.7159 110.761 51.6839 110.825 51.6839C110.985 51.6839 111.625 51.3639 111.849 51.1719C111.977 51.0439 111.977 50.9799 111.977 49.4759L111.689 49.1559C111.081 48.4839 110.313 48.2599 107.497 48.0039C105.097 47.7799 105.097 47.7799 104.393 46.4359V45.4119C104.393 43.4599 104.521 42.6919 104.905 42.2119C104.937 42.1799 105.065 41.9559 105.193 41.7319C105.321 41.4759 105.449 41.2839 105.545 41.2519C105.609 41.2199 105.737 41.1239 105.801 41.0599C105.993 40.8039 106.377 40.5479 106.633 40.4839Z" fill="#D2D2D2"/>
<path d="M31.0568 36.7079C31.2488 36.5159 31.2808 36.5159 31.5048 36.6119C31.6968 36.7079 31.8248 37.0599 31.9528 37.8279C32.0808 38.6599 32.0488 39.1719 31.6968 42.1479C31.6328 42.7559 31.5368 43.4919 31.5048 43.7799C31.4728 44.0679 31.4408 44.4519 31.3448 45.0279H34.7048L34.8648 45.1879C35.0568 45.3799 35.0568 45.5719 34.8968 45.7319C34.7688 45.8599 34.6728 45.8599 31.3128 45.8599L31.2808 46.1479C31.2488 46.3079 31.2168 46.8519 31.1848 47.3319C31.1528 47.8119 31.0888 48.3879 31.0568 48.6119C31.0248 48.8039 30.9928 49.1559 30.9928 49.3799C30.9928 49.6039 30.9608 49.9239 30.9288 50.1159C30.8328 50.5319 30.6728 51.7799 30.6728 52.0359C30.6728 52.1319 30.6408 52.3239 30.6088 52.4519C30.5768 52.6759 30.5768 52.7079 30.6728 52.6439C30.7368 52.6119 31.2808 52.5799 31.8568 52.5479C33.1688 52.4839 33.4248 52.3879 34.0008 51.7479C34.4168 51.2679 34.5128 51.2039 34.7688 51.2999C35.2168 51.4919 35.1208 51.9079 34.4808 52.5159C33.8728 53.1239 33.0088 53.3799 31.6968 53.3799C31.6328 53.3799 31.2808 53.4119 30.9288 53.4439C29.6808 53.5399 29.6808 53.5399 29.8728 51.5879C29.9048 51.2359 29.9688 50.7879 30.0008 50.5639C30.0328 50.3399 30.0968 49.9559 30.1288 49.6999C30.1608 49.4439 30.2568 48.8679 30.3208 48.4519C30.3848 48.0039 30.4488 47.3639 30.4488 46.8839C30.4488 46.4359 30.4808 46.0519 30.5128 45.9559C30.6088 45.7319 30.6088 45.7319 29.3928 45.7319C28.1768 45.7319 28.0488 45.6999 28.0488 45.2839C28.0488 44.8999 28.2088 44.8359 30.6088 44.8359L30.6408 44.4519C30.7048 43.7159 30.8328 42.7239 30.8968 42.4039C30.9288 42.2439 30.9928 41.8279 31.0248 41.4759C31.0568 41.1239 31.1208 40.4199 31.1848 39.9399C31.3128 38.8519 31.3128 38.4359 31.1848 37.7639C30.9928 36.8359 30.8648 36.8999 31.0568 36.7079Z" stroke="url(#paint0_linear_1401_1827)" stroke-width="2" mask="url(#path-3-outside-1_1401_1827)"/>
<path d="M43.9948 41.1559L44.0268 41.0919C44.1548 40.9319 44.4428 40.9319 44.6028 41.0919C44.7308 41.2199 44.7308 41.2519 44.6668 42.4999C44.6348 43.2039 44.5708 44.0679 44.5388 44.3879C44.4748 44.7719 44.4428 45.8599 44.4428 49.6679L44.6668 50.1479C44.7948 50.4039 44.8908 50.6599 44.8908 50.7239C44.8908 50.7879 44.9228 50.9159 44.9868 51.0439C45.0508 51.1719 45.1148 51.3959 45.1468 51.5559C45.1788 51.8119 45.2428 51.9079 45.4668 52.1319C45.8828 52.5159 45.7868 52.8359 45.2428 52.8999C44.6988 52.9639 44.3468 52.5799 44.3468 51.9079C44.3468 51.7479 44.2828 51.5239 44.2188 51.3639C44.1548 51.2359 44.0588 50.9799 44.0268 50.7879C43.9948 50.5959 43.9308 50.3719 43.8668 50.2759C43.7068 50.0199 43.6428 49.5719 43.6428 48.6119C43.6428 47.4279 43.6108 47.3959 43.2268 48.1639C43.0668 48.5159 42.8428 48.8999 42.7468 49.0279C42.6508 49.1559 42.5548 49.2839 42.5548 49.3479C42.5548 49.4439 42.2028 49.9239 41.9468 50.1799C41.8188 50.3079 41.7228 50.4359 41.7228 50.4679C41.7228 50.5639 40.8268 51.1719 40.5708 51.2679C39.8028 51.5239 38.8748 50.9159 38.4908 49.9559C38.2668 49.3159 38.3628 44.1639 38.6508 43.2359C38.7148 43.0119 38.8108 42.6599 38.8748 42.4679C39.0348 41.9559 39.3868 41.7959 39.7068 42.1159C39.8668 42.2759 39.8668 42.2759 39.6748 42.8519C39.4508 43.6199 39.3868 43.9079 39.3228 44.7079C39.2268 46.0519 39.2588 49.3799 39.3548 49.6679C39.4828 49.9879 39.9948 50.4679 40.1868 50.4679C40.4748 50.4679 41.6908 49.4759 41.6908 49.2519C41.6908 49.2199 41.7868 49.0599 41.9148 48.8999C42.1708 48.5159 42.7468 47.4279 42.7468 47.2999C42.7468 47.2679 42.8748 46.9799 43.0028 46.6599C43.2588 46.0519 43.5788 44.9319 43.6108 44.6119C43.6108 44.5159 43.6428 44.2279 43.6748 44.0039C43.7708 43.4919 43.7708 43.3959 43.8348 42.2119C43.8668 41.5079 43.8988 41.2519 43.9948 41.1559Z" stroke="url(#paint1_linear_1401_1827)" stroke-width="2" mask="url(#path-3-outside-1_1401_1827)"/>
<path d="M51.8693 36.7079C52.0613 36.5159 52.0933 36.5159 52.3173 36.6119C52.5093 36.7079 52.6373 37.0599 52.7653 37.8279C52.8933 38.6599 52.8613 39.1719 52.5093 42.1479C52.4453 42.7559 52.3493 43.4919 52.3173 43.7799C52.2853 44.0679 52.2533 44.4519 52.1573 45.0279H55.5173L55.6773 45.1879C55.8693 45.3799 55.8693 45.5719 55.7093 45.7319C55.5813 45.8599 55.4853 45.8599 52.1253 45.8599L52.0933 46.1479C52.0613 46.3079 52.0293 46.8519 51.9973 47.3319C51.9653 47.8119 51.9013 48.3879 51.8693 48.6119C51.8373 48.8039 51.8053 49.1559 51.8053 49.3799C51.8053 49.6039 51.7733 49.9239 51.7413 50.1159C51.6453 50.5319 51.4853 51.7799 51.4853 52.0359C51.4853 52.1319 51.4533 52.3239 51.4213 52.4519C51.3893 52.6759 51.3893 52.7079 51.4853 52.6439C51.5493 52.6119 52.0933 52.5799 52.6693 52.5479C53.9813 52.4839 54.2373 52.3879 54.8133 51.7479C55.2293 51.2679 55.3253 51.2039 55.5813 51.2999C56.0293 51.4919 55.9333 51.9079 55.2933 52.5159C54.6853 53.1239 53.8213 53.3799 52.5093 53.3799C52.4453 53.3799 52.0933 53.4119 51.7413 53.4439C50.4933 53.5399 50.4933 53.5399 50.6853 51.5879C50.7173 51.2359 50.7813 50.7879 50.8133 50.5639C50.8453 50.3399 50.9093 49.9559 50.9413 49.6999C50.9733 49.4439 51.0693 48.8679 51.1333 48.4519C51.1973 48.0039 51.2613 47.3639 51.2613 46.8839C51.2613 46.4359 51.2933 46.0519 51.3253 45.9559C51.4213 45.7319 51.4213 45.7319 50.2053 45.7319C48.9893 45.7319 48.8613 45.6999 48.8613 45.2839C48.8613 44.8999 49.0213 44.8359 51.4213 44.8359L51.4533 44.4519C51.5173 43.7159 51.6453 42.7239 51.7093 42.4039C51.7413 42.2439 51.8053 41.8279 51.8373 41.4759C51.8693 41.1239 51.9333 40.4199 51.9973 39.9399C52.1253 38.8519 52.1253 38.4359 51.9973 37.7639C51.8053 36.8359 51.6773 36.8999 51.8693 36.7079Z" stroke="url(#paint2_linear_1401_1827)" stroke-width="2" mask="url(#path-3-outside-1_1401_1827)"/>
<path d="M61.6073 45.2199L61.5113 45.3159C62.0553 45.0279 62.5673 44.9959 64.1033 45.1239C65.3513 45.2199 66.2153 45.9239 66.7593 47.2679C67.0473 48.0039 66.8873 49.7959 66.4393 50.7879C66.3433 50.9799 66.2473 51.2359 66.2153 51.3639C66.0233 52.0039 65.4473 52.8679 64.9673 53.2519C64.6473 53.5079 64.6473 53.5079 64.1353 53.5079C63.5273 53.5079 63.1433 53.4119 62.8233 53.1559C62.2793 52.7399 61.6393 52.1319 61.4473 51.8119C61.3513 51.6199 61.1273 51.2679 60.9673 51.0119C60.6473 50.5319 60.5833 50.4359 60.3913 49.9879C60.2953 49.7959 60.2953 49.7959 59.8473 49.7959C59.1433 49.7959 58.9833 49.4439 59.2393 48.3559C59.3033 48.1319 59.3353 47.8759 59.3353 47.7799C59.3353 47.6839 59.3993 47.5239 59.4633 47.4279C59.5273 47.3319 59.5913 47.2039 59.5913 47.1399C59.5913 47.0439 59.7513 46.7239 59.8473 46.6599C59.8793 46.6279 60.0073 46.4359 60.1353 46.2119C60.3593 45.7959 60.7113 45.5079 61.0313 45.4759C61.0953 45.4759 61.3513 45.3479 61.6073 45.2199ZM64.1993 45.9879H64.1673C62.2473 45.8919 62.2793 45.8919 62.0233 46.0199C61.5113 46.2759 61.0313 46.4999 60.9673 46.4999C60.9033 46.4999 60.3273 47.4599 60.3273 47.5879C60.3273 47.6519 60.2633 47.7799 60.1993 47.8759C60.0713 48.0679 60.0393 48.4199 60.1353 48.4199C60.1993 48.4199 61.1593 49.7639 61.1593 49.8599C61.1593 50.1799 62.1833 51.6199 62.7593 52.1319C63.3033 52.6119 63.4313 52.6759 64.0713 52.6759C64.3913 52.6759 64.3913 52.6759 64.5833 52.3559C64.7113 52.1959 64.9033 51.9399 64.9993 51.8119C65.1913 51.5239 65.3833 51.0759 65.3833 50.8519C65.3833 50.7879 65.4473 50.6599 65.5113 50.5959C65.9593 50.0199 66.1513 48.2279 65.8633 47.4279C65.5753 46.6599 64.8393 46.0199 64.1993 45.9879Z" stroke="url(#paint3_linear_1401_1827)" stroke-width="2" mask="url(#path-3-outside-1_1401_1827)"/>
<path d="M70.3033 43.2039L70.3673 43.2679C70.5593 43.0759 70.7193 43.0439 70.9113 43.1719C71.0073 43.2679 71.1353 43.8439 71.3913 45.3479L71.6153 45.1239C71.8393 44.8999 72.1593 44.8039 73.3113 44.5799C74.0473 44.4199 76.2233 44.4199 76.7353 44.5799C77.2153 44.7399 77.4713 44.9319 77.6313 45.2519C77.6953 45.3799 77.7913 45.5719 77.8553 45.6679C77.9513 45.8279 78.2073 46.6919 78.2073 46.8519C78.2073 46.9479 77.8873 47.2039 77.7593 47.2039C77.5673 47.2039 77.3433 46.9479 77.2793 46.6279C77.2153 46.1479 76.7993 45.5079 76.5113 45.3799C76.0313 45.1879 73.4713 45.2199 73.2153 45.4119C73.1833 45.4439 73.0233 45.4759 72.8633 45.4759C72.7033 45.5079 72.5433 45.5399 72.5433 45.5719C72.5113 45.6039 72.4153 45.6359 72.3193 45.6359C72.1273 45.6359 71.8393 45.9239 71.7753 46.1799C71.7433 46.2759 71.7113 47.8439 71.7113 49.6679C71.7113 53.3159 71.7433 53.1239 71.2953 53.1239C70.9113 53.1239 70.8793 53.0279 70.8153 50.9479C70.7833 49.9239 70.7193 48.9639 70.6873 48.8359C70.6553 48.7079 70.6233 48.1639 70.6233 47.5879C70.6233 47.0119 70.5913 46.4999 70.5593 46.4359C70.5273 46.3719 70.4953 45.9879 70.4633 45.6039C70.4313 45.2199 70.3353 44.6439 70.2713 44.3239C70.1113 43.5239 70.1113 43.3959 70.3033 43.2039Z" stroke="url(#paint4_linear_1401_1827)" stroke-width="2" mask="url(#path-3-outside-1_1401_1827)"/>
<path d="M82.3228 42.3399L82.2908 42.1799C82.3868 42.0199 82.7068 41.9879 82.8988 42.1479C82.9948 42.2439 82.9948 42.3399 82.9948 42.9799C82.9948 43.9399 82.9308 44.9959 82.8668 45.0919C82.8348 45.1239 82.8028 45.5399 82.7708 45.9879C82.7388 46.4359 82.6748 47.0119 82.6108 47.2679C82.5468 47.4919 82.4828 48.0999 82.4508 48.6119C82.4188 49.1239 82.3868 49.5719 82.3868 49.6359C82.3228 49.7639 82.2268 50.7239 82.1628 51.8439C82.1308 53.0279 82.0988 53.0919 81.7148 53.0919C81.3308 53.0919 81.2668 52.8679 81.2988 51.7479C81.2988 51.2039 81.3308 50.6279 81.3948 50.4679C81.5228 49.9559 81.6188 49.1239 81.6828 48.2279C81.7148 47.7799 81.7788 47.3319 81.8108 47.2359C81.8428 47.1399 81.9068 46.6919 81.9388 46.2439C81.9708 45.7959 82.0348 45.3159 82.0668 45.1879C82.0988 45.0599 82.1628 44.3879 82.1948 43.7159C82.2268 42.8519 82.2588 42.4679 82.3228 42.3399Z" stroke="url(#paint5_linear_1401_1827)" stroke-width="2" mask="url(#path-3-outside-1_1401_1827)"/>
<path d="M92.6043 39.3959L92.6363 39.2999C92.7643 39.1399 92.9883 39.1399 93.2123 39.2999C93.3723 39.4279 93.3723 39.4599 93.3723 40.0039C93.3723 40.2919 93.4043 40.7079 93.4683 40.8999C93.5323 41.0919 93.6283 41.5399 93.6923 41.8599C93.7563 42.1799 93.8843 42.6919 93.9483 42.9799C94.0443 43.2679 94.1723 43.8439 94.2363 44.2599C94.3643 45.1879 94.5563 46.1799 94.7163 46.6919C94.7803 46.9159 94.9403 47.5559 95.1003 48.1319C95.4203 49.4119 95.5483 49.8599 95.7403 50.2759C95.9963 50.8519 96.3163 51.8119 96.4123 52.2599C96.5083 52.7079 96.5403 52.8039 96.7963 53.4119C96.9563 53.7959 96.8603 54.0519 96.5403 54.1159C96.1563 54.2119 95.8683 53.7319 95.6123 52.5479C95.5803 52.3559 95.4523 51.9719 95.3563 51.7159C95.2603 51.4599 95.1643 51.1399 95.1323 51.0119C95.1003 50.8839 95.0043 50.6279 94.9083 50.4679C94.7163 50.0519 94.3963 49.0599 94.3643 48.8359C94.3643 48.5479 94.3003 48.5479 94.3003 48.8359C94.3003 48.9639 94.2363 49.2519 94.1403 49.4759C94.0443 49.6999 93.9483 49.9559 93.9483 50.0199C93.9163 50.0839 93.7883 50.3079 93.6603 50.4999C93.5323 50.6919 93.4043 50.8519 93.4043 50.8839C93.4043 50.9479 92.8603 51.4599 92.7963 51.4599C92.7643 51.4599 92.5403 51.5879 92.2843 51.7479C92.0603 51.9079 91.7723 52.0679 91.6443 52.0999C91.3883 52.1639 91.0683 52.2919 90.9083 52.4199C90.5563 52.7079 89.0523 52.6759 87.9963 52.3239C87.1003 52.0359 86.4283 51.2039 86.3003 50.1799C86.2363 49.7319 86.2043 46.7559 86.2683 46.3399C86.5243 44.7079 87.1003 43.1719 87.7723 42.4039C87.9003 42.2439 88.0923 41.9559 88.1883 41.7639C88.2843 41.5719 88.4123 41.3799 88.4763 41.3159C88.5403 41.2519 88.7003 41.0599 88.8283 40.8999C89.1483 40.5159 89.4043 40.4519 90.2043 40.4839C91.3243 40.5159 91.9643 40.6439 92.2843 40.8999C92.3803 40.9959 92.3803 40.9639 92.3803 40.4519C92.3803 39.8759 92.4443 39.5559 92.6043 39.3959ZM91.7403 41.5399L91.6443 41.3479L89.7243 41.2519L89.4043 41.6679C89.2123 41.8919 89.0203 42.1799 88.9563 42.3079C88.8923 42.4359 88.7323 42.6919 88.5723 42.8839C88.0283 43.5559 87.3563 45.2199 87.3563 45.8599C87.3563 45.9559 87.3243 46.1799 87.2603 46.3399C87.1003 46.8519 87.1643 49.5399 87.3563 50.2759C87.6443 51.2999 88.1243 51.5879 89.7243 51.6519C90.3323 51.6839 90.3643 51.6839 90.8443 51.4599C91.1003 51.3319 91.3563 51.2359 91.4203 51.2359C91.5483 51.2359 91.8043 51.0759 91.9643 50.9159C92.0283 50.8519 92.1563 50.7879 92.2523 50.7559C92.5403 50.6919 93.1483 49.8599 93.3723 49.2519C93.5963 48.6759 93.6283 47.2679 93.4683 46.8519C93.4043 46.7239 93.3083 46.4999 93.2443 46.3399C93.1803 46.1799 93.0843 45.8919 92.9883 45.7319C92.7003 44.9959 92.6043 44.3879 92.5723 42.8839C92.5403 41.4119 92.5403 41.5079 92.3803 41.6359C92.1883 41.7959 91.9643 41.7639 91.7403 41.5399Z" stroke="url(#paint6_linear_1401_1827)" stroke-width="2" mask="url(#path-3-outside-1_1401_1827)"/>
<path d="M100.244 38.8839C100.372 38.7879 100.692 38.8519 100.788 38.9479C100.884 39.0759 100.948 39.7159 100.98 40.8999C101.012 41.6999 101.14 43.2679 101.172 43.3319C101.204 43.3639 101.204 45.2519 101.204 47.5559C101.204 52.0999 101.172 53.0279 100.916 53.5079C100.884 53.6039 100.852 53.7639 100.852 53.8599C100.852 54.0199 100.596 54.2759 100.404 54.2759C99.9238 54.2759 99.8278 53.5079 100.244 52.7079C100.372 52.4839 100.372 51.9719 100.372 47.7799C100.404 44.3559 100.404 43.5879 100.308 43.0439C100.244 42.6919 100.212 42.3399 100.212 42.2759C100.212 42.1159 100.084 40.0359 100.052 39.5239C100.02 39.2039 100.084 38.9799 100.244 38.8839Z" stroke="url(#paint7_linear_1401_1827)" stroke-width="2" mask="url(#path-3-outside-1_1401_1827)"/>
<path d="M106.633 40.4839C107.145 40.3559 107.337 40.6439 107.721 40.8679C107.913 40.9959 108.105 41.0919 108.137 41.0919C108.233 41.0919 109.097 41.8279 109.193 41.9879C109.257 42.0839 109.449 42.3719 109.641 42.6599C110.121 43.3959 110.633 44.4839 110.601 44.6759C110.505 45.0279 110.057 45.0599 109.801 44.7399C109.641 44.5159 109.609 44.4839 109.193 43.6199C109.065 43.3319 108.873 43.0119 108.777 42.9159C108.681 42.8199 108.553 42.6599 108.521 42.5639C108.457 42.3399 107.977 41.9559 107.433 41.6679C107.113 41.5079 107.049 41.5079 106.825 41.5399C106.569 41.6039 105.929 42.1159 105.929 42.2759C105.929 42.3079 105.833 42.4999 105.673 42.6919C105.257 43.2999 105.225 43.4599 105.193 45.3799C105.161 46.3399 105.161 46.4039 105.321 46.7239C105.545 47.1719 105.545 47.1719 107.017 47.2999C107.721 47.3639 108.553 47.4599 108.873 47.4919C109.193 47.5239 109.577 47.5559 109.705 47.5559C110.569 47.6199 111.753 48.1639 112.265 48.7079C112.745 49.2519 112.777 49.3479 112.777 50.4359C112.777 51.5239 112.745 51.6519 112.265 52.0359C112.041 52.1959 111.017 52.6759 110.889 52.6759C110.857 52.6759 110.665 52.7399 110.441 52.8359C109.513 53.1879 107.113 53.3159 106.921 52.9959C106.537 52.4839 106.185 51.7479 106.185 51.4919C106.185 51.2999 106.409 51.1079 106.633 51.1079C106.889 51.1079 107.081 51.2999 107.177 51.6199C107.209 51.7799 107.305 51.9719 107.529 52.2279H108.361C109.129 52.2279 109.673 52.1319 110.089 51.9399C110.153 51.9079 110.313 51.8439 110.473 51.7799C110.601 51.7159 110.761 51.6839 110.825 51.6839C110.985 51.6839 111.625 51.3639 111.849 51.1719C111.977 51.0439 111.977 50.9799 111.977 49.4759L111.689 49.1559C111.081 48.4839 110.313 48.2599 107.497 48.0039C105.097 47.7799 105.097 47.7799 104.393 46.4359V45.4119C104.393 43.4599 104.521 42.6919 104.905 42.2119C104.937 42.1799 105.065 41.9559 105.193 41.7319C105.321 41.4759 105.449 41.2839 105.545 41.2519C105.609 41.2199 105.737 41.1239 105.801 41.0599C105.993 40.8039 106.377 40.5479 106.633 40.4839Z" stroke="url(#paint8_linear_1401_1827)" stroke-width="2" mask="url(#path-3-outside-1_1401_1827)"/>
<defs>
<filter id="filter0_f_1401_1827" x="-0.00019455" y="-0.00019455" width="140.962" height="89.9921" filterUnits="userSpaceOnUse" color-interpolation-filters="sRGB">
<feFlood flood-opacity="0" result="BackgroundImageFix"/>
<feBlend mode="normal" in="SourceGraphic" in2="BackgroundImageFix" result="shape"/>
<feGaussianBlur stdDeviation="8.4" result="effect1_foregroundBlur_1401_1827"/>
</filter>
<linearGradient id="paint0_linear_1401_1827" x1="69.5096" y1="42.4252" x2="70.2984" y2="61.0038" gradientUnits="userSpaceOnUse">
<stop offset="0.201426" stop-color="#B4B4B4"/>
<stop offset="1" stop-color="#2D2D2D"/>
</linearGradient>
<linearGradient id="paint1_linear_1401_1827" x1="69.5096" y1="42.4252" x2="70.2984" y2="61.0038" gradientUnits="userSpaceOnUse">
<stop offset="0.201426" stop-color="#B4B4B4"/>
<stop offset="1" stop-color="#2D2D2D"/>
</linearGradient>
<linearGradient id="paint2_linear_1401_1827" x1="69.5096" y1="42.4252" x2="70.2984" y2="61.0038" gradientUnits="userSpaceOnUse">
<stop offset="0.201426" stop-color="#B4B4B4"/>
<stop offset="1" stop-color="#2D2D2D"/>
</linearGradient>
<linearGradient id="paint3_linear_1401_1827" x1="69.5096" y1="42.4252" x2="70.2984" y2="61.0038" gradientUnits="userSpaceOnUse">
<stop offset="0.201426" stop-color="#B4B4B4"/>
<stop offset="1" stop-color="#2D2D2D"/>
</linearGradient>
<linearGradient id="paint4_linear_1401_1827" x1="69.5096" y1="42.4252" x2="70.2984" y2="61.0038" gradientUnits="userSpaceOnUse">
<stop offset="0.201426" stop-color="#B4B4B4"/>
<stop offset="1" stop-color="#2D2D2D"/>
</linearGradient>
<linearGradient id="paint5_linear_1401_1827" x1="69.5096" y1="42.4252" x2="70.2984" y2="61.0038" gradientUnits="userSpaceOnUse">
<stop offset="0.201426" stop-color="#B4B4B4"/>
<stop offset="1" stop-color="#2D2D2D"/>
</linearGradient>
<linearGradient id="paint6_linear_1401_1827" x1="69.5096" y1="42.4252" x2="70.2984" y2="61.0038" gradientUnits="userSpaceOnUse">
<stop offset="0.201426" stop-color="#B4B4B4"/>
<stop offset="1" stop-color="#2D2D2D"/>
</linearGradient>
<linearGradient id="paint7_linear_1401_1827" x1="69.5096" y1="42.4252" x2="70.2984" y2="61.0038" gradientUnits="userSpaceOnUse">
<stop offset="0.201426" stop-color="#B4B4B4"/>
<stop offset="1" stop-color="#2D2D2D"/>
</linearGradient>
<linearGradient id="paint8_linear_1401_1827" x1="69.5096" y1="42.4252" x2="70.2984" y2="61.0038" gradientUnits="userSpaceOnUse">
<stop offset="0.201426" stop-color="#B4B4B4"/>
<stop offset="1" stop-color="#2D2D2D"/>
</linearGradient>
</defs>
</svg>
